<?xml version="1.0" encoding="utf-8"?>
<!-- Generator: Adobe Illustrator 25.2.0, SVG Export Plug-In . SVG Version: 6.00 Build 0)  -->
<svg version="1.1" id="Слой_4" xmlns="http://www.w3.org/2000/svg" xmlns:xlink="http://www.w3.org/1999/xlink" x="0px" y="0px"
	 viewBox="0 0 500 275" style="enable-background:new 0 0 500 275;" xml:space="preserve">
<style type="text/css">
	.st0{fill:url(#SVGID_1_);}
	.st1{fill:#B1ABB5;stroke:#B1ABB5;stroke-width:1.0601;stroke-miterlimit:10;}
	.st2{fill:#463E43;}
	.st3{fill:#786E79;}
	.st4{fill:#FFFFFF;}
	.st5{fill:#2E396D;}
	.st6{fill:#B1ABB5;stroke:#B1ABB5;stroke-width:1.082;stroke-miterlimit:10;}
	.st7{fill:#453E43;}
	.st8{fill:#003B7D;}
	.st9{fill:#42528E;}
	.st10{fill:#B1ABB5;}
	.st11{enable-background:new    ;}
	.st12{fill:#F88604;}
	.st13{fill:#FBA615;}
	.st14{fill:url(#SVGID_2_);}
	.st15{fill:#3A4B84;}
	.st16{fill:url(#SVGID_3_);}
	.st17{fill:none;stroke:#B1ABB5;stroke-width:2.1641;stroke-miterlimit:10;}
	.st18{fill:#262225;}
	.st19{fill:none;stroke:#B1ABB5;stroke-width:2;stroke-miterlimit:10;}
</style>
<g>
	<linearGradient id="SVGID_1_" gradientUnits="userSpaceOnUse" x1="321.3411" y1="41.0403" x2="321.3411" y2="124.544">
		<stop  offset="0" style="stop-color:#F88604"/>
		<stop  offset="1" style="stop-color:#FFFFFF;stop-opacity:0"/>
	</linearGradient>
	<polygon class="st0" points="335.8,53.9 335.8,129.5 306.9,118.4 306.9,42.7 	"/>
	<g>
		<path class="st1" d="M277.8,223.2l-0.3-0.2l-76-43.8l23.3-13.4l0.3,0.2l76,43.9L277.8,223.2z M204.2,179.2l73.6,42.4l20.5-11.8
			l-73.6-42.4L204.2,179.2z"/>
		<g>
			<g>
				<path class="st2" d="M235.2,184.1c-0.4,0-0.7-0.3-0.7-0.7v-39.3c0-0.4,0.3-0.7,0.7-0.7c0.4,0,0.7,0.3,0.7,0.7v39.3
					C235.9,183.8,235.6,184.1,235.2,184.1z"/>
				<g>
					<g>
						<rect x="229.7" y="121.1" class="st2" width="11.1" height="23.1"/>
						<path class="st2" d="M239.2,146.5c-2.2,1.2-5.7,1.2-7.8,0c-2.2-1.2-2.2-3.3,0-4.5c2.2-1.2,5.7-1.2,7.8,0
							C241.3,143.2,241.3,145.2,239.2,146.5z"/>
					</g>
				</g>
			</g>
			<g>
				<path class="st2" d="M273.6,205.6c-0.4,0-0.7-0.3-0.7-0.7v-39.3c0-0.4,0.3-0.7,0.7-0.7c0.4,0,0.7,0.3,0.7,0.7v39.3
					C274.2,205.3,273.9,205.6,273.6,205.6z"/>
				<g>
					<g>
						<rect x="268" y="142.7" class="st2" width="11.1" height="23.1"/>
						<path class="st2" d="M277.5,168c-2.2,1.2-5.7,1.2-7.8,0c-2.2-1.2-2.2-3.3,0-4.5c2.2-1.2,5.7-1.2,7.8,0
							C279.6,164.7,279.6,166.8,277.5,168z"/>
					</g>
				</g>
			</g>
			<g>
				<g>
					<polygon class="st3" points="310.8,181 325.6,172.3 311.5,154.6 307.8,160.7 					"/>
					<path class="st3" d="M203.1,84.3l23.7-13.6c0,0-0.9,13.6-0.9,13.6s-13.6,4.2-13.6,4.2L203.1,84.3z"/>
					<path class="st3" d="M314.9,136.7c-1.8-1-3.5-1.6-5.1-1.9c-2.4-12.5-11.1-25.9-21.5-31.9c-3.1-1.8-6.1-2.8-8.8-3
						c-1.4-15.2-12-32.5-24.8-39.9c-6.7-3.9-12.8-4.3-17.3-2l0,0l-0.2,0.1c-0.1,0.1-0.2,0.1-0.3,0.2l-14,8.2l4.6,3.7
						c-4.2,1.8-6.8,6.5-6.8,13.4c0,12.7,8.9,28.2,20,34.6l74.3,53c8.3,4.8,15,0.9,15-8.7C329.9,153.1,323.2,141.4,314.9,136.7z"/>
					<path class="st4" d="M300.3,145.3c-1.8-1-3.5-1.6-5.1-1.9c-2.4-12.5-11.1-25.9-21.5-31.9c-3.1-1.8-6.1-2.8-8.8-3
						c-1.4-15.2-12-32.5-24.8-39.9c-13.8-8-25-1.5-25,14.4c0,0.5,0,1.1,0,1.6c-10.1-4.7-18,0.6-18,12.5c0,12.7,8.9,28.2,20,34.6
						l83.2,48.1c8.3,4.8,15,0.9,15-8.7C315.2,161.7,308.5,150.1,300.3,145.3z"/>
					<g>
						<path class="st5" d="M213.3,88.5l6.3,2.9l-0.3-6.9c0-0.5,0-1,0-1.4c0-6.1,1.9-10.6,5.2-12.6c3.4-1.9,8.2-1.3,13.5,1.8
							c11.5,6.6,21.4,22.7,22.7,36.6l0.3,3.5l3.5,0.3c2.2,0.2,4.5,1,7,2.4c9.1,5.3,17.3,17.5,19.5,29l0.6,2.9l2.9,0.5
							c1.2,0.2,2.4,0.6,3.7,1.4c7,4,12.9,14.3,12.9,22.3c0,3-0.8,5.2-2.3,6.1c-1.5,0.8-3.8,0.5-6.4-1l-83.2-48.1
							c-9.7-5.6-17.9-19.8-17.9-30.9c0-4.4,1.3-7.7,3.6-9.2c0.9-0.6,2.1-0.9,3.3-0.9C209.7,87.2,211.4,87.7,213.3,88.5z"/>
					</g>
				</g>
				<g>
					<g>
						<path class="st4" d="M254.2,140.6l-10.4-6.1c-0.5-0.3-1-1.1-1-1.7l0-12l12.3,7.2l0,12C255.1,140.7,254.7,141,254.2,140.6z"/>
						<path class="st4" d="M248.1,111.1l-11.2,7.2c-0.5,0.3-0.1,1.4,0.6,1.9l11.5,6.8l11.5,6.8c0.7,0.4,1.1-0.3,0.6-1.1l-11.1-20.4
							C249.5,111.3,248.6,110.8,248.1,111.1z"/>
					</g>
				</g>
			</g>
		</g>
	</g>
	<path class="st6" d="M365,220.1l90.1-52.2l0.3-0.1l38.6,22.3l-90.1,52.2l-0.3,0.1L365,220.1z M455.4,168.9l-88.3,51.2l36.5,21.1
		l88.3-51.2L455.4,168.9z"/>
	<g>
		<g>
			<path class="st3" d="M411.7,206v-3.3h1c0.9-1.5,2.3-2.9,4.4-4.1c7.2-4.1,18.8-4.1,26,0c2.1,1.2,3.5,2.6,4.4,4.1h1v3.2h0
				c0,2.7-1.8,5.4-5.4,7.5c-7.2,4.1-18.8,4.1-26,0C413.5,211.4,411.7,208.7,411.7,206z"/>
			<ellipse class="st7" cx="430.1" cy="202.7" rx="18.4" ry="10.6"/>
		</g>
	</g>
	<g>
		<g>
			<g>
				<path class="st3" d="M418.3,202.9c0.8,0.4,1.9,0.5,2.6,0.1l11.2-6.4c0.3-0.2,0.4-0.4,0.5-0.6l0,0l0-23l-14.9,6.3l0,22.8
					c0,0,0,0.1,0,0.1l0,0h0C417.7,202.4,417.9,202.7,418.3,202.9z"/>
				<path class="st7" d="M417.7,179.2l0,22.8c0,0,0,0.1,0,0.1v0l0,0c0,0.3,0.2,0.6,0.6,0.8c0.4,0.2,0.8,0.3,1.3,0.4l0.1-24.9
					L417.7,179.2z"/>
				<path class="st8" d="M418.1,178.5l11.2-6.4c0.7-0.4,1.8-0.3,2.6,0.1l0,0c0.8,0.4,0.9,1.1,0.2,1.5l-11.2,6.4
					c-0.7,0.4-1.8,0.3-2.6-0.1l0,0C417.5,179.6,417.4,178.9,418.1,178.5z"/>
				<path class="st4" d="M420.9,180.3l11.2-6.4c0.3-0.2,0.5-0.4,0.5-0.7c0,0.2-0.2,0.4-0.4,0.5l-11.2,6.4c-0.7,0.4-1.8,0.3-2.6-0.1
					l0,0c-0.4-0.2-0.6-0.6-0.6-0.8c-0.1,0.3,0.1,0.7,0.6,1h0C419.1,180.6,420.2,180.7,420.9,180.3z"/>
			</g>
		</g>
	</g>
	<path class="st2" d="M366.9,133.7l109-63c1-0.6,1.9-0.6,2.6-0.2l0,0l3.4,2l-2.1,0.3c0,0.3,0.1,0.6,0.1,1v75.3c0,3-1.8,6.4-4,7.7
		L367,219.6l0.6,2.3l-3.4-1.9l0,0c-0.9-0.5-1.4-1.6-1.4-3.3v-75.3C362.8,138.4,364.6,135,366.9,133.7z"/>
	<path class="st3" d="M370.3,221.7l109-63c2.2-1.3,4-4.7,4-7.7V75.8c0-3-1.8-4.3-4-3l-109,63c-2.2,1.3-4,4.7-4,7.7v75.3
		C366.3,221.7,368.1,223,370.3,221.7z"/>
	<path class="st5" d="M370,219.3l109.7-63.3c0.8-0.5,1.4-1.7,1.4-2.7V76.3c0-1-0.6-1.5-1.4-1.1L370,138.6c-0.8,0.5-1.4,1.7-1.4,2.7
		v76.8C368.6,219.2,369.2,219.7,370,219.3z"/>
	<path class="st9" d="M430.5,141.9l9.9-5.7c0.9-0.5,1.6-1.9,1.6-3v-10.8c0-1.2-0.7-1.7-1.6-1.2l-9.9,5.7c-0.9,0.5-1.6,1.9-1.6,3
		v10.8C428.9,141.8,429.6,142.4,430.5,141.9z"/>
	<path class="st4" d="M413.3,151.8l9.9-5.7c0.9-0.5,1.6-1.9,1.6-3v-10.8c0-1.2-0.7-1.7-1.6-1.2l-9.9,5.7c-0.9,0.5-1.6,1.9-1.6,3
		v10.8C411.7,151.8,412.4,152.3,413.3,151.8z"/>
	<path class="st4" d="M430.5,161.1l9.9-5.7c0.9-0.5,1.6-1.9,1.6-3v-10.8c0-1.2-0.7-1.7-1.6-1.2l-9.9,5.7c-0.9,0.5-1.6,1.9-1.6,3
		v10.8C428.9,161.1,429.6,161.6,430.5,161.1z"/>
	<path class="st9" d="M413.3,171.1l9.9-5.7c0.9-0.5,1.6-1.9,1.6-3v-10.8c0-1.2-0.7-1.7-1.6-1.2l-9.9,5.7c-0.9,0.5-1.6,1.9-1.6,3
		v10.8C411.7,171,412.4,171.6,413.3,171.1z"/>
	<path class="st10" d="M25.9,214.3l101.5-58.6l0.5-0.3l61.3,36.1L87.6,250.1l-0.5,0.3L25.9,214.3z M127.9,157.6l-98.3,56.7
		l57.5,33.9l98.3-56.7L127.9,157.6z"/>
	<g>
		<g>
			<g>
				<g>
					<g>
						<g class="st11">
							<path class="st12" d="M313.3,36.6C313.3,36.6,313.3,36.6,313.3,36.6c0.1-0.4,0.3-0.7,0.4-1c0.1-0.2,0.1-0.3,0.2-0.5
								c0.1-0.2,0.2-0.4,0.3-0.6c0.1-0.1,0.1-0.2,0.2-0.3c0.2-0.2,0.3-0.5,0.5-0.7c0,0,0.1-0.1,0.1-0.1c0.2-0.2,0.4-0.5,0.7-0.7
								c0.1-0.1,0.1-0.1,0.2-0.1c0.2-0.2,0.4-0.3,0.6-0.4c0.1,0,0.1-0.1,0.2-0.1c0.3-0.2,0.5-0.3,0.8-0.4l0,0c0,0,0,0,0,0l-5.6,2.3
								c0,0,0,0-0.1,0c-0.2,0.1-0.4,0.2-0.6,0.3c0,0-0.1,0.1-0.1,0.1c-0.1,0-0.1,0.1-0.2,0.1c-0.1,0.1-0.2,0.1-0.3,0.2
								c-0.1,0.1-0.2,0.2-0.3,0.2c-0.1,0-0.1,0.1-0.2,0.1c0,0-0.1,0.1-0.1,0.1c-0.2,0.2-0.4,0.4-0.5,0.6c0,0,0,0,0,0
								c0,0-0.1,0.1-0.1,0.1c-0.1,0.2-0.3,0.3-0.4,0.5c0,0.1-0.1,0.1-0.1,0.2c-0.1,0.1-0.1,0.2-0.2,0.3c-0.1,0.1-0.1,0.2-0.2,0.3
								c-0.1,0.1-0.1,0.2-0.1,0.3c-0.1,0.2-0.2,0.3-0.2,0.5c0,0.1-0.1,0.2-0.1,0.3c-0.1,0.2-0.2,0.4-0.2,0.6c0,0,0,0,0,0.1
								c-0.1,0.3-0.2,0.5-0.2,0.8c0,0.1-0.1,0.2-0.1,0.3c0,0.1-0.1,0.2-0.1,0.3c-0.1,0.4-0.2,0.8-0.2,1.3c-0.1,0.5-0.1,1-0.1,1.4
								c0,0.2,0,0.3,0,0.5c0,0.3,0,0.7,0,1c0,0.2,0,0.4,0,0.6c0,0.3,0,0.6,0.1,1c0,0.2,0,0.4,0.1,0.6c0,0.1,0,0.2,0,0.4
								c0,0.1,0,0.3,0.1,0.4c0.1,0.4,0.1,0.8,0.2,1.2c0,0.1,0,0.3,0.1,0.4c0,0.1,0.1,0.2,0.1,0.3c0.1,0.3,0.1,0.5,0.2,0.8
								c0,0.2,0.1,0.3,0.1,0.5c0,0.1,0.1,0.3,0.1,0.4c0.1,0.2,0.1,0.4,0.2,0.6c0,0.1,0.1,0.3,0.1,0.4c0.1,0.2,0.1,0.4,0.2,0.7
								c0,0.1,0.1,0.3,0.1,0.4c0,0.1,0,0.1,0.1,0.2c0.1,0.4,0.3,0.8,0.5,1.2c0,0,0,0.1,0,0.1c0,0.1,0.1,0.2,0.1,0.2
								c0.1,0.3,0.2,0.5,0.4,0.8c0.1,0.1,0.1,0.2,0.2,0.4c0.1,0.1,0.1,0.3,0.2,0.4c0.1,0.1,0.1,0.2,0.2,0.3c0.1,0.3,0.3,0.6,0.5,0.9
								c0,0.1,0.1,0.1,0.1,0.2c0,0,0,0,0,0c0.2,0.4,0.4,0.7,0.6,1.1c0,0.1,0.1,0.1,0.1,0.2c0.1,0.1,0.2,0.2,0.2,0.4
								c0.1,0.2,0.2,0.3,0.3,0.5c0.1,0.1,0.2,0.3,0.3,0.4c0.1,0.2,0.2,0.3,0.3,0.4c0.1,0.1,0.1,0.2,0.2,0.3c0.1,0.2,0.3,0.3,0.4,0.5
								c0.1,0.2,0.3,0.4,0.4,0.5c0,0.1,0.1,0.1,0.1,0.2c0.1,0.1,0.2,0.2,0.3,0.3c0.2,0.3,0.5,0.5,0.7,0.8c0.1,0.1,0.1,0.1,0.2,0.2
								c0.2,0.2,0.3,0.3,0.5,0.4c0.1,0.1,0.2,0.2,0.3,0.3c0.4,0.3,0.7,0.6,1.1,0.9c3.2,2.4,6.3,3,8.8,2l5.6-2.3
								c-2.4,1-5.6,0.4-8.8-2c-0.4-0.3-0.7-0.6-1.1-0.9c-0.1-0.1-0.2-0.2-0.3-0.3c-0.2-0.2-0.4-0.4-0.7-0.6
								c-0.2-0.2-0.5-0.5-0.7-0.8c-0.2-0.2-0.3-0.3-0.5-0.5c-0.1-0.2-0.3-0.3-0.4-0.5c-0.2-0.2-0.4-0.5-0.6-0.7
								c-0.1-0.1-0.2-0.3-0.3-0.4c-0.2-0.3-0.4-0.6-0.6-0.9c-0.1-0.1-0.2-0.2-0.2-0.4c-0.3-0.4-0.5-0.9-0.8-1.3
								c0-0.1-0.1-0.1-0.1-0.2c-0.2-0.4-0.4-0.8-0.6-1.2c-0.1-0.1-0.1-0.3-0.2-0.4c-0.2-0.4-0.4-0.8-0.5-1.2c0-0.1-0.1-0.2-0.1-0.2
								c-0.2-0.5-0.4-1-0.5-1.4c-0.1-0.1-0.1-0.3-0.1-0.4c-0.1-0.4-0.2-0.7-0.3-1.1c-0.1-0.2-0.1-0.4-0.2-0.6
								c-0.1-0.3-0.2-0.6-0.2-0.9c-0.1-0.3-0.1-0.5-0.2-0.8c-0.1-0.2-0.1-0.5-0.1-0.7c-0.1-0.4-0.1-0.8-0.2-1.2
								c0-0.3-0.1-0.5-0.1-0.8c0-0.2,0-0.4-0.1-0.6c0-0.3,0-0.6-0.1-1c0-0.2,0-0.4,0-0.6c0-0.3,0-0.7,0-1c0-0.2,0-0.3,0-0.5
								c0-0.5,0.1-1,0.1-1.4c0.1-0.5,0.1-0.9,0.2-1.3c0-0.1,0-0.2,0.1-0.3C313.1,37.4,313.2,37,313.3,36.6z"/>
							<g>
								<path class="st13" d="M312.7,39.4c1-8.1,7.1-10.6,13.6-5.7c6.5,4.9,10.8,15.4,9.8,23.5c-1,8.1-7.1,10.7-13.6,5.7
									C316,58,311.6,47.5,312.7,39.4z"/>
							</g>
						</g>
					</g>
					<g>
						<g>
							<path class="st12" d="M315,41.2c0.8-6.5,5.7-8.5,10.9-4.6c5.2,3.9,8.7,12.4,7.8,18.8c-0.8,6.5-5.7,8.5-10.9,4.6
								C317.7,56.1,314.1,47.6,315,41.2z"/>
						</g>
					</g>
					<g>
						
							<ellipse transform="matrix(0.9243 -0.3817 0.3817 0.9243 6.1228 127.4554)" class="st13" cx="324.4" cy="48.3" rx="7.7" ry="13.3"/>
					</g>
				</g>
			</g>
		</g>
		<g id="XMLID_20_">
			<g>
				<g id="XMLID_88_">
					<g>
						<path class="st4" d="M330.7,52.2l-1.3-1c0,0.3-0.1,0.6-0.1,1l-0.1,0.5l1.3,1l-0.2,1.6l-1.3-1l-0.2,1.4l-9.4-7.2l0.2-1.4
							l-1.3-1l0.2-1.6l1.3,1l0.1-1.1c0-0.1,0-0.3,0.1-0.4l-1.3-1l0.2-1.6l1.4,1.1c0.1-0.3,0.3-0.5,0.5-0.7c0.2-0.2,0.5-0.2,0.9-0.2
							c0.4,0,0.7,0.2,1.1,0.5c0.4,0.3,0.8,0.8,1.2,1.3c0.3,0.5,0.6,1.1,0.7,1.7c0.2-0.5,0.6-0.8,1-0.8c0.4,0,0.9,0.2,1.5,0.6
							c0.4,0.3,0.8,0.8,1.2,1.3c0.4,0.5,0.7,1.1,0.9,1.6c0.2,0.5,0.3,1.1,0.3,1.7l1.4,1L330.7,52.2z M325,50.4l2.5,1.9l0.2-1.9
							c0.1-0.7,0.1-1.2,0.1-1.5c0-0.3-0.1-0.7-0.3-1c-0.2-0.3-0.4-0.6-0.8-0.9c-0.3-0.2-0.5-0.3-0.8-0.3c-0.2,0-0.4,0.1-0.5,0.3
							c-0.1,0.2-0.3,0.8-0.4,1.7L325,50.4z M321.2,47.5l2.2,1.7l0.2-1.4c0.1-0.8,0.2-1.3,0.2-1.5c0-0.4-0.1-0.7-0.2-1.1
							c-0.2-0.3-0.4-0.6-0.7-0.9c-0.3-0.2-0.5-0.3-0.7-0.3c-0.2,0-0.3,0.2-0.4,0.5c0,0.2-0.1,0.8-0.3,1.7L321.2,47.5z"/>
					</g>
				</g>
			</g>
		</g>
	</g>
	<linearGradient id="SVGID_2_" gradientUnits="userSpaceOnUse" x1="189.7087" y1="26.2217" x2="189.7087" y2="67.0129">
		<stop  offset="0" style="stop-color:#5A5E6D"/>
		<stop  offset="1" style="stop-color:#FFFFFF;stop-opacity:0"/>
	</linearGradient>
	<rect x="181.5" y="27" class="st14" width="16.5" height="42.4"/>
	<polygon class="st15" points="197.9,27 189.7,31.8 181.5,27 189.7,22.3 	"/>
	<linearGradient id="SVGID_3_" gradientUnits="userSpaceOnUse" x1="406.3657" y1="26.8024" x2="406.3657" y2="92.5256">
		<stop  offset="0" style="stop-color:#5A5E6D"/>
		<stop  offset="1" style="stop-color:#FFFFFF;stop-opacity:0"/>
	</linearGradient>
	<rect x="393.1" y="28.1" class="st16" width="26.5" height="68.3"/>
	<polygon class="st15" points="419.6,28.1 406.4,35.8 393.1,28.1 406.4,20.5 	"/>
	<g>
		<path class="st10" d="M250,267.6l-26-15l26-15l26,15L250,267.6z M226.3,252.6l23.7,13.7l23.7-13.7L250,238.9L226.3,252.6z"/>
		<polygon class="st9" points="267.1,247.7 250,257.5 250,237.8 267.1,227.9 		"/>
		<polygon class="st15" points="250,237.8 232.9,227.9 250,218 267.1,227.9 		"/>
		<polygon class="st5" points="250,257.5 232.9,247.7 232.9,227.9 250,237.8 		"/>
	</g>
	<polyline class="st17" points="383.7,230.8 348.5,251 289.4,215.6 	"/>
	<ellipse class="st10" cx="383.7" cy="230.8" rx="4.2" ry="2.4"/>
	<ellipse class="st10" cx="289.4" cy="215.6" rx="4.2" ry="2.4"/>
	<ellipse class="st10" cx="242.8" cy="202.9" rx="4.2" ry="2.4"/>
	<g>
		<g>
			<g>
				<path class="st7" d="M46.7,203L46.7,203V64.6l55-14.4l10.1-5.9c2.3-1.3,6.4-1.2,9.1,0.4l9.5,5.5l29.4,0L151,183.8
					c0.1,0.9-0.4,1.8-1.6,2.4l-54.9,41.4c-2.3,1.3-6.4,1.2-9.1-0.4l-36.6-21.1C47.3,205.3,46.6,204.1,46.7,203z"/>
				<path class="st3" d="M116.1,43.4c1.7,0,3.5,0.5,4.9,1.3l9.5,5.5l29.4,0V189c0.1,0.9-0.4,1.8-1.6,2.4l-63.6,36.3
					c-1.1,0.6-2.6,0.9-4.2,0.9L89.7,88.9L116.1,43.4z"/>
				<path class="st7" d="M94.6,88.9l63.6-36.3c2.3-1.3,2-3.7-0.7-5.2l-36.6-21.1c-2.7-1.6-6.7-1.7-9.1-0.4L48.2,62.2
					c-2.3,1.3-2,3.7,0.7,5.2l36.6,21.1C88.2,90.1,92.2,90.2,94.6,88.9z"/>
				<path class="st10" d="M48.9,64.8l36.6,21.1c2.7,1.6,6.7,1.7,9.1,0.4l63.6-36.3c0.5-0.3,0.9-0.7,1.2-1c0.8,1.3,0.4,2.7-1.2,3.6
					L94.6,88.9c-2.3,1.3-6.4,1.2-9.1-0.4L48.9,67.4c-2.1-1.2-2.7-2.9-1.8-4.2C47.4,63.8,48,64.3,48.9,64.8z"/>
				<g>
					<path class="st3" d="M92.8,74.2l42.4-24.5c1.1-0.6,1-1.7-0.3-2.5l-17.1-9.9c-1.3-0.7-3.2-0.8-4.2-0.2L71.1,61.7
						c-1.1,0.6-1,1.7,0.3,2.5L88.5,74C89.8,74.7,91.7,74.8,92.8,74.2z"/>
					<g>
						<path class="st12" d="M115.6,50.8l2.5-1.4c0.2-0.1,0.1-0.2,0-0.3l-2.4-1.4c-0.2-0.1-0.4-0.1-0.6,0l-2.5,1.4
							c-0.2,0.1-0.1,0.2,0,0.3l2.4,1.4C115.2,50.8,115.5,50.8,115.6,50.8z"/>
						<path class="st4" d="M107.4,55.5l2.5-1.4c0.2-0.1,0.1-0.2,0-0.3l-2.4-1.4c-0.2-0.1-0.4-0.1-0.6,0l-2.5,1.4
							c-0.2,0.1-0.1,0.2,0,0.3l2.4,1.4C107,55.5,107.3,55.6,107.4,55.5z"/>
						<path class="st4" d="M99.2,60.2l2.5-1.4c0.2-0.1,0.1-0.2,0-0.3l-2.4-1.4c-0.2-0.1-0.4-0.1-0.6,0l-2.5,1.4
							c-0.2,0.1-0.1,0.2,0,0.3l2.4,1.4C98.8,60.3,99.1,60.3,99.2,60.2z"/>
						<path class="st12" d="M91,64.9l2.5-1.4c0.2-0.1,0.1-0.2,0-0.3l-2.4-1.4c-0.2-0.1-0.4-0.1-0.6,0L88,63.2
							c-0.2,0.1-0.1,0.2,0,0.3l2.4,1.4C90.6,65,90.9,65,91,64.9z"/>
					</g>
					<path class="st18" d="M135.1,49.6L135.1,49.6c-0.1,0-0.2-0.1-0.3-0.1l-17.1-9.9c-1.3-0.7-3.2-0.8-4.2-0.2L71.1,64
						c-1-0.7-1.1-1.7-0.1-2.3l42.4-24.5c1.1-0.6,3-0.5,4.2,0.2l17.1,9.9C136.1,47.9,136.2,49,135.1,49.6z"/>
				</g>
			</g>
			<g>
				<path class="st3" d="M78.3,116.9l-24.1-13.8c-1.4-0.8-2.5-2.9-2.5-4.7v-8.6c0-1.8,1.1-2.6,2.5-1.9l24.1,13.8
					c1.4,0.8,2.5,2.9,2.5,4.7v8.6C80.8,116.9,79.7,117.7,78.3,116.9z"/>
				<g>
					<path class="st12" d="M71.1,107l-2.2-1.3c-0.3-0.2-0.5-0.6-0.5-1v-2.4c0-0.4,0.2-0.6,0.5-0.4l2.2,1.3c0.3,0.2,0.5,0.6,0.5,1
						v2.4C71.6,107,71.4,107.1,71.1,107z"/>
					<path class="st12" d="M63.7,102.7l-2.2-1.3c-0.3-0.2-0.5-0.6-0.5-1v-2.4c0-0.4,0.2-0.6,0.5-0.4l2.2,1.3c0.3,0.2,0.5,0.6,0.5,1
						v2.4C64.3,102.7,64,102.9,63.7,102.7z"/>
				</g>
			</g>
			<g>
				<path class="st3" d="M78.3,179.1l-24.1-13.8c-1.4-0.8-2.5-2.9-2.5-4.7v-8.6c0-1.8,1.1-2.6,2.5-1.9L78.3,164
					c1.4,0.8,2.5,2.9,2.5,4.7v8.6C80.8,179.1,79.7,179.9,78.3,179.1z"/>
				<g>
					<path class="st4" d="M71.1,169.2l-2.2-1.3c-0.3-0.2-0.5-0.6-0.5-1v-2.4c0-0.4,0.2-0.6,0.5-0.4l2.2,1.3c0.3,0.2,0.5,0.6,0.5,1
						v2.4C71.6,169.2,71.4,169.4,71.1,169.2z"/>
					<path class="st4" d="M63.7,164.9l-2.2-1.3c-0.3-0.2-0.5-0.6-0.5-1v-2.4c0-0.4,0.2-0.6,0.5-0.4l2.2,1.3c0.3,0.2,0.5,0.6,0.5,1
						v2.4C64.3,164.9,64,165.1,63.7,164.9z"/>
				</g>
			</g>
			<g>
				<path class="st3" d="M78.3,210.3l-24.1-13.8c-1.4-0.8-2.5-2.9-2.5-4.7v-8.6c0-1.8,1.1-2.6,2.5-1.9l24.1,13.8
					c1.4,0.8,2.5,2.9,2.5,4.7v8.6C80.8,210.2,79.7,211,78.3,210.3z"/>
				<g>
					<path class="st12" d="M71.1,200.3l-2.2-1.3c-0.3-0.2-0.5-0.6-0.5-1v-2.4c0-0.4,0.2-0.6,0.5-0.4l2.2,1.3c0.3,0.2,0.5,0.6,0.5,1
						v2.4C71.6,200.3,71.4,200.5,71.1,200.3z"/>
					<path class="st4" d="M63.7,196l-2.2-1.3c-0.3-0.2-0.5-0.6-0.5-1v-2.4c0-0.4,0.2-0.6,0.5-0.4l2.2,1.3c0.3,0.2,0.5,0.6,0.5,1v2.4
						C64.3,196,64,196.2,63.7,196z"/>
				</g>
			</g>
			<g>
				<path class="st3" d="M78.3,148l-24.1-13.8c-1.4-0.8-2.5-2.9-2.5-4.7v-8.6c0-1.8,1.1-2.6,2.5-1.9l24.1,13.8
					c1.4,0.8,2.5,2.9,2.5,4.7v8.6C80.8,148,79.7,148.8,78.3,148z"/>
				<g>
					<path class="st12" d="M71.1,138.1l-2.2-1.3c-0.3-0.2-0.5-0.6-0.5-1v-2.4c0-0.4,0.2-0.6,0.5-0.4l2.2,1.3c0.3,0.2,0.5,0.6,0.5,1
						v2.4C71.6,138.1,71.4,138.3,71.1,138.1z"/>
					<path class="st4" d="M63.7,133.8l-2.2-1.3c-0.3-0.2-0.5-0.6-0.5-1v-2.4c0-0.4,0.2-0.6,0.5-0.4l2.2,1.3c0.3,0.2,0.5,0.6,0.5,1
						v2.4C64.3,133.8,64,134,63.7,133.8z"/>
				</g>
			</g>
		</g>
		<g>
			<path class="st10" d="M99.2,107.5l55.6-32.1c1.2-0.7,2.3-2.6,2.3-4.3V60.5c0-1.7-1-2.4-2.3-1.7L99.2,90.9
				c-1.2,0.7-2.3,2.6-2.3,4.3v10.6C96.9,107.5,98,108.2,99.2,107.5z"/>
			<path class="st3" d="M142.2,75.8l7.8-4.5c0.6-0.4,1.1-1.3,1.1-2.1l0,0c0-0.8-0.5-1.2-1.1-0.8l-7.8,4.5c-0.6,0.4-1.1,1.3-1.1,2.1
				l0,0C141.1,75.8,141.6,76.2,142.2,75.8z"/>
			<path class="st7" d="M135.6,78.2c0,0.8,0.6,1.1,1.3,0.7c0.7-0.4,1.3-1.4,1.3-2.2c0-0.8-0.6-1.1-1.3-0.7
				C136.2,76.4,135.6,77.4,135.6,78.2z"/>
			<path class="st7" d="M131.1,80.8c0,0.8,0.6,1.1,1.3,0.7c0.7-0.4,1.3-1.4,1.3-2.2c0-0.8-0.6-1.1-1.3-0.7
				C131.6,79,131.1,80,131.1,80.8z"/>
			<path class="st12" d="M126.6,83.4c0,0.8,0.6,1.1,1.3,0.7c0.7-0.4,1.3-1.4,1.3-2.2s-0.6-1.1-1.3-0.7
				C127.1,81.6,126.6,82.6,126.6,83.4z"/>
			<path class="st7" d="M122,86c0,0.8,0.6,1.1,1.3,0.7c0.7-0.4,1.3-1.4,1.3-2.2c0-0.8-0.6-1.1-1.3-0.7C122.6,84.2,122,85.2,122,86z"
				/>
			<path class="st7" d="M103,99.4l2.6-1.5c0.4-0.2,0.7-0.8,0.7-1.4v-2.8c0-0.5-0.3-0.8-0.7-0.5l-2.6,1.5c-0.4,0.2-0.7,0.8-0.7,1.4
				v2.8C102.3,99.3,102.6,99.6,103,99.4z"/>
		</g>
		<g>
			<path class="st10" d="M99.2,126.2l55.6-32.1c1.2-0.7,2.3-2.6,2.3-4.3V79.2c0-1.7-1-2.4-2.3-1.7l-55.6,32.1
				c-1.2,0.7-2.3,2.6-2.3,4.3v10.6C96.9,126.1,98,126.9,99.2,126.2z"/>
			<path class="st3" d="M142.2,94.5l7.8-4.5c0.6-0.4,1.1-1.3,1.1-2.1l0,0c0-0.8-0.5-1.2-1.1-0.8l-7.8,4.5c-0.6,0.4-1.1,1.3-1.1,2.1
				l0,0C141.1,94.5,141.6,94.9,142.2,94.5z"/>
			<path class="st4" d="M135.6,96.9c0,0.8,0.6,1.1,1.3,0.7c0.7-0.4,1.3-1.4,1.3-2.2c0-0.8-0.6-1.1-1.3-0.7
				C136.2,95.1,135.6,96.1,135.6,96.9z"/>
			<path class="st7" d="M131.1,99.5c0,0.8,0.6,1.1,1.3,0.7c0.7-0.4,1.3-1.4,1.3-2.2c0-0.8-0.6-1.1-1.3-0.7
				C131.6,97.7,131.1,98.7,131.1,99.5z"/>
			<path class="st12" d="M126.6,102.1c0,0.8,0.6,1.1,1.3,0.7c0.7-0.4,1.3-1.4,1.3-2.2c0-0.8-0.6-1.1-1.3-0.7
				C127.1,100.3,126.6,101.3,126.6,102.1z"/>
			<path class="st7" d="M122,104.7c0,0.8,0.6,1.1,1.3,0.7c0.7-0.4,1.3-1.4,1.3-2.2c0-0.8-0.6-1.1-1.3-0.7
				C122.6,102.9,122,103.9,122,104.7z"/>
			<path class="st7" d="M103,118l2.6-1.5c0.4-0.2,0.7-0.8,0.7-1.4v-2.8c0-0.5-0.3-0.8-0.7-0.5l-2.6,1.5c-0.4,0.2-0.7,0.8-0.7,1.4
				v2.8C102.3,118,102.6,118.3,103,118z"/>
		</g>
		<g>
			<path class="st10" d="M99.2,144.9l55.6-32.1c1.2-0.7,2.3-2.6,2.3-4.3V97.9c0-1.7-1-2.4-2.3-1.7l-55.6,32.1
				c-1.2,0.7-2.3,2.6-2.3,4.3v10.6C96.9,144.8,98,145.6,99.2,144.9z"/>
			<path class="st3" d="M142.2,113.2l7.8-4.5c0.6-0.4,1.1-1.3,1.1-2.1l0,0c0-0.8-0.5-1.2-1.1-0.8l-7.8,4.5c-0.6,0.4-1.1,1.3-1.1,2.1
				l0,0C141.1,113.2,141.6,113.6,142.2,113.2z"/>
			<path class="st4" d="M135.6,115.6c0,0.8,0.6,1.1,1.3,0.7c0.7-0.4,1.3-1.4,1.3-2.2c0-0.8-0.6-1.1-1.3-0.7
				C136.2,113.8,135.6,114.7,135.6,115.6z"/>
			<path class="st7" d="M131.1,118.2c0,0.8,0.6,1.1,1.3,0.7c0.7-0.4,1.3-1.4,1.3-2.2c0-0.8-0.6-1.1-1.3-0.7
				C131.6,116.4,131.1,117.4,131.1,118.2z"/>
			<path class="st12" d="M126.6,120.8c0,0.8,0.6,1.1,1.3,0.7c0.7-0.4,1.3-1.4,1.3-2.2c0-0.8-0.6-1.1-1.3-0.7
				C127.1,119,126.6,120,126.6,120.8z"/>
			<path class="st7" d="M122,123.4c0,0.8,0.6,1.1,1.3,0.7c0.7-0.4,1.3-1.4,1.3-2.2c0-0.8-0.6-1.1-1.3-0.7
				C122.6,121.6,122,122.6,122,123.4z"/>
			<path class="st7" d="M103,136.7l2.6-1.5c0.4-0.2,0.7-0.8,0.7-1.4v-2.8c0-0.5-0.3-0.8-0.7-0.5L103,132c-0.4,0.2-0.7,0.8-0.7,1.4
				v2.8C102.3,136.7,102.6,136.9,103,136.7z"/>
		</g>
		<g>
			<path class="st10" d="M99.2,163.6l55.6-32.1c1.2-0.7,2.3-2.6,2.3-4.3v-10.6c0-1.7-1-2.4-2.3-1.7L99.2,147
				c-1.2,0.7-2.3,2.6-2.3,4.3v10.6C96.9,163.5,98,164.3,99.2,163.6z"/>
			<path class="st3" d="M142.2,131.9l7.8-4.5c0.6-0.4,1.1-1.3,1.1-2.1l0,0c0-0.8-0.5-1.2-1.1-0.8l-7.8,4.5c-0.6,0.4-1.1,1.3-1.1,2.1
				l0,0C141.1,131.9,141.6,132.2,142.2,131.9z"/>
			<path class="st7" d="M135.6,134.2c0,0.8,0.6,1.1,1.3,0.7c0.7-0.4,1.3-1.4,1.3-2.2c0-0.8-0.6-1.1-1.3-0.7
				C136.2,132.4,135.6,133.4,135.6,134.2z"/>
			<path class="st7" d="M131.1,136.9c0,0.8,0.6,1.1,1.3,0.7c0.7-0.4,1.3-1.4,1.3-2.2c0-0.8-0.6-1.1-1.3-0.7
				C131.6,135,131.1,136,131.1,136.9z"/>
			<path class="st12" d="M126.6,139.5c0,0.8,0.6,1.1,1.3,0.7c0.7-0.4,1.3-1.4,1.3-2.2c0-0.8-0.6-1.1-1.3-0.7
				C127.1,137.7,126.6,138.6,126.6,139.5z"/>
			<path class="st7" d="M122,142.1c0,0.8,0.6,1.1,1.3,0.7c0.7-0.4,1.3-1.4,1.3-2.2c0-0.8-0.6-1.1-1.3-0.7
				C122.6,140.3,122,141.3,122,142.1z"/>
			<path class="st5" d="M103,155.4l2.6-1.5c0.4-0.2,0.7-0.8,0.7-1.4v-2.8c0-0.5-0.3-0.8-0.7-0.5l-2.6,1.5c-0.4,0.2-0.7,0.8-0.7,1.4
				v2.8C102.3,155.4,102.6,155.6,103,155.4z"/>
		</g>
		<g>
			<path class="st10" d="M99.2,182.2l55.6-32.1c1.2-0.7,2.3-2.6,2.3-4.3v-10.6c0-1.7-1-2.4-2.3-1.7l-55.6,32.1
				c-1.2,0.7-2.3,2.6-2.3,4.3v10.6C96.9,182.2,98,182.9,99.2,182.2z"/>
			<path class="st3" d="M142.2,150.6l7.8-4.5c0.6-0.4,1.1-1.3,1.1-2.1l0,0c0-0.8-0.5-1.2-1.1-0.8l-7.8,4.5c-0.6,0.4-1.1,1.3-1.1,2.1
				l0,0C141.1,150.5,141.6,150.9,142.2,150.6z"/>
			<path class="st7" d="M135.6,152.9c0,0.8,0.6,1.1,1.3,0.7c0.7-0.4,1.3-1.4,1.3-2.2c0-0.8-0.6-1.1-1.3-0.7
				C136.2,151.1,135.6,152.1,135.6,152.9z"/>
			<path class="st4" d="M131.1,155.5c0,0.8,0.6,1.1,1.3,0.7c0.7-0.4,1.3-1.4,1.3-2.2c0-0.8-0.6-1.1-1.3-0.7
				C131.6,153.7,131.1,154.7,131.1,155.5z"/>
			<path class="st12" d="M126.6,158.1c0,0.8,0.6,1.1,1.3,0.7c0.7-0.4,1.3-1.4,1.3-2.2c0-0.8-0.6-1.1-1.3-0.7
				C127.1,156.3,126.6,157.3,126.6,158.1z"/>
			<path class="st4" d="M122,160.8c0,0.8,0.6,1.1,1.3,0.7c0.7-0.4,1.3-1.4,1.3-2.2c0-0.8-0.6-1.1-1.3-0.7
				C122.6,158.9,122,159.9,122,160.8z"/>
			<path class="st5" d="M103,174.1l2.6-1.5c0.4-0.2,0.7-0.8,0.7-1.4v-2.8c0-0.5-0.3-0.8-0.7-0.5l-2.6,1.5c-0.4,0.2-0.7,0.8-0.7,1.4
				v2.8C102.3,174.1,102.6,174.3,103,174.1z"/>
		</g>
		<g>
			<path class="st10" d="M99.2,200.9l55.6-32.1c1.2-0.7,2.3-2.6,2.3-4.3v-10.6c0-1.7-1-2.4-2.3-1.7l-55.6,32.1
				c-1.2,0.7-2.3,2.6-2.3,4.3v10.6C96.9,200.9,98,201.6,99.2,200.9z"/>
			<path class="st3" d="M142.2,169.2l7.8-4.5c0.6-0.4,1.1-1.3,1.1-2.1l0,0c0-0.8-0.5-1.2-1.1-0.8l-7.8,4.5c-0.6,0.4-1.1,1.3-1.1,2.1
				l0,0C141.1,169.2,141.6,169.6,142.2,169.2z"/>
			<path class="st7" d="M135.6,171.6c0,0.8,0.6,1.1,1.3,0.7c0.7-0.4,1.3-1.4,1.3-2.2c0-0.8-0.6-1.1-1.3-0.7
				C136.2,169.8,135.6,170.8,135.6,171.6z"/>
			<path class="st7" d="M131.1,174.2c0,0.8,0.6,1.1,1.3,0.7s1.3-1.4,1.3-2.2c0-0.8-0.6-1.1-1.3-0.7
				C131.6,172.4,131.1,173.4,131.1,174.2z"/>
			<path class="st5" d="M126.6,176.8c0,0.8,0.6,1.1,1.3,0.7c0.7-0.4,1.3-1.4,1.3-2.2c0-0.8-0.6-1.1-1.3-0.7
				C127.1,175,126.6,176,126.6,176.8z"/>
			<path class="st7" d="M122,179.4c0,0.8,0.6,1.1,1.3,0.7c0.7-0.4,1.3-1.4,1.3-2.2c0-0.8-0.6-1.1-1.3-0.7
				C122.6,177.6,122,178.6,122,179.4z"/>
			<path class="st7" d="M103,192.8l2.6-1.5c0.4-0.2,0.7-0.8,0.7-1.4v-2.8c0-0.5-0.3-0.8-0.7-0.5l-2.6,1.5c-0.4,0.2-0.7,0.8-0.7,1.4
				v2.8C102.3,192.7,102.6,193,103,192.8z"/>
		</g>
		<g>
			<path class="st10" d="M99.2,219.6l55.6-32.1c1.2-0.7,2.3-2.6,2.3-4.3v-10.6c0-1.7-1-2.4-2.3-1.7L99.2,203
				c-1.2,0.7-2.3,2.6-2.3,4.3v10.6C96.9,219.5,98,220.3,99.2,219.6z"/>
			<path class="st3" d="M142.2,187.9l7.8-4.5c0.6-0.4,1.1-1.3,1.1-2.1l0,0c0-0.8-0.5-1.2-1.1-0.8l-7.8,4.5c-0.6,0.4-1.1,1.3-1.1,2.1
				l0,0C141.1,187.9,141.6,188.3,142.2,187.9z"/>
			<path class="st4" d="M134.2,191.3c0,1.5,1.1,2.2,2.4,1.4c1.3-0.8,2.4-2.6,2.4-4.2c0-1.5-1.1-2.2-2.4-1.4
				C135.2,187.9,134.2,189.8,134.2,191.3z"/>
			<path class="st7" d="M124.8,196.8c0,0.8,0.6,1.1,1.3,0.7c0.7-0.4,1.3-1.4,1.3-2.2c0-0.8-0.6-1.1-1.3-0.7
				C125.4,195,124.8,196,124.8,196.8z"/>
			<path class="st12" d="M120.3,199.4c0,0.8,0.6,1.1,1.3,0.7c0.7-0.4,1.3-1.4,1.3-2.2c0-0.8-0.6-1.1-1.3-0.7
				C120.9,197.6,120.3,198.6,120.3,199.4z"/>
			<path class="st7" d="M115.8,202c0,0.8,0.6,1.1,1.3,0.7c0.7-0.4,1.3-1.4,1.3-2.2c0-0.8-0.6-1.1-1.3-0.7
				C116.3,200.2,115.8,201.2,115.8,202z"/>
			<path class="st5" d="M103,211.4l2.6-1.5c0.4-0.2,0.7-0.8,0.7-1.4v-2.8c0-0.5-0.3-0.8-0.7-0.5l-2.6,1.5c-0.4,0.2-0.7,0.8-0.7,1.4
				v2.8C102.3,211.4,102.6,211.7,103,211.4z"/>
		</g>
	</g>
	<polyline class="st19" points="135.6,220.9 176.1,244.6 243.8,202.9 	"/>
</g>
</svg>
