<?xml version="1.0" encoding="UTF-8"?>
<!-- Generator: Adobe Illustrator 25.2.0, SVG Export Plug-In . SVG Version: 6.00 Build 0)  -->
<svg version="1.1" id="_x31__1_" xmlns="http://www.w3.org/2000/svg" xmlns:xlink="http://www.w3.org/1999/xlink" x="0px" y="0px" viewBox="0 0 500 500" style="enable-background:new 0 0 500 500;" xml:space="preserve">
<style type="text/css">
	.st0{fill:#F9F9F9;}
	.st1{fill:#3E5293;}
	.st2{fill:#2E396D;}
	.st3{fill:#F9B316;}
	.st4{fill:#F88604;}
	.st5{fill:#FFFFFF;}
	.st6{fill:#F8FCFF;}
	.st7{fill:none;}
</style>
<g>
	<path class="st0" d="M459.3,250c0,7-0.4,14-1.1,20.8v0c-0.4,3.4-0.8,6.8-1.3,10.2c-0.1,0.8-0.2,1.5-0.4,2.3   c-15.9,96.7-99.9,170.5-201.2,170.5c-7.1,0-14.1-0.4-21-1.1c-1.3-0.1-2.6-0.3-3.9-0.4c-5.4-0.7-10.7-1.5-16-2.6   c-93-18.9-163-101.2-163-199.8c0-112.6,91.3-203.9,203.9-203.9C368.1,46.1,459.3,137.4,459.3,250z"/>
	<g>
		<path class="st2" d="M282.6,200.9l-18.8,0c-1.5,0-16.8,0-35.9-0.1c-6,0-12.4,0-18.8,0c-30.5-0.1-62.3-0.1-62.3-0.1L146.6,313    l58.2,0.1l81.7,0.2l58.2,0.1l0.2-112.4C344.9,201,313.1,201,282.6,200.9z"/>
		<path class="st1" d="M311.9,210l-19,0l-94.2-0.2l-19,0c-1.8,12.9-12,23.1-25,24.8l-0.1,44.2c13.1,1.8,23.4,12.2,24.9,25.4l18.9,0    v0l47.1,0.1l47.1,0.1v0l18.9,0c1.6-13.1,11.9-23.5,25-25.3l0.1-44.2C323.9,233.1,313.6,222.9,311.9,210z"/>
		<circle class="st2" cx="186.3" cy="256.9" r="12.5"/>
		<circle class="st2" cx="305.2" cy="257.2" r="12.5"/>
		<circle class="st2" cx="245.8" cy="257" r="35.8"/>
		<path class="st6" d="M261.7,264.1c-0.4-3.5-2.1-6-5.3-7.5c-1.4-0.7-2.8-1.1-4.2-1.5c0,0-0.1,0-0.3-0.1c-1.7-0.4-11-2.5-11.4-2.6    c-1.9-0.7-3.3-2.3-3.3-4.2c0-2.4,2.2-4.3,5-4.5c0.1,0,0.3,0,0.5,0c3.7,0,5.9,0.6,6.7,1l0,0c0.1,0.1,0.2,0.1,0.3,0.1c0,0,0,0,0.1,0    c0,0,0.1,0,0.1,0c0,0,0,0,0,0c1.9,1,2.9,2.6,3,4.8l7.9,0c-0.1-0.8-0.1-1.5-0.3-2.2c-0.5-2.7-1.7-5-3.8-6.7c-2-1.7-4.2-2.6-6.7-3.2    c-0.4-0.1-0.5-0.2-0.5-0.6c0-1.5,0-3,0-4.5l0-0.5l-7.2,0l0,5.2c-0.2,0-0.3,0.1-0.5,0.1c-1.3,0.3-2.7,0.5-3.9,1    c-3.2,1.2-5.5,3.4-6.8,6.7c-0.8,2.2-0.9,4.5-0.5,6.8c0.3,1.9,1.1,3.5,2.5,4.9c1.3,1.3,2.8,2,4.5,2.6c1.2,0.4,2.3,0.7,3.5,1.1    c3.2,0.7,9.5,2.1,9.8,2.3h0c0.9,0.3,1.7,0.9,2.3,1.5c0,0,0.1,0.1,0.1,0.1c0,0,0.1,0.1,0.1,0.1c0.2,0.3,0.4,0.6,0.5,0.9    c0.2,0.5,0.3,1,0.3,1.5c0,2.4-2.2,4.9-5,5.1c-0.1,0-0.3,0-0.5,0c-3.5,0-5.6-0.5-6.6-0.7l0,0c-3-0.8-4.4-2.9-4.7-5.7l-7.7,0    c0,2.4,0.5,4.7,1.9,6.7c1.6,2.4,3.8,3.9,6.4,4.8c1.4,0.5,2.8,0.8,4.2,1.2l0,4l7.2,0l0-3.8c1.6-0.4,3.1-0.8,4.5-1.3    c2.4-0.8,4.3-2.3,5.8-4.3C261.6,270.1,262.1,267.2,261.7,264.1z"/>
	</g>
	<g>
		<path class="st2" d="M318,225.9l-18.8,0c-1.5,0-16.8,0-35.9-0.1c-6,0-12.4,0-18.8,0c-30.5-0.1-62.3-0.1-62.3-0.1L182,338.1    l58.2,0.1l81.7,0.2l58.2,0.1l0.2-112.4C380.3,226,348.4,226,318,225.9z"/>
		<path class="st1" d="M347.3,235l-19,0l-94.2-0.2l-19,0c-1.8,12.9-12,23.1-25,24.8l-0.1,44.2c13.1,1.8,23.4,12.2,24.9,25.4l18.9,0    v0l47.1,0.1l47.1,0.1v0l18.9,0c1.6-13.1,11.9-23.5,25-25.3l0.1-44.2C359.2,258.1,349,247.9,347.3,235z"/>
		<circle class="st2" cx="221.7" cy="281.9" r="12.5"/>
		<circle class="st2" cx="340.5" cy="282.2" r="12.5"/>
		<circle class="st2" cx="281.1" cy="282.1" r="35.8"/>
		<path class="st6" d="M297.1,289.1c-0.4-3.5-2.1-6-5.3-7.5c-1.4-0.7-2.8-1.1-4.2-1.5c0,0-0.1,0-0.3-0.1c-1.7-0.4-11-2.5-11.4-2.6    c-1.9-0.7-3.3-2.3-3.3-4.2c0-2.4,2.2-4.3,5-4.5c0.1,0,0.3,0,0.5,0c3.7,0,5.9,0.6,6.7,1l0,0c0.1,0.1,0.2,0.1,0.3,0.1c0,0,0,0,0.1,0    c0,0,0.1,0,0.1,0c0,0,0,0,0,0c1.9,1,2.9,2.6,3,4.8l7.9,0c-0.1-0.8-0.1-1.5-0.3-2.2c-0.5-2.7-1.7-5-3.8-6.7c-2-1.7-4.2-2.6-6.7-3.2    c-0.4-0.1-0.5-0.2-0.5-0.6c0-1.5,0-3,0-4.5l0-0.5l-7.2,0l0,5.2c-0.2,0-0.3,0.1-0.5,0.1c-1.3,0.3-2.7,0.5-3.9,1    c-3.2,1.2-5.5,3.4-6.8,6.7c-0.8,2.2-0.9,4.5-0.5,6.8c0.3,1.9,1.1,3.5,2.5,4.9c1.3,1.3,2.8,2,4.5,2.6c1.2,0.4,2.3,0.7,3.5,1.1    c3.2,0.7,9.5,2.1,9.8,2.3h0c0.9,0.3,1.7,0.9,2.3,1.5c0,0,0.1,0.1,0.1,0.1c0,0,0.1,0.1,0.1,0.1c0.2,0.3,0.4,0.6,0.5,0.9    c0.2,0.5,0.3,1,0.3,1.5c0,2.4-2.2,4.9-5,5.1c-0.1,0-0.3,0-0.5,0c-3.5,0-5.6-0.5-6.6-0.7l0,0c-3-0.8-4.4-2.9-4.7-5.7l-7.7,0    c0,2.4,0.5,4.7,1.9,6.7c1.6,2.4,3.8,3.9,6.4,4.8c1.4,0.5,2.8,0.8,4.2,1.2l0,4l7.2,0l0-3.8c1.6-0.4,3.1-0.8,4.5-1.3    c2.4-0.8,4.3-2.3,5.8-4.3C296.9,295.1,297.5,292.2,297.1,289.1z"/>
	</g>
	<g>
		<g>
			<circle class="st3" cx="168.1" cy="311.6" r="40"/>
			<circle class="st4" cx="168.1" cy="311.6" r="30.3"/>
			<path class="st3" d="M181.9,317.6c-0.3-3-1.9-5.1-4.6-6.4c-1.2-0.6-2.4-1-3.6-1.3c0,0-0.1,0-0.2-0.1c-1.5-0.3-9.4-2.1-9.8-2.2     c-1.7-0.6-2.8-2-2.8-3.6c0-2,1.9-3.7,4.3-3.9c0.1,0,0.2,0,0.4,0c3.2,0,5,0.5,5.8,0.8v0c0.1,0,0.2,0.1,0.2,0.1c0,0,0,0,0,0     c0,0,0,0,0.1,0c0,0,0,0,0,0c1.6,0.9,2.5,2.2,2.6,4.1h6.7c-0.1-0.7-0.1-1.3-0.2-1.9c-0.4-2.3-1.5-4.3-3.3-5.8     c-1.7-1.4-3.7-2.2-5.8-2.7c-0.3-0.1-0.4-0.2-0.4-0.5c0-1.3,0-2.6,0-3.9v-0.4H165v4.5c-0.2,0-0.3,0-0.4,0.1     c-1.1,0.3-2.3,0.4-3.4,0.9c-2.8,1-4.8,3-5.8,5.8c-0.7,1.9-0.8,3.8-0.4,5.8c0.3,1.6,1,3,2.2,4.2c1.1,1.1,2.4,1.7,3.9,2.2     c1,0.3,2,0.6,3,0.9c2.7,0.6,8.1,1.8,8.4,1.9h0c0.8,0.3,1.5,0.7,1.9,1.3c0,0,0.1,0.1,0.1,0.1c0,0,0.1,0.1,0.1,0.1     c0.2,0.2,0.3,0.5,0.4,0.8c0.2,0.4,0.3,0.8,0.3,1.3c0,2-1.9,4.2-4.3,4.4c-0.1,0-0.3,0-0.4,0c-3,0-4.8-0.4-5.6-0.6v0     c-2.6-0.7-3.8-2.4-4.1-4.9h-6.6c0,2.1,0.4,4,1.6,5.8c1.3,2,3.3,3.4,5.5,4.1c1.2,0.4,2.4,0.7,3.6,1v3.4h6.2v-3.3     c1.3-0.4,2.6-0.7,3.9-1.1c2-0.7,3.7-1.9,5-3.7C181.7,322.8,182.2,320.3,181.9,317.6z"/>
		</g>
		<g>
			<circle class="st3" cx="208.1" cy="339.8" r="27.7"/>
			<circle class="st4" cx="208.1" cy="339.8" r="21"/>
			<path class="st3" d="M217.6,344c-0.2-2.1-1.3-3.5-3.2-4.4c-0.8-0.4-1.7-0.7-2.5-0.9c0,0-0.1,0-0.2,0c-1-0.2-6.5-1.5-6.8-1.5     c-1.2-0.4-2-1.4-2-2.5c0-1.4,1.3-2.6,3-2.7c0.1,0,0.2,0,0.3,0c2.2,0,3.5,0.4,4,0.6v0c0.1,0,0.1,0.1,0.2,0.1c0,0,0,0,0,0     c0,0,0,0,0,0c0,0,0,0,0,0c1.1,0.6,1.7,1.5,1.8,2.8h4.7c-0.1-0.5-0.1-0.9-0.2-1.3c-0.3-1.6-1-2.9-2.3-4c-1.2-1-2.5-1.6-4-1.9     c-0.2,0-0.3-0.1-0.3-0.3c0-0.9,0-1.8,0-2.7v-0.3H206v3.1c-0.1,0-0.2,0-0.3,0.1c-0.8,0.2-1.6,0.3-2.3,0.6c-1.9,0.7-3.3,2.1-4,4     c-0.5,1.3-0.5,2.7-0.3,4c0.2,1.1,0.7,2.1,1.5,2.9c0.8,0.8,1.7,1.2,2.7,1.5c0.7,0.2,1.4,0.4,2.1,0.6c1.9,0.4,5.6,1.3,5.8,1.3h0     c0.5,0.2,1,0.5,1.3,0.9c0,0,0,0.1,0.1,0.1c0,0,0.1,0.1,0.1,0.1c0.1,0.2,0.2,0.3,0.3,0.5c0.1,0.3,0.2,0.6,0.2,0.9     c0,1.4-1.3,2.9-3,3c-0.1,0-0.2,0-0.3,0c-2.1,0-3.3-0.3-3.9-0.4v0c-1.8-0.5-2.6-1.7-2.8-3.4h-4.6c0,1.4,0.3,2.8,1.1,4     c0.9,1.4,2.3,2.3,3.8,2.9c0.8,0.3,1.6,0.5,2.5,0.7v2.4h4.3v-2.3c0.9-0.3,1.8-0.5,2.7-0.8c1.4-0.5,2.6-1.3,3.5-2.6     C217.5,347.6,217.8,345.8,217.6,344z"/>
		</g>
	</g>
	<g>
		<g>
			<circle class="st5" cx="157.6" cy="69.3" r="42.4"/>
		</g>
		<path class="st2" d="M152.6,66.1h4.2c2.1,0,3.8-0.6,5.1-1.7c1.2-1.1,1.9-2.7,1.9-4.7c0-2-0.5-3.5-1.6-4.6s-2.6-1.6-4.8-1.6    c-1.9,0-3.4,0.5-4.6,1.6c-1.2,1.1-1.8,2.5-1.8,4.2h-7c0-2.1,0.6-4.1,1.7-5.8s2.7-3.1,4.7-4.1s4.3-1.5,6.8-1.5c4.2,0,7.4,1,9.8,3.1    c2.4,2.1,3.6,5,3.6,8.7c0,1.9-0.6,3.6-1.8,5.3c-1.2,1.6-2.7,2.9-4.6,3.7c2.3,0.8,4,2,5.2,3.7c1.2,1.7,1.8,3.7,1.8,6    c0,3.7-1.3,6.7-3.8,8.9c-2.6,2.2-5.9,3.3-10.1,3.3c-4,0-7.3-1.1-9.8-3.2c-2.6-2.1-3.8-5-3.8-8.5h7c0,1.8,0.6,3.3,1.8,4.5    c1.2,1.1,2.9,1.7,5,1.7c2.2,0,3.9-0.6,5.1-1.7c1.2-1.1,1.9-2.8,1.9-5c0-2.2-0.6-3.9-1.9-5.1c-1.3-1.2-3.2-1.8-5.8-1.8h-4.1V66.1z"/>
	</g>
</g>
</svg>