<?xml version="1.0" encoding="UTF-8"?>
<!-- Generator: Adobe Illustrator 25.2.0, SVG Export Plug-In . SVG Version: 6.00 Build 0)  -->
<svg version="1.1" id="_x31__1_" xmlns="http://www.w3.org/2000/svg" xmlns:xlink="http://www.w3.org/1999/xlink" x="0px" y="0px" viewBox="0 0 500 500" style="enable-background:new 0 0 500 500;" xml:space="preserve">
<style type="text/css">
	.st0{fill:#F9F9F9;}
	.st1{fill:#3E5293;}
	.st2{fill:#2E396D;}
	.st3{fill:#F9B316;}
	.st4{fill:#F88604;}
	.st5{fill:#FFFFFF;}
	.st6{fill:#F8FCFF;}
	.st7{fill:none;}
</style>
<g>
	<path class="st0" d="M453.9,250c0,7-0.4,14-1,20.8v0c-10.4,102.8-97.3,183-202.8,183c-7.1,0-14.1-0.4-21-1.1   C126.3,442.3,46.1,355.5,46.1,250c0-112.6,91.3-203.9,203.9-203.9S453.9,137.4,453.9,250z"/>
	<g>
		<g>
			<circle class="st5" cx="140.4" cy="69.3" r="42.4"/>
		</g>
		<path class="st2" d="M145.8,90.2h-6.9V56.7l-10.2,3.5v-5.8l16.3-6h0.9V90.2z"/>
	</g>
	<path class="st2" d="M322.9,330.6H143.4c-4.4,0-7.9-3.6-7.9-7.9V162.1c0-4.4,3.6-7.9,7.9-7.9h179.5c4.4,0,7.9,3.6,7.9,7.9v160.5   C330.8,327,327.3,330.6,322.9,330.6z"/>
	<path class="st5" d="M290.3,246.3H174.6c-0.7,0-1.2-0.5-1.2-1.2V234c0-0.7,0.5-1.2,1.2-1.2h115.7c0.7,0,1.2,0.5,1.2,1.2v11.1   C291.5,245.8,291,246.3,290.3,246.3z"/>
	<path class="st2" d="M234.8,242.4h-54.1c-0.7,0-1.2-0.5-1.2-1.2V238c0-0.7,0.5-1.2,1.2-1.2h54.1c0.7,0,1.2,0.5,1.2,1.2v3.2   C236,241.9,235.4,242.4,234.8,242.4z"/>
	<path class="st5" d="M290.3,273.5H174.6c-0.7,0-1.2-0.5-1.2-1.2v-11.1c0-0.7,0.5-1.2,1.2-1.2h115.7c0.7,0,1.2,0.5,1.2,1.2v11.1   C291.5,273,291,273.5,290.3,273.5z"/>
	<path class="st1" d="M265.9,314.2h-65.4c-6.3,0-11.4-5.1-11.4-11.4v-1c0-6.3,5.1-11.4,11.4-11.4h65.4c6.3,0,11.4,5.1,11.4,11.4v1   C277.3,309.1,272.2,314.2,265.9,314.2z"/>
	<path class="st5" d="M244.4,301.9L244.4,301.9c0-0.2-0.1-0.3-0.1-0.4c0,0,0-0.1-0.1-0.1c-0.1-0.1-0.1-0.2-0.2-0.3c0,0,0,0,0,0   l-5.6-5.6c-0.6-0.6-1.5-0.6-2.1,0c-0.6,0.6-0.6,1.5,0,2.1l3,3h-17.2c-0.8,0-1.5,0.7-1.5,1.5c0,0,0,0.1,0,0.1c0,0,0,0.1,0,0.1   c0,0.8,0.7,1.5,1.5,1.5h17.2l-3,3c-0.6,0.6-0.6,1.5,0,2.1c0.6,0.6,1.5,0.6,2.1,0l5.6-5.6c0,0,0,0,0,0c0.1-0.1,0.1-0.2,0.2-0.3   c0,0,0-0.1,0.1-0.1c0.1-0.1,0.1-0.2,0.1-0.4v0c0-0.1,0-0.2,0-0.3c0,0,0,0,0,0c0,0,0,0,0,0c0,0,0,0,0,0   C244.4,302.1,244.4,302,244.4,301.9z"/>
	<g>
		<circle class="st1" cx="233" cy="191.3" r="23.6"/>
		<circle class="st5" cx="233" cy="185" r="6.7"/>
		<path class="st5" d="M245.9,203.8h-25.8c0-5.7,5.8-10.3,12.9-10.3S245.9,198.1,245.9,203.8z"/>
	</g>
	<g>
		<path class="st4" d="M363.2,325l-4.7,48.3l-0.3,3c0,4.4-3.6,8-8,8h-41.1c-0.7,0-1.5-0.3-2-0.8l-31.9-31.9    c-1.9-1.9-2.8-4.4-2.8-6.9c0-2.5,1-5,2.8-6.9c0.6-0.6,1.2-1.1,1.9-1.5c3.6-2.1,8.2-1.7,11.5,1.2l9.6,8.7c1.8,1.6,4.7,0.4,4.7-2.1    v-66.6c0-2.7,1.1-5.2,2.9-7c0.5-0.5,1.1-1,1.7-1.4c1.5-1,3.3-1.5,5.2-1.5c5.4,0,9.8,4.4,9.8,9.9v31.9c0,0.2,0,0.4,0.1,0.6h7.2    c0.8-0.1,1.9,0.4,3.6,1.8c1,0.8,2.1,1.5,3.2,1c1.1-0.4,2.3-0.7,3.6-0.7c2.7,0,5.2,1.1,6.9,2.9c0.8,0.8,1.9,1,2.9,0.6    c1-0.3,2.1-0.5,3.2-0.5c2.2,0,4.2,0.7,5.8,1.9c0,0,0,0,0,0C361.6,318.8,363.2,321.7,363.2,325z"/>
		<path class="st3" d="M363.2,325l-4.7,48.3c-1.1,0.6-2.4,0.9-3.7,0.9h-41.1c-0.7,0-1.5-0.3-2-0.8l-31.9-31.9    c-1.4-1.5-2.3-3.3-2.7-5.1c3.6-2.1,8.2-1.7,11.5,1.2l9.6,8.7c1.8,1.6,4.7,0.4,4.7-2.1v-8c0.2,0.2,0.2-0.6,0-2.2v-56.5    c0-2.7,1.1-5.2,2.9-7c0.5-0.5,1.1-1,1.7-1.4c1.5-1,3.3-1.5,5.2-1.5c5.4,0,9.8,4.4,9.8,9.9v31.9c0,0.2,0,0.4,0.1,0.6h7.2    c0.8-0.1,1.9,0.4,3.6,1.8c1,0.8,2.1,1.5,3.2,1c1.1-0.4,2.3-0.7,3.6-0.7c2.7,0,5.2,1.1,6.9,2.9c0.8,0.8,1.9,1,2.9,0.6    c1-0.3,2.1-0.5,3.2-0.5c2.2,0,4.2,0.7,5.8,1.9c0,0,0,0,0,0C361.6,318.8,363.2,321.7,363.2,325z"/>
	</g>
	<g>
		<path class="st2" d="M183.1,267.3l-3.6-1l0.7-2.1l3.5,1.4l-0.3-3.9h2.4l-0.3,4l3.4-1.4l0.7,2.1l-3.7,1l2.4,2.9l-1.9,1.3l-2-3.3    l-2,3.1l-1.9-1.3L183.1,267.3z"/>
	</g>
	<g>
		<path class="st2" d="M198.5,267.3l-3.6-1l0.7-2.1l3.5,1.4l-0.3-3.9h2.4l-0.3,4l3.4-1.4l0.7,2.1l-3.7,1l2.4,2.9l-1.9,1.3l-2-3.3    l-2,3.1l-1.9-1.3L198.5,267.3z"/>
	</g>
	<g>
		<path class="st2" d="M213.9,267.3l-3.6-1l0.7-2.1l3.5,1.4l-0.3-3.9h2.4l-0.3,4l3.4-1.4l0.7,2.1l-3.7,1l2.4,2.9l-1.9,1.3l-2-3.3    l-2,3.1l-1.9-1.3L213.9,267.3z"/>
	</g>
	<g>
		<path class="st2" d="M229.4,267.3l-3.6-1l0.7-2.1l3.5,1.4l-0.3-3.9h2.4l-0.3,4l3.4-1.4l0.7,2.1l-3.7,1l2.4,2.9l-1.9,1.3l-2-3.3    l-2,3.1l-1.9-1.3L229.4,267.3z"/>
	</g>
	<g>
		<path class="st2" d="M244.8,267.3l-3.6-1l0.7-2.1l3.5,1.4l-0.3-3.9h2.4l-0.3,4l3.4-1.4l0.7,2.1l-3.7,1l2.4,2.9l-1.9,1.3l-2-3.3    l-2,3.1l-1.9-1.3L244.8,267.3z"/>
	</g>
	<g>
		<path class="st2" d="M260.3,267.3l-3.6-1l0.7-2.1l3.5,1.4l-0.3-3.9h2.4l-0.3,4l3.4-1.4l0.7,2.1l-3.7,1l2.4,2.9l-1.9,1.3l-2-3.3    l-2,3.1l-1.9-1.3L260.3,267.3z"/>
	</g>
</g>
</svg>