<?xml version="1.0" encoding="UTF-8"?>
<!-- Generator: Adobe Illustrator 25.2.0, SVG Export Plug-In . SVG Version: 6.00 Build 0)  -->
<svg version="1.1" id="_x31__1_" xmlns="http://www.w3.org/2000/svg" xmlns:xlink="http://www.w3.org/1999/xlink" x="0px" y="0px" viewBox="0 0 500 500" style="enable-background:new 0 0 500 500;" xml:space="preserve">
<style type="text/css">
	.st0{fill:#F9F9F9;}
	.st1{fill:#3E5293;}
	.st2{fill:#2E396D;}
	.st3{fill:#F9B316;}
	.st4{fill:#F88604;}
	.st5{fill:#FFFFFF;}
	.st6{fill:#F8FCFF;}
	.st7{fill:none;}
</style>
<g>
	<path class="st0" d="M459,250c0,7-0.4,14-1,20.8v0c-10.4,102.8-97.3,183-202.8,183c-7.1,0-14.1-0.4-21-1.1   C131.4,442.3,51.2,355.5,51.2,250c0-112.6,91.3-203.9,203.9-203.9S459,137.4,459,250z"/>
	<g>
		<path class="st1" d="M156.2,353.2L156.2,353.2c-3.1-3.1-3.1-8.2,0-11.3l149.3-149.3l11.3,11.3L167.5,353.2    C164.4,356.3,159.4,356.3,156.2,353.2z"/>
		<path class="st2" d="M374.9,255.8c0,0-12.7-26.1-37.9-52.6c1.5-1.5,4.4-4.4,4.4-4.4c2.2-2.2,1.3-6.8-2-10.1l-19-19    c-3.3-3.3-7.8-4.2-10.1-2c0,0-2.5,2.5-4.3,4.3c-22.6-22.6-52.7-37.9-52.7-37.9c-2.5-1.8-4.2,0.7-2,2.9l44.9,44.9l-4.3,4.3    c-2.2,2.2-1.3,6.8,2,10.1l19,19c3.3,3.3,7.8,4.2,10.1,2l4.3-4.3l44.8,44.8C374.2,260,376.7,258.3,374.9,255.8z"/>
	</g>
	<g>
		<circle class="st3" cx="242.2" cy="272.9" r="61.6"/>
		<circle class="st4" cx="242.2" cy="272.9" r="46.7"/>
		<path class="st3" d="M266.7,279.5c-0.1-1.2-0.4-2.5-0.9-3.6c-1.1-2.5-3.2-3.8-5.6-4.7c-0.5-0.2-1.1-0.3-1.7-0.5    c0.4-0.2,0.7-0.4,1-0.6c1-0.7,1.9-1.5,2.5-2.5c1.2-1.8,1.5-3.8,1.4-5.9c-0.1-4.1-2-7-5.8-8.6c-2.5-1.1-5.1-1.5-7.7-1.8    c-0.5,0-0.6-0.2-0.6-0.6c0-2.6,0-5.1,0-7.7c0-0.4,0-0.9,0-1.3h-5.8v9.2h-4.6v-0.7c0-2.6,0-5.2,0-7.8c0-0.2,0-0.5-0.1-0.7h-5.8v9.5    h-11.6v6.2c1.5,0,2.9,0,4.4,0c2,0.1,3.1,1.2,3.1,3.2v24.7c0,0.1,0,0.3,0,0.4c-0.1,1.3-0.8,2.1-2.2,2.1c-1.2,0-2.4,0-3.6,0    c-0.2,0-0.4,0-0.7,0c-0.4,2.3-0.8,4.5-1.2,6.9h11.7v9.6h5.8v-9.4h4.6v9.4h5.8v-0.7c0-2.7,0-5.3,0-8c0-1-0.2-0.9,0.9-1    c3-0.2,6-0.6,8.9-1.7c3.2-1.2,5.5-3.3,6.7-6.6C266.6,284.1,267,281.8,266.7,279.5z M239,268.6c0-3.4,0-6.9,0-10.3    c0-0.5,0.1-0.7,0.7-0.7c2.4,0,4.9-0.1,7.2,0.4c1.5,0.3,3,0.7,4.1,1.8c2.1,2,2.4,6.3-1.4,8.1c-1.4,0.6-2.9,0.9-4.4,1.2    c-0.9,0.2-1.9,0.2-2.9,0.2c-1.1,0-2.2,0-3.3,0C239,269,239,268.8,239,268.6z M252.3,286c-1.9,1-3.9,1.4-5.9,1.5    c-2.3,0.2-4.7,0.1-7,0.2c-0.1,0-0.2,0-0.3,0V275c3.5,0,7-0.3,10.4,0.6c1.5,0.4,3,0.9,4.2,2C256.2,280.3,255.6,284.3,252.3,286z"/>
	</g>
	<g>
		<g>
			<circle class="st5" cx="139" cy="69.3" r="42.4"/>
		</g>
		<path class="st2" d="M153.4,90.4h-28v-4.8l13.9-15.1c2-2.2,3.4-4.1,4.3-5.6c0.8-1.5,1.3-3,1.3-4.5c0-2-0.6-3.6-1.7-4.8    c-1.1-1.2-2.6-1.8-4.5-1.8c-2.3,0-4,0.7-5.2,2.1s-1.9,3.3-1.9,5.6h-7c0-2.5,0.6-4.8,1.7-6.9c1.2-2,2.8-3.6,4.9-4.7    c2.1-1.1,4.6-1.7,7.4-1.7c4,0,7.2,1,9.6,3c2.3,2,3.5,4.8,3.5,8.4c0,2.1-0.6,4.3-1.8,6.5c-1.2,2.3-3.1,4.9-5.8,7.8l-10.2,10.9h19.3    V90.4z"/>
	</g>
</g>
</svg>