<?xml version="1.0" encoding="UTF-8"?> <!-- Generator: Adobe Illustrator 21.0.0, SVG Export Plug-In . SVG Version: 6.00 Build 0) --> <svg xmlns="http://www.w3.org/2000/svg" xmlns:xlink="http://www.w3.org/1999/xlink" id="Layer_1" x="0px" y="0px" viewBox="0 0 4000 4000" style="enable-background:new 0 0 4000 4000;" xml:space="preserve"> <style type="text/css"> .st0{clip-path:url(#SVGID_2_);fill:#EC1C24;} .st1{clip-path:url(#SVGID_2_);fill:#EC1D24;} .st2{clip-path:url(#SVGID_2_);fill:#EC1E24;} .st3{clip-path:url(#SVGID_2_);fill:#EC1F24;} .st4{clip-path:url(#SVGID_2_);fill:#EC2024;} .st5{clip-path:url(#SVGID_2_);fill:#ED2124;} .st6{clip-path:url(#SVGID_2_);fill:#ED2224;} .st7{clip-path:url(#SVGID_2_);fill:#ED2324;} .st8{clip-path:url(#SVGID_2_);fill:#ED2424;} .st9{clip-path:url(#SVGID_2_);fill:#ED2524;} .st10{clip-path:url(#SVGID_2_);fill:#ED2624;} .st11{clip-path:url(#SVGID_2_);fill:#ED2724;} .st12{clip-path:url(#SVGID_2_);fill:#ED2824;} .st13{clip-path:url(#SVGID_2_);fill:#ED2924;} .st14{clip-path:url(#SVGID_2_);fill:#ED2A24;} .st15{clip-path:url(#SVGID_2_);fill:#EE2A24;} .st16{clip-path:url(#SVGID_2_);fill:#EE2B24;} .st17{clip-path:url(#SVGID_2_);fill:#EE2C24;} .st18{clip-path:url(#SVGID_2_);fill:#EE2D24;} .st19{clip-path:url(#SVGID_2_);fill:#EE2E24;} .st20{clip-path:url(#SVGID_2_);fill:#EE2F24;} .st21{clip-path:url(#SVGID_2_);fill:#EE3024;} .st22{clip-path:url(#SVGID_2_);fill:#EE3124;} .st23{clip-path:url(#SVGID_2_);fill:#EE3224;} .st24{clip-path:url(#SVGID_2_);fill:#EE3225;} .st25{clip-path:url(#SVGID_2_);fill:#EF3325;} .st26{clip-path:url(#SVGID_2_);fill:#EF3425;} .st27{clip-path:url(#SVGID_2_);fill:#EF3525;} .st28{clip-path:url(#SVGID_2_);fill:#EF3625;} .st29{clip-path:url(#SVGID_2_);fill:#EF3725;} .st30{clip-path:url(#SVGID_2_);fill:#EF3825;} .st31{clip-path:url(#SVGID_2_);fill:#EF3925;} .st32{clip-path:url(#SVGID_2_);fill:#EF3A25;} .st33{clip-path:url(#SVGID_2_);fill:#EF3B25;} .st34{clip-path:url(#SVGID_2_);fill:#EF3C25;} .st35{clip-path:url(#SVGID_2_);fill:#F03D25;} .st36{clip-path:url(#SVGID_2_);fill:#F03E25;} .st37{clip-path:url(#SVGID_2_);fill:#F03F25;} .st38{clip-path:url(#SVGID_2_);fill:#F04025;} .st39{clip-path:url(#SVGID_2_);fill:#F04125;} .st40{clip-path:url(#SVGID_2_);fill:#F04225;} .st41{clip-path:url(#SVGID_2_);fill:#F04325;} .st42{clip-path:url(#SVGID_2_);fill:#F04425;} .st43{clip-path:url(#SVGID_2_);fill:#F04525;} .st44{clip-path:url(#SVGID_2_);fill:#F14625;} .st45{clip-path:url(#SVGID_2_);fill:#F14725;} .st46{clip-path:url(#SVGID_2_);fill:#F14825;} .st47{clip-path:url(#SVGID_2_);fill:#F14925;} .st48{clip-path:url(#SVGID_2_);fill:#F14A25;} .st49{clip-path:url(#SVGID_2_);fill:#F14B25;} .st50{clip-path:url(#SVGID_2_);fill:#F14C25;} .st51{clip-path:url(#SVGID_2_);fill:#F14D25;} .st52{clip-path:url(#SVGID_2_);fill:#F14E25;} .st53{clip-path:url(#SVGID_2_);fill:#F24F25;} .st54{clip-path:url(#SVGID_2_);fill:#F25025;} .st55{clip-path:url(#SVGID_2_);fill:#F25125;} .st56{clip-path:url(#SVGID_2_);fill:#F25225;} .st57{clip-path:url(#SVGID_2_);fill:#F25325;} .st58{clip-path:url(#SVGID_2_);fill:#F25425;} .st59{clip-path:url(#SVGID_2_);fill:#F25525;} .st60{clip-path:url(#SVGID_2_);fill:#F25625;} .st61{clip-path:url(#SVGID_2_);fill:#F25725;} .st62{clip-path:url(#SVGID_2_);fill:#F35825;} .st63{clip-path:url(#SVGID_2_);fill:#F35925;} .st64{clip-path:url(#SVGID_2_);fill:#F35A25;} .st65{clip-path:url(#SVGID_2_);fill:#F35C25;} .st66{clip-path:url(#SVGID_2_);fill:#F35D25;} .st67{clip-path:url(#SVGID_2_);fill:#F35E26;} .st68{clip-path:url(#SVGID_2_);fill:#F35F26;} .st69{clip-path:url(#SVGID_2_);fill:#F36026;} .st70{clip-path:url(#SVGID_2_);fill:#F46126;} .st71{clip-path:url(#SVGID_2_);fill:#F46226;} .st72{clip-path:url(#SVGID_2_);fill:#F46426;} .st73{clip-path:url(#SVGID_2_);fill:#F46526;} .st74{clip-path:url(#SVGID_2_);fill:#F46626;} .st75{clip-path:url(#SVGID_2_);fill:#F46726;} .st76{clip-path:url(#SVGID_2_);fill:#F46826;} .st77{clip-path:url(#SVGID_2_);fill:#F46A26;} .st78{clip-path:url(#SVGID_2_);fill:#F56B26;} .st79{clip-path:url(#SVGID_2_);fill:#F56C26;} .st80{clip-path:url(#SVGID_2_);fill:#F56D26;} .st81{clip-path:url(#SVGID_2_);fill:#F56F26;} .st82{clip-path:url(#SVGID_2_);fill:#F57026;} .st83{clip-path:url(#SVGID_2_);fill:#F57126;} .st84{clip-path:url(#SVGID_2_);fill:#F57226;} .st85{clip-path:url(#SVGID_2_);fill:#F67426;} .st86{clip-path:url(#SVGID_2_);fill:#F67526;} .st87{clip-path:url(#SVGID_2_);fill:#F67626;} .st88{clip-path:url(#SVGID_2_);fill:#F67726;} .st89{clip-path:url(#SVGID_2_);fill:#F67926;} .st90{clip-path:url(#SVGID_2_);fill:#F67A26;} .st91{clip-path:url(#SVGID_2_);fill:#F67B26;} .st92{clip-path:url(#SVGID_2_);fill:#F77D26;} .st93{clip-path:url(#SVGID_2_);fill:#F77E26;} .st94{clip-path:url(#SVGID_2_);fill:#F77F26;} .st95{clip-path:url(#SVGID_2_);fill:#F78126;} .st96{clip-path:url(#SVGID_2_);fill:#F78226;} .st97{clip-path:url(#SVGID_2_);fill:#F78426;} .st98{clip-path:url(#SVGID_2_);fill:#F78526;} .st99{clip-path:url(#SVGID_2_);fill:#F88626;} .st100{clip-path:url(#SVGID_2_);fill:#F88826;} .st101{clip-path:url(#SVGID_2_);fill:#F88927;} .st102{clip-path:url(#SVGID_2_);fill:#F88A27;} .st103{clip-path:url(#SVGID_2_);fill:#F88C27;} .st104{clip-path:url(#SVGID_2_);fill:#F88D27;} .st105{clip-path:url(#SVGID_2_);fill:#F98F27;} .st106{clip-path:url(#SVGID_2_);fill:#F99027;} .st107{clip-path:url(#SVGID_2_);fill:#F99227;} .st108{clip-path:url(#SVGID_2_);fill:#F99327;} .st109{clip-path:url(#SVGID_2_);fill:#F99427;} .st110{clip-path:url(#SVGID_2_);fill:#F99627;} .st111{clip-path:url(#SVGID_2_);fill:#F99727;} .st112{clip-path:url(#SVGID_2_);fill:#FA9927;} .st113{clip-path:url(#SVGID_2_);fill:#FA9A27;} .st114{clip-path:url(#SVGID_2_);fill:#FA9C27;} .st115{clip-path:url(#SVGID_2_);fill:#FA9D27;} .st116{clip-path:url(#SVGID_2_);fill:#FA9F27;} .st117{clip-path:url(#SVGID_2_);fill:#FAA027;} .st118{clip-path:url(#SVGID_2_);fill:#FBA227;} .st119{clip-path:url(#SVGID_2_);fill:#FBA327;} .st120{clip-path:url(#SVGID_2_);fill:#FBA527;} .st121{clip-path:url(#SVGID_2_);fill:#FBA627;} .st122{clip-path:url(#SVGID_2_);fill:#FBA827;} .st123{clip-path:url(#SVGID_2_);fill:#FBAA27;} .st124{clip-path:url(#SVGID_2_);fill:#FCAB27;} .st125{clip-path:url(#SVGID_2_);fill:#FCAD27;} .st126{clip-path:url(#SVGID_2_);fill:#FCAE27;} .st127{clip-path:url(#SVGID_2_);fill:#FCB027;} .st128{clip-path:url(#SVGID_2_);fill:#FCB127;} .st129{clip-path:url(#SVGID_2_);fill:#FCB327;} .st130{clip-path:url(#SVGID_2_);fill:#FDB528;} .st131{clip-path:url(#SVGID_2_);fill:#FDB628;} .st132{clip-path:url(#SVGID_2_);fill:#FDB828;} .st133{clip-path:url(#SVGID_2_);fill:#FDB928;} .st134{clip-path:url(#SVGID_2_);fill:#FDBB28;} .st135{clip-path:url(#SVGID_2_);fill:#FEBD28;} .st136{clip-path:url(#SVGID_2_);fill:#FEBE28;} .st137{clip-path:url(#SVGID_2_);fill:#FEC028;} .st138{clip-path:url(#SVGID_2_);fill:#FEC228;} .st139{clip-path:url(#SVGID_2_);fill:#FEC328;} .st140{clip-path:url(#SVGID_2_);fill:#FEC528;} .st141{clip-path:url(#SVGID_2_);fill:#FFC728;} .st142{clip-path:url(#SVGID_2_);fill:#FFC828;} .st143{clip-path:url(#SVGID_2_);fill:#FFCA28;} .st144{opacity:0.5;} .st145{fill:#FFFFFF;} .st146{opacity:0.3;} .st147{fill:#371A45;} .st148{fill:#FFD553;} .st149{fill:#303353;} .st150{opacity:0.25;} .st151{opacity:0.35;} .st152{fill:#00AAFF;} .st153{opacity:0.6;} .st154{fill:#EC1C24;} .st155{fill:#D25658;} .st156{fill:#6BD6F0;} .st157{opacity:0.2;} .st158{opacity:0.7;} .st159{fill:#111A28;} .st160{fill:#22A7F0;} </style> <g> <g> <g> <g> <g> <defs> <path id="SVGID_1_" d="M685,3261.1c304.2-132,401.8,78.6,594.7-5.2c192.9-83.7,143.3-307.3,143.3-307.3 s-129.5-189-322.4-105.2C907.7,2927.1,989.2,3129.1,685,3261.1z"></path> </defs> <clipPath id="SVGID_2_"> <use xlink:href="#SVGID_1_" style="overflow:visible;"></use> </clipPath> <polygon class="st0" points="685,3261.1 726.8,3339.7 685,3339.7 "></polygon> <polygon class="st0" points="685,3251.3 732,3339.7 726.8,3339.7 685,3261.1 "></polygon> <polygon class="st0" points="685,3241.6 737.2,3339.7 732,3339.7 685,3251.3 "></polygon> <polygon class="st0" points="685,3231.8 742.4,3339.7 737.2,3339.7 685,3241.6 "></polygon> <polygon class="st0" points="685,3222 747.6,3339.7 742.4,3339.7 685,3231.8 "></polygon> <polygon class="st0" points="685,3212.2 752.7,3339.7 747.6,3339.7 685,3222 "></polygon> <polygon class="st0" points="685,3202.5 757.9,3339.7 752.7,3339.7 685,3212.2 "></polygon> <polygon class="st1" points="685,3192.7 763.1,3339.7 757.9,3339.7 685,3202.5 "></polygon> <polygon class="st1" points="685,3182.9 768.3,3339.7 763.1,3339.7 685,3192.7 "></polygon> <polygon class="st1" points="685,3173.2 773.5,3339.7 768.3,3339.7 685,3182.9 "></polygon> <polygon class="st1" points="685,3163.4 778.7,3339.7 773.5,3339.7 685,3173.2 "></polygon> <polygon class="st1" points="685,3153.6 783.9,3339.7 778.7,3339.7 685,3163.4 "></polygon> <polygon class="st2" points="685,3143.8 789.1,3339.7 783.9,3339.7 685,3153.6 "></polygon> <polygon class="st2" points="685,3134.1 794.3,3339.7 789.1,3339.7 685,3143.8 "></polygon> <polygon class="st2" points="685,3124.3 799.5,3339.7 794.3,3339.7 685,3134.1 "></polygon> <polygon class="st3" points="685,3114.5 804.7,3339.7 799.5,3339.7 685,3124.3 "></polygon> <polygon class="st3" points="685,3104.7 809.9,3339.7 804.7,3339.7 685,3114.5 "></polygon> <polygon class="st3" points="685,3095 815.1,3339.7 809.9,3339.7 685,3104.7 "></polygon> <polygon class="st4" points="685,3085.2 820.3,3339.7 815.1,3339.7 685,3095 "></polygon> <polygon class="st4" points="685,3075.4 825.5,3339.7 820.3,3339.7 685,3085.2 "></polygon> <polygon class="st4" points="685,3065.7 830.7,3339.7 825.5,3339.7 685,3075.4 "></polygon> <polygon class="st5" points="685,3055.9 835.9,3339.7 830.7,3339.7 685,3065.7 "></polygon> <polygon class="st5" points="685,3046.1 841.1,3339.7 835.9,3339.7 685,3055.9 "></polygon> <polygon class="st5" points="685,3036.3 846.3,3339.7 841.1,3339.7 685,3046.1 "></polygon> <polygon class="st6" points="685,3034.2 688.2,3032.5 851.5,3339.7 846.3,3339.7 685,3036.3 "></polygon> <polygon class="st6" points="688.2,3032.5 692.2,3030.4 856.7,3339.7 851.5,3339.7 "></polygon> <polygon class="st7" points="692.2,3030.4 696.3,3028.2 861.9,3339.7 856.7,3339.7 "></polygon> <polygon class="st7" points="696.3,3028.2 700.3,3026.1 867.1,3339.7 861.9,3339.7 "></polygon> <polygon class="st8" points="700.3,3026.1 704.4,3023.9 872.3,3339.7 867.1,3339.7 "></polygon> <polygon class="st8" points="704.4,3023.9 708.4,3021.8 877.5,3339.7 872.3,3339.7 "></polygon> <polygon class="st9" points="708.4,3021.8 712.5,3019.6 882.7,3339.7 877.5,3339.7 "></polygon> <polygon class="st9" points="712.5,3019.6 716.5,3017.4 887.9,3339.7 882.7,3339.7 "></polygon> <polygon class="st10" points="716.5,3017.4 720.6,3015.3 893.1,3339.7 887.9,3339.7 "></polygon> <polygon class="st10" points="720.6,3015.3 724.6,3013.1 898.3,3339.7 893.1,3339.7 "></polygon> <polygon class="st11" points="724.6,3013.1 728.7,3011 903.5,3339.7 898.3,3339.7 "></polygon> <polygon class="st11" points="728.7,3011 732.7,3008.8 908.6,3339.7 903.5,3339.7 "></polygon> <polygon class="st12" points="732.7,3008.8 736.8,3006.7 913.8,3339.7 908.6,3339.7 "></polygon> <polygon class="st12" points="736.8,3006.7 740.8,3004.5 919,3339.7 913.8,3339.7 "></polygon> <polygon class="st13" points="740.8,3004.5 744.9,3002.4 924.2,3339.7 919,3339.7 "></polygon> <polygon class="st14" points="744.9,3002.4 748.9,3000.2 929.4,3339.7 924.2,3339.7 "></polygon> <polygon class="st15" points="748.9,3000.2 753,2998.1 934.6,3339.7 929.4,3339.7 "></polygon> <polygon class="st16" points="753,2998.1 757,2995.9 939.8,3339.7 934.6,3339.7 "></polygon> <polygon class="st16" points="757,2995.9 761.1,2993.7 945,3339.7 939.8,3339.7 "></polygon> <polygon class="st17" points="761.1,2993.7 765.1,2991.6 950.2,3339.7 945,3339.7 "></polygon> <polygon class="st18" points="765.1,2991.6 769.2,2989.4 955.4,3339.7 950.2,3339.7 "></polygon> <polygon class="st18" points="769.2,2989.4 773.2,2987.3 960.6,3339.7 955.4,3339.7 "></polygon> <polygon class="st19" points="773.2,2987.3 777.3,2985.1 965.8,3339.7 960.6,3339.7 "></polygon> <polygon class="st20" points="777.3,2985.1 781.3,2983 971,3339.7 965.8,3339.7 "></polygon> <polygon class="st20" points="781.3,2983 785.4,2980.8 976.2,3339.7 971,3339.7 "></polygon> <polygon class="st21" points="785.4,2980.8 789.4,2978.7 981.4,3339.7 976.2,3339.7 "></polygon> <polygon class="st22" points="789.4,2978.7 793.5,2976.5 986.6,3339.7 981.4,3339.7 "></polygon> <polygon class="st23" points="793.5,2976.5 797.5,2974.4 991.8,3339.7 986.6,3339.7 "></polygon> <polygon class="st24" points="797.5,2974.4 801.6,2972.2 997,3339.7 991.8,3339.7 "></polygon> <polygon class="st25" points="801.6,2972.2 805.6,2970.1 1002.2,3339.7 997,3339.7 "></polygon> <polygon class="st26" points="805.6,2970.1 809.7,2967.9 1007.4,3339.7 1002.2,3339.7 "></polygon> <polygon class="st27" points="809.7,2967.9 813.7,2965.7 1012.6,3339.7 1007.4,3339.7 "></polygon> <polygon class="st27" points="813.7,2965.7 817.8,2963.6 1017.8,3339.7 1012.6,3339.7 "></polygon> <polygon class="st28" points="817.8,2963.6 821.8,2961.4 1023,3339.7 1017.8,3339.7 "></polygon> <polygon class="st29" points="821.8,2961.4 825.9,2959.3 1028.2,3339.7 1023,3339.7 "></polygon> <polygon class="st30" points="825.9,2959.3 829.9,2957.1 1033.4,3339.7 1028.2,3339.7 "></polygon> <polygon class="st31" points="829.9,2957.1 834,2955 1038.6,3339.7 1033.4,3339.7 "></polygon> <polygon class="st31" points="834,2955 838.1,2952.8 1043.8,3339.7 1038.6,3339.7 "></polygon> <polygon class="st32" points="838.1,2952.8 842.1,2950.7 1049,3339.7 1043.8,3339.7 "></polygon> <polygon class="st33" points="842.1,2950.7 846.2,2948.5 1054.2,3339.7 1049,3339.7 "></polygon> <polygon class="st34" points="846.2,2948.5 850.2,2946.4 1059.4,3339.7 1054.2,3339.7 "></polygon> <polygon class="st35" points="850.2,2946.4 854.3,2944.2 1064.6,3339.7 1059.4,3339.7 "></polygon> <polygon class="st36" points="854.3,2944.2 858.3,2942 1069.7,3339.7 1064.6,3339.7 "></polygon> <polygon class="st36" points="858.3,2942 862.4,2939.9 1074.9,3339.7 1069.7,3339.7 "></polygon> <polygon class="st37" points="862.4,2939.9 866.4,2937.7 1080.1,3339.7 1074.9,3339.7 "></polygon> <polygon class="st38" points="866.4,2937.7 870.5,2935.6 1085.3,3339.7 1080.1,3339.7 "></polygon> <polygon class="st39" points="870.5,2935.6 874.5,2933.4 1090.5,3339.7 1085.3,3339.7 "></polygon> <polygon class="st40" points="874.5,2933.4 878.6,2931.3 1095.7,3339.7 1090.5,3339.7 "></polygon> <polygon class="st41" points="878.6,2931.3 882.6,2929.1 1100.9,3339.7 1095.7,3339.7 "></polygon> <polygon class="st42" points="882.6,2929.1 886.7,2927 1106.1,3339.7 1100.9,3339.7 "></polygon> <polygon class="st43" points="886.7,2927 890.7,2924.8 1111.3,3339.7 1106.1,3339.7 "></polygon> <polygon class="st44" points="890.7,2924.8 894.8,2922.7 1116.5,3339.7 1111.3,3339.7 "></polygon> <polygon class="st45" points="894.8,2922.7 898.8,2920.5 1121.7,3339.7 1116.5,3339.7 "></polygon> <polygon class="st46" points="898.8,2920.5 902.9,2918.3 1126.9,3339.7 1121.7,3339.7 "></polygon> <polygon class="st47" points="902.9,2918.3 906.9,2916.2 1132.1,3339.7 1126.9,3339.7 "></polygon> <polygon class="st48" points="906.9,2916.2 911,2914 1137.3,3339.7 1132.1,3339.7 "></polygon> <polygon class="st49" points="911,2914 915,2911.9 1142.5,3339.7 1137.3,3339.7 "></polygon> <polygon class="st50" points="915,2911.9 919.1,2909.7 1147.7,3339.7 1142.5,3339.7 "></polygon> <polygon class="st51" points="919.1,2909.7 923.1,2907.6 1152.9,3339.7 1147.7,3339.7 "></polygon> <polygon class="st52" points="923.1,2907.6 927.2,2905.4 1158.1,3339.7 1152.9,3339.7 "></polygon> <polygon class="st53" points="927.2,2905.4 931.2,2903.3 1163.3,3339.7 1158.1,3339.7 "></polygon> <polygon class="st54" points="931.2,2903.3 935.3,2901.1 1168.5,3339.7 1163.3,3339.7 "></polygon> <polygon class="st55" points="935.3,2901.1 939.3,2899 1173.7,3339.7 1168.5,3339.7 "></polygon> <polygon class="st56" points="939.3,2899 943.4,2896.8 1178.9,3339.7 1173.7,3339.7 "></polygon> <polygon class="st57" points="943.4,2896.8 947.4,2894.7 1183,3337.6 1179,3339.7 1178.9,3339.7 "></polygon> <rect x="1064.9" y="2864.2" transform="matrix(0.8829 -0.4695 0.4695 0.8829 -1337.5585 865.7166)" class="st58" width="4.6" height="501.6"></rect> <rect x="1069" y="2862.1" transform="matrix(0.8829 -0.4695 0.4695 0.8829 -1336.1161 867.4128)" class="st59" width="4.6" height="501.6"></rect> <rect x="1073" y="2859.9" transform="matrix(0.8829 -0.4695 0.4695 0.8829 -1334.5872 869.0163)" class="st60" width="4.6" height="501.6"></rect> <rect x="1077.1" y="2857.7" transform="matrix(0.8829 -0.4695 0.4695 0.8829 -1333.139 870.7065)" class="st61" width="4.6" height="501.6"></rect> <rect x="1081.1" y="2855.6" transform="matrix(0.8829 -0.4695 0.4695 0.8829 -1331.6644 872.3685)" class="st62" width="4.6" height="501.6"></rect> <rect x="1085.2" y="2853.4" transform="matrix(0.8829 -0.4695 0.4695 0.8829 -1330.153 873.9905)" class="st63" width="4.6" height="501.6"></rect> <rect x="1089.2" y="2851.3" transform="matrix(0.8829 -0.4695 0.4695 0.8829 -1328.6874 875.6622)" class="st64" width="4.6" height="501.6"></rect> <rect x="1093.3" y="2849.1" transform="matrix(0.8829 -0.4695 0.4695 0.8829 -1327.1588 877.2654)" class="st65" width="4.6" height="501.6"></rect> <rect x="1097.3" y="2847" transform="matrix(0.8829 -0.4695 0.4695 0.8829 -1325.7159 878.9619)" class="st66" width="4.6" height="501.6"></rect> <rect x="1101.4" y="2844.8" transform="matrix(0.8829 -0.4695 0.4695 0.8829 -1324.2301 880.6118)" class="st67" width="4.6" height="501.6"></rect> <rect x="1105.4" y="2842.7" transform="matrix(0.8829 -0.4695 0.4695 0.8829 -1322.7019 882.2149)" class="st68" width="4.6" height="501.6"></rect> <rect x="1109.5" y="2840.5" transform="matrix(0.8829 -0.4695 0.4695 0.8829 -1321.2587 883.9116)" class="st69" width="4.6" height="501.6"></rect> <rect x="1113.5" y="2838.4" transform="matrix(0.8829 -0.4695 0.4695 0.8829 -1319.7249 885.5083)" class="st70" width="4.6" height="501.6"></rect> <rect x="1117.6" y="2836.2" transform="matrix(0.8829 -0.4695 0.4695 0.8829 -1318.2871 887.2113)" class="st71" width="4.6" height="501.6"></rect> <rect x="1121.6" y="2834.1" transform="matrix(0.8829 -0.4695 0.4695 0.8829 -1316.8014 888.8611)" class="st72" width="4.6" height="501.6"></rect> <rect x="1125.7" y="2831.9" transform="matrix(0.8829 -0.4695 0.4695 0.8829 -1315.2734 890.4641)" class="st73" width="4.6" height="501.6"></rect> <rect x="1129.7" y="2829.7" transform="matrix(0.8829 -0.4695 0.4695 0.8829 -1313.83 892.1609)" class="st74" width="4.6" height="501.6"></rect> <rect x="1133.8" y="2827.6" transform="matrix(0.8829 -0.4695 0.4695 0.8829 -1312.3021 893.7637)" class="st75" width="4.6" height="501.6"></rect> <rect x="1137.8" y="2825.4" transform="matrix(0.8829 -0.4695 0.4695 0.8829 -1310.8585 895.4607)" class="st76" width="4.6" height="501.6"></rect> <rect x="1141.9" y="2823.3" transform="matrix(0.8829 -0.4695 0.4695 0.8829 -1309.3727 897.1106)" class="st77" width="4.6" height="501.6"></rect> <rect x="1146" y="2821.1" transform="matrix(0.8829 -0.4695 0.4695 0.8829 -1307.8451 898.7132)" class="st78" width="4.6" height="501.6"></rect> <rect x="1150" y="2819" transform="matrix(0.8829 -0.4695 0.4695 0.8829 -1306.4012 900.4103)" class="st79" width="4.6" height="501.6"></rect> <rect x="1154.1" y="2816.8" transform="matrix(0.8829 -0.4695 0.4695 0.8829 -1304.8738 902.0129)" class="st80" width="4.6" height="501.6"></rect> <rect x="1158.1" y="2814.7" transform="matrix(0.8829 -0.4695 0.4695 0.8829 -1303.4298 903.7101)" class="st81" width="4.6" height="501.6"></rect> <rect x="1162.2" y="2812.5" transform="matrix(0.8829 -0.4695 0.4695 0.8829 -1301.944 905.36)" class="st82" width="4.6" height="501.6"></rect> <rect x="1166.2" y="2810.4" transform="matrix(0.8829 -0.4695 0.4695 0.8829 -1300.4167 906.9623)" class="st83" width="4.6" height="501.6"></rect> <rect x="1170.3" y="2808.2" transform="matrix(0.8829 -0.4695 0.4695 0.8829 -1298.9725 908.6597)" class="st84" width="4.6" height="501.6"></rect> <rect x="1174.3" y="2806" transform="matrix(0.8829 -0.4695 0.4695 0.8829 -1297.4454 910.262)" class="st85" width="4.6" height="501.6"></rect> <rect x="1178.4" y="2803.9" transform="matrix(0.8829 -0.4695 0.4695 0.8829 -1296.0011 911.9595)" class="st86" width="4.6" height="501.6"></rect> <rect x="1182.4" y="2801.7" transform="matrix(0.8829 -0.4695 0.4695 0.8829 -1294.5153 913.6094)" class="st87" width="4.6" height="501.6"></rect> <rect x="1186.5" y="2799.6" transform="matrix(0.8829 -0.4695 0.4695 0.8829 -1292.9884 915.2115)" class="st88" width="4.6" height="501.6"></rect> <rect x="1190.5" y="2797.4" transform="matrix(0.8829 -0.4695 0.4695 0.8829 -1291.5438 916.9091)" class="st89" width="4.6" height="501.6"></rect> <rect x="1194.6" y="2795.3" transform="matrix(0.8829 -0.4695 0.4695 0.8829 -1290.0171 918.5112)" class="st90" width="4.6" height="501.6"></rect> <rect x="1198.6" y="2793.1" transform="matrix(0.8829 -0.4695 0.4695 0.8829 -1288.5724 920.2089)" class="st91" width="4.6" height="501.6"></rect> <rect x="1202.7" y="2791" transform="matrix(0.8829 -0.4695 0.4695 0.8829 -1287.0865 921.8588)" class="st92" width="4.6" height="501.6"></rect> <rect x="1206.7" y="2788.8" transform="matrix(0.8829 -0.4695 0.4695 0.8829 -1285.5602 923.4606)" class="st93" width="4.6" height="501.6"></rect> <rect x="1210.8" y="2786.7" transform="matrix(0.8829 -0.4695 0.4695 0.8829 -1284.1151 925.1585)" class="st94" width="4.6" height="501.6"></rect> <rect x="1214.8" y="2784.5" transform="matrix(0.8829 -0.4695 0.4695 0.8829 -1282.5887 926.7603)" class="st95" width="4.6" height="501.6"></rect> <rect x="1218.9" y="2782.3" transform="matrix(0.8829 -0.4695 0.4695 0.8829 -1281.1437 928.4583)" class="st96" width="4.6" height="501.6"></rect> <rect x="1222.9" y="2780.2" transform="matrix(0.8829 -0.4695 0.4695 0.8829 -1279.6578 930.1082)" class="st97" width="4.6" height="501.6"></rect> <rect x="1227" y="2778" transform="matrix(0.8829 -0.4695 0.4695 0.8829 -1278.1318 931.7098)" class="st98" width="4.6" height="501.6"></rect> <rect x="1231" y="2775.9" transform="matrix(0.8829 -0.4695 0.4695 0.8829 -1276.6864 933.408)" class="st99" width="4.6" height="501.6"></rect> <rect x="1235.1" y="2773.7" transform="matrix(0.8829 -0.4695 0.4695 0.8829 -1275.1604 935.0095)" class="st100" width="4.6" height="501.6"></rect> <rect x="1239.1" y="2771.6" transform="matrix(0.8829 -0.4695 0.4695 0.8829 -1273.715 936.7077)" class="st101" width="4.6" height="501.6"></rect> <rect x="1243.2" y="2769.4" transform="matrix(0.8829 -0.4695 0.4695 0.8829 -1272.2291 938.3575)" class="st102" width="4.6" height="501.6"></rect> <rect x="1247.2" y="2767.3" transform="matrix(0.8829 -0.4695 0.4695 0.8829 -1270.7035 939.9589)" class="st103" width="4.6" height="501.6"></rect> <rect x="1251.3" y="2765.1" transform="matrix(0.8829 -0.4695 0.4695 0.8829 -1269.2577 941.6573)" class="st104" width="4.6" height="501.6"></rect> <rect x="1255.3" y="2763" transform="matrix(0.8829 -0.4695 0.4695 0.8829 -1267.7321 943.2586)" class="st105" width="4.6" height="501.6"></rect> <rect x="1259.4" y="2760.8" transform="matrix(0.8829 -0.4695 0.4695 0.8829 -1266.2863 944.9571)" class="st106" width="4.6" height="501.6"></rect> <rect x="1263.4" y="2758.7" transform="matrix(0.8829 -0.4695 0.4695 0.8829 -1264.8004 946.607)" class="st107" width="4.6" height="501.6"></rect> <rect x="1267.5" y="2756.5" transform="matrix(0.8829 -0.4695 0.4695 0.8829 -1263.2751 948.2081)" class="st108" width="4.6" height="501.6"></rect> <rect x="1271.5" y="2754.3" transform="matrix(0.8829 -0.4695 0.4695 0.8829 -1261.829 949.9067)" class="st109" width="4.6" height="501.6"></rect> <rect x="1275.6" y="2752.2" transform="matrix(0.8829 -0.4695 0.4695 0.8829 -1260.3038 951.5078)" class="st110" width="4.6" height="501.6"></rect> <rect x="1279.6" y="2750" transform="matrix(0.8829 -0.4695 0.4695 0.8829 -1258.8575 953.2065)" class="st111" width="4.6" height="501.6"></rect> <rect x="1283.7" y="2747.9" transform="matrix(0.8829 -0.4695 0.4695 0.8829 -1257.3324 954.8074)" class="st112" width="4.6" height="501.6"></rect> <rect x="1287.7" y="2745.7" transform="matrix(0.8829 -0.4695 0.4695 0.8829 -1255.886 956.5062)" class="st113" width="4.6" height="501.6"></rect> <rect x="1291.8" y="2743.6" transform="matrix(0.8829 -0.4695 0.4695 0.8829 -1254.4003 958.1561)" class="st114" width="4.6" height="501.6"></rect> <rect x="1295.8" y="2741.4" transform="matrix(0.8829 -0.4695 0.4695 0.8829 -1252.8755 959.7569)" class="st115" width="4.6" height="501.6"></rect> <rect x="1299.9" y="2739.3" transform="matrix(0.8829 -0.4695 0.4695 0.8829 -1251.4288 961.4559)" class="st116" width="4.6" height="501.6"></rect> <rect x="1303.9" y="2737.1" transform="matrix(0.8829 -0.4695 0.4695 0.8829 -1249.9041 963.0566)" class="st117" width="4.6" height="501.6"></rect> <rect x="1308" y="2735" transform="matrix(0.8829 -0.4695 0.4695 0.8829 -1248.4573 964.7557)" class="st118" width="4.6" height="501.6"></rect> <rect x="1312.1" y="2732.8" transform="matrix(0.8829 -0.4695 0.4695 0.8829 -1246.9716 966.4055)" class="st119" width="4.6" height="501.6"></rect> <polygon class="st120" points="1198.6,2761.1 1201.3,2759.6 1203,2759.6 1438.2,3201.8 1434.1,3204 "></polygon> <polygon class="st121" points="1208.2,2759.6 1442.2,3199.7 1438.2,3201.8 1203,2759.6 "></polygon> <polygon class="st122" points="1213.4,2759.6 1446.3,3197.5 1442.2,3199.7 1208.2,2759.6 "></polygon> <polygon class="st123" points="1218.6,2759.6 1450.3,3195.4 1446.3,3197.5 1213.4,2759.6 "></polygon> <polygon class="st124" points="1223.8,2759.6 1454.4,3193.2 1450.3,3195.4 1218.6,2759.6 "></polygon> <polygon class="st125" points="1229,2759.6 1458.4,3191.1 1454.4,3193.2 1223.8,2759.6 "></polygon> <polygon class="st126" points="1234.2,2759.6 1462.5,3188.9 1458.4,3191.1 1229,2759.6 "></polygon> <polygon class="st127" points="1239.4,2759.6 1466.5,3186.8 1462.5,3188.9 1234.2,2759.6 "></polygon> <polygon class="st128" points="1244.6,2759.6 1470.6,3184.6 1466.5,3186.8 1239.4,2759.6 "></polygon> <polygon class="st129" points="1249.8,2759.6 1472.6,3178.7 1472.6,3183.5 1470.6,3184.6 1244.6,2759.6 "></polygon> <polygon class="st130" points="1255,2759.6 1472.6,3168.9 1472.6,3178.7 1249.8,2759.6 "></polygon> <polygon class="st131" points="1260.2,2759.6 1472.6,3159.1 1472.6,3168.9 1255,2759.6 "></polygon> <polygon class="st132" points="1265.4,2759.6 1472.6,3149.3 1472.6,3159.1 1260.2,2759.6 "></polygon> <polygon class="st133" points="1270.6,2759.6 1472.6,3139.6 1472.6,3149.3 1265.4,2759.6 "></polygon> <polygon class="st134" points="1275.8,2759.6 1472.6,3129.8 1472.6,3139.6 1270.6,2759.6 "></polygon> <polygon class="st135" points="1281,2759.6 1472.6,3120 1472.6,3129.8 1275.8,2759.6 "></polygon> <polygon class="st136" points="1286.2,2759.6 1472.6,3110.3 1472.6,3120 1281,2759.6 "></polygon> <polygon class="st137" points="1291.4,2759.6 1472.6,3100.5 1472.6,3110.3 1286.2,2759.6 "></polygon> <polygon class="st138" points="1296.6,2759.6 1472.6,3090.7 1472.6,3100.5 1291.4,2759.6 "></polygon> <polygon class="st139" points="1301.8,2759.6 1472.6,3080.9 1472.6,3090.7 1296.6,2759.6 "></polygon> <polygon class="st140" points="1307,2759.6 1472.6,3071.2 1472.6,3080.9 1301.8,2759.6 "></polygon> <polygon class="st141" points="1312.2,2759.6 1472.6,3061.4 1472.6,3071.2 1307,2759.6 "></polygon> <polygon class="st142" points="1317.4,2759.6 1472.6,3051.6 1472.6,3061.4 1312.2,2759.6 "></polygon> <polygon class="st143" points="1322.6,2759.6 1472.6,3041.8 1472.6,3051.6 1317.4,2759.6 "></polygon> <polygon class="st143" points="1472.6,3041.8 1322.6,2759.6 1472.6,2759.6 "></polygon> </g> </g> <g class="st144"> <g> <path class="st145" d="M825.6,3220.1c140.5-121.9,119.5-264.3,273.6-331.2c192.9-83.7,322.4,105.2,322.4,105.2 s4.5,20.4,5.5,51.2c5.2-54.5-4.1-96.7-4.1-96.7s-129.5-189-322.4-105.2c-192.9,83.7-111.4,285.7-415.7,417.7 C737.5,3238.3,783.9,3225.7,825.6,3220.1z"></path> </g> </g> <g class="st146"> <path class="st147" d="M1419.5,3090.9c-22.5,35.7-56.8,68.4-108.8,91c-159.6,69.3-253.9-62.8-453.9-35.9 c-38.6,40.9-91.9,80.4-171.8,115.1c304.2-132,401.8,78.6,594.7-5.2C1366.6,3218.2,1404.3,3152.2,1419.5,3090.9z"></path> </g> <g> <path class="st148" d="M925.9,3161.2c177.1-76.9,297,45.7,409.3-3.1c112.3-48.7,71.7-205.9,71.7-205.9s-87.1-137-199.4-88.3 C1095.2,2912.6,1103,3084.3,925.9,3161.2z"></path> </g> <g> <path class="st149" d="M1182.6,3293.1c-47.5,0-91.9-12.8-137.8-26.1c-92.9-26.8-198.2-57.3-362.1,13.9c-8.3,3.6-18-0.2-21.6-8.5 c-0.9-2.1-1.4-4.3-1.4-6.5c0-6.3,3.7-12.4,9.9-15.1c164.2-71.3,215.4-165.5,260.6-248.6c37.6-69.2,73.1-134.5,163.9-173.8 c84.2-36.5,170.3-28.8,249,22.5c58.5,38.1,92,86.4,93.4,88.5c1.2,1.7,2,3.7,2.5,5.7c0.5,2.4,13,59.9,0.8,128.7 c-16.3,92.5-69.5,160.7-153.7,197.3C1249.2,3287,1215.2,3293.1,1182.6,3293.1z M875.9,3203.8c68.4,0,125.1,16.4,178,31.7 c74.7,21.6,139.1,40.2,219.2,5.4c166.6-72.3,139.2-259.4,134.5-285.7c-16.6-22.7-132.4-169.7-300.4-96.8 c-80.3,34.9-111.7,92.6-148.1,159.4c-33.8,62.1-70.7,130-151.2,191.3C831.8,3205.4,854.4,3203.8,875.9,3203.8z"></path> </g> </g> <g> <path class="st145" d="M2417,1963.2c0,0,213.3,89.6,249.4,145S2570,2165,2570,2165"></path> </g> <g> <path class="st149" d="M2570,2184c-5.9,0-11.5-2.8-15.1-7.5l-153-201.8c-5.2-6.8-5.1-16.3,0.1-23c5.3-6.8,14.4-9.2,22.3-5.8 c22.4,9.4,219.7,93.6,257.9,152.1c13.4,20.6,10,36.6,4.7,46.4c-19.2,35.8-94.2,39.4-116.8,39.6 C2570.1,2184,2570.1,2184,2570,2184z M2476.9,2010.9l102.3,134.9c35.4-1.7,69.6-10.3,74.4-19.3c0.5-0.9-0.5-3.9-3-7.9 C2632.5,2090.9,2550.5,2045.9,2476.9,2010.9z"></path> </g> <g> <g> <path class="st145" d="M1521.7,1493.4c-82.8,62.1-158.8,357.7-139.6,534c19.2,176.2,330.7,189.4,508.9,183.7 c178.2-5.7,177.5-408.5,175.2-516.4C2062.6,1526.1,1644.5,1401.3,1521.7,1493.4z"></path> </g> <g class="st150"> <path class="st147" d="M1891,2211c-178.2,5.7-489.7-7.5-508.9-183.7c-2.5-23.1-3.4-48.2-2.8-74.6c49.2,38.7,117.8,4.3,126-43 c51-292,159.8-404,212.4-442.4c160.3,22.5,346.1,115.2,348.5,227.3C2068.6,1802.5,2069.2,2205.3,1891,2211z"></path> </g> <g> <path class="st149" d="M1828.9,2231c-215.3,0-447.8-38.5-465.6-201.6c-18.6-170.5,52.1-480,147-551.2 c84.2-63.1,278.4-33,410.1,31.1c104.7,51,163.2,116.6,164.7,184.9c4.3,197.6-15.2,530.1-193.5,535.8 C1871,2230.6,1850,2231,1828.9,2231z M1648.1,1480.9c-49,0-90.1,9-115,27.7l0,0c-76.5,57.3-150.6,347.1-132.1,516.8 c17.2,158.3,314.1,172.5,489.4,166.8c155.4-5,159.4-381.8,156.9-497.1c-1.1-52.6-53.4-107.9-143.4-151.7 C1820.3,1502.7,1724.6,1480.9,1648.1,1480.9z M1521.7,1493.4L1521.7,1493.4L1521.7,1493.4z"></path> </g> <g> <path class="st145" d="M1539.2,1789l-79.1-31.5c-17.9-7.1-38,3-42.8,21.6c-16.6,64.1-42.2,196.9,22.3,224.1 c78.1,32.9,105.8-57.2,119.6-181C1560.8,1807.9,1552.5,1794.4,1539.2,1789z"></path> </g> <g class="st150"> <path class="st147" d="M1559,1822c-13.4,123.9-40.9,214.1-119.1,181.3c-32.1-13.4-42-53.1-41.7-97.5c6.5,12.7,15.9,22.5,28.9,28 c70,29.3,99.4-39.9,114.4-143.7C1553.4,1795.9,1560.5,1808.6,1559,1822z"></path> </g> <g> <path class="st149" d="M1470,2027.6c-11.6,0-23.9-2.7-36.9-8.2c-71.5-29.9-57.4-149.5-33-244.5c3.5-13.7,12.8-25.3,25.4-31.7 c12.7-6.5,27.5-7.1,40.7-1.9l79.1,31.3c20.6,8.2,33.4,29.3,31,51.3c-12.4,113.8-33.8,171.9-71.8,194.3 C1494,2024.5,1482.4,2027.6,1470,2027.6z M1448,1772.8c-2.3,0-4.5,0.5-6.6,1.6c-2.2,1.1-6,3.8-7.4,9.2 c-22.2,86.5-30.6,185.4,12.6,203.5c16.4,6.9,29.6,7.2,40.2,0.9c39.1-23,50.9-132.1,54.8-167.9c0.7-6.4-3-12.5-9.1-14.9 l-79.1-31.3C1451.6,1773.1,1449.8,1772.8,1448,1772.8z"></path> </g> <g> <path class="st149" d="M1510.1,1493.7l93.2,43c31,14.6,61.9,29,92.7,44.6c4.7,2.4,6.5,8.1,4.2,12.7c-2.2,4.4-7.4,6.3-11.9,4.5 l-0.2-0.1c-31.4-12.5-63.6-24-95.6-35.6l-96.4-34.1l-0.2-0.1c-9.9-3.5-15-14.3-11.5-24.2c3.5-9.9,14.3-15,24.2-11.5 C1509,1493.3,1509.6,1493.5,1510.1,1493.7z"></path> </g> </g> <g> <path class="st145" d="M2941.4,1436.7c-30.7,104.8-264,298.9-598.7,308.6c-32.4,1-65.7,0.2-99.9-2.6l-29.9-127.6l-23.9-102.1 c0,0,52-9.5,123-28.4c56.1-14.9,124.2-35.6,187.9-62.1c60.1-25,116.5-55.1,155.4-90.4c0,0,2.1-105,31.9-115.7 c36.4-13.1,63.3,60.8,63.3,60.8s82.6-85.1,130.9-76.8C2953.1,1212.7,2975.1,1321.8,2941.4,1436.7z"></path> </g> <g class="st151"> <path class="st147" d="M2956.4,1351.1c-1.4,27.2-6.4,56.2-15.1,85.7c-33.7,114.9-311,337.3-698.6,306l-53.8-229.7 c0,0,16.1-2.9,42.7-8.8l62.8,121.7C2614.7,1722.5,2903.8,1469.3,2956.4,1351.1z"></path> </g> <g> <path class="st149" d="M2316.3,1764.7c-24.6,0-49.5-1-75-3c-10.4-0.8-18.2-10-17.4-20.4c0.8-10.4,10-18.2,20.4-17.4 c382.2,30.8,649.1-191.1,678.9-292.5c21.2-72.4,19.2-144.5-5.3-183.7c-10.1-16.2-23.5-25.8-39.7-28.6 c-26.4-4.5-82.7,39-114.1,71.4l-21,21.6l-10.3-28.3c-8.3-22.7-27.5-53-38.8-49.6c-9.4,6.7-18.7,53.3-19.7,98.3l-0.2,8.2l-6,5.5 c-134.9,122.1-461.8,183-475.6,185.5c-10.3,1.9-20.1-4.9-22-15.2c-1.9-10.3,4.9-20.1,15.2-22c3.2-0.6,320.2-59.6,451-171 c1.5-38.8,9-112,44.2-124.7c35.7-12.9,61.7,20.7,75.8,46.5c30.3-27.5,85.6-70.6,128-63.4c26.9,4.6,49.6,20.4,65.4,45.8 c30.4,48.7,34,130.8,9.5,214.4C2925.2,1559.1,2672,1764.7,2316.3,1764.7z M2694.1,1234.2"></path> </g> <g> <path class="st145" d="M2593.9,2196.5c0,0-468.7,181.2-633.1,168.3c-164.4-13-341.5-39-351.2-350.9 c-6-193.9,89.9-384.6,163.4-501.2c44.7-71,81.1-114.5,81.1-114.5l452.5,23.1c0,0,1.8,23.9,5.4,63.4c2.3,24.7,5.3,55.5,9.1,90.5 c5.5,50.2,12.6,108.8,21.5,170.1c13.6,93.9,31.5,194,54,279.1C2406.3,2061.2,2560.8,2071.3,2593.9,2196.5z"></path> </g> <g> <path class="st149" d="M2332.5,1619.1c16.9,55.2,26.6,111,36.4,166.8c9.9,55.7,18.8,111.5,30.3,166.7c2.9,13.8,6,27.5,9.3,41.2 l5,20.5l1.3,5.1l0.1,0.3l0-0.1l0-0.1c0-0.1,0-0.2-0.1-0.2c0-0.1-0.1-0.1-0.2-0.2c0.1,0,0.1,0,0.1,0.1c0.1,0.1,0,0.1,0.1,0.3 c0.3,0.2,0.5,0.5,0.7,0.7c0.2,0.5,1.4,1.2,2.1,1.9c3.5,2.9,9.2,6,14.9,9c5.8,3,12.1,5.9,18.5,8.8c12.8,5.8,26.1,11.8,39.3,18.4 c26.3,13.3,52.7,29.5,74.8,52c11,11.2,20.8,23.8,28.8,37.6c8,13.8,14,28.7,18.1,44l4.4,16.5l-15.9,6 c-74.5,28.4-149.3,54.7-225,79.4c-75.6,24.6-151.9,47.5-229.8,65.9c-39,9.1-78.3,17.2-119,21.8c-20.3,2.3-40.9,3.8-62.5,2.6 c-5.5-0.1-10.3-0.7-15.3-1l-14.9-1.3c-10-0.9-20-1.9-30-3.1c-40-4.7-80.8-11.8-120.1-26.3c-19.6-7.2-38.9-16.4-56.8-27.9 c-18-11.5-34.6-25.3-49.2-40.9c-14.6-15.7-26.9-33.3-37.2-51.8c-10.2-18.5-18.7-37.9-25-57.7l-2.5-7.4l-2.1-7.5l-4.1-15 l-3.4-15.1l-1.7-7.5l-1.3-7.6l-2.6-15.2c-0.8-5.1-1.4-10.1-2-15.2c-1.5-10.1-2.3-20.3-3.2-30.4c-3.4-40.3-3.3-81.6,1.1-122.1 c4.2-40.5,12.1-80.5,22.7-119.6c21.2-78.2,53.1-152.7,90.7-223.6c18.8-35.5,37.6-71.1,60.4-104.2c22.8-33,48.1-64.6,81.4-89.4 c2.9-2.1,6.9-1.6,9.1,1.3c1.5,2,1.6,4.5,0.7,6.5l-0.1,0.2c-16.6,36.7-36.9,70-57.5,103.2c-20.3,33.3-42.1,65.7-60.5,100.2 c-36.7,68.8-67.4,140.9-87.7,215.6c-10.1,37.4-17.6,75.3-21.6,113.6c-4.1,38.3-4.2,76.5-1,115.1c0.8,9.6,1.6,19.2,3,28.7 c0.6,4.7,1.2,9.5,1.9,14.2l2.5,14.1l1.2,7l1.6,6.9l3.1,13.9l3.8,13.6l1.9,6.8l2.3,6.7c5.7,17.9,13.2,35,22.1,51.1 c8.9,16.1,19.5,31.2,31.9,44.5c24.7,26.7,56.4,46.3,91.4,59.1c35,12.9,72.9,19.7,111.4,24.2c9.6,1.2,19.3,2.1,29.1,3l14.6,1.3 c4.8,0.4,10,0.9,14.3,1c4.6,0.1,9,0.6,13.7,0.4l14-0.3c9.5-0.7,18.9-1.2,28.4-2.5c38.1-4.3,76.5-12.2,114.5-21 c76.2-18,151.8-40.7,226.7-65c74.9-24.5,149.5-50.7,223-78.7l-11.5,22.5c-6.5-24.5-19.3-46.5-37.3-64.6 c-17.9-18.3-40.5-32.5-64.9-44.8c-12.2-6.2-24.9-11.8-37.9-17.8c-6.5-3-13.2-6-20-9.5c-6.9-3.6-13.8-7.2-21.4-13.2 c-2-1.7-3.8-3-5.8-5.3l-2.9-3.2c-1-1.3-1.9-2.7-2.8-4.1c-1.8-2.4-3.4-7.1-4.3-9.9l-1.4-5.2l-5.4-20.9c-3.5-14-6.9-27.9-10-41.9 c-6.4-28-12.5-56-17.9-84.2c-5.4-28.1-9.9-56.4-13.9-84.7c-7.8-56.7-13.2-113.7-9.7-171.4c0.2-3.5,3.3-6.2,6.8-6 C2329.5,1614.7,2331.7,1616.6,2332.5,1619.1z"></path> </g> <g> <path class="st152" d="M1655.1,3149.4L1574,3162c-36.7,5.7-73.6-9.2-96-38.8l0,0c-66.8-88.1-108.1-192.9-119.6-302.8v0 c-3.9-36.9,12.9-73,43.6-93.9l67.8-46.2"></path> </g> <g class="st153"> <g> <path class="st145" d="M1484.1,2726.7l-67.2,45.8c-16.9,11.5-30,27.3-38.4,45.3c-8.3,18-11.9,38.2-9.7,58.6 c1.6,15.8,3.9,31.4,6.6,47c-8.1-30.4-13.8-61.5-17.1-93c-1.9-18.4,1.3-36.7,8.8-53c7.5-16.2,19.4-30.4,34.7-40.9l67.8-46.2 L1484.1,2726.7z"></path> </g> </g> <g> <g class="st151"> <path class="st147" d="M1409.4,2989.1C1409.4,2989.1,1409.4,2989.1,1409.4,2989.1c16.5,33,36.1,64.5,58.5,94.1 c22.4,29.6,59.3,44.5,96,38.8l75.6-11.8l-169.9-430l-14.5,9.9l125.9,318.8l-81.1,12.6 C1466.2,3026.8,1432.1,3014.4,1409.4,2989.1z M1565.7,2969.7l-110.5-279.6l4.6-3.1l111.4,281.9L1565.7,2969.7z"></path> </g> </g> <g> <path class="st154" d="M1669.4,2555.6c-42.2-82.6-186.6-191.9-470.8-11.6c-3.7,2.4-2.6,8.1,1.7,8.9 c47.3,8.4,269.7,46.3,310.5,162"></path> </g> <g class="st153"> <g> <path class="st145" d="M1246.4,2556.8c-20.4-4.4-36.7-7.2-46.1-8.9c-4.4-0.8-5.5-6.5-1.7-8.9c284.2-180.3,428.7-71,470.8,11.6 l-17.2,17.2C1597.7,2497.5,1469.6,2433.3,1246.4,2556.8z"></path> </g> </g> <g> <path class="st149" d="M1510.8,2733.9c-7.8,0-15.1-4.9-17.9-12.7c-13.6-38.7-69.9-109.5-293.7-149.3l-2.2-0.4 c-9.7-1.7-17.2-9.1-19.2-18.8c-1.9-9.7,2.2-19.4,10.6-24.7c138.1-87.7,258.6-118.3,358-91.2c87.7,24,127,85,139.8,110.1 c4.8,9.3,1.1,20.7-8.3,25.5c-9.3,4.7-20.7,1.1-25.5-8.3c-10.5-20.7-42.9-70.8-116.1-90.8c-80.3-21.9-182.3,1.5-296.7,67.8 c203.9,42.2,269.9,113.6,288.9,167.5c3.5,9.9-1.7,20.7-11.6,24.1C1515,2733.6,1512.9,2733.9,1510.8,2733.9z"></path> </g> <g> <path class="st155" d="M1882.4,3094.9c25.7,89.1-3.2,272.5-333.9,335c-4.3,0.8-7.4-4.1-4.8-7.7 c28.8-38.5,163.2-223.3,113.9-335.6"></path> </g> <g> <path class="st154" d="M1548.6,3429.9c-4.3,0.8-7.4-4.2-4.8-7.7c14.7-19.7,57.2-77.8,88.5-144.9c29.6-63.4,49.2-134.8,25.9-189.5 c-0.2-0.4-0.4-0.8-0.5-1.2l1.4,0l223.4,8.2c7.2,25,10.1,57.5,3.2,92.6C1868.1,3277.4,1786.4,3384.9,1548.6,3429.9z"></path> </g> <g class="st151"> <path class="st147" d="M1632.2,3277.3c29.6-63.4,49.2-134.8,25.9-189.5c0.3-0.4,0.6-0.8,0.8-1.2l223.4,8.2 c7.2,25,10.1,57.5,3.2,92.6C1832.3,3232.7,1751.5,3268.2,1632.2,3277.3z"></path> </g> <g> <path class="st149" d="M1547.6,3448.9c-8.1,0-15.7-4.1-20.1-11.2c-5.2-8.4-4.8-18.9,1.1-26.8c37.1-49.6,154.6-218.9,111.7-316.6 c-4.2-9.6,0.1-20.7,9.7-25c9.6-4.2,20.7,0.1,25,9.7c43.7,99.4-39,244.3-94.7,324.9c127.1-29.5,216.8-82.2,260.5-153.3 c42.2-68.6,28.6-132.5,23.5-150.5c-2.9-10,2.9-20.5,13-23.4c10-2.9,20.5,2.9,23.4,13c8,27.8,21.4,101.2-27.6,180.8 c-54.2,88.1-162.2,148-320.9,178.1C1550.6,3448.8,1549.1,3448.9,1547.6,3448.9z M1545,3411.3 C1545,3411.3,1545,3411.3,1545,3411.3C1545,3411.3,1545,3411.3,1545,3411.3z"></path> </g> <g> <path class="st145" d="M3218.4,2258.5c0,0-74.3,472.7-686.6,764.7c-521.6,248.7-882.3,126.2-882.3,126.2 c-73.3-81.7-126.5-178.4-156.7-282.3c-17.5-60.4-27.3-123.1-28.6-186.9c0,0,80.1-150,297.5-301.6c7.5-5.2,15.1-10.5,23-15.7 c84.9-56.7,189.3-113,316.1-161c29.9-11.4,61.1-22.2,93.6-32.5c1.3-0.4,2.6-0.8,3.8-1.2c131-41.3,250.9-62.1,358.8-69 c3.5-0.2,6.9-0.4,10.3-0.6C2983.7,2075.4,3218.4,2258.5,3218.4,2258.5z"></path> </g> <g> <path class="st154" d="M2906.2,2777.4c-40.7-243.3-132.3-475.3-268.9-680.7c376-2.5,586.6,161.8,586.6,161.8 S3182.4,2522.2,2906.2,2777.4z"></path> </g> <g class="st153"> <g> <path class="st145" d="M3216.1,2287.8c5.8-22,7.8-34.3,7.8-34.3s-210.6-164.3-586.6-161.8c8.8,13.3,17.4,26.6,25.9,40.1 C2981.9,2136.2,3176,2259.7,3216.1,2287.8z"></path> </g> </g> <g> <path class="st149" d="M2893.3,2815.1l-5.8-34.6c-40.5-242.2-130-468.8-266-673.3l-19.4-29.2l35-0.2 c298.1-2.1,494.9,99.9,565.7,143.7c26.7,16.5,39.1,48,30.9,78.3c-21.7,80.4-95.9,289.3-314.8,491.5L2893.3,2815.1z M2672.4,2115.9c121.8,191.2,204.6,400.7,246.3,623.5c192.1-187.7,258.5-375.4,278.6-449.5c3.8-14-2-28.6-14.3-36.2 C3117.7,2213.3,2940.9,2121.7,2672.4,2115.9z"></path> </g> <g> <path class="st149" d="M1897.2,3198.5c-154.6,0-244.4-29.9-248.2-31.2l-4.7-1.6l-3.3-3.7c-59.2-66-105.7-141.2-138.2-223.7 c-32.6-82.4-50-169.1-51.9-257.7l-0.1-5l2.3-4.4c1.9-3.5,47.7-88,162.4-194.8c105.2-97.9,291-233.8,578.8-325.2 c150.9-47.9,299.9-72.7,442.9-73.6l10.2-0.1l5.7,8.5c138.6,208.5,230,439.4,271.5,686.3l3.8,10.2l-9.3,8.6 c-105,97.1-230.8,180.8-373.7,249c-272.6,130-501.1,157.8-644.8,158.2C1899.5,3198.5,1898.3,3198.5,1897.2,3198.5z M1665.7,3132.8c20,5.9,105,28.5,236.9,27.8c139.4-0.6,361.3-28,626.6-154.5c136.1-64.9,256-144.1,356.7-235.7 c-40.7-235.1-127.7-455.2-258.6-654.7c-136.1,2-277.8,26.1-421.5,71.7c-504.4,160.2-694.2,458.9-716.9,497.5 c2.3,82.3,18.9,162.8,49.1,239.4C1568.2,3001.1,1611.2,3071.1,1665.7,3132.8z"></path> </g> <g> <path class="st149" d="M1558.4,3182.1c-37.2,0-72.6-17.3-95.5-47.5c-68.9-90.9-111.5-198.9-123.4-312.3 c-4.6-43.9,15.2-86.7,51.7-111.5l67.8-46.2c8.6-5.9,20.4-3.7,26.3,5c5.9,8.6,3.7,20.4-5,26.3l-67.8,46.2 c-25,17-38.5,46.2-35.4,76.3c11.1,106.5,51.2,208,115.9,293.4c18.2,24.1,48.1,36.2,78,31.5l81.1-12.6c10.3-1.6,20,5.5,21.6,15.8 c1.6,10.3-5.5,20-15.8,21.6l-81.1,12.6C1570.7,3181.7,1564.5,3182.1,1558.4,3182.1z"></path> </g> <g class="st151"> <ellipse transform="matrix(0.9301 -0.3674 0.3674 0.9301 -780.4344 1083.6871)" class="st147" cx="2456.1" cy="2591.7" rx="260.4" ry="260.4"></ellipse> </g> <g> <ellipse transform="matrix(0.9301 -0.3674 0.3674 0.9301 -768.2057 1083.551)" class="st154" cx="2461.9" cy="2559.5" rx="234.2" ry="234.2"></ellipse> </g> <g class="st153"> <g> <path class="st145" d="M2692.2,2522c-1.6-5.1-3.4-10.1-5.4-15.1c-47.5-120.3-183.6-179.3-303.9-131.8 c-106.1,41.9-164.5,152.6-144.2,260.6c-37.3-116.5,21.7-243.5,137-289c120.3-47.5,256.4,11.5,303.9,131.8 C2685.4,2492.8,2689.5,2507.4,2692.2,2522z"></path> </g> </g> <g class="st151"> <path class="st147" d="M2547.9,2777.3c-120.3,47.5-256.3-11.4-303.9-131.7c-14.9-37.8-19.3-77.2-14.6-114.9 c2.6,17.1,7.2,34.2,13.8,51c47.5,120.3,183.6,179.3,303.9,131.8c82.5-32.6,136.1-106.8,146.3-189 C2709.6,2629.9,2651.4,2736.4,2547.9,2777.3z"></path> </g> <g> <path class="st149" d="M2461.8,2812.8c-34.2,0-68.3-7-100.6-21c-62-26.9-109.9-76.3-134.7-139.2c-24.8-62.9-23.7-131.7,3.2-193.7 c26.9-62,76.3-109.9,139.2-134.7c62.9-24.8,131.7-23.7,193.7,3.2c62,26.9,109.9,76.3,134.7,139.2c24.8,62.9,23.7,131.7-3.2,193.7 c-26.9,62-76.3,109.9-139.2,134.7l0,0C2524.7,2806.8,2493.3,2812.8,2461.8,2812.8z M2461.9,2344.1c-26.7,0-53.5,5.1-79.1,15.2 c-53.5,21.1-95.5,61.8-118.4,114.6s-23.8,111.3-2.7,164.7c21.1,53.5,61.8,95.5,114.6,118.4c52.8,22.9,111.3,23.8,164.7,2.7l0,0 c53.5-21.1,95.5-61.8,118.4-114.6c22.9-52.8,23.8-111.3,2.7-164.7c-21.1-53.5-61.8-95.5-114.6-118.4 C2520,2350.1,2491,2344.1,2461.9,2344.1z"></path> </g> <g> <ellipse transform="matrix(0.9301 -0.3674 0.3674 0.9301 -766.7673 1083.8737)" class="st156" cx="2463.4" cy="2555.9" rx="149" ry="149"></ellipse> </g> <g class="st146"> <g> <path class="st145" d="M2518.2,2694.5c-76.5,30.2-163.1-7.3-193.3-83.9c-6.6-16.6-9.9-33.6-10.4-50.5c0.5,1.6,1.1,3.1,1.7,4.7 c30.2,76.5,116.8,114.1,193.3,83.9c60-23.7,96-81.9,94.2-142.8C2630.7,2581.2,2593.1,2664.8,2518.2,2694.5z"></path> </g> </g> <g class="st151"> <path class="st147" d="M2614,2563.6c-0.8-2.4-1.7-4.8-2.7-7.2c-30.2-76.5-116.8-114.1-193.3-83.9 c-57.6,22.7-93.1,77.4-94.2,135.7c-25.2-74.7,12.4-156.8,86.5-186.1c76.5-30.2,163.1,7.3,193.3,83.8 C2611.1,2524.8,2614.5,2544.4,2614,2563.6z"></path> </g> <g> <path class="st149" d="M2463.4,2723.9c-22.7,0-45.3-4.7-66.8-14c-41.2-17.8-72.9-50.6-89.4-92.4c-34-86.1,8.4-183.9,94.5-217.9 c86.1-34,183.9,8.4,217.9,94.5c34,86.1-8.4,183.9-94.5,217.9C2505.1,2719.9,2484.3,2723.9,2463.4,2723.9z M2463.3,2425.8 c-15.9,0-32,2.9-47.6,9.1c-66.7,26.4-99.5,102.1-73.2,168.8c12.8,32.3,37.3,57.7,69.2,71.5c31.9,13.8,67.2,14.4,99.5,1.6l0,0 c66.7-26.4,99.5-102.1,73.2-168.8C2564.2,2457,2515.1,2425.8,2463.3,2425.8z"></path> </g> <g class="st157"> <path class="st145" d="M2949.7,2236.4c-1.1-35.6-75-63.4-116.8-63.1c-43.3,0.3-69.4,7.8-69.5,28.8c-0.3,29.3,33.5,39.6,73.6,41.1 C2865.2,2244.2,2951.1,2280.3,2949.7,2236.4z"></path> </g> <g class="st157"> <path class="st145" d="M3058.2,2281.4c-2.3-30.8-39.6-59.6-59.9-61.9c-21-2.4-33.3,2.4-32.3,20.5c1.3,25.3,18.2,36.3,37.8,40.1 C3017.6,2282.8,3061.1,2319.4,3058.2,2281.4z"></path> </g> <g> <g class="st151"> <path class="st147" d="M1645.1,3114.4c0,0,360.6,122.6,882.2-126.2c529.7-252.6,656.7-640.4,681.4-740.5 c2.5,1.7,4.7,3.2,6.6,4.5c-7.7-5.3-20.4-13.8-38.1-24.1c-71.9,163.4-243.1,426.4-637.4,614.5 c-246.3,117.4-456.7,152.1-610.2,156c-196,5-372.3-120.8-427.8-308.9c-0.3-1-0.6-2.1-0.9-3.1c-2.2-7.5-4.2-15-6.1-22.5 c-1-3.1-2-6.2-3-9.4c-0.3-1-0.6-2.1-0.9-3.1c-0.3-1.1-0.6-2.2-0.9-3.3c0.2-0.3,0.5-0.7,0.7-1c0,0,0,0,0,0 c-14.3,20.9-20.8,33-20.8,33c1.2,56.3,9,111.8,22.8,165.6C1523.4,2944.5,1575,3036.3,1645.1,3114.4z"></path> </g> </g> <g> <path class="st154" d="M1619.5,2985.8c-107.4,42.4-246.7-0.8-246.7-0.8s0.3-0.5,0.8-1.3c8.1-13.7,77.9-128,178.7-167.9 c96.8-38.2,202.1,1,220.9,8.7c1.9,0.8,2.9,1.2,2.9,1.2S1726.1,2943.7,1619.5,2985.8z"></path> </g> <g class="st153"> <g> <path class="st145" d="M1781.1,2830.7c0,0-3.1,7.2-9.2,18.6c-35.9-12.4-124.8-36.3-207.4-3.6 c-81.1,32.1-142.1,112.2-167.1,149.5c-12.4-2.9-19.7-5.2-19.7-5.2s0.3-0.5,0.8-1.4c8.1-13.7,77.9-128,178.7-167.9 c96.7-38.3,202.1,1,220.9,8.6C1780.1,2830.2,1781.1,2830.7,1781.1,2830.7z"></path> </g> </g> <g class="st151"> <path class="st147" d="M1619.5,2985.8c-107.4,42.4-246.7-0.8-246.7-0.8s0.3-0.5,0.8-1.3l399.6-159.2c1.9,0.8,2.9,1.2,2.9,1.2 S1726.1,2943.7,1619.5,2985.8z"></path> </g> <g> <path class="st149" d="M1508.9,3023.5c-74.7,0-137.8-19.2-141.7-20.4l-22.5-7l11.6-20.5c3.1-5.4,76.7-133.1,189-177.5 c112.7-44.6,233.4,7.9,238.4,10.2l17,7.6l-7.2,17.1c-2.2,5.1-54.3,125.9-167.1,170.4C1588.4,3018.4,1547.1,3023.5,1508.9,3023.5z M1402.8,2973.1c43.2,9.7,135.7,24.4,209.7-4.9c74.1-29.2,119.3-99.2,137.3-132.1c-35.7-11.8-116.7-31.9-190.5-2.7 C1485,2862.7,1427.7,2936.5,1402.8,2973.1z M1372.8,2985L1372.8,2985L1372.8,2985z"></path> </g> <g class="st150"> <path class="st147" d="M2153,2599.6c14.9,21.4,117.9,195.2,35,264.2c-72.6,60.5-206.5,50.6-277-44.5 c-46.6-62.9-56.1-135.4-53.4-190.9c3.1-64.8,14.7-126.6-17.6-175.1c-17.2-25.9-45.6-49-78.2-74.6c7.5-5.2,15.1-10.5,23-15.7 c84.9-56.7,189.3-113,316.1-161c24.8,11.9,48.5,27.3,68.4,47c78.6,78,80.8,234.4,27.4,297.9 C2175.7,2571.8,2153,2599.6,2153,2599.6z"></path> </g> <g> <path class="st145" d="M2200.4,2552.2c14.9,21.4,117.9,195.2,35,264.2c-72.6,60.5-206.5,50.6-277-44.5 c-46.6-62.9-56.1-135.4-53.4-190.9c3.1-64.8,14.7-126.6-17.6-175.1c-36.8-55.3-180.3-75.9-251.7-157.8 c-42.1-48.2-64.6-135.7-60.8-242.9c1.2-32.6,4.8-67,11-102.7c26.5-151.6,100.6-325.9,237.1-480.3c0,0,54.2,217,111.1,409.8 c39.6,134.4,80.5,257,105.1,286c3.3,3.9,6.2,6.1,8.9,6.4c32.3,4.5,64,13.5,94.1,27.3c26.9,12.3,52.9,28.5,74.4,49.8 c78.6,78,80.8,234.4,27.4,297.9C2223,2524.4,2200.4,2552.2,2200.4,2552.2z"></path> </g> <g class="st150"> <path class="st147" d="M2261.9,2776.8c-4.9,15.2-13.3,28.7-26.5,39.6c-72.6,60.5-206.5,50.6-277-44.5 c-46.6-62.9-56.1-135.4-53.4-190.9c3.1-64.8,14.7-126.6-17.6-175.1c-36.8-55.3-180.3-76-251.7-157.8 c-42-48.2-64.6-135.8-60.7-243c0-0.5,0-1,0-1.5c0.1-3.6,0.3-7.2,0.5-10.8c0.2-3.3,0.4-6.7,0.6-10.1c0.1-1.5,0.2-3.1,0.3-4.6 c0.6-8,1.3-16.1,2.2-24.3c0.4-3.9,0.9-7.8,1.4-11.8c0.3-2.7,0.7-5.5,1.1-8.3c0.3-2.3,0.6-4.6,0.9-7c0.5-3.6,1.1-7.3,1.7-11 c0.7-4.2,1.4-8.4,2.1-12.6c0-0.2,0.1-0.5,0.1-0.7c4.2-4.7,7.2-7.4,7.2-7.4s14.3,6.5,44.8,14.4c48.5,12.6,138,28.9,276.3,28.7 l-2.2-71.7c-0.5-15.3,8.7-28.8,22.1-34.5c3.2-1.4,6.6-2.3,10.3-2.7l85.9-9.2l124.2,300.7l-115.3-2.8l-86.7-2.1 c-18.6-1.2-33.4-16.4-33.9-35.1l-1.1-36c-75.9,17-201.5,21.4-282.7-5.3c6.1,74.9,26.9,135.4,59.3,172.5 c71.4,81.8,178.4,37.9,250.8,122.4c45.3,52.8,21.6,145.7,18.5,210.5c-2.7,55.5-24.1,136.8,22.5,199.7 C2047.4,2827.7,2180.7,2820.3,2261.9,2776.8z"></path> </g> <g class="st150"> <path class="st147" d="M2499.9,1422.6c-46.5,63.9-107.8,116.5-178.8,152.6c-34,17.3-70.3,30.8-108.3,40 c-39.1,9.5-80,14.4-122.1,14.1c-74.8-0.5-145.7-17.4-209.2-47.2c-63.4-29.8-139.1-1.4-168,62.4c-41.5,91.8-65.9,182.6-75.7,265 c-30.5-7.9-44.8-14.4-44.8-14.4s-3,2.7-7.2,7.4c26.5-151.6,100.6-325.9,237.1-480.3l1.4,14.5c18.1-24.8,29.7-38.6,29.7-38.6 l452.5,23.1c0,0,1.8,23.9,5.4,63.4C2368.2,1469.9,2436.2,1449.1,2499.9,1422.6z"></path> </g> <g> <path class="st149" d="M2057.2,2119.5c24.6-0.3,49.3,3.7,73.1,10.9c23.8,7.3,47,17.5,68.3,31.7c10.6,7.1,20.9,15.1,30.4,24 c9.6,9.1,18.2,19.3,25.8,29.9c15.1,21.5,25.6,45.4,32.9,69.9c7,24.6,11,49.8,11.8,75.1c1,25.3-0.9,50.8-6.6,75.8 c-5.8,25-14.9,50.2-32.3,72.3l-45.5,55.1l0.8-22.8c3.8,5.6,6.8,10.5,9.8,15.7c3,5.1,5.9,10.2,8.7,15.4 c5.6,10.3,10.9,20.8,15.9,31.5c9.9,21.3,18.6,43.4,25.2,66.5c6.5,23.1,11.2,47.3,10.6,72.9c-0.3,12.8-1.9,25.9-6.1,38.8 c-4.1,12.9-10.8,25.5-19.9,36.2l-3.4,4c-1.2,1.3-2.5,2.4-3.7,3.6c-2.5,2.3-5.1,5-7.7,6.7c-5.2,3.7-10.2,7.8-15.6,11.2 c-5.5,3.1-11,6.4-16.7,9.3l-17.4,7.5c-23.7,8.7-48.7,12.6-73.5,12.4c-24.8-0.2-49.5-4.4-73-12.4c-23.6-7.8-45.5-20.3-65-35.6 c-4.9-3.8-9.9-7.6-14.2-12.1c-4.4-4.4-9.1-8.5-13.1-13.2l-11.9-14.3c-3.9-4.8-7.1-9.9-10.7-14.9c-13.3-20.4-24-42.6-31.8-65.5 c-7.6-23-12.7-46.8-15-70.7c-1.3-12-1.8-23.9-1.8-35.9c-0.1-6,0.2-12,0.4-17.9l1-17.3c1.5-23,3.5-45.3,3.5-66.9 c0-21.5-2-42.2-9-60.2c-0.8-2.3-1.7-4.5-2.8-6.6c-1.1-2.1-1.9-4.4-3.2-6.4l-3.7-6.1c-1.3-1.8-2.3-3.3-3.8-5 c-5.6-6.5-13.3-12.6-21.9-18.2c-17.4-11.1-37.7-20.5-58.1-29.8c-41-18.6-84.3-36.9-123.8-65c-19.6-14.2-38.2-30.6-53.2-51.4 c-14.8-20.5-25.1-43-32.9-65.7c-7.7-22.8-13-46.2-16.7-69.5c-3.3-23.4-5.2-46.9-5.8-70.3c-0.9-46.9,3.3-93.5,11-139.3 c15.9-91.7,46.2-180.2,87.3-263.2c21-41.2,42.4-82.5,68.9-120.6c26.6-37.8,56.9-73.6,95.4-100.7c2.9-2.1,7-1.4,9,1.6 c1.4,2.1,1.5,4.6,0.4,6.7l0,0.1c-21.5,41.2-47.1,77.4-71.4,114.9c-24.4,37.2-48.9,74.6-68.5,114.8 c-39.7,79.9-68.7,165.1-83.9,252.7c-7.3,43.8-11.3,88.1-10.5,132.2c0.5,22,2.3,43.9,5.4,65.5c3.4,21.5,8.2,42.7,15,62.9 c6.9,20.2,15.8,39.4,27.7,55.9c11.6,16.2,27.4,30.4,44.6,42.8c34.8,24.8,75.8,42.5,117.4,61.3c20.8,9.5,42.1,19.1,63.1,32.5 c10.4,6.8,20.9,14.7,30.2,25.5c2.3,2.6,4.5,5.8,6.5,8.6l5.1,8.5c1.7,2.8,3,5.9,4.5,8.8c1.5,2.9,2.7,6,3.8,9.1 c4.7,12.2,7.7,24.8,9.3,37.2c1.6,12.4,2.3,24.7,2.2,36.6c-0.1,23.9-2.2,46.9-3.6,69.3l-1,16.7c-0.2,5.4-0.4,10.8-0.3,16.1 c0,10.7,0.5,21.5,1.6,32.1c2,21.3,6.6,42.3,13.2,62.4c13.8,39.9,36.6,77.5,69.2,102.5c16.2,12.6,34.3,23.1,54,29.6 c19.6,6.6,40.2,10.2,60.8,10.3c20.6,0.1,41.2-3.1,60.2-10.1l13.9-6c4.4-2.3,8.7-4.9,13.1-7.3c4.2-2.7,8-5.8,12.1-8.7 c2.2-1.4,3.4-3,5.1-4.5c0.8-0.8,1.7-1.5,2.4-2.3l2.1-2.5c11.4-13.2,16.8-31.5,17-51.5c0.5-19.9-3.4-40.9-9.2-61.5 c-6-20.6-13.9-41-23.1-60.9c-4.6-9.9-9.6-19.8-14.8-29.4c-2.6-4.8-5.3-9.6-8.1-14.3c-2.7-4.6-5.7-9.4-8.3-13.2l-8.1-11.9l9-10.9 l45.2-54.8c12.1-15.3,20.2-35.8,24.8-57c9.2-42.7,6.2-89.1-6.9-130.9c-6.6-20.9-15.6-40.9-27.6-58.6c-5.9-8.9-12.6-17-20-24.6 c-7.5-7.7-15.7-14.8-24.6-21.3c-17.6-13.1-37.1-24.6-57.5-34.6c-20.4-10-41.9-18.5-64.2-26.5l0,0c-3.3-1.2-5.1-4.9-3.9-8.2 C2052.1,2121.2,2054.6,2119.5,2057.2,2119.5z"></path> </g> <g> <path class="st149" d="M1906.6,2470.9c-7,0-13.1-5.2-14.1-12.3c-22.1-163.4,74.7-240.6,117.3-266.3 c70.7-42.5,155.8-46.5,207.1-9.6c6.4,4.6,7.8,13.4,3.3,19.8c-4.6,6.4-13.4,7.8-19.8,3.3c-41.7-29.9-115.6-25.3-175.9,10.9 c-37.8,22.7-123.6,91.4-103.8,238.1c1,7.8-4.4,14.9-12.2,16C1907.9,2470.8,1907.3,2470.9,1906.6,2470.9z"></path> </g> <g> <path class="st149" d="M2226.4,2549.8c-2,1.9-3.4,3-5,4.4c-1.6,1.4-3.2,2.6-4.8,3.8c-3.2,2.5-6.6,4.7-10,6.9 c-6.8,4.4-13.9,8.1-21.3,11.5c-14.7,6.6-30.6,11.3-47,13.2c-16.3,1.8-33.3,1.1-48.9-4.3c-15.6-5.2-29.5-14.4-39.2-26.7 c15.5,2.7,29.4,4.8,43,4.1c6.7-0.1,13.3-0.8,19.8-1.7c6.5-0.9,12.8-2.2,19.1-4.2c12.5-3.7,24.6-8.9,36.3-15.2 c5.9-3,11.6-6.5,17.3-9.9l8.4-5.4l7.7-5.2l1.2-0.8c8.7-5.8,20.4-3.5,26.3,5.1C2234.3,2533.3,2233,2543.6,2226.4,2549.8z"></path> </g> <g> <path class="st145" d="M2588.8,1197.3L2588.8,1197.3c-5.6,0.4-10.5-3.9-10.8-9.5l-18.8-293.6c-0.4-5.6,3.9-10.5,9.5-10.8h0 c59-3.8,110,41,113.8,100.1l6.4,100.1C2692.7,1142.6,2647.9,1193.5,2588.8,1197.3z"></path> <path class="st147" d="M2588.2,1199.3c-6.4,0-11.8-5-12.2-11.5l-18.8-293.6c-0.4-6.7,4.7-12.6,11.4-13 c60.1-3.8,112.1,41.9,115.9,102l6.4,100.1c1.9,29.1-7.7,57.2-27,79.1c-19.3,21.9-45.9,35-75,36.8l0,0 C2588.7,1199.3,2588.4,1199.3,2588.2,1199.3z M2588.8,1197.3L2588.8,1197.3L2588.8,1197.3z M2575.7,885.1c-2.3,0-4.6,0.1-6.9,0.2 c-2.2,0.1-4.2,1.1-5.6,2.8c-1.4,1.6-2.2,3.7-2,5.9l18.8,293.6c0.3,4.5,4.2,8,8.7,7.6c28-1.8,53.7-14.4,72.2-35.5 c18.5-21.1,27.8-48.1,26-76.1l-6.4-100.1c-1.8-28-14.4-53.7-35.5-72.2C2625.7,894.3,2601.3,885.1,2575.7,885.1z"></path> </g> <g class="st151"> <path class="st147" d="M2685.9,1036.6l3,46.9c3.8,59-41,110-100.1,113.8c-5.6,0.4-10.5-3.9-10.8-9.6l-5-78 c1.8,3.5,5.5,5.7,9.7,5.5l7-0.5C2636.2,1111.7,2674,1079.3,2685.9,1036.6z"></path> </g> <g> <path class="st149" d="M2588.1,1216.2c-15.2,0-28.1-11.9-29.1-27.3l-18.8-293.6c-1-16,11.2-29.9,27.2-30.9 c33.6-2.2,66,8.9,91.3,31.2c25.3,22.2,40.4,53,42.5,86.6l6.4,100.1c2.1,33.6-8.9,66-31.2,91.3c-22.2,25.3-53,40.4-86.6,42.5 c0,0,0,0,0,0C2589.4,1216.2,2588.8,1216.2,2588.1,1216.2z M2588.8,1197.3L2588.8,1197.3L2588.8,1197.3z M2578.7,902.1l17.6,275.3 c44.2-7.2,76.6-47.1,73.7-92.7l-6.4-100.1c-1.5-23.5-12.1-45-29.8-60.6C2618.4,910.4,2599,902.8,2578.7,902.1z"></path> </g> <g> <path class="st145" d="M1599.8,945.3L1599.8,945.3c5.6-0.4,10.5,3.9,10.8,9.5l18.8,293.6c0.4,5.6-3.9,10.5-9.5,10.8h0 c-59,3.8-110-41-113.8-100.1l-6.4-100.1C1495.9,1000,1540.7,949,1599.8,945.3z"></path> <path class="st147" d="M1612.9,1261.5c-26.5,0-51.9-9.5-72-27.2c-21.9-19.3-35-45.9-36.8-75l-6.4-100.1 c-1.9-29.1,7.7-57.2,27-79.1c19.3-21.9,45.9-35,75-36.8l0,0c6.8-0.3,12.6,4.7,13,11.4l18.8,293.6c0.2,3.3-0.9,6.4-3,8.9 c-2.2,2.5-5.1,3.9-8.4,4.1C1617.6,1261.4,1615.2,1261.5,1612.9,1261.5z M1599.9,947.3c-28,1.8-53.7,14.4-72.2,35.5 c-18.5,21.1-27.8,48.1-26,76.1l6.4,100.1c1.8,28,14.4,53.7,35.5,72.2c21.1,18.5,48.1,27.8,76.1,26c2.2-0.1,4.2-1.1,5.6-2.8 c1.4-1.6,2.2-3.7,2-5.9l-18.8-293.6C1608.3,950.4,1604.4,947,1599.9,947.3L1599.9,947.3z"></path> </g> <g class="st151"> <path class="st147" d="M1624.2,1166.9l5.2,81.4c0.4,5.6-3.9,10.5-9.6,10.8c-31,2-59.8-9.4-80.7-29.3 c-18.9-17.9-31.3-42.8-33.1-70.8l-2.7-42.2c19.1,35.9,58.1,59.3,101.4,56.6l10.7-0.7C1619.4,1172.6,1622.6,1170.2,1624.2,1166.9z "></path> </g> <g> <path class="st149" d="M1612.9,1278.4c-65.9,0-121.5-51.4-125.7-118l-6.4-100.1c-2.1-33.6,8.9-66,31.2-91.3 c22.2-25.3,53-40.4,86.6-42.5c0,0,0,0,0,0c16.1-1,29.9,11.2,30.9,27.2l18.8,293.6c0.5,7.8-2.1,15.3-7.2,21.1 c-5.1,5.8-12.3,9.3-20,9.8C1618.3,1278.3,1615.6,1278.4,1612.9,1278.4z M1592.3,965.2c-44.2,7.2-76.6,47.1-73.7,92.7l6.4,100.1 c1.5,23.5,12.1,45,29.8,60.6c15.5,13.6,34.8,21.3,55.2,21.9L1592.3,965.2z"></path> </g> <g> <ellipse transform="matrix(7.150860e-03 -1 1 7.150860e-03 1008.138 3157.9102)" class="st145" cx="2094.4" cy="1071.3" rx="501.3" ry="501.3"></ellipse> <path class="st147" d="M2094.4,1574.6c-1.2,0-2.4,0-3.7,0c-277.5-2-501.7-229.4-499.7-506.9c2-276.3,227.4-499.7,503.2-499.7 c1.2,0,2.4,0,3.7,0c134.4,1,260.4,54.2,354.8,150s145.8,222.5,144.9,356.9C2595.7,1351.1,2370.2,1574.6,2094.4,1574.6z M2094.3,572c-132,0-256.3,50.9-350.4,143.7c-95,93.6-147.8,218.6-148.7,352c-1,133.3,50.1,259.1,143.7,354.1 c93.6,95,218.6,147.8,352,148.7c133.2,0.9,259.1-50.1,354.1-143.7c95-93.6,147.8-218.6,148.7-352c1-133.3-50.1-259.1-143.7-354.1 c-93.6-95-218.6-147.8-352-148.7C2096.7,572,2095.5,572,2094.3,572z"></path> </g> <g class="st151"> <path class="st147" d="M2591.3,1005.4c3,22.7,4.5,45.9,4.3,69.4c-2,276.8-228,499.6-504.9,497.7c-276.8-2-499.6-228-497.7-504.9 c0.1-8,0.3-15.9,0.7-23.8c32,244.2,240.1,433.6,493.4,435.4C2356,1481.2,2576.9,1271.1,2591.3,1005.4z"></path> </g> <g> <path class="st149" d="M2094.5,1591.5c-1.3,0-2.5,0-3.8,0c-138.9-1-269.2-56-366.7-155c-97.5-99-150.7-230-149.7-368.9 c1-138.9,56-269.2,155-366.7c99-97.5,230.1-150.8,368.9-149.7c138.9,1,269.2,56,366.7,155c97.5,99,150.7,230,149.7,368.9 c-1,138.9-56,269.2-155,366.7C2361.5,1538.4,2232,1591.5,2094.5,1591.5z M2094.3,588.9c-127.5,0-247.6,49.2-338.5,138.8 C1664,818.2,1613,939,1612,1067.8s48.4,250.3,138.8,342.1c90.4,91.8,211.2,142.8,340,143.7c129,0.8,250.3-48.4,342.1-138.8 c91.8-90.4,142.8-211.2,143.7-340c0.9-128.8-48.4-250.3-138.8-342.1s-211.2-142.8-340-143.7 C2096.6,588.9,2095.4,588.9,2094.3,588.9z"></path> </g> <g> <path class="st149" d="M2593.9,1087.7c0.8,98.1-30.3,189.4-84.2,265.2c-40.4,56.8-207.4,157-414.6,160.5 c-192.1,3.3-367.8-97.8-409.1-154c-55.1-74.9-87.6-165.7-88.4-263.8c-2.1-259.6,220.1-368.9,495.2-371.1 C2368,722.3,2591.9,828.1,2593.9,1087.7z"></path> </g> <g> <path class="st149" d="M2085.8,1524.8c-194.6,0-366.4-100.9-408.9-158.6c-58.5-79.6-89.8-173.1-90.6-270.4 c-1-126.7,49-224.8,148.7-291.6c87.1-58.3,210.8-89.8,357.7-91c147-1.2,271.1,28.3,359.2,85.3 c100.7,65.2,152.3,162.4,153.3,289.2l0,0c0.8,97.3-29.1,191.3-86.3,271.8c-39.7,55.8-204.6,161.6-423.6,165.3 C2092.1,1524.8,2088.9,1524.8,2085.8,1524.8z M2100.4,735.8c-2.5,0-5,0-7.4,0c-146.4,1.2-486.6,38.6-484,359.8 c0.7,92.5,30.5,181.5,86.2,257.2c38.9,53,206.3,149.4,390.8,149.4c3,0,5.9,0,8.9-0.1c208.4-3.5,369.4-104.9,405.6-155.8 c54.4-76.6,82.8-166,82.1-258.5l0,0C2580.1,771.9,2250.5,735.8,2100.4,735.8z"></path> </g> <g class="st158"> <ellipse transform="matrix(0.1705 -0.9854 0.9854 0.1705 978.8965 3270.2654)" class="st145" cx="2431.7" cy="1053.7" rx="88.7" ry="64.3"></ellipse> </g> <g class="st158"> <ellipse transform="matrix(0.305 -0.9524 0.9524 0.305 464.8674 3097.1626)" class="st145" cx="2354.4" cy="1230.1" rx="40.7" ry="34.9"></ellipse> </g> <g class="st151"> <path class="st159" d="M2495.1,846.3c61.4,57.6,98,137.1,98.8,241.4c0.8,98.1-30.4,189.4-84.2,265.2 c-40.4,56.8-207.4,157-414.7,160.5c-73.2,1.3-143.9-12.6-205.8-33.4c254.6-9.8,458.1-132.7,508.2-203.2 c68.4-96.2,107.8-212.1,106.8-336.6C2504,907,2500.9,875.7,2495.1,846.3z"></path> </g> <g> <path class="st149" d="M1648.4,885.6l-29.7-23.5l14,11.2l-14.9-9.9c88-131.8,260-208.3,471.8-210 c210.5-1.6,383.2,69.6,474.8,195.5c5.3,7,5.2,16.9-0.7,23.8c-6.8,7.9-18.7,8.9-26.7,2.1c-1.1-1-2.2-2.1-3.1-3.3 c-84.2-116.1-246.1-181.9-444.1-180.2c-199.1,1.6-359.7,72-440.6,193.2C1648.9,884.9,1648.7,885.3,1648.4,885.6z M1633.4,874 L1633.4,874L1633.4,874z"></path> </g> <g class="st158"> <path class="st145" d="M1710.7,1249.2c0,0-82.4-255.4,54.8-358.6c137.2-103.1,335.7-104.3,331.2-91.5c0,0-219.4,55-304,229.4 C1727.4,1163,1710.7,1249.2,1710.7,1249.2z"></path> </g> <g> <path class="st145" d="M2410.7,1805.9l13.6,104.7l10.6,81.4c2.9,22.1-11.8,42.7-33.7,47.1c-14.1,2.9-31.6,6.2-51.7,9.7 c-71.6,12.4-177.1,26.2-283,24.6c-22.8-0.4-41.2-18.7-41.8-41.5l-5.5-216.1c-0.6-24.3,19.3-44.2,43.6-43.6 c73.6,1.9,220.3,4.3,302-3.2C2387.4,1766.9,2407.7,1783.3,2410.7,1805.9z"></path> </g> <g> <path class="st145" d="M2059.4,1772.3l-85.9,9.2c-18.8,2-32.9,18.2-32.4,37.1l6.5,214.4c0.6,18.7,15.3,33.9,33.9,35l79.4,5"></path> </g> <g class="st150"> <path class="st147" d="M2059.4,1772.3l-85.9,9.2c-18.8,2-32.9,18.2-32.4,37.1l6.5,214.4c0.6,18.7,15.3,33.9,33.9,35l79.4,5"></path> </g> <g> <path class="st149" d="M2083.8,2090.3c-5.9,0-11.8,0-17.7-0.1c-31.8-0.5-57.4-25.9-58.2-57.8l-5.5-216.1 c-0.4-16.4,5.7-31.8,17.3-43.4c11.6-11.6,27-17.7,43.4-17.3c77.8,2,220.1,4.2,300-3.1c31.8-2.9,59.9,19.7,64.1,51.4l24.1,186.1 c4,30.7-16.6,59.5-46.9,65.7C2339.4,2068.8,2213.7,2090.3,2083.8,2090.3z M2061.6,1788.9c-6.9,0-13.3,2.7-18.2,7.6 c-5.1,5.1-7.7,11.8-7.6,18.9l5.5,216.1c0.4,13.9,11.5,25,25.3,25.2c132.8,2,264.5-20.4,331.2-34c13.2-2.7,22.2-15.3,20.4-28.6 l-24.1-186.1c-1.8-13.8-14-23.7-27.8-22.4c-81.6,7.5-225.5,5.3-304,3.3l0,0C2062.1,1788.9,2061.8,1788.9,2061.6,1788.9z"></path> </g> <g> <path class="st149" d="M2061,2089.7c-0.4,0-0.7,0-1.1,0l-79.4-5c-27.4-1.7-48.8-23.7-49.6-51.2l-6.5-214.4 c-0.8-27.5,19.9-51.3,47.3-54.3l85.9-9.2c9.2-1,17.4,5.7,18.4,14.8c1,9.2-5.7,17.4-14.8,18.4l-85.9,9.2 c-10.1,1.1-17.7,9.9-17.4,20l6.5,214.4c0.3,10.1,8.2,18.2,18.3,18.9l79.4,5c9.2,0.6,16.2,8.5,15.6,17.7 C2077.2,2082.9,2069.8,2089.7,2061,2089.7z"></path> </g> <g> <path class="st149" d="M2242.2,2082.4c-8.8,0-16.2-6.9-16.7-15.7l-6.4-109.5l-55.4-37.4c-4.3-2.9-7-7.6-7.3-12.7l-9.1-131.9 c-0.6-9.2,6.3-17.2,15.5-17.8c9.2-0.6,17.2,6.3,17.8,15.5l8.5,123.7l55.5,37.5c4.3,2.9,7,7.7,7.3,12.9l6.9,117.8 c0.5,9.2-6.5,17.1-15.7,17.7C2242.9,2082.3,2242.6,2082.4,2242.2,2082.4z"></path> </g> <g> <path class="st160" d="M2398.2,1905.9c0.7,6.6-3.1,61.1-3.1,61.1s-17,1.8-37.8,3.9c-26,2.7-49.9-22-53.4-55.3 c-3.5-33.2,14.8-62.4,40.8-65.1c17.6-1.8,37.8-3.9,37.8-3.9S2397,1895.1,2398.2,1905.9z"></path> </g> <g> <path class="st145" d="M2398.1,1905.9c0.7,6.6-3,61.1-3,61.1s-0.4,0-1.2,0.1c1-15.7,2-34.4,1.6-38.1 c-1.1-10.8-15.6-59.2-15.6-59.2s-20.2,2.1-37.8,3.9c-18.2,1.9-32.6,16.7-38.5,36.8c-1.2-31.1,16.5-57.4,41.2-59.9 c17.5-1.8,37.8-3.9,37.8-3.9S2397,1895.1,2398.1,1905.9z"></path> </g> <g> <path class="st149" d="M2353.5,1985.3c-31.6,0-59.6-29.4-63.7-68.2c-4.3-41,19.7-77.1,53.5-80.7l26.4-2.7c13.5-1.4,26,7,29.8,20 c11.8,40.7,12.6,48.2,12.8,50.6v0c0.2,2,0.7,6.6-2.3,51.9c-0.9,13.6-11.4,24.6-25,26l-26.2,2.7 C2357,1985.3,2355.2,1985.3,2353.5,1985.3z M2372.3,1862l-26,2.7c-17.9,1.9-30.8,24.5-28.2,49.5c2.6,25,19.9,44.4,37.8,42.6 l25.9-2.7c2-30.3,2.5-44.1,2.3-46.9C2383.6,1903.6,2380.3,1889.8,2372.3,1862z"></path> </g> <g> <ellipse transform="matrix(0.9946 -0.1035 0.1035 0.9946 -184.4508 257.3619)" class="st160" cx="2388.8" cy="1906.9" rx="47.4" ry="60.5"></ellipse> </g> <g> <path class="st145" d="M2435.9,1902c0.4,4,0.5,8,0.3,11.8c-7.2-27.1-28.3-45.9-51.2-43.5c-22.9,2.4-39.8,25.2-41.2,53.2 c-1-3.8-1.8-7.7-2.2-11.8c-3.5-33.2,14.9-62.4,40.9-65C2408.6,1844,2432.5,1868.7,2435.9,1902z"></path> </g> <g> <path class="st149" d="M2391.1,1981.4c-15.1,0-29.6-6.5-41.4-18.7c-12.3-12.7-20.1-30.3-22.1-49.5c-2-19.2,2.1-38,11.5-53 c10.1-16.1,25-25.9,42-27.7c17-1.8,33.6,4.8,46.8,18.4c12.3,12.7,20.1,30.3,22.1,49.5v0c2,19.2-2.1,38-11.5,53 c-10.1,16.1-25,25.9-42,27.7C2394.7,1981.3,2392.9,1981.4,2391.1,1981.4z M2386.4,1860.7c-0.8,0-1.6,0-2.4,0.1 c-8.1,0.8-15.6,6-20.9,14.5c-6,9.6-8.6,22-7.3,35c1.3,12.9,6.4,24.5,14.3,32.7c7,7.2,15.3,10.8,23.5,9.9 c8.1-0.8,15.6-6,20.9-14.5c6-9.6,8.6-22,7.3-35v0c-1.3-12.9-6.4-24.5-14.3-32.7C2401.2,1864.2,2393.8,1860.7,2386.4,1860.7z"></path> </g> <g> <path class="st145" d="M1593.1,1847.8c0,0,113,51.2,381.9,41.9c0,0,49.3,47.2,0,86.2c-49.3,39-326.4,61.4-400.5-18.5 C1527.6,1906.9,1593.1,1847.8,1593.1,1847.8z"></path> </g> <g class="st150"> <path class="st147" d="M1974.9,1975.9c-49.2,39-326.4,61.4-400.5-18.5c-22.3-24-19.2-50-9.7-70.6c2.5,4.4,5.7,8.9,9.7,13.2 c74.1,79.9,351.3,57.5,400.5,18.5c5.2-4.2,9.4-8.4,12.5-12.6C1997.7,1923.1,2006.2,1951.1,1974.9,1975.9z"></path> </g> <g> <path class="st149" d="M1779.8,2028c-62.8,0-170.2-8-217.6-59.2c-15-16.2-22.2-34.8-21.3-55.3c1.9-42.4,39.4-76.7,41-78.1 l8.1-7.3l9.9,4.5c1.7,0.8,114.6,49.4,374.4,40.5l7-0.2l5.1,4.9c2.9,2.8,28.5,28.3,27,61.5c-0.6,13.1-6,32.4-28.2,49.9 c-33,26.1-127.5,38.5-201.2,39C1782.7,2028,1781.2,2028,1779.8,2028z M1597.4,1867.4c-8.6,9.8-22.2,28.2-23.1,47.7 c-0.5,11.3,3.6,21.4,12.4,30.9c67.8,73.2,336.3,49.6,377.8,16.7c10-7.9,15.1-16.2,15.5-25.3c0.6-11.8-6.8-23.9-12.4-30.9 C1746.9,1913.4,1631.9,1879.8,1597.4,1867.4z"></path> </g> <g class="st150"> <path class="st147" d="M2560.8,2244.7c-40.5,48.9-170.3,96.1-240.1,52.3c-58.4-36.5-60.2-88.9-101.6-119 c-2.4-1.8-9.7-4.9-20.8-9.8c131-41.3,250.9-62.1,358.8-69C2603.6,2156.5,2594.3,2204.2,2560.8,2244.7z"></path> </g> <g> <path class="st145" d="M1996.8,1626c146.4,182.6,387.9,294.6,532.2,424.8c79.1,71.3,66.6,105.7,27.2,153.4 c-40.4,48.9-135.4,96.1-205.3,52.3c-58.4-36.6-62-71.3-103.4-101.4c-16.3-11.9-278.8-81.5-424.5-308.6"></path> </g> <g class="st150"> <path class="st147" d="M2556.2,2204.2c-40.4,48.9-135.4,96.1-205.3,52.3c-58.4-36.5-62-71.3-103.4-101.4 c-16.3-11.9-278.8-81.5-424.4-308.6l3-3.8c162.5,170.8,331.9,181.1,444.4,267.6c40.5,31.2,44.1,41.5,102.4,78.1 c69.9,43.8,164.9-3.4,205.3-52.3c2.6-3.1,5.1-6.2,7.4-9.2C2592.2,2154.5,2578.5,2177.2,2556.2,2204.2z"></path> </g> <g> <path class="st149" d="M2001.7,1622.1c31.1,21.9,56.7,46.9,84.1,70.8c26.9,24.2,54.6,47.8,82.5,71.2c28.4,23,57.9,44.7,88,65.7 c30,21.2,60.6,41.8,91.1,62.6c30.6,20.9,61.3,41.5,91.6,63.4c7.6,5.3,15.2,10.9,22.6,16.5c7.5,5.6,15,11.1,22.5,16.8 c14.7,11.7,29.6,23.1,43.8,35.7c14.4,12.1,28.6,25.2,41.9,39.9c3.2,3.8,6.5,7.6,9.7,11.5c3,4.2,6.2,8.2,9.1,12.6l4.1,6.9l2.1,3.5 c0.6,1.2,1.2,2.5,1.8,3.8l3.5,7.6c1,2.7,1.8,5.5,2.7,8.3c3.2,11.2,4.5,24.2,1.8,36.1c-2.4,11.9-7.1,22.6-12.5,31.7 c-5.5,9.1-11.5,17.3-17.6,24.8c-2.9,3.8-6.4,7.6-9.9,11.5c-3.4,4-7.2,7.3-10.9,10.9c-15,13.8-31.6,25.2-49.3,34.6 c-17.8,9.3-36.8,16.5-57,20.6c-20.1,4.1-41.5,5-62.5,0.8l-7.9-1.8c-2.6-0.6-5.2-1.2-7.7-2.3c-5-2-10.2-3.5-15.1-6 c-4.7-2.5-9.6-5.1-14.2-7.7c-4.1-2.8-8.4-5.4-12.4-8.4c-8.1-5.9-16-12.2-23.4-19.2c-7.3-7-14.2-14.4-20.4-22 c-12.5-15.2-22.4-29.8-34.1-40.8c-1.4-1.5-3-2.7-4.5-4.1c-1.5-1.3-3-2.7-4.6-3.9l-2.4-1.9l-1.2-0.9l-0.6-0.5c-0.3-0.2,0,0,0,0 c0.1,0.1,0.2,0.2,0.3,0.2l-1-0.4c-0.8-0.3-1.4-0.7-2.5-1.1c-7.8-3.2-16.7-6.5-25.3-9.9c-17.4-6.7-34.8-13.8-52.1-21.3 c-68.9-30.2-135.1-67.7-194.8-114.5c-15-11.6-29.4-24-43.5-36.6c-13.9-12.9-28.2-25.5-41.4-39.3c-6.7-6.8-13-13.9-18.9-21.4 c-3-3.7-6-7.4-8.7-11.4c-2.8-3.9-5.5-7.8-8.1-11.8c-5.3-7.9-9.6-16.6-13.7-25.3c-3.8-8.9-7.1-18.1-9.2-27.8 c-0.8-3.6,1.5-7.2,5.2-8c1.9-0.4,3.7,0,5.2,1l0.3,0.2c8.3,5.5,15,11.9,21.9,18.1c7,6.1,13.1,12.8,19.4,19.2 c3.1,3.2,6.2,6.5,9.2,9.9c3,3.4,6.1,6.5,9.1,9.9c3.1,3.3,6,6.6,8.9,10c3,3.3,6.1,6.6,9,9.9c11.8,13.5,24.1,26.6,37.3,38.8 c13.3,12,27,23.8,41.3,34.8c56.7,44.5,120.2,80.6,186.6,109.7c16.6,7.3,33.5,14.1,50.5,20.7c8.6,3.4,17,6.4,26.4,10.3 c1.1,0.4,2.6,1.1,3.9,1.7c0.7,0.3,1.2,0.5,2.1,1c1.1,0.6,2.3,1.3,3.3,1.9c0.5,0.3,1.3,0.8,1.4,0.9l0.8,0.6l1.5,1.2l3.1,2.4 c4.1,3.2,8,6.7,11.8,10.3c15.2,14.5,26.1,30.8,37.1,44c10.9,13.4,22.8,24.7,36.6,34.5c3.4,2.5,7.1,4.7,10.6,7.1l10.2,5.5 c3.4,1.8,7.2,2.7,10.7,4.2c1.8,0.8,3.6,1.2,5.5,1.6l5.7,1.3c15.2,3,31.5,2.5,47.6-0.8c32.1-6.6,63.6-23.4,88.1-45.8 c2.9-2.9,6.1-5.6,8.7-8.7c2.7-3,5.4-6,8.2-9.5c5.6-6.8,10.4-13.6,14.5-20.4c4.1-6.7,6.6-13.3,8-19.5c1.5-6.2,0.7-12.2-1-18.6 c-3.7-12.9-13.3-26.7-24.8-39.3c-11.6-12.7-24.5-24.8-38.4-36.4c-13.4-12-27.9-23.1-42.1-34.4c-7.2-5.6-14.6-10.9-21.9-16.4 c-7.3-5.5-14.6-10.9-22.2-16.2c-29.7-21.4-60.3-42-90.7-62.8c-30.6-20.8-61.3-41.5-91.7-63c-30.5-21.2-60.3-43.7-90.4-65.9 c-29.6-22.9-59.2-46.2-85.4-73.5c-27-26.3-50.6-56.7-66.9-91.4c-1.5-3.2-0.1-7.1,3.1-8.6c2.2-1,4.7-0.7,6.5,0.6L2001.7,1622.1z"></path> </g> <g> <path class="st149" d="M2008.2,2051.4c-1.3,0-2.6-0.2-4-0.5c-9-2.2-14.5-11.2-12.3-20.2c2.3-9.3,57.2-227.2,209-227.2 c0.8,0,1.6,0,2.5,0c9.2,0.1,16.6,7.7,16.5,17c-0.1,9.2-7.7,16.8-17,16.5c-0.6,0-1.2,0-1.9,0c-125.9,0-176.1,199.7-176.6,201.7 C2022.5,2046.3,2015.7,2051.4,2008.2,2051.4z"></path> </g> <g> <path class="st149" d="M2627.1,1706c-2.8,0-5.6-0.7-8.2-2.1c-84.3-47.3-90.4-275.2-90.9-301c-0.2-9.2,7.2-16.8,16.4-17 c0.1,0,0.2,0,0.3,0c9.1,0,16.6,7.3,16.7,16.4c1.1,64.8,16.5,240.2,73.8,272.4c8,4.5,10.9,14.7,6.4,22.8 C2638.6,1702.9,2633,1706,2627.1,1706z"></path> </g> <g> <path class="st149" d="M2765.5,1278.4c0.2,1,0.2,3,0.4,4.6l0.3,5.1c0.3,3.4,0.4,6.9,0.8,10.4c0.5,7,1.3,14,2.3,21.1 c1,7.1,2.4,14.1,3.8,21.5c1.1,7.6,3,14.9,3.9,23.9c-8-3.7-14.8-9.3-20.2-15.9c-2.9-3.2-5.1-6.8-7.4-10.5c-2-3.7-4.1-7.5-5.6-11.5 c-3.4-7.8-5.8-16.1-7.3-24.5c-0.6-4.2-1.3-8.5-1.4-12.8c-0.1-2.2-0.2-4.3-0.1-6.5c0-2.3,0.2-4.2,0.6-7.1 c1.1-8.2,8.6-13.9,16.7-12.8c6.7,0.9,11.8,6.1,12.8,12.4L2765.5,1278.4z"></path> </g> </g> </g> </svg> 