<?xml version="1.0" encoding="UTF-8"?> <!-- Generator: Adobe Illustrator 21.0.0, SVG Export Plug-In . SVG Version: 6.00 Build 0) --> <svg xmlns="http://www.w3.org/2000/svg" xmlns:xlink="http://www.w3.org/1999/xlink" id="Layer_1" x="0px" y="0px" viewBox="0 0 4000 4000" style="enable-background:new 0 0 4000 4000;" xml:space="preserve"> <style type="text/css"> .st0{fill:#303353;} .st1{fill:#FFFFFF;} .st2{opacity:0.35;} .st3{fill:#371A45;} .st4{opacity:0.7;} .st5{fill:#111A28;} .st6{fill:#F92323;} .st7{opacity:0.5;} .st8{fill:#C5D3E2;} .st9{opacity:0.6;} .st10{fill:#3AAAFF;} .st11{fill:#DB2C2C;} .st12{fill:#22A7F0;} .st13{opacity:0.15;} .st14{opacity:0.2;} .st15{fill:#102770;} .st16{opacity:0.3;} .st17{fill:#FFF2BD;} </style> <g> <g> <g> <path class="st0" d="M2653.1,3129.2c383.1-231.9,640.4-661.5,640.4-1153.3C3293.5,1238.1,2714.4,640,2000,640 S706.5,1238.1,706.5,1975.9c0,491.7,257.3,921.4,640.4,1153.3c197.5-3.7,419-5.7,653.1-5.7S2455.6,3125.5,2653.1,3129.2z"></path> </g> <g> <path class="st1" d="M2792.4,2778c-28.2-74.6-68.5-145.6-119.7-211.3v-83.3c0-41.6-17.1-81.3-48.5-112.6l1-8.8 c3.9-33.1-6.3-65.2-28.8-90.6c-23.7-26.6-58.2-41.9-94.8-41.9h-3.6c3.1-3.9,6.1-7.9,9-11.9c3.8-4.2,6.8-8,9.4-11.5 c38.7-52.5,67.8-110,86.8-171.2c37.2-5.3,71-23.3,96.6-51.3c29.1-32,44.1-73.5,42-116.8l-5.6-119.3c-2-43.3-20.8-83.1-52.8-112.3 c-28.4-25.9-64.8-40.7-103.1-42.1c-29.6-69-71.1-131.8-123.6-186.9c-116.4-122.1-273.4-191.6-442-195.6c-5.3-0.1-10.7-0.2-16-0.2 c-162.5,0-316.9,61.9-434.9,174.4c-76.7,73.1-133.8,164.1-165.8,263.9c-38,4.9-72.7,23-98.8,51.7c-29.1,32-44.1,73.5-42,116.8 l5.6,119.3c4,84.8,72.2,151.7,156.4,154.4c21.3,49.6,48.8,96,82,138.6h-3c-36.6,0-71.1,15.3-94.8,41.9 c-21.4,24.1-31.7,54.4-29.3,85.8c-11.9,9.6-22.4,20.5-31.3,32.4c-21,27.9-32.1,60.4-32.1,93.9v106.3 c-43,59.2-77.4,122.5-102.3,188.2c-39,103.1-40.7,184-5.2,240.6h-11.9c49,40.6,101,77.6,155.5,110.6c197.5-3.7,419-5.7,653.1-5.7 s455.6,2.1,653.1,5.7c54.5-33,106.4-70,155.5-110.6h-11C2833.1,2962,2831.4,2881.1,2792.4,2778z"></path> </g> <g> <path class="st1" d="M2782.6,1235.4c0.6,71.9,27.4,140.9,75.6,194.3c2.6,2.9,3,7,0.9,10.6l-42.5,72.9 c-11.4,19.6-8.2,44.5,7.8,60.6c9.4,9.4,22,14.6,35.4,14.6c8.8,0,17.6-2.4,25.2-6.8l109.5-63.9c1.2-0.7,2.5-1.1,3.9-1.1 c0.6,0,1.2,0.1,1.7,0.2c23.9,6.4,48.7,9.8,73.7,10l2.4,0c47,0,91.5-11.3,131.1-31.3c-69.8-186.9-179-353.5-317.2-489 C2824,1061.1,2781.9,1143.8,2782.6,1235.4z"></path> </g> <g> <g> <path class="st1" d="M2638.2,2483.5v432.4c0,20.1-5.2,39.3-14.6,56.6c-25.6,47.5-82.4,80.7-147.9,80.7h-968 c-55.1,0-103.9-23.4-133.4-59.1c-18.3-22.2-29.1-49.1-29.1-78.1v-432.4c0-26.8,9.3-51.9,25.2-73.1 c28.8-38.5,79.6-64.1,137.2-64.1h968c7.8,0,15.5,0.5,23,1.4C2577.3,2357.1,2638.2,2414.6,2638.2,2483.5z"></path> <path class="st0" d="M2475.8,3067.7h-968c-57.3,0-111.3-24.1-144.6-64.4c-21.2-25.7-32.4-55.9-32.4-87.4v-432.4 c0-29.1,9.7-57.4,28.1-81.9c32.8-43.8,88.4-69.9,148.8-69.9h968c8.3,0,16.7,0.5,24.8,1.5c86.7,10.5,152.2,75.1,152.2,150.3 v432.4c0,22.2-5.5,43.6-16.3,63.5C2607.5,3033,2544.4,3067.7,2475.8,3067.7z M1507.8,2360.8c-51.3,0-98.2,21.8-125.6,58.3 c-14.6,19.4-22.3,41.7-22.3,64.4v432.4c0,24.6,8.9,48.4,25.7,68.9c27.8,33.7,73.4,53.8,122.1,53.8h968 c58.1,0,111.1-28.7,135.1-73c8.5-15.7,12.8-32.4,12.8-49.7v-432.4c0-60.5-54.4-112.7-126.6-121.4c-7-0.9-14.1-1.3-21.2-1.3 H1507.8z"></path> </g> <g> <path class="st1" d="M2004.1,2226c330.7,54.7,639.2,255.6,756,564.2c94.4,249.4-77.1,262.9-77.1,262.9h-685.7h6.3h-685.7 c0,0-171.4-13.4-77-262.9c116.8-308.6,425.3-509.5,756-564.2"></path> </g> <g class="st2"> <path class="st3" d="M2683,3053.1H1317.8c0,0-119.9-9.4-103.9-158.5c0.2,1.8,0.5,3.6,0.8,5.3c11.5,73,110.9,87.2,144,21.2 l15-29.9h1252.4l16.1,31.4c33.5,65.5,131.8,50.9,143.8-21.7c0.3-2.1,0.7-4.2,0.9-6.4C2803,3043.7,2683,3053.1,2683,3053.1z"></path> </g> <g> <path class="st1" d="M1262,2903.8c0,0,65.3-196.9,241.2-197.5c162.3-0.5,224.2,80.4,186.2,191.6 c-18.9,55.3-221.1,107.6-315.7-6.5"></path> </g> <g class="st2"> <path class="st3" d="M1689.4,2897.9c-18.9,55.3-221.1,107.6-315.7-6.5l0,0c0-20,22.1-31.7,38.9-20.8 c102.3,66.7,260.2,20.5,276.8-28.1c3.6-10.6,6.3-20.9,8.1-30.9C1702.9,2837.1,1700.2,2866.3,1689.4,2897.9z"></path> </g> <g> <path class="st0" d="M1257.4,2902.2c0.3-23.1,8.3-43.9,18.5-63.3c10.1-19.6,23.2-37.5,37.9-54c14.8-16.4,30.6-32.2,48.6-45.5 c17.9-13.4,37.7-24.6,58.8-32.6c21.1-8.1,43.4-12.9,65.8-14.5l16.8-0.6c5.4,0.1,10.9,0.1,16.3,0.3c10.9,0.4,21.8,1.1,32.8,2.4 c21.8,2.5,43.8,6.9,65,14.8c21.2,7.7,41.9,19.3,58.9,35.8c17.2,16.4,29.5,38.5,34.5,61.7c5.2,23.2,4.1,47-0.8,69.1 c-1.1,5.6-2.7,11-4.1,16.4l-2.5,8l-0.6,2c-0.2,0.7-0.7,1.7-1,2.5l-2.4,5.2c-7.3,12.6-17.1,20.5-26.8,27.3 c-19.7,13.2-40.9,21-62.5,26.8c-43.1,11-88.3,13.1-132.3,3.9c-5.5-1.2-11-2.4-16.4-4.1c-5.5-1.4-10.8-3.4-16.1-5.2 c-5.3-1.8-10.5-4.1-15.9-6.1c-5.1-2.5-10.5-4.5-15.5-7.4c-5-2.8-10-5.6-14.5-9.3c-4.7-3.3-8.9-7.2-12.9-11.4 c-7.9-8.3-14.2-18.4-17.1-30.1c-0.7-2.9,1-5.8,3.9-6.5c1-0.3,2.1-0.2,3,0.1l0.5,0.2c5.7,1.9,10.1,4.6,14.8,7 c4.7,2.3,8.7,5.2,13,7.6c2.1,1.3,4.1,2.6,6.1,4c2.1,1.3,4.2,2.4,6.2,3.8c2.1,1.2,4,2.7,6.1,3.9c2.1,1.2,4.2,2.5,6.2,3.8 c16.2,10.7,35.2,17.1,54.5,21.3c38.8,8.2,80.2,6.4,118.8-3.6c19.2-5.2,38.1-12.4,53.6-22.8c7.6-5.1,14.3-11.3,17.6-17.1 c0.3-0.7,0.5-1.4,0.9-2c0.2-0.4,0.3-0.5,0.5-1.1l0.6-1.8l2.2-7.1c1.3-4.8,2.7-9.5,3.6-14.3c4.2-19.1,4.9-38.6,0.9-56.6 c-4-18.1-13.1-34.5-26.5-47.3c-13.3-12.9-30.3-22.6-48.7-29.3c-18.4-6.8-38.2-10.9-58.3-13.2c-10-1.2-20.2-1.8-30.4-2.2 l-15.3-0.2l-14.8,0.5c-19.7,1.3-39.1,5.5-57.5,12.6c-36.7,14.1-69.5,39-94.7,70.4c-6.3,7.9-12.2,16-17.9,24.4 c-5.8,8.3-11.3,16.8-16.8,25.3c-10.8,17.2-21.5,34.6-35.5,51.2l-0.2,0.3c-1.8,2.2-5,2.4-7.2,0.6 C1258,2905.2,1257.4,2903.7,1257.4,2902.2z"></path> </g> <g> <path class="st1" d="M2737.9,2903.8c0,0-65.3-196.9-241.2-197.5c-162.3-0.5-224.2,80.4-186.2,191.6 c18.9,55.3,221.1,107.6,315.7-6.5"></path> </g> <g> <path class="st1" d="M2737.9,2903.8c0,0-65.3-196.9-241.2-197.5c-162.3-0.5-224.2,80.4-186.2,191.6 c18.9,55.3,221.1,107.6,315.7-6.5L2737.9,2903.8z"></path> </g> <g class="st2"> <path class="st3" d="M2626.1,2891.4c-94.6,114.1-296.7,61.8-315.7,6.5c-10.8-31.6-13.5-60.8-8.1-86.3c1.8,10,4.5,20.3,8.1,30.9 c16.6,48.6,174.5,94.8,276.8,28.1C2604,2859.7,2626.1,2871.4,2626.1,2891.4L2626.1,2891.4z"></path> </g> <g> <path class="st0" d="M2733.3,2905.3c-13.9-16.6-24.6-34-35.5-51.2c-5.5-8.6-11-17-16.8-25.3c-5.6-8.4-11.6-16.5-17.9-24.4 c-25.2-31.4-58-56.2-94.7-70.4c-18.4-7.1-37.8-11.3-57.5-12.6l-14.9-0.5l-15.3,0.2c-10.2,0.4-20.4,1-30.4,2.2 c-20.1,2.3-39.9,6.3-58.3,13.2c-18.4,6.7-35.4,16.4-48.7,29.3c-13.4,12.9-22.5,29.3-26.5,47.3c-4,18.1-3.4,37.5,0.9,56.6 c0.9,4.8,2.3,9.5,3.6,14.3l2.2,7.1l0.6,1.8c0.2,0.6,0.3,0.7,0.5,1.1c0.3,0.7,0.6,1.3,0.9,2c3.3,5.8,10,12,17.6,17.1 c15.4,10.4,34.4,17.6,53.6,22.8c38.6,9.9,80.1,11.8,118.8,3.6c19.3-4.2,38.3-10.6,54.5-21.3c2-1.3,4.1-2.6,6.2-3.8 c2.1-1.2,4-2.7,6.1-3.9c2-1.3,4.2-2.5,6.2-3.8c2-1.4,4-2.7,6.1-4c4.3-2.4,8.3-5.3,13-7.6c4.6-2.4,9.1-5.1,14.7-7l0.5-0.2 c2.8-1,5.8,0.5,6.8,3.3c0.3,1,0.4,2.1,0.1,3c-2.9,11.7-9.2,21.8-17.1,30.1c-4,4.1-8.2,8.1-12.9,11.4c-4.5,3.6-9.5,6.5-14.5,9.3 c-5,2.9-10.3,4.9-15.5,7.4c-5.3,2-10.5,4.3-15.9,6.1c-5.3,1.8-10.6,3.8-16.1,5.2c-5.4,1.6-10.9,2.9-16.4,4.1 c-44,9.2-89.2,7.1-132.3-3.9c-21.5-5.9-42.7-13.6-62.5-26.8c-9.7-6.7-19.5-14.7-26.8-27.3l-2.4-5.2c-0.3-0.8-0.8-1.8-1-2.5 l-0.6-2l-2.5-8c-1.5-5.4-3.1-10.8-4.1-16.4c-4.8-22.1-5.9-45.8-0.8-69.1c5-23.2,17.3-45.3,34.5-61.7 c17.1-16.6,37.7-28.1,58.9-35.8c21.3-7.9,43.2-12.3,65-14.8c10.9-1.3,21.9-2,32.8-2.4c5.5-0.2,10.9-0.2,16.3-0.3l16.8,0.6 c22.4,1.5,44.8,6.3,65.8,14.5c21.1,8.1,40.8,19.3,58.8,32.6c18,13.3,33.7,29.1,48.6,45.5c14.7,16.5,27.8,34.5,37.9,54 c10.3,19.4,18.2,40.2,18.5,63.3c0,2.8-2.2,5.1-5,5.2c-1.6,0-3-0.7-4-1.8L2733.3,2905.3z"></path> </g> <g> <path class="st0" d="M2683.6,3067.7l-1366.9,0c-2.5-0.2-62-5.4-96.2-59.3c-32.3-51-30.1-126.1,6.7-223.2 c111.2-293.8,405.2-513.6,767.2-573.4c2.1-0.3,4.1-0.2,6,0.3c1.9-0.5,3.9-0.6,6-0.3c362,59.9,656,279.6,767.2,573.4 c36.8,97.2,39,172.3,6.7,223.3c-34.1,53.8-93.7,59.1-96.2,59.3L2683.6,3067.7z M2003.6,3038.6h678.8c5.2-0.6,48.6-6.3,73.6-46.1 c26.6-42.3,23.3-110.4-9.5-197c-107.5-284.2-392.9-496.9-744.8-555c-0.4-0.1-0.9-0.2-1.3-0.3c-0.4,0.1-0.8,0.2-1.3,0.3 c-351.8,58.2-637.2,270.8-744.8,555c-32.8,86.7-36.1,154.8-9.5,197c25,39.8,68.2,45.6,73.7,46.2H2003.6z"></path> </g> <g> <g> <path class="st1" d="M2586,2001.9L2586,2001.9c-6.7,0.3-12.4-4.9-12.7-11.6l-16.5-350c-0.3-6.7,4.9-12.4,11.6-12.7h0 c70.4-3.3,130.1,51.1,133.5,121.5l5.6,119.3C2710.7,1938.9,2656.4,1998.6,2586,2001.9z"></path> <path class="st3" d="M2585.4,2004.6c-7.8,0-14.4-6.2-14.8-14.1l-16.5-350c-0.4-8.1,5.9-15.1,14.1-15.5 c71.8-3.4,132.8,52.2,136.2,123.9l5.6,119.3c1.6,34.7-10.4,68-33.8,93.8c-23.4,25.7-55.4,40.8-90.2,42.4l0,0 C2585.9,2004.6,2585.6,2004.6,2585.4,2004.6z M2574.4,1630.2c-2,0-4,0-5.9,0.1c-5.3,0.2-9.3,4.7-9.1,10l16.5,350 c0.2,5.3,4.7,9.3,10,9.1l0,0c68.8-3.2,122.2-61.9,119-130.7l-5.6-119.3C2696,1682.4,2640.7,1630.2,2574.4,1630.2z"></path> </g> <g class="st2"> <path class="st3" d="M2704.8,1812.5l2.6,56c3.3,70.4-51.1,130.1-121.5,133.5c-6.7,0.3-12.4-4.9-12.7-11.6l-4.4-93 c2.1,4.2,6.5,6.9,11.4,6.7l8.3-0.4C2644.1,1901,2689.8,1863.1,2704.8,1812.5z"></path> </g> <g> <path class="st0" d="M2585.4,2016.5c-14.2,0-26-11.2-26.7-25.5l-16.5-350c-0.7-14.7,10.7-27.2,25.4-27.9 c78.2-3.7,145,57,148.7,135.3l5.6,119.3c3.7,78.3-57,145-135.3,148.7h0C2586.2,2016.5,2585.8,2016.5,2585.4,2016.5z M2571.4,1642.1l16.3,345.1c61.1-4.2,108.1-56.6,105.2-118.1l-5.6-119.3C2684.4,1688.4,2632.6,1640.5,2571.4,1642.1z"></path> </g> <g> <path class="st1" d="M1413.2,1682.1L1413.2,1682.1c6.7-0.3,12.4,4.9,12.7,11.6l16.5,350c0.3,6.7-4.9,12.4-11.6,12.7l0,0 c-70.4,3.3-130.1-51.1-133.5-121.5l-5.6-119.3C1288.5,1745.2,1342.8,1685.4,1413.2,1682.1z"></path> <path class="st3" d="M1424.8,2059.1c-69,0-126.7-54.4-130-124.1l-5.6-119.3c-1.6-34.7,10.4-68,33.8-93.8 c23.4-25.7,55.4-40.8,90.2-42.4l0,0c8.2-0.4,15.1,5.9,15.5,14.1l16.5,350c0.4,8.1-5.9,15.1-14.1,15.5 C1428.9,2059.1,1426.8,2059.1,1424.8,2059.1z M1413.4,1684.7c-68.8,3.2-122.2,61.9-119,130.7l5.6,119.3 c3.2,68.8,61.9,122.2,130.7,119c5.3-0.2,9.3-4.7,9.1-10l-16.5-350C1423.1,1688.5,1418.5,1684.4,1413.4,1684.7L1413.4,1684.7z"></path> </g> <g class="st2"> <path class="st3" d="M1437.9,1946.5l4.6,97.1c0.3,6.7-4.9,12.4-11.6,12.7c-36.9,1.7-71-12.4-95.5-36.5 c-22.1-21.7-36.4-51.5-38-85l-2.4-50.3c22.1,43.2,68,71.8,119.6,69.4l12.8-0.6C1432.1,1953.2,1436,1950.4,1437.9,1946.5z"></path> </g> <g> <path class="st0" d="M1424.8,2071c-75.3,0-138.3-59.4-141.9-135.5l-5.6-119.3c-3.7-78.3,57-145,135.3-148.7h0 c14.7-0.6,27.2,10.7,27.9,25.4l16.5,350c0.7,14.7-10.7,27.2-25.4,27.9C1429.3,2071,1427,2071,1424.8,2071z M1411.5,1696.8 c-61.1,4.2-108.1,56.6-105.2,118.1l5.6,119.3c2.9,61.5,54.7,109.3,115.9,107.7L1411.5,1696.8z"></path> </g> <g> <ellipse transform="matrix(2.392559e-02 -0.9997 0.9997 2.392559e-02 110.3439 3797.0415)" class="st1" cx="1999.7" cy="1842" rx="597" ry="597"></ellipse> <path class="st3" d="M1999.9,2441.6c-4.9,0-9.7-0.1-14.6-0.2c-330.5-7.9-593-283.3-585.1-613.8 c3.8-160.1,69.8-309.2,185.7-419.7c115.9-110.5,268-169.2,428.1-165.4c160.1,3.8,309.2,69.8,419.7,185.7 c110.5,115.9,169.3,268,165.4,428.1l0,0C2591.3,2182,2323.9,2441.6,1999.9,2441.6z M1999.3,1247.6 c-153.4,0-298.4,58-409.8,164.2c-114.9,109.5-180.3,257.3-184.1,416c-7.8,327.7,252.3,600.6,580,608.4 c327.6,7.9,600.6-252.3,608.4-580l2.6,0.1l-2.6-0.1c3.8-158.7-54.4-309.4-164-424.3c-109.5-114.9-257.3-180.3-416-184.1 C2009,1247.7,2004.1,1247.6,1999.3,1247.6z"></path> </g> <g class="st2"> <path class="st3" d="M2592.8,1773.5c3.2,27.1,4.4,54.7,3.8,82.8c-7.9,329.6-281.5,590.4-611.1,582.6 c-329.6-7.9-590.4-281.5-582.6-611.1c0.2-9.5,0.7-19,1.3-28.3c33.3,291.5,277.2,521.2,578.8,528.4 C2303.1,2335.5,2570.4,2089.7,2592.8,1773.5z"></path> </g> <g> <path class="st0" d="M1999.9,2453.6c-5,0-9.9-0.1-14.8-0.2c-337.1-8.1-604.8-288.9-596.7-626c8.1-337.1,288.7-604.8,626-596.7 c163.3,3.9,315.3,71.2,428,189.4c112.7,118.2,172.6,273.3,168.7,436.6l0,0C2603.1,2188.8,2330.3,2453.6,1999.9,2453.6z M1999.3,1259.5c-150.3,0-292.4,56.8-401.5,160.9c-112.6,107.3-176.7,252.1-180.4,407.7c-7.7,321.1,247.3,588.5,568.4,596.2 c321,7.7,588.5-247.3,596.2-568.4c7.7-321.1-247.3-588.5-568.4-596.2C2008.8,1259.6,2004.1,1259.5,1999.3,1259.5z M2596.5,1856.3L2596.5,1856.3L2596.5,1856.3z"></path> </g> <g> <path class="st0" d="M2594.2,1871.6c-1,116.8-39.9,224.9-105.6,314.1c-49.2,66.8-250.1,182.8-497,182.9 c-228.9,0-436-123.8-484-191.5c-64.1-90.3-101-199.1-100-315.9c2.7-309.1,269.5-435,597.1-432.1 C2332.5,1431.9,2597,1562.4,2594.2,1871.6z"></path> </g> <g> <path class="st0" d="M1991.6,2383.1c-236.8,0-445.5-126.7-495.8-197.6c-68.2-96.1-103.7-208.3-102.7-324.5 c1.3-151.3,63-267.4,183.4-345.1c105.1-67.8,253.2-103,428.4-101.3c175.2,1.5,322.7,39.2,426.6,108.9 c119,79.8,178.6,197,177.3,348.3l0,0c-1,116.1-38.5,227.7-108.4,322.6c-48.4,65.8-247.4,188.7-508.7,188.8 C1991.7,2383.1,1991.7,2383.1,1991.6,2383.1z M1993.8,1443.5c-164.8,0-303.4,33.4-401.5,96.7 c-111.6,72.1-168.8,180.1-170.1,321c-1,110,32.7,216.3,97.3,307.4c45.9,64.7,248.5,185.4,472.1,185.4c0,0,0.1,0,0.1,0 c247.8,0,441.3-117.2,485.2-176.9c66.2-90,101.8-195.6,102.7-305.6c3.4-381.6-401-426.3-575-427.9 C2001.1,1443.6,1997.4,1443.5,1993.8,1443.5z M2594.2,1871.6L2594.2,1871.6L2594.2,1871.6z"></path> </g> <g class="st4"> <ellipse transform="matrix(0.187 -0.9824 0.9824 0.187 157.0764 3845.5571)" class="st1" cx="2401.8" cy="1827.9" rx="105.7" ry="76.6"></ellipse> </g> <g class="st4"> <ellipse transform="matrix(0.3209 -0.9471 0.9471 0.3209 -362.5457 3567.0303)" class="st1" cx="2306.2" cy="2036.3" rx="48.5" ry="41.6"></ellipse> </g> <g class="st2"> <path class="st5" d="M2481.4,1582.2c71.9,69.8,113.9,165.2,112.8,289.4c-1,116.8-39.9,225-105.5,314.1 c-49.2,66.8-250.2,182.8-497,182.9c-87.2,0-171.1-17.9-244.4-43.9c303.4-6.5,548.2-148.9,609.2-231.8 c83.3-113.2,132.7-250.4,133.9-398.6C2490.8,1654.6,2487.6,1617.2,2481.4,1582.2z"></path> </g> <g> <path class="st0" d="M2545.5,1614.6c-3.2,0-6.5-1.1-9.2-3.3l-1.5-1.3l-1.2-1.7c-99.4-142.1-293.2-224.8-531.7-226.9 c-239.6-2.2-434.8,79.8-535.2,224.7l-0.7,1c-5.1,6.2-14.3,7.1-20.5,2c-6-5-7.1-13.7-2.4-19.9 c106-152.7,309.9-239.1,559.1-236.8c247.8,2.2,450.1,89.3,555.1,239c3.9,5.2,3.9,12.7-0.4,17.9 C2553.9,1612.7,2549.7,1614.6,2545.5,1614.6z"></path> </g> <g class="st4"> <path class="st1" d="M1539.3,2046.2c0,0-93.1-305.8,72.4-425.9c165.4-120.1,401.9-117.5,396.2-102.4 c0,0-262.3,61.1-366.6,267.1C1560.9,1943.9,1539.3,2046.2,1539.3,2046.2z"></path> </g> </g> <g> <path class="st0" d="M830.4,3166.1c48.7-7.7,97.5-9.6,146.2-10.5c24.4-0.5,48.7-0.6,73.1-0.5c24.4,0,48.7,0.3,73.1,0.6 c48.7,0.5,97.5,0.6,146.2,0.5h146.2H2000h584.8h292.4l73.1,0l36.6-0.4l36.6-0.6c48.7-0.2,97.5,0.3,146.2,10.9 c2.7,0.6,4.5,3.3,3.9,6.1c-0.4,2-2,3.5-3.9,3.9c-48.7,10.7-97.5,11.1-146.2,10.9l-36.6-0.6l-36.6-0.4l-73.1,0h-292.4H2000 h-584.8H1269c-48.7-0.1-97.5,0-146.2,0.5c-24.4,0.3-48.7,0.6-73.1,0.6c-24.4,0.1-48.7,0-73.1-0.5c-48.7-0.9-97.5-2.8-146.2-10.5 c-2.7-0.4-4.6-3-4.2-5.8C826.5,3168.1,828.3,3166.5,830.4,3166.1z"></path> </g> <g> <path class="st6" d="M2942,3165.2H1058c-30.5,0-55.2-24.7-55.2-55.2v-1.8c0-30.5,24.7-55.2,55.2-55.2H2942 c30.5,0,55.2,24.7,55.2,55.2v1.8C2997.2,3140.5,2972.5,3165.2,2942,3165.2z"></path> <path class="st3" d="M2942,3167.3H1058c-31.6,0-57.3-25.7-57.3-57.3v-1.8c0-31.6,25.7-57.3,57.3-57.3H2942 c31.6,0,57.3,25.7,57.3,57.3v1.8C2999.3,3141.7,2973.6,3167.3,2942,3167.3z M1058,3055.2c-29.3,0-53.1,23.8-53.1,53.1v1.8 c0,29.3,23.8,53.1,53.1,53.1H2942c29.3,0,53.1-23.8,53.1-53.1v-1.8c0-29.3-23.8-53.1-53.1-53.1H1058z"></path> </g> <g> <path class="st0" d="M2942,3179.8H1058c-38.4,0-69.7-31.3-69.7-69.7v-1.8c0-38.4,31.3-69.7,69.7-69.7H2942 c38.4,0,69.7,31.3,69.7,69.7v1.8C3011.8,3148.5,2980.5,3179.8,2942,3179.8z M1058,3067.7c-22.4,0-40.6,18.2-40.6,40.6v1.8 c0,22.4,18.2,40.6,40.6,40.6H2942c22.4,0,40.6-18.2,40.6-40.6v-1.8c0-22.4-18.2-40.6-40.6-40.6H1058z"></path> </g> <g class="st7"> <path class="st1" d="M2942.9,3069.7H1368.3h-131.8h-179.4c-21.1,0-38.2,17.7-38.2,39.5c0,15.9,9.2,29.7,22.4,35.9 c-4-6.2-6.3-13.7-6.3-21.7c0-21.8,17.1-39.5,38.2-39.5h161.5c8.4,9.6,35.4,16.6,67.6,16.6c32.2,0,59.3-7,67.6-16.6h1589 c5.6,0,11,1.3,15.8,3.6C2967.9,3076.8,2956.2,3069.7,2942.9,3069.7z"></path> </g> <g> <path class="st8" d="M2533.1,3048.6H1466.3c-48.4,0-87.7-39.2-87.7-87.7v-4.5h1242.1v4.5 C2620.7,3009.4,2581.5,3048.6,2533.1,3048.6z"></path> </g> <g class="st2"> <path class="st3" d="M2620.7,2956.5v4.5c0,48.4-39.3,87.7-87.7,87.7H1466.3c-48.4,0-87.7-39.3-87.7-87.7v-4.5h3.9 c11,35.8,44.4,61.8,83.8,61.8H2533c39.4,0,72.8-26,83.8-61.8H2620.7z"></path> </g> <g> <path class="st0" d="M2533.1,3063.2H1466.3c-56.4,0-102.2-45.8-102.2-102.2v-19h1271.2v19 C2635.3,3017.3,2589.4,3063.2,2533.1,3063.2z M1393.9,2971c4.9,35.6,35.5,63,72.4,63h1066.8c36.9,0,67.5-27.5,72.4-63H1393.9z"></path> </g> <g class="st9"> <path class="st1" d="M1434.6,2985.6h1165.3c1.5-4,2.7-8.2,3.5-12.5H1395.9c5,27.2,24.8,49.1,50.5,56.4 c-9.3-7.4-16.9-17.2-21.7-28.4C1421.6,2993.8,1426.9,2985.6,1434.6,2985.6z"></path> </g> <g> <path class="st10" d="M2429,3047.7h-858c-45.8,0-84.3-32.4-89.3-75.2L1409,2358c-5.9-50.1,35.8-93.9,89.3-93.9h1003.3 c53.6,0,95.2,43.8,89.3,93.9l-72.6,614.5C2513.3,3015.3,2474.8,3047.7,2429,3047.7z"></path> </g> <g class="st9"> <path class="st1" d="M2060,2722.7c0.2-0.1,0.3-0.1,0.5-0.2c5.3-2.2,10.2,3.5,7.2,8.4c-8.6,14-21.6,25.5-38.2,32.1 c-37.4,14.9-80.8-1.1-99.4-36.7c-21.5-41.1-3.5-91.2,38.4-109.5c15.8-6.9,32.7-8.3,48.4-4.9c5.2,1.1,5.9,8.2,1.1,10.3l-0.2,0.1 c-28.9,12.6-41.3,47.2-26.2,75.6C2004.4,2722.2,2034.4,2733.1,2060,2722.7z"></path> </g> <g> <g> <path class="st0" d="M2443.1,2423.6c-0.3-8-0.5-16.2-3.2-24c-0.8-0.8-1.6-1.6-2.4-2.3c-2.4-0.5-4.8-1.2-7.3-1.5 c-17.4-1.8-34.6-1-51.6,3.1c-22.2,5.3-41.8,15.4-57.3,32.3c-5.6,6.1-10.6,12.8-15.8,19.4c-1.4,1.8-2.5,2.6-4.9,1.9 c-5.7-1.6-11.6-1.8-17.4-1.2c-15.7,1.6-28.8,8.8-40.6,18.9c-12.7,11-22.3,24.5-30.9,38.8c-3.7,6-1,11.8,6,13 c4.4,0.7,8.9,1.5,13.3,2.2c10.6,1.7,21.2,3.5,31.7,5.2c0,0.3,0.1,0.5,0.1,0.6c-0.1,0.2-0.1,0.5-0.2,0.7 c-3.4,6-1.6,10.9,3.5,14.9c0.6,0.5,1.1,1,1.6,1.5c2.8,2.7,5.6,5.4,8.6,8.2c-3,3.1-5.9,5.8-8.5,8.9c-1.3,1.6-2.3,3.7-2.5,5.7 c-0.5,3.3,1.6,6.2,4.6,7.4c3.2,1.3,6.2,0.8,8.7-1.6c3.1-3,6-6.2,9.1-9.4c4,3.9,7.8,7.6,11.6,11.2c4.3,4.1,7,4.6,12.4,2.1 c1-0.5,2-0.8,3.1-1.3c0.3,1.2,0.5,2.1,0.7,3c2.9,14.5,5.8,29,8.8,43.4c1.4,6.8,7.3,9.3,13.1,5.4c5.2-3.5,10.4-7.2,15.5-11 c11.7-8.8,21.9-19,29.5-31.7c9.4-15.9,13.4-32.7,7.6-50.9c-0.2-0.7,0.2-2.1,0.8-2.5c5.1-4.5,10.4-8.8,15.5-13.3 c11.6-10.3,20.2-22.7,26.3-36.9C2440.7,2464.8,2443.8,2444.5,2443.1,2423.6z M2268.9,2514.4c-12.2-2-24.9-4.2-38-6.3 c10.8-15.6,22.6-29.5,40.1-37.3c7.6-3.4,16.7-4.6,22.5-3.2C2285.4,2483.1,2277.2,2498.6,2268.9,2514.4z M2376.1,2559.6 c-1.5,9.9-6,18.5-12,26.4c-7.4,9.8-16.5,17.6-26.6,25c-2.7-13.3-5.3-26.3-7.9-39.1c15.5-8.9,30.7-17.6,46-26.3 C2376.9,2549.9,2376.9,2554.8,2376.1,2559.6z M2423.5,2460.7c-3.4,13.3-8.7,25.8-17.2,36.7c-6.6,8.4-14.4,15.5-22.8,22.1 c-22.7,17.8-47.9,31.4-73.8,43.7c-1.3,0.6-2.1,0.6-3.2-0.5c-2.3-2.4-4.8-4.7-7.2-7c-0.2-0.1-0.2-0.4-0.5-0.8 c0.6-0.7,1.3-1.3,1.9-2c13.7-14.3,27.5-28.5,41.3-42.8c4-4.1,3.3-10-1.4-12.7c-3.3-1.9-7.1-1.3-10,1.7 c-8.3,8.5-16.5,17.1-24.8,25.6c-6.1,6.4-12.2,12.7-18.6,19.3c-3-2.9-5.8-5.5-8.4-8.2c-0.5-0.5-0.3-2,0.1-2.7 c6.4-13.6,12.7-27.2,19.5-40.7c6.7-13.3,14.7-25.9,23.8-37.7c8.5-11.2,18.1-21.3,30.4-28.4c7.9-4.5,16.2-8.1,25-10.4 c0.8-0.2,2.1,0.4,2.8,1.1c10.9,10.4,21.6,20.8,32.4,31.2c3.2,3.1,6.4,6.3,9.8,9.3C2423.6,2458.4,2423.8,2459.3,2423.5,2460.7z M2426.4,2443.4c-10.8-10.4-21.3-20.5-31.8-30.7c0-0.3,0-0.6,0-0.9c10.4-0.3,20.9-0.6,31.4-0.9 C2427.5,2422.1,2427.4,2432.5,2426.4,2443.4z"></path> </g> <g> <path class="st1" d="M2422.6,2457.5c-3.3-3-6.5-6.2-9.8-9.3c-10.8-10.4-21.5-20.9-32.4-31.2c-0.7-0.7-2-1.3-2.8-1.1 c-8.8,2.3-17.1,5.8-25,10.4c-12.3,7-21.9,17.2-30.4,28.4c-9.1,11.8-17.1,24.4-23.8,37.7c-6.8,13.4-13.1,27.1-19.5,40.7 c-0.4,0.8-0.6,2.2-0.1,2.7c2.6,2.8,5.5,5.4,8.4,8.2c6.4-6.6,12.5-13,18.6-19.3c8.2-8.6,16.5-17.1,24.8-25.6c3-3,6.8-3.6,10-1.7 c4.7,2.8,5.4,8.6,1.4,12.7c-13.7,14.3-27.5,28.5-41.3,42.8c-0.7,0.7-1.3,1.4-1.9,2c0.3,0.5,0.3,0.7,0.5,0.8 c2.4,2.4,4.9,4.6,7.2,7c1.1,1.1,1.9,1,3.2,0.5c26-12.3,51.1-25.9,73.8-43.7c8.4-6.5,16.2-13.7,22.8-22.1 c8.5-10.9,13.8-23.4,17.2-36.7C2423.8,2459.3,2423.6,2458.4,2422.6,2457.5z M2398.1,2479.6c-10.5,10.7-27.6,11.1-38.3,0.7 c-10.7-10.3-11-27.5-0.6-38.3c10.2-10.6,27.3-10.9,38.1-0.5C2407.9,2451.8,2408.3,2469.1,2398.1,2479.6z"></path> </g> <g> <path class="st11" d="M2426.4,2443.4c-10.8-10.4-21.3-20.5-31.8-30.7c0-0.3,0-0.6,0-0.9c10.4-0.3,20.9-0.6,31.4-0.9 C2427.5,2422.1,2427.4,2432.5,2426.4,2443.4z"></path> </g> <g> <path class="st11" d="M2293.6,2467.6c-8.2,15.5-16.3,31.1-24.6,46.9c-12.3-2.1-25-4.2-38-6.3c10.8-15.6,22.6-29.6,40.1-37.3 C2278.6,2467.4,2287.8,2466.2,2293.6,2467.6z"></path> </g> <g> <path class="st11" d="M2364.1,2586c-7.4,9.8-16.5,17.6-26.6,25c-2.7-13.3-5.3-26.3-7.9-39.1c15.5-8.9,30.7-17.6,46-26.4 c1.3,4.4,1.2,9.2,0.5,14.1C2374.6,2569.5,2370.1,2578.1,2364.1,2586z"></path> </g> <g> <path class="st0" d="M2397.3,2441.5c-10.8-10.3-27.9-10.1-38.1,0.5c-10.4,10.8-10.1,28,0.6,38.3c10.7,10.4,27.8,10,38.3-0.7 C2408.3,2469.1,2407.9,2451.8,2397.3,2441.5z M2388.6,2470.9c-5.3,5.5-14.3,5.6-19.9,0.3c-5.8-5.5-5.8-14.8-0.1-20.5 c5.3-5.4,14.5-5.5,20-0.1C2394.2,2456.2,2394.2,2465.2,2388.6,2470.9z"></path> </g> <g> <path class="st12" d="M2388.6,2470.9c-5.3,5.5-14.3,5.6-19.9,0.3c-5.8-5.5-5.8-14.7-0.1-20.5c5.3-5.4,14.5-5.5,19.9-0.1 C2394.1,2456.2,2394.2,2465.2,2388.6,2470.9z"></path> </g> </g> <g class="st2"> <path class="st3" d="M2476.9,2974.2l72.6-614.5c2-16.8-3.2-33.4-14.6-46.7c-12.9-15.1-32-23.9-52.8-24.6c0,0,0-0.1,0-0.1 c-29.7,102-195.3,671.1-980,692.7c6.9,29.4,35.3,50.8,68.8,50.8h835.8C2442.9,3031.8,2473,3007,2476.9,2974.2z"></path> </g> <g class="st9"> <path class="st1" d="M1522.8,2984.5l-72.6-614.5c-2.1-17.8,3.4-35.3,15.4-49.4c14.1-16.5,35.2-25.9,57.9-25.9h1003.3 c7.8,0,15.4,1.2,22.6,3.3c-1.5-2.2-3.1-4.4-4.9-6.5c-14.1-16.5-35.2-25.9-57.9-25.9H1483.3c-22.7,0-43.8,9.4-57.9,25.9 c-12,14-17.5,31.6-15.4,49.4l72.6,614.5c3.2,27.3,23.7,49.3,50.7,57.3C1527.8,3004.4,1524.1,2994.9,1522.8,2984.5z"></path> </g> <g> <path class="st0" d="M2429,3062.2h-858c-53.2,0-97.8-37.9-103.8-88l-72.6-614.5c-3.2-27.3,5.3-53.9,23.9-74.9 c19.9-22.4,49-35.2,79.8-35.2h1003.3c30.8,0,59.9,12.8,79.8,35.2c18.7,21,27.2,47.6,23.9,74.9l-72.6,614.5 C2526.9,3024.4,2482.2,3062.2,2429,3062.2z M1498.3,2278.6c-22.5,0-43.7,9.3-58.1,25.5c-13.1,14.7-19,33.2-16.8,52.2l72.6,614.5 c4.2,35.6,36.4,62.4,74.9,62.4h858c38.5,0,70.7-26.8,74.9-62.4l72.6-614.5c2.2-19-3.7-37.5-16.8-52.2 c-14.4-16.2-35.6-25.5-58.1-25.5H1498.3z"></path> </g> <g class="st2"> <path class="st3" d="M1087.2,3165.2h1855.8c30,0,54.3-25.1,54.3-56.1v0c0-31-24.3-56.1-54.3-56.1h-747.2 c-29.5,16.6-250.9,119.8-1164.8,93.1L1087.2,3165.2z"></path> </g> <g class="st13"> <path class="st1" d="M1665.1,2660.3h-56c-20.1,0-36.4-16.3-36.4-36.4v-184.8c0-20.1,16.3-36.4,36.4-36.4h56 c20.1,0,36.4,16.3,36.4,36.4V2624C1701.5,2644,1685.2,2660.3,1665.1,2660.3z"></path> </g> <g> <path class="st0" d="M2070,2712.7c0.2-0.1,0.3-0.1,0.5-0.2c5.3-2.2,10.2,3.5,7.2,8.4c-8.6,14-21.6,25.5-38.2,32.1 c-37.4,14.9-80.8-1.1-99.4-36.7c-21.5-41.1-3.5-91.2,38.4-109.5c15.8-6.9,32.7-8.3,48.4-4.9c5.2,1.1,5.9,8.2,1.1,10.3l-0.2,0.1 c-28.9,12.6-41.3,47.2-26.2,75.6C2014.4,2712.2,2044.4,2723.1,2070,2712.7z"></path> </g> <g> <g> <g> <path class="st6" d="M2859.8,1553.4c-3.9,0-7.7-1.5-10.6-4.4c-4.8-4.8-5.8-12.3-2.3-18.2l42.5-72.9 c9.8-16.7,7.7-37.5-5.1-51.7c-42.5-47-66.1-107.8-66.6-171.1c-1.1-141,112.7-258,253.6-260.7c1.7,0,3.4,0,5.1,0 c69.9,0,135.3,27.4,184.4,77.2c49,49.8,75.4,115.7,74.3,185.6c-2.2,140.3-118.3,254.5-258.7,254.5c0,0-2.2,0-2.2,0 c-22-0.2-43.8-3.2-64.9-8.8c-3.5-0.9-7.1-1.4-10.8-1.4c-7.5,0-15,2-21.5,5.9l-109.5,63.9 C2865,1552.7,2862.4,1553.4,2859.8,1553.4z"></path> </g> <g> <g> <path class="st0" d="M3076.3,989.4c135.9,0,245.8,111.3,243.7,247.6c-2.1,132.5-111.5,239.7-243.7,239.7c-0.7,0-1.4,0-2.1,0 c-21.1-0.2-41.6-3.1-61.1-8.3c-4.8-1.3-9.8-1.9-14.7-1.9c-10.1,0-20.2,2.7-29.1,7.9l-109.5,63.9l42.5-72.9 c12.9-22.2,10.2-50.2-7-69.3c-38.6-42.7-62.2-99.2-62.7-161.2c-1-132.8,106.1-243,238.9-245.6 C3073.1,989.4,3074.7,989.4,3076.3,989.4 M3076.3,959.4c-1.8,0-3.6,0-5.4,0.1c-149.1,2.9-269.5,126.6-268.3,275.8 c0.5,67,25.5,131.3,70.5,181.1c8.4,9.3,9.8,23,3.3,34.1l-42.5,72.9c-6.9,11.8-4.9,26.7,4.7,36.3c5.8,5.8,13.5,8.8,21.2,8.8 c5.2,0,10.4-1.3,15.1-4.1l109.5-63.9c4.3-2.5,9.1-3.8,14-3.8c2.3,0,4.7,0.3,6.9,0.9c22.3,6,45.4,9.1,68.6,9.3l2.4,0 c148.6,0,271.3-120.8,273.7-269.3c1.2-74-26.7-143.7-78.6-196.4C3219.5,988.4,3150.2,959.4,3076.3,959.4L3076.3,959.4z"></path> </g> </g> </g> <g class="st14"> <path class="st15" d="M3319.7,1221.8c-0.1-2.7-0.3-5.3-0.5-8c-0.1-1.4-0.2-2.7-0.3-4.1c-0.3-2.7-0.6-5.4-0.9-8 c-0.1-1.2-0.3-2.3-0.4-3.5c-0.5-3.5-1.1-7-1.8-10.5c-0.3-1.5-0.6-3-0.9-4.5c-0.4-2.1-0.9-4.1-1.4-6.2c-0.4-1.8-0.9-3.6-1.3-5.4 c-0.4-1.7-0.9-3.3-1.4-5c-0.6-1.9-1.1-3.9-1.7-5.8c-0.4-1.2-0.8-2.3-1.1-3.4c-1.5-4.5-3-8.9-4.8-13.2c-0.2-0.6-0.5-1.2-0.7-1.9 c-1-2.4-2-4.8-3-7.2c-0.3-0.7-0.6-1.4-1-2.2c-1.1-2.5-2.3-4.9-3.5-7.4c-0.1-0.2-0.2-0.4-0.3-0.6c-5.5-11-11.8-21.6-18.8-31.6 c12,29.4,18.4,61.7,17.8,95.6c-1.8,113.8-82.8,208.9-189.4,233.5c-113,25-178.8,3.9-218.8-35.6c-0.2-0.2-16.2-38.5-16.4-38.7 c-6.7-7.4-12.9-15.3-18.7-23.5c0,0,0,0,0,0c0.9,2.2,1.9,4.5,2.8,6.7c0,0,0,0-0.1-0.1c10.6,23.9,24.8,45.8,42.1,64.9 c17.2,19.1,19.9,47.1,7,69.3l-42.5,72.9l109.5-63.9c13.2-7.7,29-9.9,43.8-6c19.5,5.2,40,8.1,61.1,8.3c3.8,0,7.6,0,11.4-0.2 c3.5-0.1,7-0.4,10.5-0.7c0.5,0,1.1-0.1,1.6-0.1c3.2-0.3,6.4-0.7,9.5-1.1c0.8-0.1,1.6-0.2,2.4-0.3c3-0.4,5.9-0.9,8.9-1.4 c1-0.2,1.9-0.3,2.9-0.5c2.8-0.5,5.6-1.1,8.3-1.8c1.1-0.2,2.2-0.5,3.2-0.7c2.7-0.6,5.3-1.4,7.9-2.1c1.2-0.3,2.3-0.6,3.5-1 c2.5-0.7,5-1.6,7.5-2.4c1.2-0.4,2.4-0.8,3.6-1.2c2.4-0.8,4.8-1.7,7.2-2.7c1.2-0.5,2.5-0.9,3.7-1.4c2.3-0.9,4.6-1.9,6.9-2.9 c1.3-0.6,2.5-1.1,3.8-1.7c2.2-1,4.4-2.1,6.6-3.2c1.3-0.6,2.6-1.3,3.9-1.9c2.1-1.1,4.2-2.2,6.3-3.4c1.3-0.7,2.6-1.4,3.9-2.2 c2-1.2,4-2.4,6-3.6c1.3-0.8,2.6-1.6,3.9-2.4c1.9-1.2,3.8-2.5,5.7-3.8c1.3-0.9,2.6-1.8,3.9-2.7c1.8-1.3,3.6-2.6,5.4-4 c1.3-1,2.5-1.9,3.8-2.9c1.7-1.4,3.4-2.8,5.1-4.2c1.3-1,2.5-2.1,3.8-3.2c1.6-1.4,3.3-2.9,4.9-4.3c1.2-1.1,2.5-2.3,3.7-3.4 c1.5-1.5,3.1-3,4.6-4.5c1.2-1.2,2.4-2.4,3.6-3.7c1.5-1.5,2.9-3,4.3-4.6c1.2-1.3,2.3-2.6,3.5-3.9c1.4-1.6,2.7-3.1,4-4.7 c1.1-1.4,2.2-2.8,3.3-4.1c1.3-1.6,2.5-3.2,3.8-4.8c1.1-1.4,2.2-2.9,3.2-4.4c1.2-1.6,2.4-3.3,3.5-4.9c1-1.5,2.1-3.1,3.1-4.6 c1.1-1.7,2.2-3.3,3.2-5c1-1.6,1.9-3.2,2.9-4.9c1-1.7,2-3.4,2.9-5.1c0.9-1.7,1.8-3.4,2.7-5.1c0.9-1.7,1.8-3.4,2.7-5.1 c0.9-1.8,1.7-3.5,2.5-5.3c0.8-1.7,1.6-3.5,2.4-5.2c0.8-1.8,1.5-3.7,2.3-5.5c0.7-1.7,1.4-3.5,2.1-5.2c0.7-1.9,1.4-3.8,2.1-5.8 c0.6-1.8,1.3-3.5,1.8-5.3c0.6-2,1.2-4,1.8-6c0.5-1.8,1.1-3.5,1.6-5.3c0.6-2.1,1-4.2,1.6-6.3c0.4-1.7,0.9-3.5,1.3-5.2 c0.5-2.2,0.9-4.4,1.3-6.6c0.3-1.7,0.7-3.4,1-5.1c0.4-2.3,0.7-4.7,1-7c0.2-1.6,0.5-3.2,0.7-4.9c0.3-2.6,0.5-5.3,0.7-8 c0.1-1.4,0.3-2.7,0.4-4.1c0.3-4.1,0.4-8.1,0.5-12.2c0.1-3.9,0-7.8-0.1-11.6C3319.8,1224.2,3319.7,1223,3319.7,1221.8z"></path> </g> <g class="st7"> <g> <path class="st1" d="M3191.2,1162.2c-26.7-26.7-71.4-26-101.8,0.8c-13.6-12-30.5-19.3-48.2-20.5c-20.5-1.4-39.5,5.6-53.5,19.6 c-29.1,29.1-29.1,76.5,0,105.6l82.2,82.2c5.2,5.2,12.2,8.1,19.6,8.1c7.4,0,14.4-2.9,19.6-8.1l82.2-82.2 C3220.3,1238.7,3220.3,1191.3,3191.2,1162.2z"></path> </g> </g> <g class="st7"> <g> <path class="st1" d="M2845.7,1252.5c-1-132.8,106.1-243,238.9-245.6c77.6-1.5,147.2,33.3,192.8,88.6 c-44.7-65.3-120.4-107.7-205.9-106.1c-132.7,2.6-239.9,112.8-238.9,245.6c0.5,58,21.2,111.1,55.4,152.6 C2861.7,1349.1,2846.1,1302.6,2845.7,1252.5z"></path> </g> </g> <g> <path class="st1" d="M2982.3,1156.8L2982.3,1156.8c24.9-24.9,65.3-20.4,90.2,4.5l3.9,3.9l3.9-3.9c24.9-24.9,65.3-29.4,90.2-4.5 v0c24.9,24.9,24.9,65.3,0,90.2l-3.9,3.9l-78.3,78.3c-6.6,6.6-17.2,6.6-23.8,0l-78.3-78.3l-3.9-3.9 C2957.4,1222.1,2957.4,1181.7,2982.3,1156.8z"></path> <path class="st0" d="M3076.3,1344.1c-6.9,0-13.7-2.6-19-7.8l-82.2-82.2c-13.9-13.9-21.6-32.5-21.6-52.2s7.7-38.2,21.6-52.1l0,0 l0,0c26.6-26.6,71.1-25.6,101.1,1.4c30-27.1,74.5-28,101.1-1.4c28.8,28.8,28.8,75.5,0,104.3l-82.2,82.2 C3090,1341.4,3083.2,1344.1,3076.3,1344.1z M3023.3,1150.3c-12.6,0-24.8,4.5-33.9,13.6l0,0c-10.2,10.2-15.7,23.6-15.7,38 s5.6,27.9,15.7,38l82.2,82.2c2.7,2.7,7,2.7,9.6,0l82.2-82.2c21-21,21-55.1,0-76c-19.7-19.7-53.8-17.7-76,4.5l-3.9,3.9 c-3.9,3.9-10.2,3.9-14.1,0l-3.9-3.9C3053.4,1156.4,3038,1150.3,3023.3,1150.3z M2982.3,1156.8L2982.3,1156.8L2982.3,1156.8z"></path> </g> </g> </g> <g class="st16"> <path class="st3" d="M3300,3209.8c0,50.7-585.4,91.8-1307.5,91.8S685,3260.4,685,3209.8c0-14.2,46.3-27.8,128.9-39.8h2357.1 C3253.7,3182,3300,3195.5,3300,3209.8z"></path> </g> <g> <g> <path class="st17" d="M1232,2212.2l-35.2,5.4c-7,1.1-12.6,6.6-13.7,13.7l-5.4,35.2l-5.4-35.2c-1.1-7-6.6-12.6-13.7-13.7 l-35.2-5.4l35.2-5.4c7-1.1,12.6-6.6,13.7-13.7l5.4-35.2l5.4,35.2c1.1,7,6.6,12.6,13.7,13.7L1232,2212.2z"></path> </g> <g> <path class="st17" d="M1092.4,2444.1l-33,5.1c-6.6,1-11.8,6.2-12.8,12.8l-5.1,33l-5.1-33c-1-6.6-6.2-11.8-12.8-12.8l-33-5.1 l33-5.1c6.6-1,11.8-6.2,12.8-12.8l5.1-33l5.1,33c1,6.6,6.2,11.8,12.8,12.8L1092.4,2444.1z"></path> </g> <g> <path class="st17" d="M980.9,2041.6l-24.6,3.8c-4.9,0.8-8.8,4.6-9.6,9.6l-3.8,24.6l-3.8-24.6c-0.8-4.9-4.6-8.8-9.6-9.6 l-24.6-3.8l24.6-3.8c4.9-0.8,8.8-4.6,9.6-9.6l3.8-24.6l3.8,24.6c0.8,4.9,4.6,8.8,9.6,9.6L980.9,2041.6z"></path> </g> <g> <path class="st17" d="M3059.6,2120.9l36.1,5.6c7.2,1.1,12.9,6.8,14,14l5.6,36.1l5.6-36.1c1.1-7.2,6.8-12.9,14-14l36.1-5.6 l-36.1-5.6c-7.2-1.1-12.9-6.8-14-14l-5.6-36.1l-5.6,36.1c-1.1,7.2-6.8,12.9-14,14L3059.6,2120.9z"></path> </g> <g> <path class="st17" d="M2842.2,2353.4l33.9,5.2c6.8,1,12.1,6.4,13.2,13.2l5.2,33.9l5.2-33.9c1-6.8,6.4-12.1,13.2-13.2l33.9-5.2 l-33.9-5.2c-6.8-1-12.1-6.4-13.2-13.2l-5.2-33.9l-5.2,33.9c-1,6.8-6.4,12.1-13.2,13.2L2842.2,2353.4z"></path> </g> <g> <path class="st17" d="M2919.7,1924l25.3,3.9c5.1,0.8,9,4.8,9.8,9.8l3.9,25.3l3.9-25.3c0.8-5.1,4.8-9,9.8-9.8l25.3-3.9l-25.3-3.9 c-5.1-0.8-9-4.8-9.8-9.8l-3.9-25.3l-3.9,25.3c-0.8,5.1-4.8,9-9.8,9.8L2919.7,1924z"></path> </g> <g> <path class="st17" d="M1366.2,1234.5l-27.6,4.3c-5.5,0.9-9.9,5.2-10.7,10.7l-4.3,27.6l-4.3-27.6c-0.9-5.5-5.2-9.9-10.7-10.7 l-27.6-4.3l27.6-4.3c5.5-0.9,9.9-5.2,10.7-10.7l4.3-27.6l4.3,27.6c0.9,5.5,5.2,9.9,10.7,10.7L1366.2,1234.5z"></path> </g> <g> <path class="st17" d="M1169.9,1456.3l-28.6,4.4c-5.7,0.9-10.2,5.4-11.1,11.1l-4.4,28.6l-4.4-28.6c-0.9-5.7-5.4-10.2-11.1-11.1 l-28.6-4.4l28.6-4.4c5.7-0.9,10.2-5.4,11.1-11.1l4.4-28.6l4.4,28.6c0.9,5.7,5.4,10.2,11.1,11.1L1169.9,1456.3z"></path> </g> <g> <path class="st17" d="M2461.7,1064.5l27.6,4.3c5.5,0.9,9.9,5.2,10.7,10.7l4.3,27.6l4.3-27.6c0.9-5.5,5.2-9.9,10.7-10.7l27.6-4.3 l-27.6-4.3c-5.5-0.9-9.9-5.2-10.7-10.7l-4.3-27.6l-4.3,27.6c-0.9,5.5-5.2,9.9-10.7,10.7L2461.7,1064.5z"></path> </g> </g> </g> </g> </svg> 