<?xml version="1.0" encoding="UTF-8"?> <!-- Generator: Adobe Illustrator 21.0.0, SVG Export Plug-In . SVG Version: 6.00 Build 0) --> <svg xmlns="http://www.w3.org/2000/svg" xmlns:xlink="http://www.w3.org/1999/xlink" id="Layer_1" x="0px" y="0px" viewBox="0 0 4000 4000" style="enable-background:new 0 0 4000 4000;" xml:space="preserve"> <style type="text/css"> .st0{opacity:0.2;} .st1{fill:#390075;} .st2{fill:#ED902B;} .st3{opacity:0.3;} .st4{fill:#EC1C24;} .st5{opacity:0.55;} .st6{fill:#FFFFFF;} .st7{fill:#303353;} .st8{fill:#262F6A;} .st9{fill:#F7C414;} .st10{fill:#FFDC9C;} .st11{fill:#00C3FF;} .st12{opacity:0.7;} .st13{opacity:0.8;} .st14{clip-path:url(#SVGID_2_);fill:#EC1C24;} .st15{clip-path:url(#SVGID_2_);fill:#EC1D24;} .st16{clip-path:url(#SVGID_2_);fill:#EC1E24;} .st17{clip-path:url(#SVGID_2_);fill:#EC1F24;} .st18{clip-path:url(#SVGID_2_);fill:#EC2024;} .st19{clip-path:url(#SVGID_2_);fill:#ED2124;} .st20{clip-path:url(#SVGID_2_);fill:#ED2224;} .st21{clip-path:url(#SVGID_2_);fill:#ED2324;} .st22{clip-path:url(#SVGID_2_);fill:#ED2424;} .st23{clip-path:url(#SVGID_2_);fill:#ED2524;} .st24{clip-path:url(#SVGID_2_);fill:#ED2624;} .st25{clip-path:url(#SVGID_2_);fill:#ED2724;} .st26{clip-path:url(#SVGID_2_);fill:#ED2824;} .st27{clip-path:url(#SVGID_2_);fill:#ED2924;} .st28{clip-path:url(#SVGID_2_);fill:#ED2A24;} .st29{clip-path:url(#SVGID_2_);fill:#EE2A24;} .st30{clip-path:url(#SVGID_2_);fill:#EE2B24;} .st31{clip-path:url(#SVGID_2_);fill:#EE2C24;} .st32{clip-path:url(#SVGID_2_);fill:#EE2D24;} .st33{clip-path:url(#SVGID_2_);fill:#EE2E24;} .st34{clip-path:url(#SVGID_2_);fill:#EE2F24;} .st35{clip-path:url(#SVGID_2_);fill:#EE3024;} .st36{clip-path:url(#SVGID_2_);fill:#EE3124;} .st37{clip-path:url(#SVGID_2_);fill:#EE3224;} .st38{clip-path:url(#SVGID_2_);fill:#EE3225;} .st39{clip-path:url(#SVGID_2_);fill:#EF3325;} .st40{clip-path:url(#SVGID_2_);fill:#EF3425;} .st41{clip-path:url(#SVGID_2_);fill:#EF3525;} .st42{clip-path:url(#SVGID_2_);fill:#EF3625;} .st43{clip-path:url(#SVGID_2_);fill:#EF3725;} .st44{clip-path:url(#SVGID_2_);fill:#EF3825;} .st45{clip-path:url(#SVGID_2_);fill:#EF3925;} .st46{clip-path:url(#SVGID_2_);fill:#EF3A25;} .st47{clip-path:url(#SVGID_2_);fill:#EF3B25;} .st48{clip-path:url(#SVGID_2_);fill:#EF3C25;} .st49{clip-path:url(#SVGID_2_);fill:#F03D25;} .st50{clip-path:url(#SVGID_2_);fill:#F03E25;} .st51{clip-path:url(#SVGID_2_);fill:#F03F25;} .st52{clip-path:url(#SVGID_2_);fill:#F04025;} .st53{clip-path:url(#SVGID_2_);fill:#F04125;} .st54{clip-path:url(#SVGID_2_);fill:#F04225;} .st55{clip-path:url(#SVGID_2_);fill:#F04325;} .st56{clip-path:url(#SVGID_2_);fill:#F04425;} .st57{clip-path:url(#SVGID_2_);fill:#F04525;} .st58{clip-path:url(#SVGID_2_);fill:#F14625;} .st59{clip-path:url(#SVGID_2_);fill:#F14725;} .st60{clip-path:url(#SVGID_2_);fill:#F14825;} .st61{clip-path:url(#SVGID_2_);fill:#F14925;} .st62{clip-path:url(#SVGID_2_);fill:#F14A25;} .st63{clip-path:url(#SVGID_2_);fill:#F14B25;} .st64{clip-path:url(#SVGID_2_);fill:#F14C25;} .st65{clip-path:url(#SVGID_2_);fill:#F14D25;} .st66{clip-path:url(#SVGID_2_);fill:#F14E25;} .st67{clip-path:url(#SVGID_2_);fill:#F24F25;} .st68{clip-path:url(#SVGID_2_);fill:#F25025;} .st69{clip-path:url(#SVGID_2_);fill:#F25125;} .st70{clip-path:url(#SVGID_2_);fill:#F25225;} .st71{clip-path:url(#SVGID_2_);fill:#F25325;} .st72{clip-path:url(#SVGID_2_);fill:#F25425;} .st73{clip-path:url(#SVGID_2_);fill:#F25525;} .st74{clip-path:url(#SVGID_2_);fill:#F25625;} .st75{clip-path:url(#SVGID_2_);fill:#F25725;} .st76{clip-path:url(#SVGID_2_);fill:#F35825;} .st77{clip-path:url(#SVGID_2_);fill:#F35925;} .st78{clip-path:url(#SVGID_2_);fill:#F35A25;} .st79{clip-path:url(#SVGID_2_);fill:#F35C25;} .st80{clip-path:url(#SVGID_2_);fill:#F35D25;} .st81{clip-path:url(#SVGID_2_);fill:#F35E26;} .st82{clip-path:url(#SVGID_2_);fill:#F35F26;} .st83{clip-path:url(#SVGID_2_);fill:#F36026;} .st84{clip-path:url(#SVGID_2_);fill:#F46126;} .st85{clip-path:url(#SVGID_2_);fill:#F46226;} .st86{clip-path:url(#SVGID_2_);fill:#F46426;} .st87{clip-path:url(#SVGID_2_);fill:#F46526;} .st88{clip-path:url(#SVGID_2_);fill:#F46626;} .st89{clip-path:url(#SVGID_2_);fill:#F46726;} .st90{clip-path:url(#SVGID_2_);fill:#F46826;} .st91{clip-path:url(#SVGID_2_);fill:#F46A26;} .st92{clip-path:url(#SVGID_2_);fill:#F56B26;} .st93{clip-path:url(#SVGID_2_);fill:#F56C26;} .st94{clip-path:url(#SVGID_2_);fill:#F56D26;} .st95{clip-path:url(#SVGID_2_);fill:#F56F26;} .st96{clip-path:url(#SVGID_2_);fill:#F57026;} .st97{clip-path:url(#SVGID_2_);fill:#F57126;} .st98{clip-path:url(#SVGID_2_);fill:#F57226;} .st99{clip-path:url(#SVGID_2_);fill:#F67426;} .st100{clip-path:url(#SVGID_2_);fill:#F67526;} .st101{clip-path:url(#SVGID_2_);fill:#F67626;} .st102{clip-path:url(#SVGID_2_);fill:#F67726;} .st103{clip-path:url(#SVGID_2_);fill:#F67926;} .st104{clip-path:url(#SVGID_2_);fill:#F67A26;} .st105{clip-path:url(#SVGID_2_);fill:#F67B26;} .st106{clip-path:url(#SVGID_2_);fill:#F77D26;} .st107{clip-path:url(#SVGID_2_);fill:#F77E26;} .st108{clip-path:url(#SVGID_2_);fill:#F77F26;} .st109{clip-path:url(#SVGID_2_);fill:#F78126;} .st110{clip-path:url(#SVGID_2_);fill:#F78226;} .st111{clip-path:url(#SVGID_2_);fill:#F78426;} .st112{clip-path:url(#SVGID_2_);fill:#F78526;} .st113{clip-path:url(#SVGID_2_);fill:#F88626;} .st114{clip-path:url(#SVGID_2_);fill:#F88826;} .st115{clip-path:url(#SVGID_2_);fill:#F88927;} .st116{clip-path:url(#SVGID_2_);fill:#F88A27;} .st117{clip-path:url(#SVGID_2_);fill:#F88C27;} .st118{clip-path:url(#SVGID_2_);fill:#F88D27;} .st119{clip-path:url(#SVGID_2_);fill:#F98F27;} .st120{clip-path:url(#SVGID_2_);fill:#F99027;} .st121{clip-path:url(#SVGID_2_);fill:#F99227;} .st122{clip-path:url(#SVGID_2_);fill:#F99327;} .st123{clip-path:url(#SVGID_2_);fill:#F99427;} .st124{clip-path:url(#SVGID_2_);fill:#F99627;} .st125{clip-path:url(#SVGID_2_);fill:#F99727;} .st126{clip-path:url(#SVGID_2_);fill:#FA9927;} .st127{clip-path:url(#SVGID_2_);fill:#FA9A27;} .st128{clip-path:url(#SVGID_2_);fill:#FA9C27;} .st129{clip-path:url(#SVGID_2_);fill:#FA9D27;} .st130{clip-path:url(#SVGID_2_);fill:#FA9F27;} .st131{clip-path:url(#SVGID_2_);fill:#FAA027;} .st132{clip-path:url(#SVGID_2_);fill:#FBA227;} .st133{clip-path:url(#SVGID_2_);fill:#FBA327;} .st134{clip-path:url(#SVGID_2_);fill:#FBA527;} .st135{clip-path:url(#SVGID_2_);fill:#FBA627;} .st136{clip-path:url(#SVGID_2_);fill:#FBA827;} .st137{clip-path:url(#SVGID_2_);fill:#FBAA27;} .st138{clip-path:url(#SVGID_2_);fill:#FCAB27;} .st139{clip-path:url(#SVGID_2_);fill:#FCAD27;} .st140{clip-path:url(#SVGID_2_);fill:#FCAE27;} .st141{clip-path:url(#SVGID_2_);fill:#FCB027;} .st142{clip-path:url(#SVGID_2_);fill:#FCB127;} .st143{clip-path:url(#SVGID_2_);fill:#FCB327;} .st144{clip-path:url(#SVGID_2_);fill:#FDB528;} .st145{clip-path:url(#SVGID_2_);fill:#FDB628;} .st146{clip-path:url(#SVGID_2_);fill:#FDB828;} .st147{clip-path:url(#SVGID_2_);fill:#FDB928;} .st148{clip-path:url(#SVGID_2_);fill:#FDBB28;} .st149{clip-path:url(#SVGID_2_);fill:#FEBD28;} .st150{clip-path:url(#SVGID_2_);fill:#FEBE28;} .st151{clip-path:url(#SVGID_2_);fill:#FEC028;} .st152{clip-path:url(#SVGID_2_);fill:#FEC228;} .st153{clip-path:url(#SVGID_2_);fill:#FEC328;} .st154{clip-path:url(#SVGID_2_);fill:#FEC528;} .st155{clip-path:url(#SVGID_2_);fill:#FFC728;} .st156{clip-path:url(#SVGID_2_);fill:#FFC828;} .st157{clip-path:url(#SVGID_2_);fill:#FFCA28;} .st158{opacity:0.5;} .st159{fill:#FFD553;} .st160{fill:#00AAFF;} .st161{opacity:0.6;} .st162{opacity:0.35;} .st163{fill:#D25658;} .st164{fill:#371A45;} .st165{fill:#6BD6F0;} </style> <g> <g> <g class="st0"> <path class="st1" d="M2686,3388.6c26.5,17.5,41,36.2,41,55.7c0,94-335.1,170.2-748.4,170.2c-413.3,0-748.4-76.2-748.4-170.2 c0-22.3,18.9-43.7,53.3-63.2c-191-48.2-309.6-115.5-309.6-189.9c0-146.5,459.5-265.3,1026.4-265.3 c566.8,0,1026.3,118.8,1026.3,265.3C3026.4,3269.7,2895,3340.1,2686,3388.6z"></path> </g> <g> <polygon class="st2" points="2748,2189.2 1976.5,2472 1256.1,2189.2 1976.5,1906.4 "></polygon> </g> <g class="st0"> <polygon class="st1" points="2748,2189.2 1976.5,2472 1256.1,2189.2 1976.5,1906.4 "></polygon> </g> <g class="st3"> <polygon class="st1" points="2748,2189.2 1976.5,2472 1976.5,1906.4 "></polygon> </g> <g> <path class="st1" d="M1976.5,2491.8c-2.5,0-4.9-0.5-7.2-1.4l-720.4-282.8c-7.6-3-12.6-10.3-12.6-18.4s5-15.4,12.6-18.4 l720.4-282.8c4.5-1.8,9.5-1.8,14-0.2l771.5,282.8c7.8,2.9,13,10.3,13,18.6s-5.2,15.7-13,18.6l-771.5,282.8 C1981.1,2491.4,1978.8,2491.8,1976.5,2491.8z M1310.2,2189.2l666.6,261.6l713.8-261.6l-713.8-261.6L1310.2,2189.2z"></path> </g> <g> <polygon class="st2" points="2748,2189.2 2748,3176.3 1976.5,3459.1 1256.1,3176.3 1256.1,2189.2 1976.5,2472 "></polygon> </g> <g> <path class="st4" d="M3360,2778.9c-12.1,0.1-23.7,3.6-34.9,9.6v0c-15.6,8.4-30.5,22.2-44.8,39.9c-12.9,15.9-25.3,35.1-37.4,56.4 c-17.8,31.4-44.9,56.8-78.4,70.3c-95.7,38.8-134.6-27.6-154-125.3c-1.1-5.3-2.1-10.7-3-16.1c-13-74.7-70.9-128-138.2-141.6l0,0 c-37.2-7.6-77.3-3-114.3,16.9c-2.4,1.3-4.7,2.6-7,4l-0.3-100.1l93.7-40.4c0,0,0,0,0,0l6.7-2.9c22.7,1.8,43.9,7.9,62.9,19.7 c22.5,13.8,42.1,35.5,58,66.9c11.6,22.8,18.9,47.5,22.8,72.8c0.4,2.3,0.7,4.6,1,6.9c5.2,38.9,17,72.6,33,97.6 c33.4,52.3,85.1,66.4,132.5,10.3c10.7-12.7,18.6-27.3,24.6-42.7c3.4-8.6,7-16.7,10.8-24.3c22.8-45.8,53.3-74.4,87-71.7 c7.3,0.6,14.7,2.6,22.2,6.3c-15.9,18.5-27.3,38.1-28.3,59.9C3308,2746.6,3339.3,2747.4,3360,2778.9z"></path> <path class="st1" d="M3114,2968.9c-14,0-26.6-3-37.9-9.1c-32.3-17.5-54-58.6-68-129.3c-1.1-5.3-2.1-10.7-3-16.2 c-12.2-70.6-65.7-125.4-136.3-139.6c-0.1,0-0.3-0.1-0.4-0.1c-38.7-7.8-77.5-2-112.2,16.7c-2.3,1.3-4.7,2.6-6.9,3.9 c-0.8,0.4-1.7,0.4-2.5,0c-0.8-0.4-1.2-1.3-1.2-2.1l-0.3-100.1c0-1,0.6-1.9,1.5-2.3l93.5-40.3c0.1-0.1,0.2-0.1,0.3-0.2l6.7-2.9 c0.4-0.2,0.8-0.2,1.2-0.2c24,1.9,45.6,8.6,64.1,20c23.6,14.5,43.5,37.4,58.9,67.8c11.2,22.1,19,46.9,23.1,73.6 c0.4,2.3,0.7,4.6,1,6.9c5,37.8,16.3,71.1,32.6,96.5c17.6,27.5,40,43.5,63,45c22.3,1.4,45-10.6,65.5-35 c9.7-11.5,17.6-25.3,24.2-42c3.4-8.6,7-16.8,10.9-24.5c24.8-49.8,56.5-75.7,89.4-73.1c7.7,0.6,15.5,2.8,23.1,6.5 c0.7,0.3,1.2,1,1.3,1.7c0.2,0.8,0,1.5-0.5,2.1c-17.1,20-25.9,37.7-27.5,55.5c31.7-4,63.6-2.7,84.5,29.3c0.5,0.8,0.5,1.7,0.1,2.5 s-1.2,1.3-2.2,1.3c-11.1,0.1-22.3,3.2-33.4,9.2c-0.1,0.1-0.2,0.2-0.4,0.2c-14.5,7.8-29.4,21-44,39.3 c-12.1,15-24.2,33.3-37.2,56.1c-18.5,32.7-46.8,58.1-79.6,71.4C3146.8,2965.1,3129.6,2968.9,3114,2968.9z M2870.2,2669.8 c72.4,14.8,127.2,71.1,139.8,143.5c0.9,5.4,1.9,10.8,3,16c13.7,69.2,34.5,109.2,65.5,126c22.8,12.3,50.6,11.5,85.1-2.5 c31.8-12.9,59.2-37.5,77.1-69.2c13-23,25.3-41.6,37.6-56.8c15.2-18.9,30-32.1,45.2-40.3c0.1-0.1,0.2-0.2,0.4-0.2 c10.4-5.6,21-8.9,31.5-9.7c-18.9-25.6-45.9-27.8-80.2-23.1c-0.7,0.1-1.5-0.1-2-0.6c-0.5-0.5-0.8-1.2-0.8-1.9 c0.8-19.2,9.3-38,26.8-58.9c-6.1-2.6-12.3-4.2-18.4-4.7c-30.7-2.5-60.8,22.5-84.6,70.3c-3.8,7.6-7.4,15.7-10.7,24.1 c-6.8,17.3-15,31.5-25,43.4c-21.6,25.6-45.7,38.3-69.6,36.7c-24.6-1.6-48.3-18.4-66.8-47.3c-16.7-26-28.2-60.1-33.3-98.6 c-0.3-2.2-0.6-4.5-1-6.8c-4-26.2-11.7-50.5-22.6-72.1c-15-29.6-34.2-51.8-57.1-65.9c-17.6-10.9-38.2-17.4-61.2-19.3l-5.9,2.5 c-0.1,0.1-0.2,0.1-0.3,0.2l-92.3,39.8l0.3,94.2c1.1-0.6,2.3-1.3,3.4-1.9c35.9-19.3,76-25.3,115.9-17.2 C2869.9,2669.8,2870.1,2669.8,2870.2,2669.8z"></path> </g> <g class="st5"> <polygon class="st6" points="2748,2189.2 2748,3176.3 2692,3196.8 2692,2209.7 "></polygon> </g> <g> <polygon class="st2" points="1976.5,2472 1976.5,3459.1 1967.6,3455.6 1256.1,3176.3 1256.1,2189.2 "></polygon> </g> <g> <path class="st7" d="M1976.5,3478.9c-2.5,0-4.9-0.5-7.2-1.4l-720.4-282.8c-7.6-3-12.6-10.3-12.6-18.4v-987.1 c0-6.5,3.2-12.7,8.6-16.3c5.4-3.7,12.3-4.5,18.4-2.1l713.5,280.1l764.5-280.2c6.1-2.2,12.8-1.3,18.1,2.4 c5.3,3.7,8.5,9.8,8.5,16.2v987.1c0,8.3-5.2,15.7-13,18.6l-771.5,282.8C1981.1,3478.5,1978.8,3478.9,1976.5,3478.9z M1275.8,3162.8l700.9,275.1l751.5-275.5v-945l-744.9,273c-4.5,1.7-9.5,1.6-14-0.2l-693.4-272.2V3162.8z"></path> </g> <g> <path class="st7" d="M1976.5,3478.9c-10.9,0-19.8-8.9-19.8-19.8V2472c0-10.9,8.9-19.8,19.8-19.8c10.9,0,19.8,8.9,19.8,19.8v987.1 C1996.3,3470,1987.4,3478.9,1976.5,3478.9z"></path> </g> <g class="st3"> <polygon class="st8" points="2748,2586.2 2748,2688.9 2229.8,2878.8 1976.5,2652.3 1976.5,2477.6 1980.9,2476 2288.2,2754.8 "></polygon> <path class="st1" d="M2229.3,2881.6l-1.1-1L1974,2653.4v-177.5l7.4-2.7l307.3,278.8l461.7-169.3v107.9l-1.6,0.6L2229.3,2881.6z M1979,2651.2l251.4,224.8l515.2-188.8v-97.4l-457.9,167.9l-1.1-1l-306.2-277.8l-1.3,0.5V2651.2z"></path> </g> <g class="st3"> <path class="st8" d="M1970.4,3438.9c0,0-1,6.1-2.8,16.7l-711.5-279.3v-587.2l61.3,24.1l374,146.7l-121.5,128.7l-185-72.5 C1500.3,3095.7,1691.1,3307.1,1970.4,3438.9z"></path> <path class="st1" d="M1969.5,3459l-715.9-281v-592.6l64.6,25.4l377.4,148l-125.2,132.5l-181.1-71 c117.8,282.3,313.7,489.6,582.1,616.3l1.7,0.8l-0.3,1.8c0,0-1,6.1-2.8,16.7L1969.5,3459z M1258.5,3174.6l707.1,277.6 c1-5.6,1.7-9.7,2-11.9c-270.4-128.1-467.3-337.8-585.1-623.4l-2.2-5.4l188.8,74l117.9-124.8l-428.5-168.1V3174.6z"></path> </g> <g> <polygon class="st2" points="2748,2189.2 1976.5,1906.4 2333.2,1921 3104.7,2203.8 "></polygon> </g> <g> <path class="st7" d="M3104.7,2223.6c-0.3,0-0.5,0-0.8,0l-356.7-14.6c-2-0.1-4.1-0.5-6-1.2L1969.7,1925 c-9.1-3.4-14.5-12.9-12.6-22.4c1.9-9.6,10.5-16.5,20.2-15.9l356.7,14.6c2,0.1,4.1,0.5,6,1.2l771.5,282.8 c9.1,3.4,14.5,12.9,12.6,22.4C3122.2,2216.9,3114.1,2223.6,3104.7,2223.6z M2751.9,2169.6l227.3,9.3l-649.9-238.2l-227.3-9.3 L2751.9,2169.6z"></path> </g> <g> <polygon class="st2" points="1256.1,2189.2 1976.5,1906.4 1595.5,1930.1 875.1,2212.9 "></polygon> </g> <g> <path class="st7" d="M875.1,2232.7c-9.2,0-17.3-6.4-19.3-15.5c-2.1-9.5,3-19.1,12.1-22.7l720.4-282.8c1.9-0.8,3.9-1.2,6-1.3 l381-23.7c9.7-0.6,18.4,6,20.5,15.5c2.1,9.5-3,19.1-12.1,22.7l-720.4,282.8c-1.9,0.8-3.9,1.2-6,1.3l-381,23.7 C875.9,2232.7,875.5,2232.7,875.1,2232.7z M1256.1,2189.2L1256.1,2189.2L1256.1,2189.2z M1599.8,1949.7l-600.4,235.7l252.3-15.7 l600.4-235.7L1599.8,1949.7z"></path> </g> <g> <g> <path class="st9" d="M1623.4,2399.4l-114,24.4c-16.2,3.5-32.1-6.8-35.6-23l-113.8-531.7c-3.5-16.2,6.8-32.1,23-35.6l114-24.4 c16.2-3.5,32.1,6.8,35.6,23l113.8,531.7C1649.9,2380,1639.6,2395.9,1623.4,2399.4z"></path> </g> <g class="st3"> <path class="st1" d="M1655,2369.1c-1,12.8-10.3,24.1-23.6,26.9l-114,24.4c-16.2,3.5-32.1-6.9-35.5-23l-113.8-531.7 c-2.8-13.1,3.5-26.1,14.6-32.3c-0.2,2.8-0.1,5.7,0.6,8.7l89.4,417.7c16.9,79.1,94.8,129.6,173.9,112.6 C1649.6,2371.6,1652.4,2370.6,1655,2369.1z"></path> </g> <g class="st5"> <path class="st6" d="M1528.6,1839.9l113.8,531.7c2.8,13.2-3.6,26.3-14.9,32.5l-88.2-412c-30.2-3-42.4-60.1-16.1-75.1l-14.8-69.1 c-1.6-7.6-9.1-12.4-16.6-10.8l-136.1,29.1c1.8-12,10.8-22.2,23.3-24.9l114-24.4C1509.2,1813.4,1525.2,1823.8,1528.6,1839.9z"></path> </g> <g> <path class="st7" d="M1503.1,2439.3c-20.7,0-39.3-14.4-43.8-35.4l-113.8-531.7c-2.5-11.7-0.3-23.7,6.2-33.7 c6.5-10,16.5-17,28.2-19.5l114-24.4c11.7-2.5,23.7-0.3,33.7,6.2c10,6.5,16.9,16.5,19.5,28.2l113.8,531.7 c5.2,24.2-10.3,48-34.4,53.2h0l-114,24.4C1509.4,2439,1506.2,2439.3,1503.1,2439.3z M1503.4,1823.3c-1.1,0-2.1,0.1-3.2,0.3 l-114,24.4c-8.1,1.7-13.4,9.8-11.6,17.9l113.8,531.7c1.7,8.2,9.8,13.4,17.9,11.6l114-24.4c8.1-1.7,13.4-9.8,11.6-17.9 l-113.8-531.7c-0.8-4-3.2-7.3-6.6-9.5C1509.1,1824.1,1506.2,1823.3,1503.4,1823.3z M1623.4,2399.4L1623.4,2399.4L1623.4,2399.4z "></path> </g> <g> <g> <g> <path class="st7" d="M1367.6,1914.1c-4.6,0-8.7-3.2-9.7-7.8c-1.1-5.3,2.3-10.6,7.6-11.7l44.8-9.6c5.3-1.1,10.6,2.3,11.7,7.6 c1.1,5.3-2.3,10.6-7.6,11.7l-44.8,9.6C1369,1914,1368.3,1914.1,1367.6,1914.1z"></path> </g> <g> <path class="st7" d="M1381.5,1979.1c-4.6,0-8.7-3.2-9.7-7.8c-1.1-5.3,2.3-10.6,7.6-11.7l44.8-9.6c5.4-1.2,10.6,2.3,11.7,7.6 c1.1,5.3-2.3,10.6-7.6,11.7l-44.8,9.6C1382.9,1979,1382.2,1979.1,1381.5,1979.1z"></path> </g> <g> <path class="st7" d="M1395.4,2044.1c-4.6,0-8.7-3.2-9.7-7.8c-1.1-5.3,2.3-10.6,7.6-11.7l76.2-16.3c5.3-1.2,10.6,2.3,11.7,7.6 c1.1,5.3-2.3,10.6-7.6,11.7l-76.2,16.3C1396.8,2044,1396.1,2044.1,1395.4,2044.1z"></path> </g> <g> <path class="st7" d="M1409.3,2109c-4.6,0-8.7-3.2-9.7-7.8c-1.1-5.3,2.3-10.6,7.6-11.7l44.8-9.6c5.3-1.2,10.6,2.3,11.7,7.6 c1.1,5.3-2.3,10.6-7.6,11.7l-44.8,9.6C1410.7,2109,1410,2109,1409.3,2109z"></path> </g> <g> <path class="st7" d="M1423.2,2174c-4.6,0-8.7-3.2-9.7-7.8c-1.1-5.3,2.3-10.6,7.6-11.7l44.8-9.6c5.3-1.2,10.6,2.3,11.7,7.6 s-2.3,10.6-7.6,11.7l-44.8,9.6C1424.6,2174,1423.9,2174,1423.2,2174z"></path> </g> <g> <path class="st7" d="M1437.1,2239c-4.6,0-8.7-3.2-9.7-7.8c-1.1-5.3,2.3-10.6,7.6-11.7l76.2-16.3c5.4-1.2,10.6,2.3,11.7,7.6 c1.1,5.3-2.3,10.6-7.6,11.7l-76.2,16.3C1438.5,2239,1437.8,2239,1437.1,2239z"></path> </g> <g> <path class="st1" d="M1451,2304c-4.6,0-8.7-3.2-9.7-7.8c-1.1-5.3,2.3-10.6,7.6-11.7l44.8-9.6c5.3-1.2,10.6,2.3,11.7,7.6 c1.1,5.3-2.3,10.6-7.6,11.7l-44.8,9.6C1452.4,2304,1451.7,2304,1451,2304z"></path> </g> </g> <g> <path class="st1" d="M1463.8,2364c-4.6,0-8.7-3.2-9.7-7.8c-1.1-5.3,2.3-10.6,7.6-11.7l44.8-9.6c5.3-1.2,10.6,2.3,11.7,7.6 c1.1,5.3-2.3,10.6-7.6,11.7l-44.8,9.6C1465.2,2363.9,1464.5,2364,1463.8,2364z"></path> </g> </g> </g> <g> <polygon class="st2" points="1976.5,2472 1701.1,2763.8 980.7,2481 1235.8,2210.7 1256.1,2189.2 "></polygon> </g> <g class="st5"> <polygon class="st6" points="1970.4,2472 1695.1,2763.8 1641.2,2742.6 1882.9,2486.6 1216.3,2225 1250,2189.2 "></polygon> </g> <g> <path class="st7" d="M1701.1,2783.5c-2.4,0-4.9-0.4-7.2-1.4l-720.4-282.8c-6.1-2.4-10.6-7.7-12.1-14.1 c-1.4-6.4,0.4-13.1,4.9-17.9l275.4-291.8c5.5-5.9,14.1-7.8,21.6-4.8l720.4,282.8c6.1,2.4,10.6,7.7,12.1,14.1 c1.4,6.4-0.4,13.1-4.9,17.9l-275.4,291.8C1711.7,2781.4,1706.5,2783.5,1701.1,2783.5z M1015.2,2473.3l680.7,267.2l246.1-260.8 l-680.7-267.2L1015.2,2473.3z"></path> </g> <g class="st3"> <path class="st8" d="M1701.1,2763.8L980.7,2481l255.1-270.3c12.8,1.4,20.2,2.3,20.2,2.3C1155,2407.2,1342.9,2589.2,1701.1,2763.8 z"></path> <path class="st1" d="M1700.2,2766.1l-723.8-284.1l258.5-273.9l1.2,0.1c12.9,1.4,20.2,2.3,20.2,2.3l3.6,0.4l-1.7,3.2 c-29.2,56.2-34.6,113.4-15.9,169.9c40.6,123,191,246.5,459.9,377.6L1700.2,2766.1z M985,2480l665.5,261.2 c-239.2-122.6-374.4-239.2-412.9-355.7c-18.7-56.8-13.8-114.2,14.6-170.6c-3.2-0.4-8.4-1-15.4-1.7L985,2480z"></path> </g> <g> <g> <path class="st10" d="M2593.3,1839.7l-211.8,370.4c-11.4,19.9-36.6,26.7-56.5,15.4s-26.7-36.6-15.4-56.5l211.8-370.4l90.6-75.1 L2593.3,1839.7z"></path> <path class="st1" d="M2345.5,2233.4c-7.4,0-14.8-1.9-21.7-5.8c-21-12-28.3-38.9-16.3-59.8l212-370.8l96-79.6l-20.1,123.5 l-211.8,370.4C2375.5,2225.4,2360.7,2233.4,2345.5,2233.4z M2523.3,1800.2l-211.6,370c-10.6,18.6-4.2,42.5,14.5,53.1 c18.6,10.7,42.4,4.2,53.1-14.5l211.6-370l17.7-109.3L2523.3,1800.2z"></path> </g> <g> <path class="st4" d="M2406.7,2166l-25.2,44.1c-11.4,19.9-36.6,26.7-56.5,15.4s-26.7-36.6-15.4-56.5l25.2-44.1 C2321.8,2147.7,2393.6,2188.8,2406.7,2166z"></path> <path class="st1" d="M2345.5,2233.4c-7.4,0-14.8-1.9-21.7-5.8c-21-12-28.3-38.9-16.3-59.8l25.2-44.1c0,0,0,0,0,0l0,0 c0.7-1.2,2.2-1.6,3.4-0.9c1.2,0.7,1.6,2.2,0.9,3.4l0,0c-5.6,9.9,8.4,24.7,25.2,34.3c16.8,9.6,36.7,14.2,42.4,4.3l0,0l0,0 c0.7-1.2,2.2-1.6,3.4-0.9c1.2,0.7,1.6,2.2,0.9,3.4l0,0c0,0,0,0,0,0l-25.2,44.1C2375.5,2225.4,2360.7,2233.4,2345.5,2233.4z M2331.5,2135.7l-19.8,34.5c-10.6,18.6-4.2,42.5,14.5,53.1c18.6,10.7,42.4,4.2,53.1-14.5l19.8-34.5c-10.6,2.7-26.2-2.1-39.3-9.6 C2346.6,2157.2,2334.5,2146.2,2331.5,2135.7z"></path> </g> <g> <path class="st11" d="M2593.3,1839.7L2406.7,2166c-13.1,22.9-84.9-18.2-71.9-41.1l186.6-326.3 C2508.3,1821.5,2580.2,1862.6,2593.3,1839.7z"></path> </g> <g class="st5"> <path class="st6" d="M2593.3,1839.7l-211.8,370.4c-11.4,19.9-36.6,26.7-56.5,15.4c-4.7-2.7-8.7-6.2-11.9-10.2 c16.2,2.2,32.9-5.4,41.6-20.5l211.8-370.4l11.8-72.8l33.8-28.1L2593.3,1839.7z"></path> </g> <g> <path class="st7" d="M2345.4,2243.3c-9,0-18.2-2.3-26.6-7.1c0,0,0,0,0,0c-25.7-14.7-34.7-47.6-20-73.3l211.8-370.4 c0.7-1.3,1.7-2.4,2.8-3.4l90.6-75.1c4-3.3,9.6-3.8,14-1.2c4.5,2.6,6.9,7.6,6.1,12.7l-18.8,116.2c-0.2,1.5-0.7,2.9-1.5,4.2 l-211.8,370.4C2382.3,2233.6,2364.1,2243.3,2345.4,2243.3z M2331.1,2214.7c13.9,7.9,31.7,3.1,39.6-10.8l210.7-368.5l13.2-81.5 l-63.6,52.7l-210.7,368.5C2312.4,2189,2317.2,2206.8,2331.1,2214.7L2331.1,2214.7z"></path> </g> <g> <path class="st7" d="M2579,1858.8c-1.8,0-3.7-0.1-5.8-0.4c-9.7-1.1-21-5.2-31.8-11.4c-27.9-16-40.2-37.9-30.7-54.6 c3.3-5.9,10.7-7.8,16.6-4.5c5.9,3.2,8,10.8,4.9,16.7c-0.1,2.5,6,12.1,21.5,20.9c15.6,8.9,27.1,9.2,29,7.8 c3.4-5.9,10.9-7.9,16.8-4.5c5.9,3.4,7.9,11,4.5,16.9C2601.1,1850.9,2594.1,1858.8,2579,1858.8z"></path> </g> <g> <path class="st7" d="M2392.1,2185c-10.8,0-23.7-3.9-37.3-11.6c-27.9-16-40.2-37.9-30.7-54.6c3.3-5.8,10.7-7.8,16.6-4.5 c5.9,3.2,8,10.8,4.9,16.7c-0.1,2.5,6,12.1,21.5,20.9c15.7,9,27.1,9.3,29,7.9c3.4-5.9,10.9-7.9,16.8-4.5c5.9,3.4,7.9,11,4.5,16.9 C2412.5,2180.7,2403.5,2185,2392.1,2185z"></path> </g> <g> <path class="st7" d="M2568.3,1760.4c4.3,18.3,14.5,25.4,32.2,18.4l6.2-39.1L2568.3,1760.4z"></path> </g> </g> <g> <polygon class="st2" points="2748,2189.2 1976.5,2472 2288.2,2754.8 3059.7,2472 "></polygon> </g> <g class="st5"> <polygon class="st6" points="3059.7,2472 2998.3,2494.5 2738.2,2258.6 2028.1,2518.9 1976.5,2472 2748,2189.2 "></polygon> </g> <g> <path class="st7" d="M2288.2,2774.6c-4.8,0-9.6-1.8-13.3-5.1l-311.7-282.8c-5.1-4.7-7.4-11.6-6.1-18.4 c1.3-6.8,6.1-12.4,12.6-14.8l771.5-282.8c6.9-2.5,14.6-1,20.1,3.9l311.7,282.8c5.1,4.7,7.4,11.6,6.1,18.4s-6.1,12.4-12.6,14.8 L2295,2773.3C2292.8,2774.2,2290.5,2774.6,2288.2,2774.6z M2014,2479.3l278.6,252.8l729.6-267.4l-278.6-252.8L2014,2479.3z"></path> </g> <g> <path class="st4" d="M1687.7,3345.8c-20.1,54.4-157.2,11.6-153.9-56.8c-1.4-41.1-13.4-81.8-35-116c0,0,0,0,0,0 c-45.3-71.8-133.1-115-254.8-72.9c-28.8,9.9-56.2,23.8-81.6,40.7c-2.8,1.8-5.5,3.7-8.2,5.6c-204.6,144.1-366.6,55.6-435-76.7 c0,0,0,0,0,0c-38.8-75.1-47.4-164.2-16.6-233l50.2,75.3c46.1-83.8,92.5-99.6,92.5-99.6c-39.2,66.9-39.7,139.5-14.7,201.5 c25,62.4,75.7,113.9,138.4,138.1c66,25.4,139.7,12.6,195.9-29.2c5.1-3.8,10-7.8,14.8-12c216.9-192.9,399.9-72.4,473.9,100 C1672.3,3253.7,1684,3300.2,1687.7,3345.8z"></path> <path class="st1" d="M1641.7,3373c-7.2,0-14.9-0.8-23.1-2.5c-43.8-8.9-89.3-40.6-87.3-81.6c-1.4-41.1-13.3-80.7-34.4-114.2 c-0.1-0.1-0.2-0.2-0.3-0.3c-51.5-81.8-145.7-108.6-251.9-71.9c-28,9.7-55.3,23.3-81,40.4c-2.8,1.8-5.5,3.7-8.1,5.6 c-91,64.1-182.2,87.4-263.7,67.5c-72.6-17.8-136.3-70.6-174.8-144.9c-0.1-0.1-0.1-0.2-0.2-0.3c-40.3-78-46.7-168.1-16.6-235.1 c0.4-0.8,1.2-1.4,2.1-1.5c0.9-0.1,1.8,0.3,2.3,1.1l47.9,71.9c45.4-80.6,90-96.6,91.9-97.2c1-0.3,2.1,0,2.7,0.8 c0.7,0.8,0.7,1.9,0.2,2.8c-36.2,61.8-41.4,132.6-14.6,199.3c24.9,62.2,76.2,113.3,137,136.7c63.9,24.6,136.2,13.8,193.5-28.9 c4.9-3.6,9.7-7.5,14.6-11.9c90.6-80.6,183.9-113.1,269.9-93.9c87.3,19.4,163.1,90.4,208,194.8c18.7,43.4,30.5,90.5,34.2,136.1 c0,0.4,0,0.7-0.1,1.1C1683.8,3363.7,1666,3373,1641.7,3373z M1500.7,3171.4c0.1,0.1,0.2,0.2,0.3,0.3 c21.6,34.3,33.9,74.9,35.3,117.2c-1.8,37.1,41,68.1,83.3,76.8c26,5.3,56.7,2.7,65.6-20.3c-3.7-44.9-15.4-91.2-33.8-134 c-44.2-102.9-118.7-172.8-204.5-191.9c-84.3-18.8-176.2,13.3-265.5,92.8c-5.1,4.5-10,8.5-15,12.2 c-58.7,43.7-132.8,54.7-198.3,29.5c-62.1-23.9-114.4-76-139.9-139.4c-26.4-65.7-22.5-135.3,11-196.8 c-14.4,7.8-49.6,32.1-84.4,95.3c-0.4,0.8-1.2,1.2-2.1,1.3c-0.8,0-1.7-0.4-2.2-1.1l-47.7-71.5c-27.4,65.1-20.5,151.4,18.2,226.5 c0.1,0.1,0.1,0.2,0.1,0.2h0c37.8,73.1,100.4,125.1,171.7,142.5c80.1,19.6,169.9-3.5,259.6-66.7c2.7-1.9,5.4-3.8,8.2-5.6 c26.1-17.4,53.7-31.2,82.1-41C1351.6,3060.3,1447.8,3087.8,1500.7,3171.4z"></path> </g> <g class="st5"> <path class="st6" d="M845.4,2812.2c-14.9,25.5-24.5,37.5-29,63.8c-13.1,10.2-26.8,31.4-43.1,60c-8.9,15.7-30.9,17.4-42.2,3.4 l-32.2-39.9c-6.6,14.7-11.4,30.3-14.4,46.5c-2.4-38.6,3.3-76.3,18.1-109.3l50.2,75.3C799,2828.1,845.4,2812.2,845.4,2812.2z"></path> </g> <g class="st5"> <path class="st6" d="M1690.6,3343.3c-4.9,13.4-17,20.9-32.2,23.5c-17.8-213.6-211.1-445.2-459-273.2 C1462.8,2877.2,1672.5,3120.4,1690.6,3343.3z"></path> </g> <g class="st5"> <path class="st6" d="M805.8,2840.1c-15.6,15.1-34.3,37.9-53,71.7l-8.7-13C770.6,2862.4,794.3,2846.3,805.8,2840.1z"></path> <path class="st1" d="M753.1,2916.6l-11.9-17.8l1-1.4c26.6-36.9,50.5-53.1,62.4-59.5l15.7-8.5l-12.8,12.4 c-19,18.4-36.6,42.3-52.5,71.2L753.1,2916.6z M747.2,2899l5.4,8.2c11.4-20.2,23.6-37.9,36.6-53 C777.7,2863.2,763,2877.4,747.2,2899z"></path> </g> <g class="st5"> <path class="st6" d="M1196.6,3096.1c-5.6,4.6-11.2,9.4-16.8,14.4c-9.3,8.3-19.2,15.6-29.5,22.1 C1165.9,3118.8,1181.4,3106.7,1196.6,3096.1z"></path> <path class="st1" d="M1151.6,3134.7l-2.9-4c15-13.3,30.7-25.6,46.6-36.6l3,3.9c-5.3,4.4-10.8,9.1-16.7,14.3 C1172.1,3120.6,1162.1,3128.1,1151.6,3134.7z"></path> </g> <g class="st5"> <path class="st6" d="M3311.5,2790.2c6.6-15-37.5-15.2-59.8-14.3c-7.3,0.3-13.5-5.2-14.1-12.5c-4.4-56.3,29.1-73.5,29.1-73.5 l0.6-3.4c7.3,0.6,14.7,2.6,22.2,6.3c-15.9,18.5-27.3,38.1-28.3,59.9c33.2-4.5,64.5-3.7,85.1,27.8 C3334.3,2780.7,3322.7,2784.1,3311.5,2790.2z"></path> </g> <g class="st5"> <path class="st6" d="M2982.1,2708.9c-8.9,13.2-15.2,22.2-15.2,22.2c-26.8-99.6-74.7-153.1-135.3-178.6c0,0,0,0,0,0l6.7-2.9 c22.7,1.8,43.9,7.9,62.9,19.7c22.5,13.8,42.1,35.5,58,66.9C2970.8,2658.9,2978.2,2683.6,2982.1,2708.9z"></path> </g> <g> <path class="st7" d="M1641.8,3385.4c-8,0-16.6-0.9-25.6-2.7c-48.6-9.9-99.1-46-97.2-93.7c-2.5-66.7-33.3-126.7-82.6-160.6 c-50.1-34.4-115-39.4-187.5-14.3c-30,10.4-58.9,25.3-86.1,44.4c-136.5,96.1-274.3,102-378.3,16.3 c-100.6-83-143.4-237.4-95.4-344.3c2.2-4.9,6.9-8.3,12.3-8.7c5.4-0.4,10.6,2.1,13.6,6.5l37.1,55.6c44.2-69.9,86.5-85.1,88.4-85.8 c5.9-2,12.4-0.2,16.3,4.6c3.9,4.8,4.4,11.5,1.3,16.9c-32.3,55.1-38.5,118.7-17.4,178.9c22.3,63.6,72.3,115.7,133.7,139.3 c65.6,25.2,140.5,10.4,195.5-38.5c136.3-121.2,248.4-113.1,318.5-85c114,45.7,202,181.5,214.2,330.2c0.2,2.1-0.1,4.3-0.9,6.3 C1693.5,3373.1,1671.4,3385.4,1641.8,3385.4z M1335.5,3068.6c52.4,0,91.2,17.2,117.6,35.3c57.2,39.3,92.9,108.3,95.5,184.6 c0,0.4,0,0.8,0,1.2c-1.4,29.9,37,56.4,73.5,63.9c19,3.9,42.9,3.3,50.5-10.4c-12.4-136.5-92.3-260-195.3-301.3 c-77.4-31-162.5-14.5-248.2,47.8c3.3-1.3,6.7-2.5,10-3.6C1275.3,3073.6,1307.4,3068.6,1335.5,3068.6z M706.7,2869.3 c-25.9,93.2,13.9,214.4,96.8,282.7c46.3,38.2,137.6,85.4,268.4,25.4c-36.1,5.4-73.2,1.7-108.1-11.7 c-69.4-26.7-125.9-85.4-151-157.2c-17.5-49.9-18.5-101.7-3.7-150.4c-13.1,13.9-28.2,33.6-43.2,61c-2.5,4.5-7.2,7.4-12.4,7.7 c-5.2,0.2-10.1-2.3-13-6.6L706.7,2869.3z"></path> </g> <g> <path class="st1" d="M3114,2981.3c-16.4,0-31.3-3.7-44.7-11.1c-37.6-20.9-61.9-69.7-76.4-153.8c-8.9-51.2-41-93.7-88-116.6 c-46.2-22.5-98.2-21.6-142.8,2.4c-2.2,1.2-4.4,2.4-6.5,3.7c-7.1,4.2-16.2,1.8-20.3-5.3c-4.2-7.1-1.8-16.2,5.3-20.3 c2.5-1.5,5-2.9,7.5-4.2c53.1-28.6,115-29.6,169.9-2.9c23.5,11.4,44.1,27.4,60.7,46.6c-0.1-0.7-0.2-1.3-0.3-2 c-3.7-27.6-11.2-52.8-22.4-74.9c-24.8-49-60.4-74.6-108.9-78.5c-8.2-0.6-14.3-7.8-13.6-16c0.6-8.2,7.8-14.3,16-13.6 c58.8,4.7,103.5,36.5,133,94.6c12.7,25.1,21.3,53.5,25.3,84.4c8.9,66.8,38.7,118.7,74.3,129.1c27,7.9,50.3-11.3,65.1-28.9 c8.8-10.4,16.1-23,22.2-38.6c14.6-37.2,40.6-84.8,81.1-100.6c19.3-7.5,39.8-6.5,59.3,2.9c4.1,2,7.1,5.8,8,10.3 c0.9,4.5-0.3,9.2-3.3,12.7c-10.4,12.1-17.3,23.1-21.2,33.6c29-1.3,58.6,4.9,79.2,36.3c3,4.5,3.2,10.3,0.7,15.1s-7.5,7.8-12.9,7.9 c-33,0.5-67.1,32.7-104.4,98.5c-19.9,35.2-50.3,62.4-85.7,76.7C3149.9,2977.2,3131.1,2981.3,3114,2981.3z M3028,2840.6 c12.7,55.9,31.1,89.9,55.8,103.6c19.4,10.8,44,9.9,75.2-2.7c29.2-11.8,54.4-34.5,71.1-63.9c22.5-39.7,55.7-90.3,99.6-107.5 c-13.8-7.3-31.3-7.3-52.8-4.3c-4.4,0.6-8.8-0.8-12-3.7c-3.3-3-5-7.2-4.8-11.6c0.7-17.1,6.6-33.6,18.1-50.9 c-5.7-0.2-11.3,0.8-17,3c-23.5,9.2-46.9,39.7-64.2,83.8c-7.3,18.6-16.2,33.9-27.1,46.8c-29,34.3-63.1,47.9-96.1,38.2 C3057,2866.5,3041.5,2855.8,3028,2840.6z"></path> </g> <g class="st3"> <path class="st8" d="M1165,3122.5c0,0-0.9,6.9-2.6,18.2c-2.8,1.8-5.5,3.7-8.2,5.6c-204.6,144.1-366.6,55.6-435-76.7 c90.7,59.6,146.8,68.6,111.3-55.9h0c25,62.4,75.7,113.9,138.4,138.1C1035.1,3177.1,1108.8,3164.4,1165,3122.5z"></path> <path class="st1" d="M950.2,3222.8c-19.8,0-39.3-2.3-58.2-6.9c-72.7-17.8-136.5-70.7-174.9-145.1l-4.3-8.4l7.9,5.2 c56.4,37,91.6,49.3,107.7,37.5c14.1-10.4,14.1-40.9-0.1-90.7l-0.9-3.1h4.9l0.7,1.5c24.9,62.2,76.2,113.3,137,136.7 c63.9,24.6,136.2,13.8,193.5-28.9l4.7-3.5l-0.7,5.8c0,0-0.9,6.9-2.6,18.3l-0.2,1.1l-0.9,0.6c-2.7,1.8-5.4,3.7-8.1,5.5 C1085.8,3197.6,1015.9,3222.8,950.2,3222.8z M726,3076.9c38.2,68.7,98.6,117.3,167.2,134.1c80.1,19.6,169.9-3.5,259.6-66.7 c2.4-1.7,4.8-3.4,7.3-5c0.7-4.7,1.2-8.5,1.6-11.4c-57.9,40.8-129.8,50.6-193.6,26.1c-54.2-20.9-101-63.2-128.9-115.9 c8,37.7,5.4,61-8.1,70.9C813.9,3121.8,780.4,3111.6,726,3076.9z"></path> </g> <g class="st3"> <path class="st1" d="M3280.3,2828.5c-12.9,15.9-25.3,35.1-37.4,56.4c-17.8,31.4-44.9,56.8-78.4,70.3 c-95.7,38.8-134.6-27.6-154-125.3c5.5-5.8,10.6-11.4,15.4-16.6c33.4,52.3,85.1,66.4,132.5,10.3c10.7-12.7,18.6-27.3,24.6-42.7 c3.4-8.6,7-16.7,10.8-24.3C3165.4,2887.1,3202.6,2895.5,3280.3,2828.5z"></path> </g> <g class="st3"> <path class="st1" d="M2869.3,2672.1c-37.2-7.6-77.3-3-114.3,16.9c-2.4,1.3-4.7,2.6-7,4l-0.3-100.1l100.5-43.4 c22.7,1.8,43.9,7.9,62.9,19.7C2829.2,2593.6,2815.3,2627.9,2869.3,2672.1z"></path> </g> <g class="st3"> <path class="st8" d="M1687.7,3345.8c-20.1,54.4-157.2,11.6-153.9-56.8c-1.4-41.1-13.4-81.8-35-116c76,113,130.2,136,154.9,37.5 C1672.3,3253.7,1684,3300.2,1687.7,3345.8z"></path> <path class="st1" d="M1641.7,3373c-7.2,0-14.9-0.8-23.1-2.5c-43.8-8.9-89.3-40.6-87.3-81.6c-1.5-41.3-13.4-81-34.6-114.6l4.1-2.7 c46.9,69.7,84,102.7,110.3,98.1c17.4-3.1,30.9-23.2,40.1-59.9l1.8-7.1l2.9,6.7c18.7,43.4,30.5,90.5,34.2,136.1l0,0.5l-0.2,0.5 C1683.8,3363.7,1666,3373,1641.7,3373z M1517.8,3204.1c11.1,26.4,17.5,55.2,18.5,84.9c-1.8,37.1,41,68.1,83.3,76.8 c26,5.3,56.7,2.7,65.6-20.3c-3.5-42.6-14.2-86.4-31-127.3c-9.8,34.7-23.6,53.3-42.2,56.5 C1587.6,3278.9,1556.6,3255.8,1517.8,3204.1z"></path> </g> <g> <g> <path class="st11" d="M965.6,1329.1l85.3-129.3c9.4,10.2,20,19.4,31.8,27.2l41.8,27.6c8.9,5.9,16.7,13.2,23.1,21.8l13.2,17.8 c4.9,6.6,5.2,15.7,0.6,22.6l-44.9,68c-4.5,6.9-13,10.2-21,8.3l-21.5-5.2c-10.4-2.5-20.2-6.7-29.1-12.6l-41.8-27.6 C991.3,1339.9,978.7,1333.7,965.6,1329.1z"></path> </g> <g class="st12"> <path class="st6" d="M1046.2,1205.2c9.4,10.2,20,19.4,31.8,27.2l41.8,27.6c8.9,5.9,16.7,13.2,23.1,21.8l13.2,17.8 c4.9,6.6,5.2,15.7,0.6,22.6l-6.3,9.6c-0.1-4-1.4-7.9-3.9-11.2l-13.2-17.8c-6.4-8.6-14.2-15.9-23.1-21.8l-41.8-27.6 c-11.8-7.8-22.4-16.9-31.8-27.2l-72.4,109.6c-1.2-0.4-2.3-0.8-3.4-1.2L1046.2,1205.2z"></path> </g> <g> <path class="st1" d="M986.4,1293.9c-2,0-4.1-0.5-6-1.4l-106.8-53.4c-3.5-1.7-6-4.9-7-8.6c-1-3.7-0.4-7.7,1.8-10.9l44.1-66.8 c2.1-3.2,5.5-5.4,9.4-5.9c3.8-0.6,7.7,0.6,10.7,3.1l91.1,77.2c5.7,4.8,6.4,13.4,1.6,19.1c-4.8,5.7-13.4,6.4-19.1,1.6l-79.5-67.3 l-27.3,41.4l93.2,46.6c6.7,3.3,9.4,11.5,6,18.1C996.2,1291.2,991.4,1293.9,986.4,1293.9z"></path> </g> <g class="st13"> <path class="st9" d="M959.7,1068.4c25.7,17,43.9,41.2,53.5,68.1c7.8,21.9,19.3,42.1,34.2,59.4l-86.8,131.6 c-21.6-6.9-44.6-9.6-67.6-8.1c-28.7,1.9-58.3-5.3-84.1-22.4c-62.9-41.5-80.4-126-39.3-189.1 C810.9,1044.7,896.7,1026.9,959.7,1068.4z"></path> <path class="st1" d="M961.8,1330.7l-2-0.6c-21.3-6.8-43.7-9.5-66.6-8c-30.5,1.9-60.2-5.9-85.8-22.8 c-63.9-42.2-81.9-128.7-40-192.8c20.3-31.2,51.8-52.6,88.6-60.2c36.8-7.6,74.2-0.5,105.2,20c25.4,16.8,44.3,40.8,54.5,69.5 c7.9,22,19.2,41.7,33.7,58.5l1.3,1.6L961.8,1330.7z M905.5,1316.3c18.5,0,36.6,2.7,54,8l84.6-128.2 c-14.3-17-25.6-36.7-33.4-58.7c-9.8-27.5-28-50.6-52.4-66.8l0,0c-29.9-19.7-65.8-26.5-101.2-19.2c-35.4,7.3-65.6,27.9-85.2,57.9 c-40.2,61.7-23,144.8,38.5,185.4c24.6,16.2,53.1,23.9,82.5,21.9C897.1,1316.4,901.3,1316.3,905.5,1316.3z"></path> </g> <g class="st3"> <path class="st1" d="M1027.5,1167.6c5.7,10.1,12.4,19.6,20,28.4l-86.8,131.6c-21.6-6.9-44.6-9.6-67.6-8.1 c-28.7,1.9-58.3-5.3-84.1-22.4c-43.8-28.9-65.6-78.7-60.9-127.6c8.7,30.2,27.8,57.6,56.1,76.2c25.9,17.1,55.4,24.2,84.1,22.4 c0.2,0,0.5,0,0.7,0c46.8-2.9,89.9-26.7,115.7-65.9L1027.5,1167.6z"></path> </g> <g class="st12"> <path class="st6" d="M961,1071.8c25.7,17,43.9,41.2,53.5,68.1c7.8,21.9,19.3,42.1,34.2,59.4l-7.1,8.2c-9.7-13.9-20-22.8-25.8-39 c-9.6-26.9-27.7-51.1-53.5-68.1c-18.1-11.9-38-19-58.2-21.4c0.4,35.7-61.3,45.2-70.8,9.9c-24.2,10.2-45.7,27.5-61,51 c-13.5,20.7-20.7,43.8-22.1,66.9c-4.9-32.1,1.6-66.1,20.7-95.5C812.2,1048.1,898,1030.3,961,1071.8z"></path> </g> <g> <path class="st7" d="M1100,1407.1c-2.5,0-5.1-0.3-7.6-0.9l-21.6-5.2c-11.9-2.9-23.2-7.7-33.4-14.5l-41.8-27.6 c-29.5-19.5-64.7-28.5-101.7-26.1c-32.9,2.1-64.9-6.4-92.5-24.6c-68.9-45.5-88.2-138.7-43.1-207.8 c21.9-33.6,55.8-56.7,95.5-64.9c39.6-8.2,79.9-0.6,113.4,21.5c27.4,18.1,47.7,44,58.8,74.8c12.7,35.4,34.9,64.4,64.2,83.7 l41.8,27.6c10.2,6.8,19.1,15.2,26.5,25l13.2,17.8c8.3,11.2,8.7,26.5,1.1,38.1l-44.9,68C1121.5,1401.6,1111,1407.1,1100,1407.1z M905.6,1305.4c38,0,74,10.6,104.9,31l41.8,27.6c7.6,5,16,8.6,24.8,10.8l21.5,5.2c2.5,0.6,5.1-0.5,6.6-2.6l44.9-68 c1.4-2.1,1.3-5-0.2-7.1l-13.2-17.7c-5.4-7.3-12-13.6-19.7-18.6l-41.8-27.6c-34.2-22.6-60.1-56.2-74.7-97.2 c-9-25.3-25.7-46.5-48.2-61.4c0,0,0,0,0,0c-27.4-18.1-60.5-24.4-93-17.6c-32.5,6.8-60.3,25.6-78.3,53.2 c-37,56.7-21.1,133.1,35.4,170.4c22.6,14.9,48.9,21.9,75.8,20.2C896.6,1305.6,901.1,1305.4,905.6,1305.4z"></path> </g> <g> <path class="st7" d="M960.6,1338.3c-2,0-4.1-0.6-5.9-1.8c-5-3.3-6.4-10-3.1-15l86.8-131.6c3.3-5,10-6.3,15-3.1 c5,3.3,6.4,10,3.1,15l-86.8,131.6C967.6,1336.6,964.1,1338.3,960.6,1338.3z"></path> </g> <g> <path class="st7" d="M1013,1393.9c-1.6,0-3.2-0.3-4.7-0.9c-7-2.6-10.5-10.4-7.9-17.4l67.8-181.1c2.6-7,10.4-10.5,17.4-7.9 c7,2.6,10.5,10.4,7.9,17.4l-67.8,181.1C1023.6,1390.6,1018.5,1393.9,1013,1393.9z"></path> </g> <g> <path class="st7" d="M1064,1424.2c-1.6,0-3.2-0.3-4.7-0.9c-7-2.6-10.5-10.4-7.9-17.4l65.9-175.9c2.6-7,10.4-10.5,17.4-7.9 c7,2.6,10.5,10.4,7.9,17.4l-65.9,175.9C1074.6,1420.9,1069.5,1424.2,1064,1424.2z"></path> </g> <g class="st3"> <path class="st1" d="M1140,1349.1l-23.5,35.6c-4.5,6.9-13,10.2-21,8.3l-21.5-5.2c-10.4-2.5-20.2-6.7-29.1-12.6l-41.8-27.6 c-11.8-7.8-24.3-13.9-37.5-18.5l10.3-15.6l-6.4,0.5l44.8-67.9c-12.3,25.6-13,47.9,8.6,63.6l0.2,0.1c1.2,0.7,2.3,1.4,3.5,2.2 l41.8,27.6c8.9,5.9,18.7,10.2,29.1,12.6l21.5,5.2C1127,1359.3,1135.4,1356,1140,1349.1z"></path> </g> </g> <g> <g> <polygon class="st9" points="3044.9,1140.9 2926.1,1143.1 2851.9,1144.5 2996.8,951.1 "></polygon> </g> <g class="st5"> <polygon class="st6" points="3044.9,1140.9 3015.3,1141.4 2974.7,980.7 2996.8,951.1 "></polygon> </g> <g> <path class="st7" d="M2851.9,1156.8c-4.6,0-8.9-2.6-11-6.7c-2.2-4.2-1.7-9.3,1.1-13L2987,943.7c2.9-3.8,7.6-5.7,12.3-4.7 c4.7,0.9,8.4,4.5,9.6,9.1l48,189.8c0.9,3.7,0.1,7.5-2.2,10.5c-2.3,3-5.8,4.8-9.6,4.9l-192.9,3.5 C2852.1,1156.8,2852,1156.8,2851.9,1156.8z M2991.2,979.2L2877,1131.6l152.1-2.8L2991.2,979.2z"></path> </g> <g> <polygon class="st9" points="2996.8,951.1 2779.3,1144.6 2638.2,1157.5 "></polygon> </g> <g class="st5"> <polygon class="st6" points="3000.5,950.3 2783,1143.7 2641.9,1156.6 2642.3,1156.4 2735.9,1147.8 2880.3,1019.5 "></polygon> </g> <g> <path class="st7" d="M2638.2,1169.8c-5.3,0-10.1-3.5-11.8-8.6c-1.8-5.5,0.6-11.5,5.6-14.4l358.6-206.3 c5.5-3.2,12.5-1.7,16.2,3.5c3.7,5.1,2.9,12.3-1.8,16.5l-217.5,193.5c-2,1.8-4.5,2.8-7.1,3.1l-141.1,12.9 C2639,1169.8,2638.6,1169.8,2638.2,1169.8z M2898.7,1021.8L2693.3,1140l80.8-7.4L2898.7,1021.8z"></path> </g> <g> <polygon class="st9" points="2851.9,1144.5 2878.6,1294.6 2779.3,1144.6 2996.8,951.1 "></polygon> <path class="st1" d="M2878.6,1297c-0.8,0-1.6-0.4-2.1-1.1l-99.2-150c-0.7-1-0.5-2.4,0.4-3.2l217.5-193.5c0.9-0.8,2.4-0.8,3.3,0 c0.9,0.9,1.1,2.3,0.3,3.3l-144.3,192.5l26.4,149c0.2,1.2-0.4,2.3-1.5,2.7C2879.2,1297,2878.9,1297,2878.6,1297z M2782.6,1145 l91.4,138.2l-24.5-138.4c-0.1-0.7,0-1.4,0.5-1.9l130.2-173.7L2782.6,1145z"></path> </g> <g class="st0"> <polygon class="st1" points="2851.9,1144.5 2878.6,1294.6 2779.3,1144.6 2996.8,951.1 "></polygon> </g> <g> <path class="st7" d="M2878.6,1306.9c-4.1,0-8-2-10.3-5.5l-99.2-150c-3.4-5.1-2.5-12,2.1-16.1l217.5-193.5 c4.7-4.2,11.9-4.2,16.6,0.1c4.7,4.3,5.3,11.4,1.5,16.5l-141.7,189l25.7,144.8c1,5.8-2.1,11.5-7.6,13.6 C2881.6,1306.6,2880.1,1306.9,2878.6,1306.9z M2795.6,1146.7l60.4,91.3l-16.2-91.4c-0.6-3.4,0.2-6.8,2.3-9.6l71.2-95 L2795.6,1146.7z"></path> </g> <g> <polygon class="st9" points="2926.1,1143.1 2878.6,1294.6 2851.9,1144.5 "></polygon> <path class="st1" d="M2878.6,1297c-0.1,0-0.1,0-0.2,0c-1.1-0.1-2.1-0.9-2.3-2l-26.6-150.1c-0.1-0.7,0.1-1.4,0.5-2 c0.5-0.6,1.1-0.9,1.9-0.9l74.1-1.4c0.9,0,1.5,0.4,2,1c0.5,0.6,0.6,1.5,0.4,2.2l-47.5,151.5 C2880.6,1296.3,2879.6,1297,2878.6,1297z M2854.9,1146.9l24.4,137.3l43.4-138.5L2854.9,1146.9z"></path> </g> <g class="st0"> <polygon class="st1" points="2926.1,1143.1 2878.6,1294.6 2851.9,1144.5 "></polygon> </g> <g> <path class="st7" d="M2878.6,1306.9c-0.3,0-0.5,0-0.8,0c-5.7-0.4-10.4-4.6-11.4-10.2l-26.6-150.1c-0.6-3.6,0.3-7.2,2.6-10 c2.3-2.8,5.7-4.4,9.3-4.5l74.1-1.4c4.2,0,7.7,1.8,10.1,5c2.4,3.2,3.1,7.3,1.9,11.1l-47.5,151.5 C2888.7,1303.4,2883.9,1306.9,2878.6,1306.9z M2866.6,1156.5l15.3,86.1l27.2-86.8L2866.6,1156.5z"></path> </g> </g> <g> <path class="st7" d="M1427.2,1686.7c-5.1,0-9.9-3.2-11.7-8.4c-1.7-5.1-3.5-10.2-5.3-15.2c-2.3-6.4,1-13.5,7.4-15.8 c6.4-2.3,13.5,1,15.8,7.4c1.9,5.2,3.7,10.4,5.5,15.7c2.2,6.5-1.3,13.5-7.7,15.7C1429.9,1686.5,1428.5,1686.7,1427.2,1686.7z M1399.1,1616.5c-4.6,0-9.1-2.6-11.2-7.1c-8.4-18-17.6-35.2-27.3-51.2c-3.5-5.8-1.7-13.4,4.2-17c5.8-3.5,13.4-1.7,17,4.2 c10.1,16.7,19.7,34.7,28.5,53.5c2.9,6.2,0.2,13.5-6,16.4C1402.7,1616.1,1400.9,1616.5,1399.1,1616.5z M1337.5,1515.4 c-3.6,0-7.2-1.6-9.7-4.7c-12.1-15.2-25.1-29.5-38.8-42.4c-5-4.7-5.2-12.5-0.5-17.5c4.7-5,12.5-5.2,17.5-0.5 c14.5,13.7,28.4,28.9,41.2,45c4.2,5.3,3.3,13.1-2,17.4C1342.9,1514.5,1340.2,1515.4,1337.5,1515.4z M1251.4,1434.4 c-2.4,0-4.9-0.7-7-2.2c-15.6-10.8-32.2-20.5-49.5-29c-6.1-3-8.7-10.4-5.7-16.5c3-6.1,10.4-8.7,16.5-5.7 c18.4,9,36.2,19.4,52.7,30.9c5.6,3.9,7,11.6,3.1,17.2C1259.2,1432.5,1255.4,1434.4,1251.4,1434.4z"></path> </g> <g> <g> <path class="st7" d="M2726.6,1324.3c-3.5,0-6.9-1.5-9.4-4.3c-4.5-5.2-3.9-13,1.3-17.4c7.3-6.2,14.7-12.1,22.2-17.5 c5.6-4,13.3-2.7,17.2,2.9c4,5.6,2.7,13.3-2.9,17.2c-6.9,4.9-13.8,10.3-20.5,16.1C2732.4,1323.3,2729.5,1324.3,2726.6,1324.3z"></path> </g> <g> <path class="st7" d="M2601,1531.5c-1,0-2.1-0.1-3.1-0.4c-6.6-1.7-10.6-8.5-8.8-15.1c5.3-20.3,12.1-40.4,20.3-59.8 c2.6-6.3,9.9-9.3,16.2-6.6c6.3,2.6,9.3,9.9,6.6,16.2c-7.7,18.3-14.1,37.4-19.2,56.5C2611.5,1527.9,2606.5,1531.5,2601,1531.5z M2648.4,1418.5c-2.2,0-4.3-0.6-6.3-1.8c-5.9-3.5-7.8-11.1-4.3-17c11-18.3,23.2-35.7,36.4-51.8c4.3-5.3,12.1-6,17.4-1.7 c5.3,4.3,6,12.1,1.7,17.4c-12.4,15.1-24,31.5-34.3,48.8C2656.7,1416.4,2652.6,1418.5,2648.4,1418.5z"></path> </g> <g> <path class="st7" d="M2587.6,1619.1c-0.2,0-0.4,0-0.6,0c-6.8-0.3-12.1-6.1-11.8-12.9c0.4-9.3,1.2-18.7,2.2-27.9 c0.8-6.8,6.9-11.7,13.7-10.9c6.8,0.8,11.7,6.9,10.9,13.7c-1,8.7-1.7,17.6-2.1,26.3C2599.6,1614,2594.1,1619.1,2587.6,1619.1z"></path> </g> </g> <g> <path class="st7" d="M1246.2,1931.6c-3.7,0-7.4-1.7-9.9-4.9c-11.1-14.7-22.5-28.6-33.8-41.3c-4.5-5.1-4.1-12.9,1-17.5 c5.1-4.5,12.9-4.1,17.5,1c11.7,13.2,23.5,27.6,35.1,42.8c4.1,5.4,3.1,13.2-2.4,17.3C1251.4,1930.8,1248.8,1931.6,1246.2,1931.6z M1173.8,1850.6c-3,0-6-1.1-8.4-3.3c-13.2-12.3-26.9-23.7-40.7-33.8c-5.5-4-6.7-11.8-2.6-17.3c4-5.5,11.8-6.7,17.3-2.6 c14.6,10.7,29,22.7,42.9,35.6c5,4.6,5.3,12.5,0.7,17.5C1180.4,1849.3,1177.1,1850.6,1173.8,1850.6z M1086.2,1786.6 c-2,0-4.1-0.5-6-1.5c-15.4-8.5-31.4-16-47.7-22.2c-6.4-2.5-9.6-9.6-7.1-16c2.5-6.4,9.6-9.6,16-7.1c17.3,6.7,34.4,14.6,50.8,23.7 c6,3.3,8.1,10.8,4.9,16.8C1094.8,1784.3,1090.5,1786.6,1086.2,1786.6z M985.1,1747.6c-0.9,0-1.9-0.1-2.9-0.3c-16.7-4-34.2-7-52-9 c-6.8-0.7-11.7-6.9-10.9-13.6c0.8-6.8,6.9-11.7,13.6-10.9c18.8,2.1,37.3,5.3,55,9.5c6.6,1.6,10.7,8.2,9.2,14.9 C995.7,1743.8,990.6,1747.6,985.1,1747.6z M877.2,1735.5h-1.4c-6.8,0-12.4-5.5-12.4-12.4c0-6.8,5.5-12.4,12.4-12.4h1.4 c6.8,0,12.4,5.5,12.4,12.4C889.6,1729.9,884.1,1735.5,877.2,1735.5z"></path> </g> <g> <path class="st7" d="M2755.4,1927.2c-3,0-5.9-1.1-8.3-3.2c-5.1-4.6-5.4-12.4-0.9-17.5c12.8-14.1,25.8-27.5,38.7-39.6 c5-4.7,12.8-4.5,17.5,0.5c4.7,5,4.5,12.8-0.5,17.5c-12.4,11.7-24.9,24.5-37.3,38.2C2762.1,1925.8,2758.7,1927.2,2755.4,1927.2z M2834.6,1852.9c-3.7,0-7.3-1.6-9.8-4.8c-4.2-5.4-3.2-13.2,2.2-17.3c15-11.7,30.4-22.3,45.9-31.7c5.8-3.5,13.4-1.7,17,4.2 c3.5,5.8,1.7,13.4-4.1,17c-14.6,8.9-29.3,19-43.5,30.1C2839.9,1852,2837.2,1852.9,2834.6,1852.9z M2927.4,1796.7 c-4.7,0-9.3-2.7-11.3-7.4c-2.8-6.2,0.1-13.5,6.3-16.3c17.1-7.6,34.8-14,52.7-19.1c6.6-1.9,13.4,1.9,15.3,8.5 c1.9,6.6-1.9,13.4-8.5,15.3c-16.8,4.8-33.4,10.9-49.5,18C2930.8,1796.4,2929.1,1796.7,2927.4,1796.7z M3031.6,1766.8 c-6,0-11.3-4.4-12.2-10.6c-1-6.8,3.7-13,10.4-14c18.1-2.6,36.8-4.2,55.7-4.6c6.7-0.2,12.5,5.3,12.6,12.1 c0.1,6.8-5.3,12.5-12.1,12.6c-17.9,0.4-35.6,1.9-52.6,4.4C3032.8,1766.7,3032.2,1766.8,3031.6,1766.8z M3141.4,1764.2 c-0.3,0-0.6,0-1,0l-1.5-0.1c-6.8-0.6-11.8-6.6-11.2-13.4c0.6-6.8,6.6-11.7,13.4-11.2l1.2,0.1c6.8,0.5,11.9,6.5,11.4,13.3 C3153.2,1759.2,3147.8,1764.2,3141.4,1764.2z"></path> </g> <g> <path class="st7" d="M2804,1541.1c0,4-8.5,7.4-20.8,9c-3.8,0.5-6.8,3.5-7.3,7.3c-1.6,12.3-5,20.8-9,20.8c-4,0-7.4-8.5-9-20.8 c-0.5-3.8-3.5-6.8-7.3-7.3c-12.3-1.6-20.8-5.1-20.8-9c0-4,8.5-7.4,20.8-9c3.8-0.5,6.8-3.5,7.3-7.3c1.6-12.3,5.1-20.8,9-20.8 c4,0,7.4,8.5,9,20.8c0.5,3.8,3.5,6.8,7.3,7.3C2795.5,1533.7,2804,1537.1,2804,1541.1z"></path> </g> <g> <path class="st7" d="M1438.6,1319.2c-2.8,2.8-11.2-0.8-21.1-8.4c-3-2.3-7.2-2.3-10.3,0c-9.8,7.6-18.2,11.2-21,8.3 c-2.8-2.8,0.8-11.2,8.3-21.1c2.3-3,2.3-7.2,0-10.3c-7.6-9.9-11.1-18.3-8.3-21.1c2.8-2.8,11.2,0.8,21.1,8.3c3,2.3,7.2,2.3,10.3,0 c9.9-7.6,18.3-11.1,21.1-8.3c2.8,2.8-0.8,11.2-8.3,21c-2.3,3-2.3,7.2,0,10.3C1437.8,1308,1441.4,1316.4,1438.6,1319.2z"></path> </g> <g> <path class="st7" d="M1616.7,1152.4c0,2.7-5.9,5.1-14.4,6.2c-2.6,0.3-4.7,2.4-5,5c-1.1,8.5-3.5,14.3-6.2,14.3 c-2.7,0-5.1-5.9-6.2-14.3c-0.3-2.6-2.4-4.7-5-5c-8.5-1.1-14.3-3.5-14.3-6.2c0-2.7,5.9-5.1,14.3-6.2c2.6-0.3,4.7-2.4,5-5 c1.1-8.5,3.5-14.3,6.2-14.3c2.7,0,5.1,5.9,6.2,14.3c0.3,2.6,2.4,4.7,5,5C1610.8,1147.3,1616.7,1149.7,1616.7,1152.4z"></path> </g> <g> <path class="st7" d="M1786.1,2157.6c0,2.9-6.3,5.5-15.5,6.7c-2.8,0.4-5,2.6-5.4,5.4c-1.2,9.1-3.7,15.4-6.7,15.4 c-2.9,0-5.5-6.3-6.7-15.4c-0.4-2.8-2.6-5-5.4-5.4c-9.1-1.2-15.4-3.8-15.4-6.7s6.3-5.5,15.4-6.7c2.8-0.4,5-2.6,5.4-5.4 c1.2-9.1,3.8-15.4,6.7-15.4c2.9,0,5.5,6.3,6.7,15.4c0.4,2.8,2.6,5,5.4,5.4C1779.8,2152.1,1786.1,2154.6,1786.1,2157.6z"></path> </g> <g> <path class="st7" d="M2914,1650.2c0,2.9-6.3,5.5-15.5,6.7c-2.8,0.4-5,2.6-5.4,5.4c-1.2,9.1-3.7,15.4-6.7,15.4 c-2.9,0-5.5-6.3-6.7-15.4c-0.4-2.8-2.6-5-5.4-5.4c-9.1-1.2-15.4-3.8-15.4-6.7c0-2.9,6.3-5.5,15.4-6.7c2.8-0.4,5-2.6,5.4-5.4 c1.2-9.1,3.8-15.4,6.7-15.4c2.9,0,5.5,6.3,6.7,15.4c0.4,2.8,2.6,5,5.4,5.4C2907.7,1644.7,2914,1647.2,2914,1650.2z"></path> </g> <g> <circle class="st7" cx="2124.4" cy="2294.1" r="19.2"></circle> </g> <g> <circle class="st7" cx="1255.4" cy="1664.8" r="30.4"></circle> </g> <g> <circle class="st7" cx="2193.1" cy="2132.1" r="30.4"></circle> </g> <g> <g> <path class="st7" d="M1449.9,1162.6l-16.5-28.7c-20.8,10.7-43.5,16.6-58.9,16.6l-11.3-40.6c16.7-0.4,38.2-4.3,57.8-15.6 c17.2-9.9,25.2-23.3,18.2-35.4c-6.6-11.5-20.4-13.2-47.2-7.9c-38.6,7.7-69.3,5.3-86.2-24c-15.3-26.6-8.6-58.2,20.1-83.2 l-16.5-28.7l29.6-17l15.3,26.6c20.8-10.7,36.8-14.3,49.6-15.2l10.9,39.2c-9.8,1.2-27.7,2.2-49.4,14.8 c-19.6,11.3-21.1,23.4-16.2,31.9c5.7,10,20,10.2,51.2,5.1c43.3-8,67.3,0.3,83,27.5c15.5,26.9,9.6,60.8-21.6,86.8l17.7,30.8 L1449.9,1162.6z"></path> </g> </g> <g> <path class="st7" d="M3100.9,1531.5l-7.4-18.8c-1.1-2.8-4.3-4.2-7.2-3.1l-85,33.6c-2.8,1.1-6.1-0.3-7.2-3.1l-19.1-48.3 c-1.1-2.8,0.3-6.1,3.1-7.2l85-33.6c2.8-1.1,4.2-4.3,3.1-7.2l-7.4-18.8c-2.7-6.9,3.4-14,10.6-12.3l46.4,11l50.8,12.1 c6.2,1.5,9,8.6,5.5,13.9l-28.8,43.5l-26.4,39.8C3112.9,1539.3,3103.6,1538.3,3100.9,1531.5z"></path> </g> <g> <g> <g> <defs> <path id="SVGID_1_" d="M2015.3,2326.9c-4.2-233,158.7-239.9,156-387.6c-2.7-147.7-161.2-175.5-161.2-175.5 s-157.4,33.4-154.7,181.2S2011.1,2093.9,2015.3,2326.9z"></path> </defs> <clipPath id="SVGID_2_"> <use xlink:href="#SVGID_1_" style="overflow:visible;"></use> </clipPath> <polygon class="st14" points="2015.3,2326.9 2174,2311.4 2174,2326.9 "></polygon> <polygon class="st14" points="1982.1,2326.9 2174,2308.1 2174,2311.4 2015.3,2326.9 "></polygon> <polygon class="st14" points="1949,2326.9 2174,2304.9 2174,2308.1 1982.1,2326.9 "></polygon> <polygon class="st14" points="1915.8,2326.9 2174,2301.7 2174,2304.9 1949,2326.9 "></polygon> <polygon class="st14" points="1882.7,2326.9 2174,2298.4 2174,2301.7 1915.8,2326.9 "></polygon> <polygon class="st14" points="1870.9,2326.9 1870.7,2324.8 2174,2295.2 2174,2298.4 1882.7,2326.9 "></polygon> <polygon class="st14" points="1870.7,2324.8 1870.4,2321.6 2174,2291.9 2174,2295.2 "></polygon> <polygon class="st15" points="1870.4,2321.6 1870.1,2318.4 2174,2288.7 2174,2291.9 "></polygon> <polygon class="st15" points="1870.1,2318.4 1869.8,2315.2 2174,2285.5 2174,2288.7 "></polygon> <polygon class="st15" points="1869.8,2315.2 1869.5,2312 2174,2282.2 2174,2285.5 "></polygon> <polygon class="st15" points="1869.5,2312 1869.1,2308.8 2174,2279 2174,2282.2 "></polygon> <polygon class="st15" points="1869.1,2308.8 1868.8,2305.5 2174,2275.7 2174,2279 "></polygon> <polygon class="st16" points="1868.8,2305.5 1868.5,2302.3 2174,2272.5 2174,2275.7 "></polygon> <polygon class="st16" points="1868.5,2302.3 1868.2,2299.1 2174,2269.3 2174,2272.5 "></polygon> <polygon class="st16" points="1868.2,2299.1 1867.9,2295.9 2174,2266 2174,2269.3 "></polygon> <polygon class="st17" points="1867.9,2295.9 1867.6,2292.7 2174,2262.8 2174,2266 "></polygon> <polygon class="st17" points="1867.6,2292.7 1867.3,2289.5 2174,2259.5 2174,2262.8 "></polygon> <polygon class="st17" points="1867.3,2289.5 1866.9,2286.3 2174,2256.3 2174,2259.5 "></polygon> <polygon class="st18" points="1866.9,2286.3 1866.6,2283.1 2174,2253.1 2174,2256.3 "></polygon> <polygon class="st18" points="1866.6,2283.1 1866.3,2279.9 2174,2249.8 2174,2253.1 "></polygon> <polygon class="st18" points="1866.3,2279.9 1866,2276.7 2174,2246.6 2174,2249.8 "></polygon> <polygon class="st19" points="1866,2276.7 1865.7,2273.5 2174,2243.4 2174,2246.6 "></polygon> <polygon class="st19" points="1865.7,2273.5 1865.4,2270.3 2174,2240.1 2174,2243.4 "></polygon> <polygon class="st19" points="1865.4,2270.3 1865.1,2267 2174,2236.9 2174,2240.1 "></polygon> <polygon class="st20" points="1865.1,2267 1864.8,2263.8 2174,2233.6 2174,2236.9 "></polygon> <polygon class="st20" points="1864.8,2263.8 1864.4,2260.6 2174,2230.4 2174,2233.6 "></polygon> <polygon class="st21" points="1864.4,2260.6 1864.1,2257.4 2174,2227.2 2174,2230.4 "></polygon> <polygon class="st21" points="1864.1,2257.4 1863.8,2254.2 2174,2223.9 2174,2227.2 "></polygon> <polygon class="st22" points="1863.8,2254.2 1863.5,2251 2174,2220.7 2174,2223.9 "></polygon> <polygon class="st22" points="1863.5,2251 1863.2,2247.8 2174,2217.4 2174,2220.7 "></polygon> <polygon class="st23" points="1863.2,2247.8 1862.9,2244.6 2174,2214.2 2174,2217.4 "></polygon> <polygon class="st23" points="1862.9,2244.6 1862.6,2241.4 2174,2211 2174,2214.2 "></polygon> <polygon class="st24" points="1862.6,2241.4 1862.2,2238.2 2174,2207.7 2174,2211 "></polygon> <polygon class="st24" points="1862.2,2238.2 1861.9,2235 2174,2204.5 2174,2207.7 "></polygon> <polygon class="st25" points="1861.9,2235 1861.6,2231.8 2174,2201.2 2174,2204.5 "></polygon> <polygon class="st25" points="1861.6,2231.8 1861.3,2228.5 2174,2198 2174,2201.2 "></polygon> <polygon class="st26" points="1861.3,2228.5 1861,2225.3 2174,2194.8 2174,2198 "></polygon> <polygon class="st26" points="1861,2225.3 1860.7,2222.1 2174,2191.5 2174,2194.8 "></polygon> <polygon class="st27" points="1860.7,2222.1 1860.4,2218.9 2174,2188.3 2174,2191.5 "></polygon> <polygon class="st28" points="1860.4,2218.9 1860.1,2215.7 2174,2185.1 2174,2188.3 "></polygon> <polygon class="st29" points="1860.1,2215.7 1859.7,2212.5 2174,2181.8 2174,2185.1 "></polygon> <polygon class="st30" points="1859.7,2212.5 1859.4,2209.3 2174,2178.6 2174,2181.8 "></polygon> <polygon class="st30" points="1859.4,2209.3 1859.1,2206.1 2174,2175.3 2174,2178.6 "></polygon> <polygon class="st31" points="1859.1,2206.1 1858.8,2202.9 2174,2172.1 2174,2175.3 "></polygon> <polygon class="st32" points="1858.8,2202.9 1858.5,2199.7 2174,2168.9 2174,2172.1 "></polygon> <polygon class="st32" points="1858.5,2199.7 1858.2,2196.5 2174,2165.6 2174,2168.9 "></polygon> <polygon class="st33" points="1858.2,2196.5 1857.9,2193.3 2174,2162.4 2174,2165.6 "></polygon> <polygon class="st34" points="1857.9,2193.3 1857.5,2190 2174,2159.1 2174,2162.4 "></polygon> <polygon class="st34" points="1857.5,2190 1857.2,2186.8 2174,2155.9 2174,2159.1 "></polygon> <polygon class="st35" points="1857.2,2186.8 1856.9,2183.6 2174,2152.7 2174,2155.9 "></polygon> <polygon class="st36" points="1856.9,2183.6 1856.6,2180.4 2174,2149.4 2174,2152.7 "></polygon> <polygon class="st37" points="1856.6,2180.4 1856.3,2177.2 2174,2146.2 2174,2149.4 "></polygon> <polygon class="st38" points="1856.3,2177.2 1856,2174 2174,2142.9 2174,2146.2 "></polygon> <polygon class="st39" points="1856,2174 1855.7,2170.8 2174,2139.7 2174,2142.9 "></polygon> <polygon class="st40" points="1855.7,2170.8 1855.4,2167.6 2174,2136.5 2174,2139.7 "></polygon> <polygon class="st41" points="1855.4,2167.6 1855,2164.4 2174,2133.2 2174,2136.5 "></polygon> <polygon class="st41" points="1855,2164.4 1854.7,2161.2 2174,2130 2174,2133.2 "></polygon> <polygon class="st42" points="1854.7,2161.2 1854.4,2158 2174,2126.8 2174,2130 "></polygon> <polygon class="st43" points="1854.4,2158 1854.1,2154.8 2174,2123.5 2174,2126.8 "></polygon> <polygon class="st44" points="1854.1,2154.8 1853.8,2151.5 2174,2120.3 2174,2123.5 "></polygon> <polygon class="st45" points="1853.8,2151.5 1853.5,2148.3 2174,2117 2174,2120.3 "></polygon> <polygon class="st45" points="1853.5,2148.3 1853.2,2145.1 2174,2113.8 2174,2117 "></polygon> <polygon class="st46" points="1853.2,2145.1 1852.8,2141.9 2174,2110.6 2174,2113.8 "></polygon> <polygon class="st47" points="1852.8,2141.9 1852.7,2140.9 1852.7,2138.7 2174,2107.3 2174,2110.6 "></polygon> <polygon class="st48" points="1852.7,2135.5 2174,2104.1 2174,2107.3 1852.7,2138.7 "></polygon> <polygon class="st49" points="1852.7,2132.2 2174,2100.8 2174,2104.1 1852.7,2135.5 "></polygon> <polygon class="st50" points="1852.7,2129 2174,2097.6 2174,2100.8 1852.7,2132.2 "></polygon> <polygon class="st50" points="1852.7,2125.7 2174,2094.4 2174,2097.6 1852.7,2129 "></polygon> <polygon class="st51" points="1852.7,2122.5 2174,2091.1 2174,2094.4 1852.7,2125.7 "></polygon> <polygon class="st52" points="1852.7,2119.3 2174,2087.9 2174,2091.1 1852.7,2122.5 "></polygon> <polygon class="st53" points="1852.7,2116 2174,2084.6 2174,2087.9 1852.7,2119.3 "></polygon> <polygon class="st54" points="1852.7,2112.8 2174,2081.4 2174,2084.6 1852.7,2116 "></polygon> <polygon class="st55" points="1852.7,2109.5 2174,2078.2 2174,2081.4 1852.7,2112.8 "></polygon> <polygon class="st56" points="1852.7,2106.3 2174,2074.9 2174,2078.2 1852.7,2109.5 "></polygon> <polygon class="st57" points="1852.7,2103.1 2174,2071.7 2174,2074.9 1852.7,2106.3 "></polygon> <polygon class="st58" points="1852.7,2099.8 2174,2068.5 2174,2071.7 1852.7,2103.1 "></polygon> <polygon class="st59" points="1852.7,2096.6 2174,2065.2 2174,2068.5 1852.7,2099.8 "></polygon> <polygon class="st60" points="1852.7,2093.3 2174,2062 2174,2065.2 1852.7,2096.6 "></polygon> <polygon class="st61" points="1852.7,2090.1 2174,2058.7 2174,2062 1852.7,2093.3 "></polygon> <polygon class="st62" points="1852.7,2086.9 2174,2055.5 2174,2058.7 1852.7,2090.1 "></polygon> <polygon class="st63" points="1852.7,2083.6 2174,2052.3 2174,2055.5 1852.7,2086.9 "></polygon> <polygon class="st64" points="1852.7,2080.4 2174,2049 2174,2052.3 1852.7,2083.6 "></polygon> <polygon class="st65" points="1852.7,2077.2 2174,2045.8 2174,2049 1852.7,2080.4 "></polygon> <polygon class="st66" points="1852.7,2073.9 2174,2042.5 2174,2045.8 1852.7,2077.2 "></polygon> <polygon class="st67" points="1852.7,2070.7 2174,2039.3 2174,2042.5 1852.7,2073.9 "></polygon> <polygon class="st68" points="1852.7,2067.4 2174,2036.1 2174,2039.3 1852.7,2070.7 "></polygon> <polygon class="st69" points="1852.7,2064.2 2174,2032.8 2174,2036.1 1852.7,2067.4 "></polygon> <polygon class="st70" points="1852.7,2061 2174,2029.6 2174,2032.8 1852.7,2064.2 "></polygon> <polygon class="st71" points="1852.7,2057.7 2174,2026.3 2174,2029.6 1852.7,2061 "></polygon> <polygon class="st72" points="1852.7,2054.5 2174,2023.1 2174,2026.3 1852.7,2057.7 "></polygon> <polygon class="st73" points="1852.7,2051.2 2174,2019.9 2174,2023.1 1852.7,2054.5 "></polygon> <polygon class="st74" points="1852.7,2048 2174,2016.6 2174,2019.9 1852.7,2051.2 "></polygon> <polygon class="st75" points="1852.7,2044.8 2174,2013.4 2174,2016.6 1852.7,2048 "></polygon> <polygon class="st76" points="1852.7,2041.5 2174,2010.2 2174,2013.4 1852.7,2044.8 "></polygon> <polygon class="st77" points="1852.7,2038.3 2174,2006.9 2174,2010.2 1852.7,2041.5 "></polygon> <polygon class="st78" points="1852.7,2035 2174,2003.7 2174,2006.9 1852.7,2038.3 "></polygon> <polygon class="st79" points="1852.7,2031.8 2174,2000.4 2174,2003.7 1852.7,2035 "></polygon> <polygon class="st80" points="1852.7,2028.6 2174,1997.2 2174,2000.4 1852.7,2031.8 "></polygon> <polygon class="st81" points="1852.7,2025.3 2174,1994 2174,1997.2 1852.7,2028.6 "></polygon> <polygon class="st82" points="1852.7,2022.1 2174,1990.7 2174,1994 1852.7,2025.3 "></polygon> <polygon class="st83" points="1852.7,2018.9 2174,1987.5 2174,1990.7 1852.7,2022.1 "></polygon> <polygon class="st84" points="1852.7,2015.6 2174,1984.2 2174,1987.5 1852.7,2018.9 "></polygon> <polygon class="st85" points="1852.7,2012.4 2174,1981 2174,1984.2 1852.7,2015.6 "></polygon> <polygon class="st86" points="1852.7,2009.1 2174,1977.8 2174,1981 1852.7,2012.4 "></polygon> <polygon class="st87" points="1852.7,2005.9 2174,1974.5 2174,1977.8 1852.7,2009.1 "></polygon> <polygon class="st88" points="1852.7,2002.7 2174,1971.3 2174,1974.5 1852.7,2005.9 "></polygon> <polygon class="st89" points="1852.7,1999.4 2174,1968 2174,1971.3 1852.7,2002.7 "></polygon> <polygon class="st90" points="1852.7,1996.2 2174,1964.8 2174,1968 1852.7,1999.4 "></polygon> <polygon class="st91" points="1852.7,1992.9 2174,1961.6 2174,1964.8 1852.7,1996.2 "></polygon> <polygon class="st92" points="1852.7,1989.7 2174,1958.3 2174,1961.6 1852.7,1992.9 "></polygon> <polygon class="st93" points="1852.7,1986.5 2174,1955.1 2174,1958.3 1852.7,1989.7 "></polygon> <polygon class="st94" points="1852.7,1983.2 2174,1951.9 2174,1955.1 1852.7,1986.5 "></polygon> <polygon class="st95" points="1852.7,1980 2174,1948.6 2174,1951.9 1852.7,1983.2 "></polygon> <polygon class="st96" points="1852.7,1976.7 2174,1945.4 2174,1948.6 1852.7,1980 "></polygon> <polygon class="st97" points="1852.7,1973.5 2174,1942.1 2174,1945.4 1852.7,1976.7 "></polygon> <polygon class="st98" points="1852.7,1970.3 2174,1938.9 2174,1942.1 1852.7,1973.5 "></polygon> <polygon class="st99" points="1852.7,1967 2174,1935.7 2174,1938.9 1852.7,1970.3 "></polygon> <polygon class="st100" points="1852.7,1963.8 2174,1932.4 2174,1935.7 1852.7,1967 "></polygon> <polygon class="st101" points="1852.7,1960.6 2174,1929.2 2174,1932.4 1852.7,1963.8 "></polygon> <polygon class="st102" points="1852.7,1957.3 2174,1925.9 2174,1929.2 1852.7,1960.6 "></polygon> <polygon class="st103" points="1852.7,1954.1 2174,1922.7 2174,1925.9 1852.7,1957.3 "></polygon> <polygon class="st104" points="1852.7,1950.8 2174,1919.5 2174,1922.7 1852.7,1954.1 "></polygon> <polygon class="st105" points="1852.7,1947.6 2174,1916.2 2174,1919.5 1852.7,1950.8 "></polygon> <polygon class="st106" points="1852.7,1944.4 2174,1913 2174,1916.2 1852.7,1947.6 "></polygon> <polygon class="st107" points="1852.7,1941.1 2174,1909.7 2174,1913 1852.7,1944.4 "></polygon> <polygon class="st108" points="1852.7,1937.9 2174,1906.5 2174,1909.7 1852.7,1941.1 "></polygon> <polygon class="st109" points="1852.7,1934.6 2174,1903.3 2174,1906.5 1852.7,1937.9 "></polygon> <polygon class="st110" points="1852.7,1931.4 2174,1900 2174,1903.3 1852.7,1934.6 "></polygon> <polygon class="st111" points="1852.7,1928.2 2174,1896.8 2174,1900 1852.7,1931.4 "></polygon> <polygon class="st112" points="1852.7,1924.9 2174,1893.6 2174,1896.8 1852.7,1928.2 "></polygon> <polygon class="st113" points="1852.7,1921.7 2174,1890.3 2174,1893.6 1852.7,1924.9 "></polygon> <polygon class="st114" points="1852.7,1918.4 2174,1887.1 2174,1890.3 1852.7,1921.7 "></polygon> <polygon class="st115" points="1852.7,1915.2 2174,1883.8 2174,1887.1 1852.7,1918.4 "></polygon> <polygon class="st116" points="1852.7,1912 2174,1880.6 2174,1883.8 1852.7,1915.2 "></polygon> <polygon class="st117" points="1852.7,1908.7 2174,1877.4 2174,1880.6 1852.7,1912 "></polygon> <polygon class="st118" points="1852.7,1905.5 2174,1874.1 2174,1877.4 1852.7,1908.7 "></polygon> <polygon class="st119" points="1852.7,1902.3 2174,1870.9 2174,1874.1 1852.7,1905.5 "></polygon> <polygon class="st120" points="1852.7,1899 2174,1867.6 2174,1870.9 1852.7,1902.3 "></polygon> <polygon class="st121" points="1852.7,1895.8 2174,1864.4 2174,1867.6 1852.7,1899 "></polygon> <polygon class="st122" points="1852.7,1892.5 2174,1861.2 2174,1864.4 1852.7,1895.8 "></polygon> <polygon class="st123" points="1852.7,1889.3 2174,1857.9 2174,1861.2 1852.7,1892.5 "></polygon> <polygon class="st124" points="1852.7,1886.1 2174,1854.7 2174,1857.9 1852.7,1889.3 "></polygon> <polygon class="st125" points="1852.7,1882.8 2174,1851.4 2174,1854.7 1852.7,1886.1 "></polygon> <polygon class="st126" points="1852.7,1879.6 2174,1848.2 2174,1851.4 1852.7,1882.8 "></polygon> <polygon class="st127" points="1852.7,1876.3 2174,1845 2174,1848.2 1852.7,1879.6 "></polygon> <polygon class="st128" points="1852.7,1873.1 2174,1841.7 2174,1845 1852.7,1876.3 "></polygon> <polygon class="st129" points="1852.7,1869.9 2174,1838.5 2174,1841.7 1852.7,1873.1 "></polygon> <polygon class="st130" points="1852.7,1866.6 2174,1835.3 2174,1838.5 1852.7,1869.9 "></polygon> <polygon class="st131" points="1852.7,1863.4 2174,1832 2174,1835.3 1852.7,1866.6 "></polygon> <polygon class="st132" points="1852.7,1860.1 2174,1828.8 2174,1832 1852.7,1863.4 "></polygon> <polygon class="st133" points="1852.7,1856.9 2174,1825.5 2174,1828.8 1852.7,1860.1 "></polygon> <polygon class="st134" points="1852.7,1853.7 2174,1822.3 2174,1825.5 1852.7,1856.9 "></polygon> <polygon class="st135" points="1852.7,1850.4 2174,1819.1 2174,1822.3 1852.7,1853.7 "></polygon> <polygon class="st136" points="1852.7,1847.2 2174,1815.8 2174,1819.1 1852.7,1850.4 "></polygon> <polygon class="st137" points="1852.7,1844 2174,1812.6 2174,1815.8 1852.7,1847.2 "></polygon> <polygon class="st138" points="1852.7,1840.7 2174,1809.3 2174,1812.6 1852.7,1844 "></polygon> <polygon class="st139" points="1852.7,1837.5 2174,1806.1 2174,1809.3 1852.7,1840.7 "></polygon> <polygon class="st140" points="1852.7,1834.2 2174,1802.9 2174,1806.1 1852.7,1837.5 "></polygon> <polygon class="st141" points="1852.7,1831 2174,1799.6 2174,1802.9 1852.7,1834.2 "></polygon> <polygon class="st142" points="1852.7,1827.8 2174,1796.4 2174,1799.6 1852.7,1831 "></polygon> <polygon class="st143" points="1852.7,1824.5 2174,1793.1 2174,1796.4 1852.7,1827.8 "></polygon> <polygon class="st144" points="1852.7,1821.3 2174,1789.9 2174,1793.1 1852.7,1824.5 "></polygon> <polygon class="st145" points="1852.7,1818 2174,1786.7 2174,1789.9 1852.7,1821.3 "></polygon> <polygon class="st146" points="1852.7,1814.8 2174,1783.4 2174,1786.7 1852.7,1818 "></polygon> <polygon class="st147" points="1852.7,1811.6 2174,1780.2 2174,1783.4 1852.7,1814.8 "></polygon> <polygon class="st148" points="1852.7,1808.3 2174,1777 2174,1780.2 1852.7,1811.6 "></polygon> <polygon class="st149" points="1852.7,1805.1 2174,1773.7 2174,1777 1852.7,1808.3 "></polygon> <polygon class="st150" points="1852.7,1801.8 2174,1770.5 2174,1773.7 1852.7,1805.1 "></polygon> <polygon class="st151" points="1852.7,1798.6 2174,1767.2 2174,1770.5 1852.7,1801.8 "></polygon> <polygon class="st152" points="1852.7,1795.4 2174,1764 2174,1767.2 1852.7,1798.6 "></polygon> <polygon class="st153" points="1852.7,1792.1 2142.8,1763.8 2174,1763.8 2174,1764 1852.7,1795.4 "></polygon> <polygon class="st154" points="1852.7,1788.9 2109.6,1763.8 2142.8,1763.8 1852.7,1792.1 "></polygon> <polygon class="st155" points="1852.7,1785.7 2076.5,1763.8 2109.6,1763.8 1852.7,1788.9 "></polygon> <polygon class="st156" points="1852.7,1782.4 2043.3,1763.8 2076.5,1763.8 1852.7,1785.7 "></polygon> <polygon class="st157" points="1852.7,1779.2 2010.2,1763.8 2043.3,1763.8 1852.7,1782.4 "></polygon> <polygon class="st157" points="2010.2,1763.8 1852.7,1779.2 1852.7,1763.8 "></polygon> </g> <path class="st1" d="M2015.3,2329.3c-1.3,0-2.4-1.1-2.5-2.4c-2.3-128.8-50.6-186.5-93.2-237.3c-33.7-40.2-65.5-78.2-66.7-144.6 c-2.7-148.1,155.1-183.3,156.7-183.6c0.3-0.1,0.6-0.1,0.9,0c1.6,0.3,160.6,29.8,163.2,177.9c1.2,66.4-31.3,105.6-65.7,147 c-43.4,52.4-92.7,111.8-90.4,240.6c0,0,0,0,0,0C2017.8,2328.2,2016.7,2329.3,2015.3,2329.3 C2015.3,2329.3,2015.3,2329.3,2015.3,2329.3z M2010.2,1766.3c-9.4,2.2-154.8,38.6-152.3,178.6c1.2,64.6,31,100.2,65.6,141.5 c37.4,44.7,79.1,94.5,91.1,192.1c9.1-98.1,51.7-149.4,89.8-195.5c35.2-42.5,65.7-79.2,64.5-143.8 C2166.3,1799.3,2019.7,1768.2,2010.2,1766.3z"></path> </g> <g class="st158"> <g> <path class="st6" d="M2026.4,2224.6c-41.5-123.9-139.6-148.4-141.8-266.5c-2.7-147.7,154.7-181.2,154.7-181.2 s14.5,2.5,34.7,10.1c-34-18-63.9-23.2-63.9-23.2s-157.4,33.4-154.7,181.2c2.7,147.7,155.7,148.9,159.9,381.9 C2014.6,2286.7,2018.8,2253.2,2026.4,2224.6z"></path> </g> </g> <g> <path class="st159" d="M2015,2143.6c-2.5-135.6,109.3-180.6,107.7-266.6c-1.6-86-114.5-101.8-114.5-101.8 s-112.3,19.8-110.8,105.9C1898.9,1967.1,2012.5,2008,2015,2143.6z"></path> </g> <g class="st3"> <path class="st1" d="M2101.6,1804.3c17.2,24.2,29.2,55.2,29.9,95c2.2,122.2-108.8,148-144.9,285.1 c16.2,36.1,27.6,81.3,28.7,142.4c-4.2-233,158.7-239.9,156-387.6C2170.1,1872.7,2137.3,1830.6,2101.6,1804.3z"></path> </g> <g> <path class="st7" d="M2016,2345.4c-6.3,0-11.4-5-11.5-11.3c-2.3-125.7-49.7-184.3-91.6-235.9c-34.8-43-67.7-83.5-69-153 c-2.8-155.4,162.2-192.3,163.9-192.7c1.4-0.3,2.9-0.3,4.4-0.1c1.7,0.3,167.9,31.2,170.7,186.6c1.3,69.6-32,111.5-67.3,155.7 c-42.3,53.1-90.3,113.3-88,238.9c0,0.1,0,0.1,0,0.2c0,6.3-5,11.4-11.3,11.5C2016.1,2345.4,2016.1,2345.4,2016,2345.4z M2010.4,1775.6c-19,4.6-145.7,40.4-143.4,169.2c1.1,61.5,30.2,97.4,63.8,138.9c31.3,38.6,65.5,80.8,83.7,149.5 c16.7-69.5,51.4-113,83-152.7c34-42.7,63.4-79.6,62.3-140.9C2157.5,1810.7,2029.6,1779.6,2010.4,1775.6z"></path> </g> <g> <path class="st160" d="M2202.7,1666.9l-13.5,56.1c-6.1,25.4-25.7,45.3-50.9,51.9h0c-75.1,19.7-154.2,18.5-228.7-3.5h0 c-25-7.4-44-27.9-49.3-53.5l-11.8-56.4"></path> <path class="st1" d="M2030.1,1791.4c-40.9,0-81.7-5.8-121.3-17.5c-25.9-7.7-45.5-28.9-51-55.3l-11.8-56.4 c-0.3-1.3,0.6-2.6,1.9-2.9c1.3-0.3,2.6,0.6,2.9,1.9l11.8,56.4c5.2,24.7,23.4,44.4,47.6,51.6c74.1,21.9,152.7,23.1,227.4,3.4 c24.4-6.4,43.2-25.6,49.1-50.1l13.5-56c0.3-1.3,1.7-2.2,3-1.8c1.3,0.3,2.1,1.7,1.8,3l-13.5,56c-6.3,26.3-26.5,46.9-52.7,53.7 C2103.2,1786.7,2066.7,1791.4,2030.1,1791.4z"></path> </g> <g class="st161"> <g> <path class="st6" d="M1882.5,1664.7l11.7,55.9c3,14.1,9.7,26.8,19.1,37.1c9.4,10.2,21.6,18,35.4,22c10.7,3.2,21.4,5.9,32.3,8.3 c-21.9-2.9-43.6-7.5-65-13.8c-12.5-3.7-23.5-10.7-32-19.9c-8.5-9.2-14.6-20.7-17.3-33.5l-11.8-56.4L1882.5,1664.7z"></path> </g> </g> <g> <g class="st162"> <path class="st1" d="M2032.8,1783.5C2032.8,1783.5,2032.8,1783.5,2032.8,1783.5c25.8-1.9,51.6-6.2,76.8-12.8 c25.2-6.6,44.8-26.6,50.9-51.9l12.6-52.3l-324.8-4.9l2.5,12.1l240.8,3.6l-13.5,56.1C2072.5,1756.8,2055.3,1775.6,2032.8,1783.5 z M2062.1,1676.8l-211.2-3.2l-0.8-3.8l212.9,3.2L2062.1,1676.8z"></path> </g> </g> <g> <path class="st4" d="M1821,1498.5c-64.9,5.2-174.6,69.8-133.7,302.7c0.5,3.1,4.6,3.9,6.2,1.3c18.1-28.5,102.4-162.8,188.4-158.2 "></path> <path class="st1" d="M1690.7,1806.4c-0.4,0-0.8,0-1.2-0.1c-2.4-0.5-4.2-2.3-4.7-4.7c-19.1-108.5-7.1-194.4,34.6-248.4 c36.4-47.1,83-55.6,101.3-57.1c1.4-0.1,2.6,0.9,2.7,2.3c0.1,1.4-0.9,2.6-2.3,2.7c-17.7,1.4-62.6,9.7-97.8,55.2 c-40.9,52.9-52.5,137.4-33.7,244.5c0.1,0.6,0.5,0.7,0.7,0.8c0.2,0.1,0.7,0.1,1-0.4l0.9-1.4c85.6-134.4,150.4-160.1,189.8-158 c1.4,0.1,2.4,1.2,2.3,2.6c-0.1,1.4-1.1,2.3-2.6,2.3c-38-2-101,23.4-185.3,155.7l-0.9,1.4 C1694.5,1805.4,1692.7,1806.4,1690.7,1806.4z"></path> </g> <g class="st161"> <g> <path class="st6" d="M1713.3,1773.5c-8.3,12.1-14.5,21.9-18.1,27.6c-1.7,2.6-5.7,1.8-6.2-1.2c-41-232.9,68.7-297.4,133.7-302.7 l6.6,15.8C1769,1529.5,1692.9,1595.5,1713.3,1773.5z"></path> </g> </g> <g> <path class="st7" d="M1690.7,1821.3c-1.4,0-2.7-0.1-4.1-0.4c-8.4-1.7-14.9-8.3-16.4-16.7c-20.1-114.4-7.5-201.9,37.5-260.1 c40-51.8,91.6-61.2,111.8-62.8c9.5-0.8,17.9,6.3,18.6,15.9c0.8,9.5-6.3,17.9-15.9,18.6c-15.7,1.3-55.6,8.6-87.2,49.5 c-33.7,43.6-46,111.4-36,197.4c64.8-93.1,126.4-138.9,183.8-135.8c9.5,0.5,16.9,8.7,16.4,18.2c-0.5,9.5-8.6,16.9-18.2,16.4 c-27.8-1.4-87.3,15.9-172.1,148.9l-0.9,1.4C1704.2,1817.8,1697.7,1821.3,1690.7,1821.3z M1704.3,1798.1L1704.3,1798.1 L1704.3,1798.1z"></path> </g> <g> <path class="st163" d="M2228.3,1504.7c64.8,7.2,176.1,75.1,128.1,306.6c-0.6,3-4.7,3.7-6.3,1.1 c-17.3-29-101.3-165.9-187.4-163.9"></path> <path class="st1" d="M2353,1816.5c-2,0-4-1.1-5-2.9c-22.9-38.3-103.3-162.7-183.5-162.7c-0.6,0-1.2,0-1.7,0 c-1.4-0.1-2.5-1-2.5-2.4c0-1.4,1-2.5,2.4-2.5c0.6,0,1.3,0,1.9,0c80.5,0,158,115.3,187.7,165.1c0.3,0.5,0.7,0.5,1,0.4 c0.2,0,0.7-0.2,0.8-0.7c21.8-105.1,12.5-189.4-26.9-243.7c-34.9-48.1-80.9-58-99-60c-1.4-0.2-2.3-1.4-2.2-2.7 c0.1-1.4,1.3-2.4,2.7-2.2c18.8,2.1,66.4,12.3,102.5,62c40.3,55.5,49.9,141.1,27.8,247.6c-0.5,2.4-2.4,4.2-4.8,4.6 C2353.7,1816.5,2353.3,1816.5,2353,1816.5z"></path> </g> <g> <path class="st4" d="M2356.4,1811.3c-0.7,3-4.7,3.7-6.3,1.1c-8.9-14.8-35.2-58-70.4-96.3c-33.2-36.2-74.4-68.1-116.1-67.6 c-0.3,0-0.6,0-0.9,0l0.4-0.9l65.2-142.9c18.2,2,40,8.8,61,22.7C2343,1562.9,2390.9,1644.7,2356.4,1811.3z"></path> <path class="st1" d="M2353,1816.5c-2.1,0-4-1.1-5-2.9c-21.8-36.6-46.1-69.7-70.1-95.9c-40.7-44.3-78.8-66.8-113.4-66.8 c-0.3,0-0.6,0-0.9,0l-1,0c-0.8,0-1.6-0.4-2-1.1c-0.4-0.7-0.5-1.6-0.2-2.3l0.4-0.9l65.2-142.9c0.4-1,1.5-1.5,2.5-1.4 c21.1,2.3,43.1,10.5,62.1,23.1c41.9,27.7,106.5,101.7,68.2,286.5c0,0,0,0,0,0c-0.5,2.4-2.4,4.2-4.8,4.6 C2353.6,1816.4,2353.3,1816.5,2353,1816.5z M2166.5,1646c35.4,0.8,74.1,23.8,115,68.4c24.2,26.4,48.7,59.8,70.7,96.7 c0.3,0.5,0.7,0.5,1,0.4c0.2,0,0.7-0.2,0.8-0.7c37.7-181.9-25.2-254.3-66.1-281.3c-17.8-11.8-38.3-19.6-58.1-22.1L2166.5,1646z M2356.4,1811.3L2356.4,1811.3L2356.4,1811.3z"></path> </g> <g class="st162"> <path class="st1" d="M2279.7,1716c-33.2-36.2-74.4-68.1-116.1-67.6c-0.2-0.3-0.4-0.6-0.5-0.9l65.2-142.9c18.2,2,40,8.8,61,22.7 C2304.3,1574.1,2305.7,1636.1,2279.7,1716z"></path> </g> <g> <path class="st7" d="M2352.9,1831.3c-7.2,0-13.9-3.7-17.7-10.1c-22-36.9-99.4-157.1-172.2-155.5c-9.6,0.3-17.5-7.4-17.7-16.9 c-0.2-9.6,7.4-17.5,16.9-17.7c0.7,0,1.5,0,2.2,0c73.6,0,142.3,83.8,181.1,141.8c12.3-84.6,1.9-152.2-30.6-197.1 c-32.3-44.5-76-52.5-88.6-53.9c-9.5-1.1-16.3-9.6-15.3-19.1c1.1-9.5,9.6-16.3,19.1-15.3c20.8,2.3,73.3,13.6,112.8,68 c43.4,59.8,53.6,147,30.3,259.3c-1.7,8.4-8.4,14.8-16.9,16.2C2355.3,1831.2,2354.1,1831.3,2352.9,1831.3z"></path> </g> <g> <path class="st6" d="M2043.1,412.9c0,0,287.1,175,312.6,650.8c21.7,405.4-154.5,606.8-154.5,606.8 c-72.7,25.7-149.8,34.3-225.3,26.1c-43.9-4.8-87.3-15.3-129-31.5c0,0-75.9-92.2-116.1-274.1c-1.4-6.3-2.7-12.6-4-19.1 c-14.1-70.3-22.6-153.2-19.8-248.5c0.6-22.5,2-45.6,4-69.5c0.1-0.9,0.2-1.9,0.3-2.8c8.3-96.2,26.9-179.6,51.4-251.5 c0.8-2.3,1.6-4.6,2.4-6.8C1861.3,516.2,2043.1,412.9,2043.1,412.9z"></path> <path class="st1" d="M2030.8,1702.1c-18.4,0-36.9-1-55.2-3c-44.4-4.9-88-15.5-129.7-31.6c-0.4-0.2-0.7-0.4-1-0.7 c-0.8-0.9-76.8-94.7-116.6-275.1c-1.4-6.3-2.7-12.7-4-19.2c-15.7-78.7-22.4-162.5-19.9-249c0.6-22.4,2-45.8,4-69.6 c0.1-0.9,0.2-1.9,0.3-2.9c7.7-89.2,25-174.1,51.5-252c0.8-2.3,1.6-4.6,2.4-6.9c95.7-274.3,277.5-380.3,279.4-381.3 c0.8-0.4,1.7-0.4,2.5,0c0.7,0.4,73.1,45.2,147.4,147.6c68.6,94.4,153.1,258.8,166.4,505.2c21.6,401.8-153.3,606.5-155.1,608.5 c-0.3,0.3-0.6,0.6-1,0.7C2147.4,1692.2,2089.1,1702.1,2030.8,1702.1z M1848.4,1663.1c41,15.8,84,26.3,127.8,31.1 c75.2,8.2,152.5-0.7,223.6-25.7c9.5-11.3,174.4-214.4,153.5-604.5c-13.2-245.1-97.1-408.4-165.3-502.3 c-68.5-94.4-135.1-139.4-144.9-145.7c-16.3,9.9-185.1,117.5-275.9,377.9c-0.8,2.3-1.6,4.5-2.3,6.8 c-26.4,77.6-43.6,162-51.2,250.9c-0.1,1-0.2,1.9-0.3,2.8c-2,23.7-3.3,47.1-4,69.4c-2.6,86.1,4.1,169.5,19.8,247.9 c1.3,6.5,2.6,12.8,4,19.1C1771.3,1562.9,1842.4,1655.5,1848.4,1663.1z"></path> </g> <g> <path class="st4" d="M2296.5,754.7c-168.9-38.8-344.1-41.4-514.1-7.8c99.1-244.9,262.3-337.6,262.3-337.6 S2204.8,507,2296.5,754.7z"></path> <path class="st1" d="M2296.5,757.2c-0.2,0-0.4,0-0.6-0.1c-169.7-38.9-342.3-41.6-513.1-7.8c-0.9,0.2-1.8-0.2-2.4-0.8 c-0.6-0.7-0.7-1.7-0.4-2.5c98.3-242.9,261.7-337.9,263.3-338.8c0.8-0.4,1.7-0.4,2.5,0c1.6,1,162,100.9,252.9,346.6 c0.3,0.9,0.1,1.8-0.5,2.5C2297.8,756.9,2297.2,757.2,2296.5,757.2z M2021.4,720.9c90.7,0,181.3,10.1,271.1,30.4 c-86.3-229.5-233-329.3-248-339c-15.3,9.3-165,104.6-258.2,331.4C1864.5,728.5,1943,720.9,2021.4,720.9z"></path> </g> <g> <g class="st162"> <path class="st1" d="M2321.9,1057.3c-22.1-411.7-239.9-598.1-298.3-640.9c1.8-1.2,3.3-2.2,4.7-3.1c-5.5,3.6-14.4,9.6-25.9,18.3 c78.4,81.7,187.7,237.6,220.4,492.4C2195,860.3,2132,815.4,2058,814.3c-101-1.5-184.2,79.1-185.7,180.2 c-1.5,101,79.1,184.2,180.2,185.7c85.7,1.3,158.6-56.6,179.6-135.9c4.8,174.8-27.3,309.4-63.6,404 c-49.3,128.6-178.3,209.4-315.3,195c-0.8-0.1-1.5-0.2-2.3-0.2c-5.4-0.6-10.9-1.3-16.3-2.1c-2.3-0.2-4.6-0.3-6.9-0.6 c-0.8-0.1-1.5-0.2-2.3-0.2c-0.8-0.1-1.6-0.2-2.4-0.3c9.4,14.4,15.4,21.6,15.4,21.6c36.9,14.3,75,24.1,113.7,29.6 c72.3,6.5,145.8-2.5,215.3-27.1C2167.4,1664.1,2343.7,1462.7,2321.9,1057.3z"></path> </g> <g class="st162"> <path class="st1" d="M1823.1,1639.9C1823.1,1639.9,1823.1,1639.9,1823.1,1639.9c-0.1-0.2-0.3-0.4-0.4-0.6 C1822.8,1639.5,1823,1639.7,1823.1,1639.9z"></path> </g> <g class="st162"> <path class="st1" d="M1822.6,1639.2C1822.6,1639.2,1822.7,1639.2,1822.6,1639.2C1822.7,1639.2,1822.6,1639.2,1822.6,1639.2 L1822.6,1639.2z"></path> </g> </g> <g class="st161"> <g> <path class="st6" d="M2066.5,427.2c-12.7-9.7-20.2-14.3-20.2-14.3s-163.1,92.7-262.3,337.6c11-2.2,22-4.2,33-6.1 C1905.3,538.7,2037.5,445.7,2066.5,427.2z"></path> </g> </g> <g> <path class="st7" d="M2296.5,772c-1.3,0-2.6-0.1-3.9-0.4c-167.6-38.5-338.2-41.1-506.9-7.7c-6.2,1.2-12.6-1-16.7-6 c-4.1-4.9-5.1-11.6-2.7-17.5c79-195,198.6-296.2,246.3-330.6c19.3-13.9,45-13.6,63.9,1c46.7,35.9,163.1,140.6,236.2,337.9 c2.2,6,1,12.7-3.2,17.4C2306.1,769.9,2301.4,772,2296.5,772z M2021.4,706c82.7,0,165.2,8.3,247.2,25 c-70-169.7-171.2-260.5-213.2-292.7c-6.7-5.1-15.7-5.3-22.6-0.3c-42.9,30.9-146.9,118.7-222,286.2 C1880.9,712,1951.2,706,2021.4,706z"></path> </g> <g> <path class="st7" d="M2032.9,1713.4c-2.7,0-5.4,0-8.1-0.1c-62.7-1-124.2-12.9-182.7-35.6c-2.8-1.1-5.2-2.8-7.1-5.1 c-7.1-8.7-174.1-216.7-139.9-623.6c9.4-111.2,33.3-215.1,71.2-308.6c2.2-5.4,7-9.3,12.7-10.5c173.5-34.3,348.8-31.7,521.1,7.8 c5.7,1.2,10.5,5.3,12.6,10.9c35,94.6,55.8,199.1,61.8,310.6c21.9,407.7-151.4,610.6-158.8,619.1c-2,2.2-4.5,3.9-7.3,4.9 C2151.9,1703.3,2092.8,1713.4,2032.9,1713.4z M1859.1,1647.1c53.3,20.1,109.2,30.7,166.2,31.6c57,0.9,113.2-8.1,167.1-26.5 c21.9-27.7,167.1-226.1,147.5-591.1c-5.6-104.5-24.6-202.6-56.5-291.6c-161.6-35.8-325.9-38.3-488.6-7.4 c-34.6,88-56.5,185.4-65.3,289.8C1698.9,1417.1,1838,1618.9,1859.1,1647.1z M2202.7,1666.9L2202.7,1666.9L2202.7,1666.9z M2202.7,1666.9L2202.7,1666.9L2202.7,1666.9z"></path> </g> <g> <path class="st7" d="M2030.1,1802.2c-41.9,0-83.8-6-124.3-18c-29.8-8.8-52.2-33.1-58.6-63.5l-11.8-56.4 c-1.5-7.2,3.1-14.2,10.3-15.7c7.2-1.5,14.2,3.1,15.7,10.3l11.8,56.4c4.4,20.8,19.7,37.4,40.1,43.4 c72.2,21.3,148.8,22.5,221.6,3.4c20.5-5.4,36.4-21.6,41.4-42.2l13.5-56c1.7-7.1,8.9-11.5,16.1-9.8c7.1,1.7,11.5,8.9,9.8,16.1 l-13.5,56c-7.3,30.2-30.5,53.8-60.5,61.7C2105.1,1797.4,2067.6,1802.2,2030.1,1802.2z"></path> </g> <g> <ellipse transform="matrix(1.514923e-02 -0.9999 0.9999 1.514923e-02 1020.2473 3005.5806)" class="st4" cx="2035.9" cy="984.9" rx="164.5" ry="164.5"></ellipse> <path class="st1" d="M2035.9,1151.9c-0.9,0-1.7,0-2.6,0c-44.6-0.7-86.3-18.7-117.3-50.7c-31.1-32-47.8-74.2-47.1-118.8 c0.7-44.6,18.7-86.3,50.7-117.3c32-31.1,74.3-47.9,118.8-47.1c44.6,0.7,86.3,18.7,117.3,50.7c31.1,32,47.8,74.2,47.1,118.8 C2201.5,1078.6,2126.8,1151.9,2035.9,1151.9z M2035.8,822.8c-42.4,0-82.3,16.2-112.8,45.7c-31.1,30.1-48.5,70.6-49.2,113.9 c-0.7,43.3,15.6,84.2,45.7,115.3c30.1,31.1,70.6,48.5,113.9,49.2c0.8,0,1.7,0,2.5,0c88.2,0,160.7-71.1,162-159.6l2.5,0l-2.5,0 c0.7-43.3-15.6-84.2-45.7-115.3c-30.1-31.1-70.6-48.5-113.9-49.2C2037.5,822.8,2036.6,822.8,2035.8,822.8z"></path> </g> <g class="st161"> <g> <path class="st6" d="M2078.2,825.2c-3.7-0.3-7.5-0.5-11.3-0.6c-90.8-1.4-165.6,71.2-167,162c-1.2,80.1,55,147.7,130.6,163.5 c-85.6-7-152.3-79.3-151-166.5c1.4-90.9,76.2-163.4,167-162C2057.4,821.9,2068,823.1,2078.2,825.2z"></path> </g> </g> <g class="st162"> <path class="st164" d="M2200.4,987.4c-1.4,90.8-76.1,163.4-167,162c-28.6-0.4-55.3-8.1-78.6-21.3c11.8,2.9,24.1,4.5,36.8,4.7 c90.9,1.4,165.6-71.2,167-162c0.9-62.3-32.9-117-83.5-145.7C2148,842.9,2201.5,909.2,2200.4,987.4z"></path> <path class="st1" d="M2035.9,1151.9c-0.9,0-1.7,0-2.6,0c-28-0.4-55.5-7.9-79.7-21.7c-1.1-0.6-1.5-1.9-1.1-3.1 c0.5-1.1,1.7-1.8,2.9-1.5c11.8,2.9,24,4.4,36.2,4.6c43.3,0.5,84.2-15.6,115.3-45.7c31.1-30.1,48.5-70.6,49.2-113.9 c0.9-59.3-30.6-114.3-82.3-143.5c-1.1-0.6-1.5-1.9-1.1-3.1c0.4-1.1,1.7-1.8,2.9-1.5c76,18.6,128.3,86.3,127.2,164.8l0,0 C2201.4,1078.6,2126.8,1151.9,2035.9,1151.9z M1971.9,1133.8c19.4,8.3,40.3,12.8,61.5,13.1c0.8,0,1.7,0,2.5,0 c88.2,0,160.6-71.1,162-159.6c1.1-70.1-41.9-131.5-106.5-154.8c44.2,31.7,70.5,83.2,69.7,138.2c-0.7,44.6-18.7,86.3-50.7,117.3 c-32,31.1-74.4,47.9-118.8,47.1C1985,1135.2,1978.4,1134.7,1971.9,1133.8z M2200.4,987.4L2200.4,987.4L2200.4,987.4z"></path> </g> <g> <path class="st7" d="M2035.9,1162.7c-0.9,0-1.8,0-2.7,0c-47.5-0.7-91.9-19.9-124.9-54c-33.1-34.1-50.9-79-50.2-126.5 c0.7-47.5,19.9-91.9,54-125c34.1-33.1,78.9-51,126.5-50.2c47.5,0.7,91.9,19.9,124.9,54c33.1,34.1,50.9,79,50.2,126.5 C2212.2,1084.7,2132.7,1162.7,2035.9,1162.7z M2035.8,833.6c-39.5,0-76.8,15.1-105.2,42.7c-29,28.1-45.3,65.9-45.9,106.3 c-0.6,40.4,14.5,78.6,42.7,107.6c28.1,29,65.9,45.3,106.3,45.9c0.8,0,1.6,0,2.3,0c82.3,0,149.9-66.3,151.2-148.9l13.3,0.2 l-13.3-0.2c0.6-40.4-14.5-78.6-42.7-107.6c-28.1-29-65.9-45.3-106.3-45.9C2037.4,833.6,2036.6,833.6,2035.8,833.6z"></path> </g> <g> <ellipse transform="matrix(1.514939e-02 -0.9999 0.9999 1.514939e-02 1020.3352 3001.6953)" class="st165" cx="2033.9" cy="982.9" rx="104.7" ry="104.7"></ellipse> </g> <g class="st3"> <g> <path class="st6" d="M2138.6,984.5c-0.9,57.8-48.5,103.9-106.3,103.1c-12.5-0.2-24.5-2.6-35.6-6.8c1.2,0.1,2.3,0.1,3.5,0.1 c57.8,0.9,105.4-45.3,106.3-103.1c0.7-45.3-27.5-84.3-67.5-99.5C2095.2,881,2139.5,927.9,2138.6,984.5z"></path> </g> </g> <g class="st162"> <path class="st1" d="M2079.3,887.1c-1.8-0.1-3.6-0.2-5.4-0.2c-57.8-0.9-105.4,45.3-106.3,103.1c-0.7,43.5,25.3,81.2,62.9,97.6 c-55.3-3.7-98.5-50.1-97.7-106.1c0.9-57.8,48.4-103.9,106.2-103.1C2053.3,878.7,2067,881.7,2079.3,887.1z"></path> </g> <g> <path class="st7" d="M2033.9,1099.9c-0.6,0-1.2,0-1.8,0c-64.5-1-116.2-54.3-115.3-118.8c0.5-31.3,13.1-60.5,35.5-82.2 c22.4-21.8,52.2-33.4,83.3-33c64.5,1,116.2,54.3,115.3,118.8l0,0C2150,1048.6,2097.7,1099.9,2033.9,1099.9z M2033.9,890.6 c-24.1,0-46.9,9.2-64.2,26.1c-17.7,17.2-27.7,40.2-28,64.9c-0.8,50.9,40,92.9,90.9,93.7c50.9,0.9,92.9-40,93.7-90.9 c0.8-50.9-40-92.9-90.9-93.7C2034.8,890.6,2034.4,890.6,2033.9,890.6z M2138.6,984.5L2138.6,984.5L2138.6,984.5z"></path> </g> <g class="st0"> <path class="st6" d="M1966.7,581.5c-23.4-8.8-61.3,31.7-72.3,59c-11.4,28.2-13.5,47.1,0,52.9c18.9,8,34.7-11.1,46.4-36.8 C1949.1,638.5,1995.6,592.4,1966.7,581.5z"></path> </g> <g class="st0"> <path class="st6" d="M2024.9,523.1c-20.6-6.8-49.3,9.8-56.2,22.3c-7.2,13-7.4,22.3,4.7,26.5c16.8,5.9,28.5-2.1,36.2-13.8 C2015,549.8,2050.4,531.4,2024.9,523.1z"></path> </g> <g> <path class="st4" d="M2087,1646.2c-1.2,81.1-66.7,160-66.7,160s-0.2-0.3-0.7-0.9c-6.8-8.9-62.3-84.9-61.1-161 c1.1-73.1,54.8-131,64.8-141.1c1-1,1.6-1.6,1.6-1.6S2088.2,1565.7,2087,1646.2z"></path> <path class="st1" d="M2020.3,1808.7C2020.3,1808.7,2020.3,1808.7,2020.3,1808.7c-0.8,0-1.5-0.4-1.9-0.9c0,0-0.3-0.3-0.7-1 c-6.4-8.5-62.7-85.3-61.6-162.5c1.1-73.8,54.8-131.9,65.5-142.8c1.1-1.1,1.7-1.6,1.7-1.6c1-0.9,2.5-0.9,3.5,0.1 c0.6,0.6,64,65.8,62.7,146.4c-1.2,81-66.6,160.7-67.2,161.5C2021.8,1808.3,2021.1,1808.7,2020.3,1808.7z M2024.9,1505.1 c-11,11.2-62.8,67.8-63.9,139.2c-1.1,71.9,49.1,143.8,59.4,157.8c10.9-14,63-84.6,64.1-156l0,0 C2085.6,1575,2034.9,1516,2024.9,1505.1z"></path> </g> <g class="st161"> <g> <path class="st6" d="M2034.5,1499.7c0,0,3.9,3.9,9.6,11c-17.7,20-57,71.3-57.9,133.7c-0.9,61.2,34.8,122.3,52.3,148.6 c-5.2,7.3-8.6,11.4-8.6,11.4s-0.2-0.3-0.7-0.9c-6.7-8.9-62.2-84.9-61.1-161c1.1-73.1,54.8-131,64.8-141.1 C2033.9,1500.2,2034.5,1499.7,2034.5,1499.7z"></path> </g> </g> <g class="st162"> <path class="st1" d="M2087,1646.2c-1.2,81.1-66.7,160-66.7,160s-0.2-0.3-0.7-0.9l3.7-302.2c1-1,1.6-1.6,1.6-1.6 S2088.2,1565.7,2087,1646.2z"></path> </g> <g> <path class="st7" d="M2020.3,1819.5c-0.1,0-0.1,0-0.2,0c-4-0.1-7.8-1.9-10.3-5.1c-2.7-3.5-65.9-85.5-64.6-170.3 c1.3-85.2,67.7-149.4,70.5-152.1c5.2-5,13.5-4.9,18.6,0.3c2.7,2.8,67.2,69,65.9,154.2c-1.3,84.8-66.9,164.9-69.7,168.3 C2028,1817.7,2024.3,1819.5,2020.3,1819.5z M2024.6,1521.5c-17.2,20-52,67.2-52.8,123c-0.8,56.1,31.7,113.1,48.8,139 c17.9-25.5,52.2-81.6,53-137.5C2074.5,1590.3,2041.3,1542,2024.6,1521.5z"></path> </g> </g> </g> </g> </svg> 