<?xml version="1.0" encoding="UTF-8"?> <!-- Generator: Adobe Illustrator 21.0.0, SVG Export Plug-In . SVG Version: 6.00 Build 0) --> <svg xmlns="http://www.w3.org/2000/svg" xmlns:xlink="http://www.w3.org/1999/xlink" id="Слой_1" x="0px" y="0px" viewBox="0 0 50 50" style="enable-background:new 0 0 50 50;" xml:space="preserve"> <style type="text/css"> .st0{display:none;opacity:0.75;} .st1{display:inline;fill:#FA6FF5;} .st2{display:none;opacity:0.75;fill:url(#SVGID_1_);} .st3{display:none;opacity:0.75;fill:url(#SVGID_2_);} .st4{fill:#FFDD61;} .st5{display:none;opacity:0.5;fill:url(#SVGID_3_);} .st6{display:none;opacity:0.75;fill:url(#SVGID_4_);} .st7{display:none;opacity:0.5;fill:url(#SVGID_5_);} .st8{display:none;opacity:0.75;fill:url(#SVGID_6_);} .st9{display:none;} .st10{display:inline;fill:#FFFFFF;} </style> <g> <g class="st0"> <path class="st1" d="M4.6,9.1c3.2,0,6.8,1.3,10.9,3.9c3.1,2,5.5,3.2,8.1,3.2c1.8,0,3.7-0.7,5.6-2c0.4-0.3,0.8-0.5,1.2-0.8 c1.3-0.9,2.7-1.9,4.3-2.7c1.9-0.9,3.7-1.3,5.6-1.3c1.3,0,2.6,0.2,3.9,0.6c3.3,0.9,5.7,2.9,7.1,5.7c1.1,2.3,1.4,5,0.9,7.5 c-1,4.8-3,8.7-6.6,12.6c-4.6,5-10.7,8.2-17.3,9.3c-1.4,0.2-2.9,0.3-4.5,0.3c-3.3,0-6.8-0.5-10.1-1.5c-3.4-1-6.6-2.4-9.4-4.2 c-1.8-1.2-4.3-3.2-6.5-6.2c-2.2-3.1-3.4-6.7-3.7-10.6c-0.2-3.1,0.6-6.3,2.3-8.9c1.6-2.4,3.8-4.1,6.1-4.6C3.2,9.2,3.9,9.1,4.6,9.1 L4.6,9.1z M4.6,9C3.9,9,3.2,9.1,2.5,9.2c-4.6,0.9-8.9,6.8-8.4,13.5c0.7,8.6,5.9,14.1,10.2,16.9c5.6,3.7,12.9,5.7,19.6,5.7 c1.5,0,3-0.1,4.5-0.3c6.2-0.9,12.5-4,17.4-9.3c3.9-4.2,5.7-8.2,6.6-12.6c0.9-4.4-0.7-11.2-8.1-13.3c-1.4-0.4-2.8-0.6-4-0.6 c-5,0-8.3,3-11.1,4.9c-2,1.4-3.8,2-5.5,2c-2.6,0-5-1.3-8-3.2C11.5,10.4,7.9,9,4.6,9L4.6,9z"></path> </g> <linearGradient id="SVGID_1_" gradientUnits="userSpaceOnUse" x1="-0.735" y1="-1575.9915" x2="54.735" y2="-1575.9915" gradientTransform="matrix(-1 0 0 -1 50 -1550)"> <stop offset="0" style="stop-color:#FA6FF5"></stop> <stop offset="1" style="stop-color:#940E8C"></stop> </linearGradient> <path class="st2" d="M-3.4,33.8c3.6,7.9,10.3,11.3,15.2,12.4c7.9,1.9,17.3,0.7,24-3c5.4-3,10.2-7.9,12.8-14.6 c2.1-5.3,2.5-9.6,1.8-14.1c-0.7-4.4-4.5-10.3-12-9.8C30.9,5.4,28.4,10.6,26,14c-3.4,4.9-7.2,4.8-12.9,3.4 c-5.7-1.3-10.2-1.1-13.4,0.9C-4.2,20.7-6.2,27.7-3.4,33.8z"></path> <linearGradient id="SVGID_2_" gradientUnits="userSpaceOnUse" x1="4.0556" y1="-1581.0342" x2="56.5" y2="-1581.0342" gradientTransform="matrix(-1 0 0 -1 50 -1550)"> <stop offset="0" style="stop-color:#260B62"></stop> <stop offset="1" style="stop-color:#531499"></stop> </linearGradient> <path class="st3" d="M1.9,32.8c6.7-1,11.5,0.2,14.2,4.7c3,5,4,9.2,9.8,11.2c7.2,2.4,16.3-2.7,19.2-13c1.4-5.1,1.7-12.4-3.4-18.3 C37.9,13,31,11.8,25.5,14.1c-4,1.7-9.1,3.4-14.4,0.7C5.9,12-0.2,12-4.3,16.8C-8.9,22.1-6,34,1.9,32.8z"></path> <path class="st4" d="M2.7,33.4c3.9,6.9,10.5,9.4,15.1,10.4c5.7,1.2,14.2,0.6,19.7-2.7c4.8-2.9,8.9-7.6,10.8-13.9 c1.5-5,1.5-9,0.5-13c-1-4-4.9-9.1-11.7-8c-6.8,1.1-8.7,6-10.6,9.4c-2.7,4.8-5.6,5.8-10.9,5c-5.3-0.8-9.2-0.6-12,1.4 C1.4,23.7-0.3,28,2.7,33.4z"></path> <linearGradient id="SVGID_3_" gradientUnits="userSpaceOnUse" x1="7.5497" y1="-1564.6095" x2="14.6812" y2="-1571.741" gradientTransform="matrix(-1 0 0 -1 50 -1550)"> <stop offset="0" style="stop-color:#940E8C"></stop> <stop offset="1" style="stop-color:#FA6FF5"></stop> </linearGradient> <circle class="st5" cx="38.9" cy="18.2" r="5"></circle> <linearGradient id="SVGID_4_" gradientUnits="userSpaceOnUse" x1="18.9479" y1="10.8209" x2="22.5136" y2="7.2552"> <stop offset="0" style="stop-color:#260B62"></stop> <stop offset="1" style="stop-color:#531499"></stop> </linearGradient> <circle class="st6" cx="20.7" cy="9" r="2.5"></circle> <linearGradient id="SVGID_5_" gradientUnits="userSpaceOnUse" x1="30.8162" y1="41.6239" x2="38.3803" y2="41.6239"> <stop offset="0" style="stop-color:#FA6FF5"></stop> <stop offset="1" style="stop-color:#940E8C"></stop> </linearGradient> <circle class="st7" cx="34.6" cy="41.6" r="3.8"></circle> <linearGradient id="SVGID_6_" gradientUnits="userSpaceOnUse" x1="-1.8444" y1="44.2804" x2="-6.153825e-02" y2="42.4974"> <stop offset="0" style="stop-color:#531499"></stop> <stop offset="1" style="stop-color:#260B62"></stop> </linearGradient> <circle class="st8" cx="-1" cy="43.4" r="1.3"></circle> <g class="st9"> <path class="st10" d="M17.6,23.1c0.5,0,1,0.1,1.4,0.3v0.8c-0.4-0.3-0.8-0.4-1.3-0.4c-0.5,0-0.7,0.1-0.7,0.4c0,0.7,2.3,0.5,2.3,2 c0,0.9-0.8,1.2-1.7,1.2c-0.6,0-1.1-0.1-1.6-0.4v-0.9c0.5,0.3,1,0.4,1.5,0.4c0.5,0,0.8-0.1,0.8-0.4c0-0.8-2.3-0.5-2.3-2 C16.1,23.5,16.8,23.1,17.6,23.1z"></path> <path class="st10" d="M20.8,23.5v1h0.9v0.7h-0.9v1.1c0,0.3,0.2,0.4,0.5,0.4c0.2,0,0.4,0,0.5-0.1v0.7c-0.2,0.1-0.5,0.1-0.8,0.1 c-0.6,0-1-0.3-1-1v-1.3h-0.5v-0.7H20v-0.8L20.8,23.5z"></path> <path class="st10" d="M24.4,24.5h0.9L24,27.8c-0.3,0.8-0.8,1.1-1.3,1.1c-0.2,0-0.3,0-0.5-0.1v-0.7c0.1,0,0.2,0,0.3,0 c0.3,0,0.5-0.2,0.7-0.6l0,0l-1.4-2.9h0.9l0.8,2L24.4,24.5z"></path> <path class="st10" d="M26.5,23v4.4h-0.8V23H26.5z"></path> <path class="st10" d="M28.6,24.4c1.2,0,1.6,0.9,1.4,1.8h-2c0.1,0.4,0.5,0.6,1,0.6c0.3,0,0.6-0.1,0.9-0.2v0.7 c-0.3,0.1-0.6,0.2-1.1,0.2c-0.9,0-1.7-0.5-1.7-1.5C27.1,24.9,27.9,24.4,28.6,24.4z M28.6,25.1c-0.4,0-0.7,0.2-0.7,0.6h1.3 C29.3,25.5,29.1,25.1,28.6,25.1z"></path> </g> <g class="st9"> <path class="st10" d="M15.8,31.1l0.7-1.7h0.2l0.7,1.7h-0.2l-0.2-0.4h-0.9L16,31.1H15.8z M16.3,30.5H17l-0.4-0.8c0,0,0,0,0-0.1 c0,0,0,0,0,0.1L16.3,30.5z"></path> <path class="st10" d="M17.9,29.4v0.7c0.1-0.1,0.2-0.2,0.5-0.2c0.3,0,0.6,0.3,0.6,0.6s-0.2,0.6-0.6,0.6c-0.2,0-0.4-0.1-0.5-0.2v0.2 h-0.2v-1.7H17.9z M18.3,30.1c-0.2,0-0.4,0.1-0.4,0.3v0.3c0.1,0.2,0.2,0.3,0.4,0.3c0.2,0,0.4-0.2,0.4-0.4 C18.7,30.3,18.6,30.1,18.3,30.1z"></path> <path class="st10" d="M19.6,29.9c0.2,0,0.3,0,0.4,0.1v0.2c-0.1-0.1-0.3-0.1-0.4-0.1c-0.1,0-0.3,0-0.3,0.2c0,0.3,0.7,0.1,0.7,0.6 c0,0.2-0.2,0.3-0.5,0.3c-0.2,0-0.3,0-0.5-0.1v-0.2c0.1,0.1,0.3,0.1,0.4,0.1c0.2,0,0.3,0,0.3-0.1c0-0.2-0.7-0.1-0.7-0.6 C19.1,30,19.4,29.9,19.6,29.9z"></path> <path class="st10" d="M20.6,29.6V30h0.5v0.2h-0.5v0.6c0,0.2,0.1,0.2,0.2,0.2c0.1,0,0.2,0,0.3-0.1v0.2c-0.1,0-0.2,0.1-0.3,0.1 c-0.2,0-0.4-0.1-0.4-0.4v-0.6h-0.2V30h0.2v-0.4L20.6,29.6z"></path> <path class="st10" d="M22,29.9v0.2c-0.2,0-0.4,0.1-0.5,0.3v0.7h-0.2V30h0.2v0.2C21.6,30,21.8,29.9,22,29.9z"></path> <path class="st10" d="M23.2,31C23.3,31,23.3,31,23.2,31l0.1,0.1c0,0-0.1,0-0.1,0c-0.1,0-0.2,0-0.2-0.1c-0.1,0.1-0.3,0.2-0.5,0.2 c-0.2,0-0.4-0.1-0.4-0.4c0-0.3,0.3-0.4,0.5-0.4c0.1,0,0.2,0,0.3,0v0c0-0.2-0.1-0.3-0.3-0.3c-0.2,0-0.3,0-0.4,0.1V30 c0.1,0,0.3-0.1,0.4-0.1c0.3,0,0.5,0.2,0.5,0.5L23.2,31C23.1,31,23.2,31,23.2,31z M22.6,31c0.1,0,0.3-0.1,0.4-0.2v-0.2 c-0.1,0-0.2,0-0.3,0c-0.2,0-0.4,0.1-0.4,0.2C22.3,30.9,22.4,31,22.6,31z"></path> <path class="st10" d="M24.1,29.9c0.1,0,0.3,0,0.4,0.1v0.2c-0.1-0.1-0.2-0.1-0.3-0.1c-0.2,0-0.5,0.1-0.5,0.4c0,0.3,0.2,0.4,0.5,0.4 c0.1,0,0.3,0,0.4-0.1v0.2c-0.1,0.1-0.2,0.1-0.4,0.1c-0.3,0-0.6-0.2-0.6-0.6C23.4,30.1,23.8,29.9,24.1,29.9z"></path> <path class="st10" d="M25,29.6V30h0.5v0.2H25v0.6c0,0.2,0.1,0.2,0.2,0.2c0.1,0,0.2,0,0.3-0.1v0.2c-0.1,0-0.2,0.1-0.3,0.1 c-0.2,0-0.4-0.1-0.4-0.4v-0.6h-0.2V30h0.2v-0.4L25,29.6z"></path> </g> </g> </svg> 