<?xml version="1.0" encoding="UTF-8"?> <!-- Generator: Adobe Illustrator 21.0.0, SVG Export Plug-In . SVG Version: 6.00 Build 0) --> <svg xmlns="http://www.w3.org/2000/svg" xmlns:xlink="http://www.w3.org/1999/xlink" id="Слой_1" x="0px" y="0px" viewBox="0 0 50 50" style="enable-background:new 0 0 50 50;" xml:space="preserve"> <style type="text/css"> .st0{display:none;opacity:0.75;} .st1{display:inline;fill:#FA6FF5;} .st2{display:none;opacity:0.75;fill:url(#SVGID_1_);} .st3{display:none;opacity:0.75;fill:url(#SVGID_2_);} .st4{display:none;opacity:0.75;fill:url(#SVGID_3_);} .st5{display:none;opacity:0.75;fill:url(#SVGID_4_);} .st6{display:none;opacity:0.75;fill:url(#SVGID_5_);} .st7{fill:#FFDD61;} .st8{display:none;} .st9{display:inline;fill:#FFFFFF;} .st10{display:none;opacity:0.5;fill:url(#SVGID_6_);} </style> <g> <g class="st0"> <path class="st1" d="M29.4-2.3c2.9,0,5.9,0.3,9,1c5.4,1.2,9.6,4,12.3,8.1c2.4,3.6,3.4,8.1,2.9,12.5c-0.4,3.9-2,7.4-4.5,10 c-2.7,2.8-6.3,4.3-10.4,4.3c-0.4,0-0.8,0-1.2,0c-1.1-0.1-2.3-0.1-3.3-0.1c-10.7,0-15.3,3.9-21.1,8.8l-0.5,0.4 c-2.3,2-5.2,3.1-8.2,3.1c-2,0-3.9-0.5-5.5-1.4c-1.7-1-3.2-2.4-4.2-4.2c-1.6-2.7-2.1-6.2-1.6-10.2c0.6-4.6,2.5-9.7,5.8-15.2 c0,0,2.5-4.3,7.5-8.5c2.9-2.5,6.1-4.4,9.5-5.9C20.3-1.4,24.8-2.3,29.4-2.3L29.4-2.3z M29.4-2.4C8.9-2.4-1,14.7-1,14.7 c-12.1,20.4-3.6,31.2,5.6,31.2c2.9,0,5.8-1,8.2-3.1c6-5.1,10.5-9.2,21.5-9.2c1,0,2.1,0,3.3,0.1c0.4,0,0.8,0,1.2,0 c18.5,0,21.7-30.2-0.4-35.1C35.2-2.1,32.2-2.4,29.4-2.4L29.4-2.4z"></path> </g> <linearGradient id="SVGID_1_" gradientUnits="userSpaceOnUse" x1="-5.1635" y1="20.9637" x2="49.4014" y2="20.9637"> <stop offset="0" style="stop-color:#FA6FF5"></stop> <stop offset="1" style="stop-color:#940E8C"></stop> </linearGradient> <path class="st2" d="M0.2,14.5c0,0,11.5-20.2,35.4-14.7c20.2,4.6,16.8,33.2-0.7,32c-12-0.8-16.3,3.2-22.2,8.3 C3.3,48.2-14,38.9,0.2,14.5z"></path> <linearGradient id="SVGID_2_" gradientUnits="userSpaceOnUse" x1="20.5264" y1="44.8545" x2="24.2362" y2="41.1446"> <stop offset="0" style="stop-color:#260B62"></stop> <stop offset="1" style="stop-color:#531499"></stop> </linearGradient> <circle class="st3" cx="22.4" cy="43" r="2.6"></circle> <linearGradient id="SVGID_3_" gradientUnits="userSpaceOnUse" x1="50.2917" y1="37.912" x2="55.8566" y2="32.3471"> <stop offset="0" style="stop-color:#FA6FF5"></stop> <stop offset="1" style="stop-color:#940E8C"></stop> </linearGradient> <circle class="st4" cx="53.1" cy="35.1" r="3.9"></circle> <linearGradient id="SVGID_4_" gradientUnits="userSpaceOnUse" x1="7.0256" y1="1.167" x2="8.8806" y2="-0.688"> <stop offset="0" style="stop-color:#531499"></stop> <stop offset="1" style="stop-color:#260B62"></stop> </linearGradient> <circle class="st5" cx="8" cy="0.2" r="1.3"></circle> <linearGradient id="SVGID_5_" gradientUnits="userSpaceOnUse" x1="-2028.3364" y1="67.4623" x2="-1973.7715" y2="67.4623" gradientTransform="matrix(-1 0 0 -1 -1975 90)"> <stop offset="0" style="stop-color:#260B62"></stop> <stop offset="1" style="stop-color:#531499"></stop> </linearGradient> <path class="st6" d="M4.3,12.2c-4.5,5.6-6.4,13.8-5.1,21c1.6,8.6,12,11.4,19.4,4.9c7.4-6.5,11.2-6,19.3-5.4 c7.3,0.6,12.7-1.8,14.7-6.1c2.1-4.3-0.3-10-6.9-9.5c-5.5,0.5-10.2-2.3-12.1-7.8C31.9,4.1,25.6,3,20.8,3.5 C16.1,4.1,9.2,6.1,4.3,12.2z"></path> <path class="st7" d="M16.8,11.8C1.1,17.2-5.7,34.1,11.4,35.5c14.9,1.2,18.7,8.4,26.7,7.3c10.6-1.4,10.5-16.3,10.5-16.3 C48.9,8,33.6,5.9,16.8,11.8z"></path> <g class="st8"> <path class="st9" d="M19.4,19.3c0.5,0,1.1,0.1,1.4,0.3v0.9c-0.4-0.3-0.9-0.4-1.4-0.4c-0.5,0-0.7,0.1-0.7,0.4c0,0.8,2.4,0.5,2.4,2 c0,1-0.8,1.3-1.7,1.3c-0.6,0-1.2-0.1-1.6-0.4v-0.9c0.5,0.3,1.1,0.5,1.6,0.5c0.5,0,0.8-0.1,0.8-0.4c0-0.8-2.4-0.5-2.4-2.1 C17.8,19.7,18.5,19.3,19.4,19.3z"></path> <path class="st9" d="M22.7,19.7v1.1h1v0.7h-1v1.2c0,0.3,0.2,0.5,0.5,0.5c0.2,0,0.4,0,0.5-0.1v0.7c-0.2,0.1-0.5,0.1-0.8,0.1 c-0.6,0-1.1-0.3-1.1-1v-1.4h-0.5v-0.7h0.5v-0.9L22.7,19.7z"></path> <path class="st9" d="M26.4,20.7h0.9L26,24.1c-0.3,0.8-0.8,1.1-1.3,1.1c-0.2,0-0.3,0-0.5-0.1v-0.7c0.1,0,0.2,0,0.4,0 c0.3,0,0.6-0.2,0.7-0.7l0,0l-1.4-3.1h0.9l0.9,2L26.4,20.7z"></path> <path class="st9" d="M28.7,19.2v4.6h-0.9v-4.6H28.7z"></path> <path class="st9" d="M30.8,20.7c1.3,0,1.7,1,1.5,1.9h-2.1c0.1,0.4,0.6,0.6,1.1,0.6c0.3,0,0.7-0.1,0.9-0.2v0.7 c-0.3,0.1-0.7,0.2-1.1,0.2c-1,0-1.8-0.5-1.8-1.6C29.3,21.1,30.1,20.7,30.8,20.7z M30.8,21.3c-0.4,0-0.7,0.2-0.7,0.6h1.3 C31.5,21.8,31.4,21.3,30.8,21.3z"></path> </g> <g class="st8"> <path class="st9" d="M17.5,27.6l0.8-1.8h0.2l0.8,1.8h-0.2l-0.2-0.4h-0.9l-0.2,0.4H17.5z M18,27h0.8l-0.4-0.9c0,0,0,0,0-0.1 c0,0,0,0,0,0.1L18,27z"></path> <path class="st9" d="M19.7,25.9v0.7c0.1-0.1,0.2-0.2,0.5-0.2c0.3,0,0.6,0.3,0.6,0.6c0,0.4-0.3,0.6-0.6,0.6c-0.2,0-0.4-0.1-0.5-0.2 v0.2h-0.2v-1.8H19.7z M20.1,26.6c-0.2,0-0.4,0.1-0.4,0.3v0.3c0.1,0.2,0.2,0.3,0.4,0.3c0.2,0,0.4-0.2,0.4-0.4 C20.6,26.7,20.4,26.6,20.1,26.6z"></path> <path class="st9" d="M21.5,26.4c0.2,0,0.3,0,0.4,0.1v0.2c-0.1-0.1-0.3-0.1-0.4-0.1c-0.1,0-0.3,0-0.3,0.2c0,0.3,0.8,0.2,0.8,0.6 c0,0.3-0.2,0.3-0.5,0.3c-0.2,0-0.4,0-0.5-0.1v-0.2c0.1,0.1,0.3,0.1,0.5,0.1c0.2,0,0.3,0,0.3-0.1c0-0.3-0.8-0.2-0.8-0.6 C21,26.5,21.2,26.4,21.5,26.4z"></path> <path class="st9" d="M22.5,26v0.4H23v0.2h-0.5v0.6c0,0.2,0.1,0.2,0.3,0.2c0.1,0,0.2,0,0.3-0.1v0.2c-0.1,0-0.2,0.1-0.3,0.1 c-0.2,0-0.4-0.1-0.4-0.4v-0.7h-0.2v-0.2h0.2V26L22.5,26z"></path> <path class="st9" d="M24,26.4v0.2c-0.2,0-0.4,0.1-0.5,0.3v0.8h-0.2v-1.2h0.2v0.2C23.5,26.5,23.8,26.4,24,26.4z"></path> <path class="st9" d="M25.3,27.5C25.3,27.5,25.3,27.5,25.3,27.5l0.1,0.1c0,0-0.1,0-0.2,0c-0.1,0-0.2,0-0.2-0.1 c-0.1,0.1-0.3,0.2-0.5,0.2c-0.2,0-0.4-0.1-0.4-0.4c0-0.3,0.3-0.4,0.5-0.4c0.1,0,0.2,0,0.3,0v0c0-0.2-0.1-0.3-0.3-0.3 c-0.2,0-0.3,0-0.4,0.1v-0.2c0.1,0,0.3-0.1,0.5-0.1c0.3,0,0.5,0.2,0.5,0.5L25.3,27.5C25.2,27.4,25.2,27.5,25.3,27.5z M24.5,27.5 c0.2,0,0.3-0.1,0.4-0.2v-0.2c-0.1,0-0.2,0-0.3,0c-0.2,0-0.4,0.1-0.4,0.2C24.3,27.4,24.4,27.5,24.5,27.5z"></path> <path class="st9" d="M26.1,26.4c0.1,0,0.3,0,0.4,0.1v0.2c-0.1-0.1-0.2-0.1-0.3-0.1c-0.2,0-0.5,0.1-0.5,0.4c0,0.3,0.2,0.4,0.5,0.4 c0.1,0,0.3,0,0.4-0.1v0.2c-0.1,0.1-0.2,0.1-0.4,0.1c-0.3,0-0.6-0.2-0.6-0.6C25.5,26.6,25.8,26.4,26.1,26.4z"></path> <path class="st9" d="M27.1,26v0.4h0.5v0.2h-0.5v0.6c0,0.2,0.1,0.2,0.3,0.2c0.1,0,0.2,0,0.3-0.1v0.2c-0.1,0-0.2,0.1-0.3,0.1 c-0.2,0-0.4-0.1-0.4-0.4v-0.7h-0.2v-0.2h0.2V26L27.1,26z"></path> </g> <linearGradient id="SVGID_6_" gradientUnits="userSpaceOnUse" x1="5.5548" y1="36.4785" x2="12.9746" y2="29.0587"> <stop offset="0" style="stop-color:#940E8C"></stop> <stop offset="1" style="stop-color:#FA6FF5"></stop> </linearGradient> <circle class="st10" cx="9.3" cy="32.8" r="5.2"></circle> </g> </svg> 