<?xml version="1.0" encoding="UTF-8"?> <!-- Generator: Adobe Illustrator 21.0.0, SVG Export Plug-In . SVG Version: 6.00 Build 0) --> <svg xmlns="http://www.w3.org/2000/svg" xmlns:xlink="http://www.w3.org/1999/xlink" id="Слой_1" x="0px" y="0px" viewBox="0 0 50 50" style="enable-background:new 0 0 50 50;" xml:space="preserve"> <style type="text/css"> .st0{display:none;opacity:0.75;} .st1{display:inline;fill:#FA6FF5;} .st2{display:none;opacity:0.75;fill:url(#SVGID_1_);} .st3{display:none;opacity:0.75;fill:url(#SVGID_2_);} .st4{display:none;opacity:0.75;fill:url(#SVGID_3_);} .st5{display:none;opacity:0.75;fill:url(#SVGID_4_);} .st6{fill:#FFDD61;} .st7{display:none;} .st8{display:inline;fill:#FFFFFF;} .st9{display:none;opacity:0.5;fill:url(#SVGID_5_);} .st10{display:none;opacity:0.5;fill:url(#SVGID_6_);} </style> <g> <g class="st0"> <path class="st1" d="M43.1,4.6c1.6,0,3.1,0.2,4.6,0.6c3.1,0.9,5.6,2.5,7.4,4.9c1.5,1.9,2.5,4.4,3.1,7.3c1,4.7,0.4,9.1,0.2,10.4 c0,0,0,0.1,0,0.1l0,0c-1,6.7-3.5,11.7-7.3,15c-3.5,3-8.2,4.5-13.9,4.5c-7.2,0-15.9-2.4-25.2-7.1c-5.7-2.9-10.7-7-13.9-11.6 c-1.5-2.2-2.6-4.4-3.2-6.5c-0.6-2.1-0.7-4.1-0.3-5.9c1.1-4.7,5.6-7.2,12.8-7.2c0.7,0,1.5,0,2.3,0.1c1.6,0.1,3.1,0.2,4.6,0.2 c8.3,0,14-1.6,19-3C36.8,5.5,39.9,4.6,43.1,4.6L43.1,4.6z M43.1,4.5c-7.6,0-14.5,4.8-28.8,4.8c-1.4,0-3,0-4.6-0.2 C8.9,9.2,8.1,9.1,7.4,9.1c-21,0-15,21.7,4.5,31.4c8.9,4.4,17.7,7.1,25.2,7.1c10.9,0,19.3-5.6,21.4-19.7c0,0,3.3-18.9-10.8-22.8 C46.1,4.7,44.6,4.5,43.1,4.5L43.1,4.5z"></path> </g> <linearGradient id="SVGID_1_" gradientUnits="userSpaceOnUse" x1="30.8462" y1="53" x2="30.8462" y2="-2.9999"> <stop offset="0" style="stop-color:#940E8C"></stop> <stop offset="1" style="stop-color:#FA6FF5"></stop> </linearGradient> <path class="st2" d="M58.4,14.8C53.6,7.6,45,6.5,39.8,7.2c-5.2,0.7-11,0.4-15.4-5.4C19.9-4,11.9-4.5,7.5,0.1 C2.8,5.2-3.7,17.5,4.9,31.8c5.5,9.1,13.9,15.1,21.2,18.2c7.3,3.1,13.4,4.3,17,1.2c3.6-3.1,1.5-6.6,0.8-8.2c-0.7-1.6-1.9-6.3,6.5-8 C60.3,33,63.9,22.9,58.4,14.8z"></path> <linearGradient id="SVGID_2_" gradientUnits="userSpaceOnUse" x1="-207.6246" y1="103.3643" x2="-207.6246" y2="66.749" gradientTransform="matrix(1 0 0 1 241.1631 -61.1334)"> <stop offset="0" style="stop-color:#260B62"></stop> <stop offset="1" style="stop-color:#531499"></stop> </linearGradient> <path class="st3" d="M48.6,12.4c-6.6-4.9-14.5-6.7-20.7-6.8C21.7,5.5,17,6.5,15.2,9.7c-1.7,3.3,0.8,5.2,1.8,6.1 c1,0.9,3.2,3.9-2.4,7.5c-6.6,4.3-6.3,12.6,0,16.7c5.6,3.7,12.2,2,15.8,0c3.6-2,7.8-3.5,12.8-0.6c4.9,2.9,10.9,0.9,12.7-3.7 C57.9,30.8,59,20.1,48.6,12.4z"></path> <linearGradient id="SVGID_3_" gradientUnits="userSpaceOnUse" x1="34.3271" y1="49.5192" x2="38.1346" y2="45.7117"> <stop offset="0" style="stop-color:#260B62"></stop> <stop offset="1" style="stop-color:#531499"></stop> </linearGradient> <circle class="st4" cx="36.2" cy="47.6" r="2.7"></circle> <linearGradient id="SVGID_4_" gradientUnits="userSpaceOnUse" x1="36.6251" y1="3.8751" x2="38.5289" y2="1.9714"> <stop offset="0" style="stop-color:#531499"></stop> <stop offset="1" style="stop-color:#260B62"></stop> </linearGradient> <circle class="st5" cx="37.6" cy="2.9" r="1.3"></circle> <path class="st6" d="M40.1,10.1c-7.6-2.2-12.5,4.1-27.2,3C-4.1,12,0,29.1,14.4,36.7C30,44.7,45.3,45,47.8,27.2 C47.8,27.2,50.2,13,40.1,10.1z"></path> <g class="st7"> <path class="st8" d="M21.9,21.6c0.5,0,1.1,0.1,1.5,0.3v0.9c-0.4-0.3-0.9-0.4-1.4-0.4c-0.5,0-0.7,0.1-0.7,0.4 c0,0.8,2.5,0.5,2.5,2.1c0,1-0.8,1.3-1.8,1.3c-0.6,0-1.2-0.1-1.7-0.4V25c0.5,0.3,1.1,0.5,1.6,0.5c0.5,0,0.8-0.1,0.8-0.4 c0-0.8-2.5-0.5-2.5-2.1C20.2,22.1,21,21.6,21.9,21.6z"></path> <path class="st8" d="M25.3,22v1.1h1v0.8h-1v1.2c0,0.3,0.2,0.5,0.5,0.5c0.2,0,0.4,0,0.6-0.1v0.7c-0.2,0.1-0.5,0.1-0.8,0.1 c-0.6,0-1.1-0.3-1.1-1v-1.4h-0.5v-0.8h0.5v-0.9L25.3,22z"></path> <path class="st8" d="M29.1,23.2H30l-1.4,3.5c-0.3,0.9-0.8,1.1-1.3,1.1c-0.2,0-0.3,0-0.5-0.1V27c0.1,0,0.2,0,0.4,0 c0.3,0,0.6-0.2,0.7-0.7l0,0l-1.5-3.1h0.9l0.9,2.1L29.1,23.2z"></path> <path class="st8" d="M31.4,21.5v4.7h-0.9v-4.7H31.4z"></path> <path class="st8" d="M33.6,23.1c1.3,0,1.7,1,1.5,1.9h-2.2c0.1,0.5,0.6,0.6,1.1,0.6c0.4,0,0.7-0.1,0.9-0.2v0.7 c-0.3,0.1-0.7,0.2-1.1,0.2c-1,0-1.8-0.6-1.8-1.6C32,23.5,32.9,23.1,33.6,23.1z M33.6,23.8c-0.4,0-0.7,0.2-0.7,0.7h1.4 C34.3,24.2,34.2,23.8,33.6,23.8z"></path> </g> <g class="st7"> <path class="st8" d="M19.9,30.2l0.8-1.8H21l0.8,1.8h-0.2l-0.2-0.4h-1l-0.2,0.4H19.9z M20.4,29.6h0.8l-0.4-0.9c0,0,0,0,0-0.1 c0,0,0,0,0,0.1L20.4,29.6z"></path> <path class="st8" d="M22.2,28.4v0.8c0.1-0.1,0.2-0.2,0.5-0.2c0.4,0,0.6,0.3,0.6,0.7s-0.3,0.7-0.6,0.7c-0.2,0-0.4-0.1-0.5-0.2v0.2 H22v-1.8H22.2z M22.6,29.1c-0.2,0-0.4,0.1-0.5,0.3v0.3c0.1,0.2,0.2,0.3,0.5,0.3c0.2,0,0.4-0.2,0.4-0.5 C23.1,29.3,22.9,29.1,22.6,29.1z"></path> <path class="st8" d="M24,29c0.2,0,0.3,0,0.4,0.1v0.2c-0.1-0.1-0.3-0.1-0.4-0.1c-0.1,0-0.3,0-0.3,0.2c0,0.3,0.8,0.2,0.8,0.6 c0,0.3-0.2,0.3-0.5,0.3c-0.2,0-0.4,0-0.5-0.1v-0.2c0.1,0.1,0.3,0.1,0.5,0.1c0.2,0,0.3,0,0.3-0.2c0-0.3-0.8-0.2-0.8-0.6 C23.5,29.1,23.7,29,24,29z"></path> <path class="st8" d="M25.1,28.5V29h0.5v0.2h-0.5v0.6c0,0.2,0.1,0.2,0.3,0.2c0.1,0,0.2,0,0.3-0.1v0.2c-0.1,0-0.2,0.1-0.3,0.1 c-0.2,0-0.4-0.1-0.4-0.4v-0.7h-0.2V29h0.2v-0.4L25.1,28.5z"></path> <path class="st8" d="M26.6,29v0.2c-0.2,0-0.4,0.1-0.5,0.3v0.8h-0.2V29H26v0.2C26.1,29,26.3,28.9,26.6,29z"></path> <path class="st8" d="M27.9,30.1C27.9,30.1,27.9,30.1,27.9,30.1l0.1,0.1c0,0-0.1,0-0.2,0c-0.1,0-0.2,0-0.2-0.1 c-0.1,0.1-0.3,0.2-0.5,0.2c-0.2,0-0.4-0.1-0.4-0.4c0-0.3,0.3-0.4,0.6-0.4c0.1,0,0.2,0,0.3,0v0c0-0.2-0.1-0.3-0.4-0.3 c-0.2,0-0.3,0-0.5,0.1V29c0.1,0,0.3-0.1,0.5-0.1c0.3,0,0.5,0.2,0.5,0.5L27.9,30.1C27.8,30,27.8,30.1,27.9,30.1z M27.1,30.1 c0.2,0,0.3-0.1,0.4-0.2v-0.2c-0.1,0-0.2,0-0.3,0c-0.2,0-0.4,0.1-0.4,0.2C26.9,30,27,30.1,27.1,30.1z"></path> <path class="st8" d="M28.8,29c0.1,0,0.3,0,0.4,0.1v0.2c-0.1-0.1-0.2-0.1-0.4-0.1c-0.2,0-0.5,0.1-0.5,0.5c0,0.3,0.2,0.5,0.5,0.5 c0.1,0,0.3,0,0.4-0.1v0.2c-0.1,0.1-0.2,0.1-0.4,0.1c-0.3,0-0.7-0.2-0.7-0.6C28.1,29.2,28.4,29,28.8,29z"></path> <path class="st8" d="M29.7,28.5V29h0.5v0.2h-0.5v0.6c0,0.2,0.1,0.2,0.3,0.2c0.1,0,0.2,0,0.3-0.1v0.2c-0.1,0-0.2,0.1-0.3,0.1 c-0.2,0-0.4-0.1-0.4-0.4v-0.7h-0.2V29h0.2v-0.4L29.7,28.5z"></path> </g> <linearGradient id="SVGID_5_" gradientUnits="userSpaceOnUse" x1="1.3463" y1="-1571.1926" x2="8.9613" y2="-1578.8076" gradientTransform="matrix(-1 0 0 -1 50 -1550)"> <stop offset="0" style="stop-color:#940E8C"></stop> <stop offset="1" style="stop-color:#FA6FF5"></stop> </linearGradient> <circle class="st9" cx="44.8" cy="25" r="5.4"></circle> <linearGradient id="SVGID_6_" gradientUnits="userSpaceOnUse" x1="3.654" y1="13.9616" x2="11.7309" y2="13.9616"> <stop offset="0" style="stop-color:#940E8C"></stop> <stop offset="1" style="stop-color:#FA6FF5"></stop> </linearGradient> <circle class="st10" cx="7.7" cy="14" r="4"></circle> </g> </svg> 